<svg width="104" height="76" viewBox="0 0 104 76" fill="none" xmlns="http://www.w3.org/2000/svg">
<path d="M23.2657 68.9982C41.6211 78.3328 71.3788 78.335 89.7343 68.9982C108.09 59.6615 108.087 44.5283 89.7343 35.1937C71.381 25.8592 41.6211 25.8592 23.2657 35.1937C4.91033 44.5283 4.91252 59.6658 23.2657 68.9982Z" fill="#F0F0F0"/>
<path d="M93.6314 50.7194C93.6314 50.7194 93.8614 49.5934 95.7279 48.7232C97.5439 47.8702 98.591 48.0685 99.8375 47.5801C101.084 47.0918 100.188 44.7971 96.7706 45.8165C93.6402 46.7506 93.3225 49.3886 93.3225 49.3886L93.6314 50.7194Z" fill="#BA68C8"/>
<path opacity="0.2" d="M93.6314 50.7194C93.6314 50.7194 93.8614 49.5934 95.7279 48.7232C97.5439 47.8702 98.591 48.0685 99.8375 47.5801C101.084 47.0918 100.188 44.7971 96.7706 45.8165C93.6402 46.7506 93.3225 49.3886 93.3225 49.3886L93.6314 50.7194Z" fill="black"/>
<path d="M93.3029 50.2971C93.2905 50.2991 93.2779 50.2991 93.2656 50.2971C93.2506 50.2921 93.2369 50.2842 93.225 50.274C93.2132 50.2638 93.2035 50.2514 93.1966 50.2375C93.1897 50.2236 93.1856 50.2086 93.1847 50.1932C93.1838 50.1778 93.1859 50.1624 93.1911 50.1478C93.6293 48.928 94.7246 47.8019 96.1529 47.1152C97.9843 46.243 99.2877 46.5202 99.3425 46.533C99.3733 46.5398 99.4 46.5582 99.4169 46.5842C99.4337 46.6102 99.4392 46.6417 99.4323 46.6716C99.4253 46.7016 99.4064 46.7277 99.3797 46.7441C99.353 46.7605 99.3207 46.7659 99.2899 46.7591C99.2767 46.7591 98.0084 46.4904 96.258 47.3242C94.8889 47.9768 93.8264 49.0602 93.4102 50.2246C93.4011 50.2453 93.3863 50.2631 93.3673 50.2759C93.3483 50.2888 93.3259 50.2961 93.3029 50.2971Z" fill="#FAFAFA"/>
<path d="M93.362 49.3161C93.362 49.3161 93.581 48.6763 94.4244 47.4245C95.879 45.2534 98.2515 44.3044 99.2899 43.0632C100.407 41.7239 98.4749 40.8964 96.7378 41.3571C95.7432 41.6258 94.8363 42.5087 94.3609 43.1037C93.3538 44.3977 92.7767 45.9602 92.707 47.5823L93.362 49.3161Z" fill="#BA68C8"/>
<path d="M93.0356 49.3673C93.004 49.3662 92.9742 49.353 92.9524 49.3307C92.9307 49.3084 92.9189 49.2786 92.9195 49.2479C93.021 47.8391 93.4327 46.4681 94.1265 45.2278C95.4409 42.931 97.3906 42.1142 97.4738 42.0801C97.5016 42.0737 97.5307 42.0772 97.5561 42.0898C97.5814 42.1024 97.6014 42.1233 97.6124 42.1488C97.6234 42.1744 97.6248 42.2029 97.6163 42.2294C97.6078 42.2558 97.5899 42.2785 97.5658 42.2933C96.1937 42.9621 95.0657 44.0252 94.3346 45.3387C93.6587 46.5459 93.2574 47.8806 93.1583 49.2521C93.158 49.2675 93.1546 49.2827 93.1483 49.2969C93.1419 49.311 93.1328 49.3238 93.1214 49.3345C93.11 49.3451 93.0966 49.3536 93.0819 49.3592C93.0671 49.3648 93.0514 49.3676 93.0356 49.3673Z" fill="#FAFAFA"/>
<path d="M29.336 51.2355C27.7609 50.2054 27.6908 47.433 27.9187 45.6906C28.2801 42.9182 26.8233 42.2784 26.0807 43.5025C25.7214 44.0975 25.2702 45.3899 25.3206 46.8956C25.4016 49.2543 26.4509 52.0757 28.9921 53.0994L29.336 51.2355Z" fill="#BA68C8"/>
<path opacity="0.2" d="M29.336 51.2355C27.7609 50.2054 27.6908 47.433 27.9187 45.6906C28.2801 42.9182 26.8233 42.2784 26.0807 43.5025C25.7214 44.0975 25.2702 45.3899 25.3206 46.8956C25.4016 49.2543 26.4509 52.0757 28.9921 53.0994L29.336 51.2355Z" fill="black"/>
<path d="M29.0118 52.9416C28.986 52.9415 28.9612 52.9324 28.9417 52.916C26.2757 50.6959 25.8573 46.7313 26.5977 43.9824C26.6013 43.9684 26.6077 43.9552 26.6165 43.9436C26.6254 43.932 26.6364 43.9222 26.6492 43.9148C26.6619 43.9073 26.676 43.9024 26.6906 43.9003C26.7053 43.8982 26.7202 43.8989 26.7346 43.9024C26.749 43.9059 26.7625 43.9121 26.7745 43.9207C26.7864 43.9293 26.7964 43.9401 26.8041 43.9525C26.8117 43.9648 26.8167 43.9786 26.8189 43.9928C26.8211 44.0071 26.8204 44.0217 26.8168 44.0357C26.0939 46.7207 26.4948 50.5936 29.0907 52.7539C29.1016 52.7629 29.1106 52.774 29.1171 52.7864C29.1236 52.7988 29.1275 52.8124 29.1285 52.8263C29.1295 52.8402 29.1276 52.8542 29.123 52.8674C29.1184 52.8806 29.1111 52.8928 29.1016 52.9032C29.091 52.9162 29.0772 52.9265 29.0616 52.9332C29.0459 52.9399 29.0288 52.9428 29.0118 52.9416Z" fill="#FAFAFA"/>
<path d="M31.7041 56.3539C30.3328 57.3136 27.1804 58.1432 26.1552 56.4989C25.2023 54.9698 25.8397 54.3023 23.9054 54.5667C21.9711 54.8312 21.5264 53.3682 21.9842 52.1312C22.4421 50.8943 20.5362 49.105 21.9273 47.7103C23.3183 46.3155 24.1179 49.2159 24.9241 49.5294C25.7302 49.8429 26.2231 49.1669 27.1519 49.6595C28.0808 50.1521 28.1706 52.1675 29.0753 52.2059C30.5562 52.272 33.0492 52.2613 33.2376 53.5473C33.4259 54.8333 31.7041 56.3539 31.7041 56.3539Z" fill="#BA68C8"/>
<path d="M32.2715 55.7908H32.2605C25.0862 55.0614 22.3106 48.9663 22.1398 48.0791C22.1372 48.0651 22.1374 48.0508 22.1406 48.0369C22.1437 48.023 22.1496 48.0098 22.1579 47.9981C22.1662 47.9864 22.1769 47.9765 22.1892 47.9688C22.2015 47.9611 22.2152 47.9558 22.2296 47.9533C22.244 47.9508 22.2587 47.9511 22.273 47.9541C22.2873 47.9571 22.3008 47.9629 22.3128 47.971C22.3248 47.9791 22.335 47.9894 22.3429 48.0014C22.3508 48.0134 22.3562 48.0267 22.3588 48.0408C22.5253 48.913 25.2439 54.8652 32.2868 55.5796C32.3012 55.581 32.3152 55.5851 32.328 55.5917C32.3408 55.5983 32.3521 55.6074 32.3612 55.6183C32.3704 55.6292 32.3773 55.6417 32.3814 55.6552C32.3856 55.6688 32.3869 55.6829 32.3854 55.6969C32.3816 55.7235 32.3679 55.7478 32.3469 55.7651C32.3259 55.7824 32.299 55.7915 32.2715 55.7908Z" fill="#FAFAFA"/>
<path d="M24.4268 53.0611C23.974 53.061 23.522 53.0254 23.0752 52.9544C23.0467 52.9492 23.0216 52.9333 23.0052 52.9102C22.9888 52.887 22.9824 52.8584 22.9875 52.8307C22.9899 52.8169 22.9951 52.8037 23.0028 52.7918C23.0105 52.78 23.0206 52.7698 23.0325 52.7618C23.0443 52.7539 23.0577 52.7483 23.0718 52.7455C23.0859 52.7427 23.1005 52.7427 23.1146 52.7454C23.9328 52.8766 24.7675 52.8766 25.5856 52.7454C25.6144 52.7397 25.6443 52.7452 25.6689 52.7608C25.6935 52.7764 25.7108 52.8007 25.7171 52.8286C25.72 52.8423 25.72 52.8565 25.7173 52.8702C25.7146 52.884 25.7091 52.8971 25.7011 52.9087C25.6932 52.9204 25.683 52.9305 25.6711 52.9383C25.6591 52.9462 25.6457 52.9516 25.6316 52.9544C25.2349 53.0302 24.8311 53.0659 24.4268 53.0611Z" fill="#FAFAFA"/>
<path d="M26.567 53.6987H26.543C26.5149 53.6926 26.4904 53.6759 26.4748 53.6524C26.4593 53.6288 26.4538 53.6003 26.4597 53.5729C26.681 52.6232 26.7336 51.6437 26.6152 50.6767C26.6106 50.6485 26.6177 50.6195 26.6349 50.5964C26.6522 50.5732 26.6782 50.5576 26.7072 50.5531C26.7363 50.5485 26.766 50.5554 26.7898 50.5722C26.8137 50.589 26.8297 50.6143 26.8343 50.6426C26.9613 51.6392 26.9079 52.6497 26.6766 53.6283C26.6686 53.65 26.6536 53.6686 26.6338 53.6813C26.6141 53.6939 26.5907 53.7001 26.567 53.6987Z" fill="#FAFAFA"/>
<path d="M13.1406 45.3537L16.5799 43.4215C16.7454 43.3405 16.9281 43.2983 17.1133 43.2983C17.2986 43.2983 17.4812 43.3405 17.6467 43.4215L18.0849 43.6668C18.2406 43.7651 18.3702 43.8979 18.4631 44.0543C18.556 44.2107 18.6095 44.3863 18.6194 44.5667V48.4311C18.6092 48.6114 18.5555 48.7869 18.4626 48.9432C18.3697 49.0996 18.2403 49.2325 18.0849 49.331L14.6477 51.2632C14.4822 51.3442 14.2996 51.3864 14.1143 51.3864C13.9291 51.3864 13.7464 51.3442 13.5809 51.2632L13.1428 51.018C12.9875 50.9194 12.8583 50.7865 12.7658 50.6301C12.6733 50.4737 12.6201 50.2982 12.6104 50.118V46.2536C12.6203 46.0737 12.6734 45.8986 12.7655 45.7423C12.8576 45.5859 12.9861 45.4529 13.1406 45.3537Z" fill="#BA68C8"/>
<path opacity="0.5" d="M13.1406 45.3537L16.5799 43.4215C16.7454 43.3405 16.9281 43.2983 17.1133 43.2983C17.2986 43.2983 17.4812 43.3405 17.6467 43.4215L18.0849 43.6668C18.2406 43.7651 18.3702 43.8979 18.4631 44.0543C18.556 44.2107 18.6095 44.3863 18.6194 44.5667V48.4311C18.6092 48.6114 18.5555 48.7869 18.4626 48.9432C18.3697 49.0996 18.2403 49.2325 18.0849 49.331L14.6477 51.2632C14.4822 51.3442 14.2996 51.3864 14.1143 51.3864C13.9291 51.3864 13.7464 51.3442 13.5809 51.2632L13.1428 51.018C12.9875 50.9194 12.8583 50.7865 12.7658 50.6301C12.6733 50.4737 12.6201 50.2982 12.6104 50.118V46.2536C12.6203 46.0737 12.6734 45.8986 12.7655 45.7423C12.8576 45.5859 12.9861 45.4529 13.1406 45.3537Z" fill="#FAFAFA"/>
<path d="M18.615 44.5667C18.615 44.234 18.3762 44.0996 18.0805 44.266L14.6433 46.1982C14.4879 46.2967 14.3585 46.4296 14.2656 46.586C14.1727 46.7423 14.119 46.9178 14.1088 47.0981V50.9625C14.1088 51.293 14.3476 51.4274 14.6433 51.2632L18.0805 49.331C18.2359 49.2324 18.3653 49.0996 18.4582 48.9432C18.5511 48.7868 18.6048 48.6114 18.615 48.431V44.5667Z" fill="#BA68C8"/>
<path d="M12.6082 50.118C12.6172 50.299 12.6701 50.4753 12.7626 50.6325C12.8552 50.7897 12.9847 50.9232 13.1406 51.0222L13.5787 51.2675C13.729 51.3409 13.8936 51.3825 14.0617 51.3895C14.2297 51.3965 14.3973 51.3687 14.5535 51.308C14.3016 51.4018 14.1154 51.2632 14.1154 50.9668V47.0982C14.1212 46.9171 14.1756 46.7406 14.2731 46.5863L12.7704 45.7333C12.6748 45.8883 12.6213 46.0644 12.6148 46.2451L12.6082 50.118Z" fill="#BA68C8"/>
<path opacity="0.1" d="M12.6082 50.118C12.6172 50.299 12.6701 50.4753 12.7626 50.6325C12.8552 50.7897 12.9847 50.9232 13.1406 51.0222L13.5787 51.2675C13.729 51.3409 13.8936 51.3825 14.0617 51.3895C14.2297 51.3965 14.3973 51.3687 14.5535 51.308C14.3016 51.4018 14.1154 51.2632 14.1154 50.9668V47.0982C14.1212 46.9171 14.1756 46.7406 14.2731 46.5863L12.7704 45.7333C12.6748 45.8883 12.6213 46.0644 12.6148 46.2451L12.6082 50.118Z" fill="black"/>
<path d="M14.9062 47.3626L17.8307 45.7141C17.9074 45.6693 17.9709 45.7141 17.9709 45.793V47.7124C17.9684 47.7604 17.9544 47.8072 17.9301 47.849C17.9058 47.8908 17.8717 47.9265 17.8307 47.9533L14.9062 49.6147C14.8274 49.6595 14.7638 49.6147 14.7638 49.5336V47.6143C14.7649 47.5642 14.7784 47.5152 14.8032 47.4714C14.828 47.4275 14.8633 47.3902 14.9062 47.3626Z" fill="#FAFAFA"/>
<path d="M14.7638 47.4437L16.5098 47.996L17.9709 45.6331L16.558 48.1944L14.7638 47.4437Z" fill="#E0E0E0"/>
<path d="M13.1406 35.6011L16.5799 33.669C16.7451 33.5869 16.9279 33.5442 17.1133 33.5442C17.2987 33.5442 17.4815 33.5869 17.6467 33.669L18.0849 33.9142C18.2399 34.0129 18.3687 34.1459 18.4608 34.3023C18.553 34.4587 18.6058 34.6341 18.615 34.8142V38.6785C18.6051 38.8587 18.5516 39.034 18.4587 39.19C18.3657 39.3461 18.2361 39.4785 18.0805 39.5764L14.6434 41.5085C14.4782 41.5906 14.2954 41.6333 14.1099 41.6333C13.9245 41.6333 13.7417 41.5906 13.5765 41.5085L13.1384 41.2654C12.983 41.1656 12.854 41.0315 12.7619 40.874C12.6698 40.7165 12.6171 40.5401 12.6082 40.3591V36.5011C12.6184 36.321 12.6718 36.1457 12.7643 35.9894C12.8568 35.8331 12.9856 35.7001 13.1406 35.6011Z" fill="#BA68C8"/>
<path opacity="0.5" d="M13.1406 35.6011L16.5799 33.669C16.7451 33.5869 16.9279 33.5442 17.1133 33.5442C17.2987 33.5442 17.4815 33.5869 17.6467 33.669L18.0849 33.9142C18.2399 34.0129 18.3687 34.1459 18.4608 34.3023C18.553 34.4587 18.6058 34.6341 18.615 34.8142V38.6785C18.6051 38.8587 18.5516 39.034 18.4587 39.19C18.3657 39.3461 18.2361 39.4785 18.0805 39.5764L14.6434 41.5085C14.4782 41.5906 14.2954 41.6333 14.1099 41.6333C13.9245 41.6333 13.7417 41.5906 13.5765 41.5085L13.1384 41.2654C12.983 41.1656 12.854 41.0315 12.7619 40.874C12.6698 40.7165 12.6171 40.5401 12.6082 40.3591V36.5011C12.6184 36.321 12.6718 36.1457 12.7643 35.9894C12.8568 35.8331 12.9856 35.7001 13.1406 35.6011Z" fill="#FAFAFA"/>
<path d="M18.615 34.8141C18.615 34.4814 18.3762 34.3471 18.0805 34.5134L14.6433 36.4456C14.4876 36.5439 14.358 36.6767 14.2651 36.8331C14.1722 36.9896 14.1187 37.1652 14.1088 37.3456V41.2121C14.1088 41.5426 14.3476 41.677 14.6433 41.5106L18.0805 39.5785C18.2361 39.4806 18.3657 39.3482 18.4586 39.1921C18.5516 39.036 18.6051 38.8607 18.615 38.6806V34.8141Z" fill="#BA68C8"/>
<path d="M12.6082 40.359C12.6184 40.5391 12.6718 40.7144 12.7643 40.8707C12.8568 41.0271 12.9856 41.1601 13.1406 41.259L13.5787 41.5021C13.7287 41.5765 13.8933 41.6187 14.0614 41.6261C14.2295 41.6334 14.3973 41.6057 14.5535 41.5448C14.3016 41.6365 14.1154 41.5 14.1154 41.2036V37.3456C14.1212 37.1645 14.1756 36.9881 14.2731 36.8338L12.7704 35.9807C12.6748 36.1357 12.6213 36.3119 12.6148 36.4925L12.6082 40.359Z" fill="#BA68C8"/>
<path opacity="0.1" d="M12.6082 40.359C12.6184 40.5391 12.6718 40.7144 12.7643 40.8707C12.8568 41.0271 12.9856 41.1601 13.1406 41.259L13.5787 41.5021C13.7287 41.5765 13.8933 41.6187 14.0614 41.6261C14.2295 41.6334 14.3973 41.6057 14.5535 41.5448C14.3016 41.6365 14.1154 41.5 14.1154 41.2036V37.3456C14.1212 37.1645 14.1756 36.9881 14.2731 36.8338L12.7704 35.9807C12.6748 36.1357 12.6213 36.3119 12.6148 36.4925L12.6082 40.359Z" fill="black"/>
<path d="M16.3279 39.506L15.973 39.4676C15.4911 39.4292 14.9171 39.2543 14.9171 38.574C14.931 38.327 15.0045 38.0867 15.1316 37.8725C15.2588 37.6584 15.4359 37.4764 15.6488 37.3414C15.9643 37.1643 16.2315 37.2369 16.3345 37.4928C16.4383 37.1132 16.6825 36.7843 17.0202 36.5693C17.4254 36.3433 17.7518 36.5267 17.7518 36.9809C17.7518 37.6378 17.1823 38.4738 16.7025 39.0517L16.3279 39.506Z" fill="#FAFAFA"/>
<path d="M13.1406 25.857L16.5799 23.9249C16.7451 23.8429 16.9279 23.8001 17.1133 23.8001C17.2987 23.8001 17.4815 23.8429 17.6467 23.9249L18.0849 24.1701C18.2405 24.268 18.3701 24.4004 18.463 24.5565C18.556 24.7125 18.6095 24.8878 18.6194 25.068V28.9323C18.6097 29.1128 18.5562 29.2884 18.4633 29.4449C18.3704 29.6013 18.2407 29.7341 18.0849 29.8323L14.6477 31.7645C14.4825 31.8465 14.2998 31.8892 14.1143 31.8892C13.9289 31.8892 13.7461 31.8465 13.5809 31.7645L13.1428 31.5213C12.9878 31.4224 12.8589 31.2894 12.7665 31.1331C12.674 30.9768 12.6206 30.8015 12.6104 30.6214V26.7506C12.6213 26.5718 12.6749 26.3979 12.767 26.2428C12.859 26.0877 12.9869 25.9556 13.1406 25.857Z" fill="#BA68C8"/>
<path opacity="0.5" d="M13.1406 25.857L16.5799 23.9249C16.7451 23.8429 16.9279 23.8001 17.1133 23.8001C17.2987 23.8001 17.4815 23.8429 17.6467 23.9249L18.0849 24.1701C18.2405 24.268 18.3701 24.4004 18.463 24.5565C18.556 24.7125 18.6095 24.8878 18.6194 25.068V28.9323C18.6097 29.1128 18.5562 29.2884 18.4633 29.4449C18.3704 29.6013 18.2407 29.7341 18.0849 29.8323L14.6477 31.7645C14.4825 31.8465 14.2998 31.8892 14.1143 31.8892C13.9289 31.8892 13.7461 31.8465 13.5809 31.7645L13.1428 31.5213C12.9878 31.4224 12.8589 31.2894 12.7665 31.1331C12.674 30.9768 12.6206 30.8015 12.6104 30.6214V26.7506C12.6213 26.5718 12.6749 26.3979 12.767 26.2428C12.859 26.0877 12.9869 25.9556 13.1406 25.857Z" fill="#FAFAFA"/>
<path d="M14.6433 31.7581C14.3476 31.9244 14.1088 31.79 14.1088 31.4595V27.5951C14.1185 27.4147 14.172 27.239 14.2649 27.0826C14.3578 26.9261 14.4875 26.7934 14.6433 26.6952L18.0805 24.763C18.3762 24.5966 18.615 24.731 18.615 25.0616V28.9259C18.6053 29.1064 18.5518 29.282 18.4589 29.4385C18.366 29.5949 18.2363 29.7277 18.0805 29.8259" fill="#BA68C8"/>
<path d="M12.6082 30.615C12.6184 30.7951 12.6718 30.9704 12.7643 31.1267C12.8568 31.283 12.9856 31.416 13.1406 31.515L13.5787 31.7581C13.7287 31.8324 13.8933 31.8747 14.0614 31.882C14.2295 31.8894 14.3973 31.8617 14.5535 31.8007C14.3016 31.8924 14.1154 31.756 14.1154 31.4595V27.5952C14.1212 27.4141 14.1756 27.2376 14.2731 27.0833L12.7704 26.2303C12.6748 26.3853 12.6213 26.5614 12.6148 26.7421L12.6082 30.615Z" fill="#BA68C8"/>
<path opacity="0.1" d="M12.6082 30.615C12.6184 30.7951 12.6718 30.9704 12.7643 31.1267C12.8568 31.283 12.9856 31.416 13.1406 31.515L13.5787 31.7581C13.7287 31.8324 13.8933 31.8747 14.0614 31.882C14.2295 31.8894 14.3973 31.8617 14.5535 31.8007C14.3016 31.8924 14.1154 31.756 14.1154 31.4595V27.5952C14.1212 27.4141 14.1756 27.2376 14.2731 27.0833L12.7704 26.2303C12.6748 26.3853 12.6213 26.5614 12.6148 26.7421L12.6082 30.615Z" fill="black"/>
<path d="M15.7343 28.203C15.7343 28.203 16.1351 27.303 16.1724 27.1729C16.1923 26.9501 16.1923 26.7261 16.1724 26.5033C16.1724 26.418 16.5382 26.177 16.6565 26.4244C16.7703 26.6875 16.7919 26.9798 16.7179 27.2561L17.6094 26.7507C17.7978 26.644 17.8745 26.7933 17.8767 26.9127C17.8706 27.049 17.8199 27.1797 17.7321 27.286C17.7321 27.286 17.9118 27.2348 17.9118 27.4672C17.9064 27.549 17.8843 27.6288 17.8466 27.7021C17.809 27.7754 17.7567 27.8405 17.6927 27.8938C17.6927 27.8938 17.7496 27.9364 17.7518 28.107C17.7254 28.2743 17.6365 28.4262 17.5021 28.5335C17.5317 28.6008 17.5452 28.6737 17.5415 28.7468C17.5305 28.8489 17.4953 28.9471 17.4387 29.0337C17.382 29.1203 17.3055 29.1929 17.2151 29.2458L15.754 30.0797L15.7343 28.203Z" fill="#FAFAFA"/>
<path d="M14.8887 30.8176L15.5306 30.4529L15.5218 28.2776L14.8777 28.6423L14.8887 30.8176Z" fill="#FAFAFA"/>
<path d="M11.2588 14.4389L16.5295 11.4767C16.7827 11.3515 17.0627 11.2863 17.3466 11.2863C17.6306 11.2863 17.9105 11.3515 18.1637 11.4767L18.8209 11.8499C19.0595 12.0007 19.2581 12.2044 19.4005 12.4442C19.5429 12.684 19.625 12.9531 19.6402 13.2297V19.1542C19.6238 19.4293 19.5411 19.6968 19.3988 19.9351C19.2565 20.1733 19.0585 20.3756 18.8209 20.5255L13.5634 23.4941C13.3098 23.6193 13.0295 23.6845 12.7452 23.6845C12.4609 23.6845 12.1806 23.6193 11.927 23.4941L11.2698 23.1209C11.0318 22.9695 10.8339 22.7657 10.6919 22.526C10.5499 22.2863 10.468 22.0174 10.4527 21.7411V15.8166C10.4667 15.5415 10.547 15.2735 10.6871 15.0342C10.8271 14.7949 11.023 14.591 11.2588 14.4389Z" fill="#BA68C8"/>
<path opacity="0.1" d="M11.2588 14.4389L16.5295 11.4767C16.7827 11.3515 17.0627 11.2863 17.3466 11.2863C17.6306 11.2863 17.9105 11.3515 18.1637 11.4767L18.8209 11.8499C19.0595 12.0007 19.2581 12.2044 19.4005 12.4442C19.5429 12.684 19.625 12.9531 19.6402 13.2297V19.1542C19.6238 19.4293 19.5411 19.6968 19.3988 19.9351C19.2565 20.1733 19.0585 20.3756 18.8209 20.5255L13.5634 23.4941C13.3098 23.6193 13.0295 23.6845 12.7452 23.6845C12.4609 23.6845 12.1806 23.6193 11.927 23.4941L11.2698 23.1209C11.0318 22.9695 10.8339 22.7657 10.6919 22.526C10.5499 22.2863 10.468 22.0174 10.4527 21.7411V15.8166C10.4667 15.5415 10.547 15.2735 10.6871 15.0342C10.8271 14.7949 11.023 14.591 11.2588 14.4389Z" fill="black"/>
<path d="M19.649 13.1934C19.649 12.897 19.5 12.1591 18.7179 12.6262C17.9359 13.0932 14.0935 15.2067 13.5634 15.5138C13.1955 15.7102 12.905 16.02 12.7375 16.3945L13.1559 16.804L19.649 13.1934Z" fill="#BA68C8"/>
<path opacity="0.2" d="M19.649 13.1934C19.649 12.897 19.5 12.1591 18.7179 12.6262C17.9359 13.0932 14.0935 15.2067 13.5634 15.5138C13.1955 15.7102 12.905 16.02 12.7375 16.3945L13.1559 16.804L19.649 13.1934Z" fill="black"/>
<path d="M13.5634 23.494C13.1099 23.7478 12.7441 23.5431 12.7441 23.0355V17.1132C12.7589 16.8362 12.8409 16.5667 12.9833 16.3265C13.1257 16.0863 13.3245 15.8823 13.5634 15.7312L18.8209 12.769C19.2744 12.5152 19.6402 12.7221 19.6402 13.2296V19.1541C19.6238 19.4293 19.5411 19.6968 19.3988 19.935C19.2565 20.1733 19.0585 20.3755 18.8209 20.5254" fill="#BA68C8"/>
<path opacity="0.1" d="M13.5634 23.494C13.1099 23.7478 12.7441 23.5431 12.7441 23.0355V17.1132C12.7589 16.8362 12.8409 16.5667 12.9833 16.3265C13.1257 16.0863 13.3245 15.8823 13.5634 15.7312L18.8209 12.769C19.2744 12.5152 19.6402 12.7221 19.6402 13.2296V19.1541C19.6238 19.4293 19.5411 19.6968 19.3988 19.935C19.2565 20.1733 19.0585 20.3755 18.8209 20.5254" fill="black"/>
<path d="M10.4417 21.741C10.457 22.0173 10.5389 22.2863 10.6809 22.526C10.8229 22.7657 11.0208 22.9695 11.2588 23.1209L11.916 23.4941C12.1465 23.6072 12.3991 23.6713 12.657 23.6824C12.915 23.6934 13.1723 23.651 13.4122 23.558C13.0266 23.7009 12.7331 23.4898 12.7331 23.0355V17.1132C12.7431 16.8358 12.826 16.5656 12.9741 16.3284L10.6717 15.0339C10.5243 15.2712 10.442 15.5415 10.4329 15.8187L10.4417 21.741Z" fill="#BA68C8"/>
<path opacity="0.2" d="M10.4417 21.741C10.457 22.0173 10.5389 22.2863 10.6809 22.526C10.8229 22.7657 11.0208 22.9695 11.2588 23.1209L11.916 23.4941C12.1465 23.6072 12.3991 23.6713 12.657 23.6824C12.915 23.6934 13.1723 23.651 13.4122 23.558C13.0266 23.7009 12.7331 23.4898 12.7331 23.0355V17.1132C12.7431 16.8358 12.826 16.5656 12.9741 16.3284L10.6717 15.0339C10.5243 15.2712 10.442 15.5415 10.4329 15.8187L10.4417 21.741Z" fill="black"/>
<path d="M16.3542 15.0403L17.0377 16.2133L18.5712 15.6033C18.7158 15.5458 18.7749 15.7121 18.6698 15.887L17.5635 17.7211L17.8242 19.2864C17.8483 19.4357 17.6971 19.6426 17.5679 19.6404L16.1921 19.5999L14.823 21.1781C14.6937 21.3274 14.5426 21.289 14.5667 21.112L14.8317 19.2459L13.7364 18.6552C13.6313 18.5997 13.6904 18.3672 13.835 18.2628L15.3685 17.1538L16.0519 15.2109C16.1023 15.0339 16.2885 14.9294 16.3542 15.0403Z" fill="#FAFAFA"/>
<path d="M90.455 42.1035C87.8262 43.3212 83.5764 43.3212 80.952 42.1035C78.3276 40.8858 78.3232 38.9045 80.952 37.6953C83.5808 36.4861 87.8306 36.4776 90.455 37.6953C93.0794 38.9131 93.0706 40.8858 90.455 42.1035Z" fill="#E0E0E0"/>
<path d="M30.6942 56.2408C30.7176 56.551 30.8157 56.8514 30.9805 57.1177C31.1453 57.3841 31.3721 57.609 31.6428 57.7742L58.2218 72.7027C58.5158 72.8479 58.8408 72.9235 59.1704 72.9235C59.5 72.9235 59.825 72.8479 60.1189 72.7027L96.4836 52.2613C96.7703 52.114 97.0102 51.8934 97.1775 51.6232C97.3449 51.353 97.4333 51.0435 97.4333 50.7279C97.4333 50.4124 97.3449 50.1029 97.1775 49.8327C97.0102 49.5625 96.7703 49.3419 96.4836 49.1946L69.9067 34.2661C69.6128 34.1209 69.2878 34.0452 68.9582 34.0452C68.6286 34.0452 68.3036 34.1209 68.0097 34.2661L31.645 54.7075C31.3739 54.8724 31.1466 55.0972 30.9814 55.3636C30.8163 55.63 30.7179 55.9305 30.6942 56.2408Z" fill="#37474F"/>
<path d="M41.6606 49.0773L31.6428 54.7074C31.3561 54.8547 31.1162 55.0753 30.9489 55.3456C30.7815 55.6158 30.6931 55.9253 30.6931 56.2408C30.6931 56.5563 30.7815 56.8659 30.9489 57.1361C31.1162 57.4063 31.3561 57.6269 31.6428 57.7742L58.2218 72.7027C58.5142 72.8513 58.8407 72.9247 59.1704 72.9159V49.0773H41.6606Z" fill="#263238"/>
<path d="M29.8048 54.7394C29.5403 54.5652 29.3219 54.3326 29.1674 54.0605C29.0128 53.7885 28.9265 53.4848 28.9154 53.1741V22.2955C28.9329 21.975 29.0279 21.6631 29.1927 21.3851C29.3576 21.1072 29.5876 20.8711 29.864 20.6961L66.2286 0.265357C66.5031 0.0977411 66.8194 0.00610496 67.1433 0.000294596C67.4673 -0.00551576 67.7868 0.07472 68.0674 0.232379C68.3481 0.390038 68.5793 0.619162 68.7362 0.895133C68.8932 1.1711 68.9699 1.48349 68.9582 1.79873V32.6666C68.9406 32.9871 68.8455 33.299 68.6806 33.5769C68.5158 33.8548 68.2859 34.091 68.0096 34.2661L31.6449 54.7074C31.3625 54.8535 31.0486 54.9325 30.7288 54.938C30.409 54.9436 30.0924 54.8755 29.8048 54.7394Z" fill="#455A64"/>
<path d="M33.3646 23.7244L29.2024 21.3785C29.0323 21.6535 28.9373 21.9662 28.9263 22.287V53.174C28.9149 53.4889 28.9917 53.801 29.1486 54.0766C29.3054 54.3522 29.5363 54.5811 29.8166 54.7387C30.0969 54.8963 30.416 54.9766 30.7396 54.9711C31.0633 54.9656 31.3792 54.8745 31.6537 54.7074L35.8006 52.3764L33.3646 23.7244Z" fill="#263238"/>
<path d="M30.6942 23.2979V54.1743C30.6942 54.7629 31.1192 55.0018 31.6428 54.7074L68.0075 34.2661C68.2837 34.091 68.5136 33.8548 68.6784 33.5769C68.8433 33.299 68.9384 32.9871 68.956 32.6666V1.79021C68.956 1.2016 68.531 0.96274 68.0075 1.25704L31.6428 21.6963C31.3666 21.872 31.1368 22.1085 30.972 22.3868C30.8072 22.665 30.712 22.9772 30.6942 23.2979Z" fill="#37474F"/>
<path d="M31.6427 55.7738L58.2218 70.7129C58.5158 70.8581 58.8408 70.9338 59.1704 70.9338C59.5 70.9338 59.825 70.8581 60.1189 70.7129L96.4836 50.2716C97.0094 49.9773 97.0094 49.4995 96.4836 49.2052L69.9067 34.2661C69.6128 34.1209 69.2878 34.0452 68.9582 34.0452C68.6286 34.0452 68.3036 34.1209 68.0096 34.2661L31.6449 54.7075C31.1192 55.0018 31.1192 55.4795 31.6427 55.7738Z" fill="#455A64"/>
<path d="M32.1532 23.4109L67.4993 3.54536C67.8125 3.36835 68.0688 3.51124 68.0688 3.86526V30.5937C68.0578 30.7859 68.0005 30.9729 67.9015 31.1396C67.8026 31.3063 67.6648 31.448 67.4993 31.5533L32.1532 51.4189C31.8378 51.5959 31.5836 51.453 31.5836 51.099V24.3642C31.5952 24.173 31.6527 23.9871 31.7517 23.8215C31.8506 23.6559 31.9882 23.5152 32.1532 23.4109Z" fill="#FAFAFA"/>
<path d="M34.7272 54.974L68.4828 35.9935C68.6298 35.921 68.7923 35.8832 68.9571 35.8832C69.1219 35.8832 69.2844 35.921 69.4314 35.9935L71.1598 36.9638C71.217 36.9827 71.2667 37.0186 71.3019 37.0664C71.3371 37.1142 71.3561 37.1716 71.3561 37.2304C71.3561 37.2892 71.3371 37.3466 71.3019 37.3944C71.2667 37.4422 71.217 37.4781 71.1598 37.497L37.3976 56.4754C37.2506 56.5479 37.0881 56.5857 36.9233 56.5857C36.7585 56.5857 36.5961 56.5479 36.4491 56.4754L34.7272 55.5008C34.6722 55.4806 34.6249 55.4445 34.5915 55.3975C34.558 55.3504 34.5401 55.2946 34.5401 55.2374C34.5401 55.1802 34.558 55.1243 34.5915 55.0773C34.6249 55.0302 34.6722 54.9942 34.7272 54.974Z" fill="#263238"/>
<path d="M39.1764 57.4756L72.932 38.4951C73.079 38.4225 73.2415 38.3848 73.4063 38.3848C73.5711 38.3848 73.7336 38.4225 73.8806 38.4951L84.5008 44.4665C84.558 44.4854 84.6077 44.5212 84.6429 44.5691C84.6781 44.6169 84.6971 44.6742 84.6971 44.733C84.6971 44.7919 84.6781 44.8492 84.6429 44.897C84.6077 44.9448 84.558 44.9807 84.5008 44.9996L50.7846 63.9503C50.6372 64.0228 50.4744 64.0606 50.3093 64.0606C50.1441 64.0606 49.9813 64.0228 49.8339 63.9503L39.1786 58.0045C39.1218 57.9859 39.0724 57.9505 39.0374 57.9032C39.0023 57.8559 38.9833 57.7991 38.9831 57.7408C38.9828 57.6825 39.0013 57.6255 39.036 57.578C39.0707 57.5304 39.1198 57.4946 39.1764 57.4756Z" fill="#263238"/>
<path d="M69.4358 47.0385L70.4939 46.4435C70.5377 46.4179 70.5355 46.3752 70.4939 46.3496L69.2715 45.6629C69.2454 45.6498 69.2165 45.643 69.1871 45.643C69.1578 45.643 69.1289 45.6498 69.1028 45.6629L68.0469 46.2579C68.0009 46.2814 68.0031 46.324 68.0469 46.3518L69.2693 47.0385C69.2951 47.0512 69.3236 47.0578 69.3525 47.0578C69.3815 47.0578 69.41 47.0512 69.4358 47.0385ZM67.3503 44.6776L66.2944 45.2641C66.2484 45.2897 66.2506 45.3323 66.2944 45.3601L67.5168 46.0468C67.543 46.0594 67.5719 46.0659 67.6011 46.0659C67.6304 46.0659 67.6592 46.0594 67.6854 46.0468L68.7435 45.4518C68.7873 45.4262 68.7852 45.3835 68.7435 45.3579L67.5211 44.6691C67.494 44.6575 67.4643 44.6522 67.4347 44.6536C67.405 44.6551 67.3761 44.6633 67.3503 44.6776ZM63.9351 46.597L62.1475 47.61C62.1015 47.6356 62.1059 47.6783 62.1475 47.706L63.3699 48.3927C63.3961 48.4053 63.425 48.4118 63.4542 48.4118C63.4835 48.4118 63.5123 48.4053 63.5386 48.3927L65.3261 47.3882C65.3699 47.3626 65.3677 47.32 65.3261 47.2944L64.1037 46.6055C64.0782 46.5916 64.0497 46.5836 64.0204 46.5821C63.9912 46.5806 63.962 46.5857 63.9351 46.597ZM65.8059 45.5456L64.7478 46.1406C64.704 46.1641 64.7062 46.2067 64.7478 46.2345L65.9702 46.9212C65.9963 46.9343 66.0252 46.9411 66.0545 46.9411C66.0839 46.9411 66.1128 46.9343 66.1389 46.9212L67.1947 46.3262C67.2407 46.3006 67.2386 46.2579 67.1947 46.2323L65.9724 45.5456C65.9466 45.5329 65.918 45.5262 65.8891 45.5262C65.8602 45.5262 65.8317 45.5329 65.8059 45.5456ZM61.659 47.8766L60.6031 48.4631C60.5571 48.4887 60.5615 48.5313 60.6031 48.559L61.8255 49.2457C61.8516 49.2588 61.8805 49.2657 61.9098 49.2657C61.9392 49.2657 61.9681 49.2588 61.9942 49.2457L63.0522 48.6529C63.096 48.6273 63.0939 48.5846 63.0522 48.559L61.8299 47.8702C61.8028 47.8582 61.7733 47.8526 61.7436 47.8537C61.714 47.8548 61.685 47.8626 61.659 47.8766ZM60.1146 48.7446L59.0587 49.3374C59.0127 49.363 59.0149 49.4057 59.0587 49.4334L60.2811 50.1201C60.3073 50.1327 60.3362 50.1393 60.3654 50.1393C60.3947 50.1393 60.4235 50.1327 60.4497 50.1201L61.5078 49.5251C61.5516 49.4995 61.5494 49.4569 61.5078 49.4313L60.2855 48.7424C60.2588 48.7298 60.2294 48.7234 60.1998 48.7238C60.1701 48.7242 60.1409 48.7313 60.1146 48.7446ZM64.923 51.5383L65.9789 50.9433C66.0227 50.9177 66.0206 50.8751 65.9789 50.8495L64.75 50.1692C64.7239 50.1561 64.695 50.1493 64.6656 50.1493C64.6363 50.1493 64.6074 50.1561 64.5813 50.1692L63.5254 50.7642C63.4794 50.7876 63.4838 50.8303 63.5254 50.858L64.7478 51.5447C64.7752 51.5579 64.8057 51.5643 64.8363 51.5632C64.8669 51.562 64.8967 51.5535 64.923 51.5383ZM63.3765 52.4063L64.4345 51.8113C64.4783 51.7857 64.4762 51.7452 64.4345 51.7175L63.2056 51.0222C63.1795 51.0091 63.1506 51.0023 63.1212 51.0023C63.0919 51.0023 63.063 51.0091 63.0369 51.0222L61.9766 51.6215C61.9306 51.645 61.935 51.6876 61.9766 51.7153L63.199 52.4021C63.2258 52.4173 63.2561 52.4256 63.2872 52.4264C63.3182 52.4271 63.3489 52.4202 63.3765 52.4063ZM61.832 53.2743L62.8901 52.6793C62.9339 52.6558 62.9318 52.6132 62.8901 52.5855L61.6677 51.8987C61.6417 51.8857 61.6127 51.8788 61.5834 51.8788C61.5541 51.8788 61.5252 51.8857 61.4991 51.8987L60.4432 52.4895C60.3972 52.5151 60.3994 52.5577 60.4432 52.5833L61.6656 53.27C61.691 53.2834 61.7194 53.2908 61.7483 53.2916C61.7772 53.2923 61.8059 53.2864 61.832 53.2743ZM60.2986 54.1423L61.3567 53.5473C61.4005 53.5238 61.3983 53.4812 61.3567 53.4534L60.1343 52.7667C60.1082 52.7536 60.0793 52.7468 60.05 52.7468C60.0206 52.7468 59.9917 52.7536 59.9656 52.7667L58.8922 53.3681C58.8462 53.3937 58.8484 53.4364 58.8922 53.462L60.1146 54.1487C60.1418 54.1615 60.1718 54.1677 60.2019 54.1665C60.2321 54.1654 60.2616 54.1571 60.2876 54.1423H60.2986ZM67.8914 47.9064L68.9473 47.3114C68.9933 47.2858 68.9911 47.2453 68.9473 47.2176L67.7249 46.5309C67.6988 46.5178 67.6699 46.511 67.6405 46.511C67.6112 46.511 67.5823 46.5178 67.5562 46.5309L66.5003 47.1259C66.4543 47.1515 66.4565 47.192 66.5003 47.2197L67.7227 47.9064C67.7488 47.9195 67.7777 47.9264 67.807 47.9264C67.8364 47.9264 67.8653 47.9195 67.8914 47.9064ZM66.4674 50.6789L68.8246 49.3524C68.8684 49.3268 68.8662 49.2841 68.8246 49.2585L65.8563 47.5908C65.8302 47.5777 65.8013 47.5709 65.7719 47.5709C65.7426 47.5709 65.7137 47.5777 65.6876 47.5908L64.4696 48.2754C64.4236 48.301 64.4258 48.3436 64.4696 48.3714L66.0425 49.2543C66.0907 49.282 66.0928 49.3247 66.0425 49.3481L65.0676 49.8983C65.0238 49.9218 65.026 49.9644 65.0676 49.9922L66.29 50.6789C66.3181 50.6916 66.3489 50.6975 66.3798 50.696C66.4107 50.6945 66.4408 50.6857 66.4674 50.6704V50.6789ZM58.5702 49.6126L57.5143 50.2076C57.4683 50.231 57.4705 50.2737 57.5143 50.3014L58.7367 50.9881C58.7629 51.0007 58.7918 51.0073 58.821 51.0073C58.8503 51.0073 58.8791 51.0007 58.9053 50.9881L59.9634 50.3931C60.0072 50.3675 60.005 50.3249 59.9634 50.2993L58.7411 49.6126C58.7147 49.5991 58.6854 49.5921 58.6556 49.5921C58.6259 49.5921 58.5965 49.5991 58.5702 49.6126ZM57.0367 50.4805L55.9786 51.0756C55.9348 51.1011 55.937 51.1417 55.9786 51.1694L57.201 51.8561C57.2271 51.8692 57.256 51.876 57.2854 51.876C57.3147 51.876 57.3436 51.8692 57.3697 51.8561L58.4256 51.2611C58.4716 51.2355 58.4694 51.1928 58.4256 51.1673L57.2032 50.4805C57.176 50.466 57.1455 50.4583 57.1145 50.4583C57.0835 50.4583 57.0529 50.466 57.0258 50.4805H57.0367ZM49.3169 60.2161C49.343 60.2291 49.3719 60.236 49.4012 60.236C49.4306 60.236 49.4595 60.2291 49.4856 60.2161L50.5437 59.621C50.5875 59.5955 50.5853 59.5528 50.5437 59.5272L49.3213 58.8405C49.2952 58.8274 49.2663 58.8206 49.2369 58.8206C49.2076 58.8206 49.1787 58.8274 49.1526 58.8405L48.0967 59.4355C48.0507 59.4611 48.0529 59.5016 48.0967 59.5293L49.3169 60.2161ZM44.6705 57.4202L43.6125 58.0152C43.5686 58.0386 43.5708 58.0813 43.6125 58.109L44.8348 58.7957C44.8611 58.8083 44.8899 58.8149 44.9192 58.8149C44.9484 58.8149 44.9773 58.8083 45.0035 58.7957L46.0594 58.2007C46.1054 58.1751 46.1032 58.1325 46.0594 58.1069L44.837 57.4202C44.8112 57.4074 44.7827 57.4008 44.7538 57.4008C44.7249 57.4008 44.6963 57.4074 44.6705 57.4202ZM47.1569 59.4568C47.183 59.4699 47.2119 59.4768 47.2413 59.4768C47.2706 59.4768 47.2995 59.4699 47.3256 59.4568L48.3815 58.8618C48.4275 58.8362 48.4231 58.7957 48.3815 58.768L47.1613 58.0813C47.1352 58.0682 47.1063 58.0614 47.077 58.0614C47.0476 58.0614 47.0187 58.0682 46.9926 58.0813L45.9345 58.6763C45.8907 58.7019 45.8929 58.7424 45.9345 58.7701L47.1569 59.4568ZM52.0355 60.7364L53.0936 60.1414C53.1374 60.1158 53.1352 60.0732 53.0936 60.0476L51.8712 59.3587C51.845 59.3461 51.8161 59.3396 51.7868 59.3396C51.7576 59.3396 51.7287 59.3461 51.7025 59.3587L50.6466 59.9537C50.6006 59.9772 50.6028 60.0199 50.6466 60.0476L51.869 60.7343C51.8937 60.7484 51.9213 60.7567 51.9499 60.7585C51.9784 60.7604 52.0069 60.7557 52.0333 60.7449L52.0355 60.7364ZM50.3224 61.6001C50.3485 61.6132 50.3774 61.6201 50.4067 61.6201C50.4361 61.6201 50.465 61.6132 50.4911 61.6001L51.5492 61.0051C51.593 60.9795 51.5908 60.9369 51.5492 60.9113L50.3268 60.2246C50.3007 60.2115 50.2718 60.2047 50.2424 60.2047C50.2131 60.2047 50.1842 60.2115 50.1581 60.2246L49.0935 60.8324C49.0474 60.8558 49.0496 60.8985 49.0935 60.9262L50.3224 61.6001ZM46.204 56.5671L45.1459 57.16C45.1021 57.1856 45.1043 57.2282 45.1459 57.2559L46.3683 57.9427C46.3945 57.9553 46.4234 57.9618 46.4526 57.9618C46.4819 57.9618 46.5107 57.9553 46.537 57.9427L47.5929 57.3477C47.6389 57.3221 47.6367 57.2794 47.5929 57.2538L46.3814 56.5671C46.3541 56.5531 46.3236 56.5458 46.2927 56.5458C46.2618 56.5458 46.2314 56.5531 46.204 56.5671ZM53.937 52.2165L52.8789 52.8115C52.8351 52.8371 52.8373 52.8798 52.8789 52.9054L54.1013 53.5921C54.1273 53.6052 54.1563 53.612 54.1856 53.612C54.2149 53.612 54.2439 53.6052 54.2699 53.5921L55.3258 52.9971C55.3718 52.9736 55.3675 52.931 55.3258 52.9032L54.1056 52.2165C54.0794 52.2039 54.0506 52.1974 54.0213 52.1974C53.9921 52.1974 53.9632 52.2039 53.937 52.2165ZM47.7572 55.6906L46.7013 56.2835C46.6553 56.3091 46.6575 56.3517 46.7013 56.3794L47.9236 57.0661C47.9499 57.0787 47.9787 57.0853 48.008 57.0853C48.0372 57.0853 48.0661 57.0787 48.0923 57.0661L49.1504 56.4733C49.1942 56.4477 49.192 56.405 49.1504 56.3773L47.928 55.6906C47.9015 55.6776 47.8723 55.6709 47.8426 55.6709C47.8129 55.6709 47.7837 55.6776 47.7572 55.6906ZM55.4814 51.3485L54.4233 51.9435C54.3795 51.9691 54.3817 52.0097 54.4233 52.0374L55.6457 52.7241C55.6717 52.7372 55.7007 52.744 55.73 52.744C55.7593 52.744 55.7883 52.7372 55.8143 52.7241L56.8702 52.1291C56.9162 52.1035 56.9141 52.063 56.8702 52.0352L55.6479 51.3485C55.6221 51.3358 55.5935 51.3292 55.5646 51.3292C55.5357 51.3292 55.5072 51.3358 55.4814 51.3485ZM52.3904 53.0845L51.3345 53.6795C51.2885 53.7051 51.2929 53.7478 51.3345 53.7733L52.5569 54.4622C52.5831 54.4748 52.6119 54.4813 52.6412 54.4813C52.6704 54.4813 52.6993 54.4748 52.7255 54.4622L53.7814 53.8693C53.8274 53.8437 53.8231 53.8011 53.7814 53.7733L52.5569 53.0888C52.5312 53.0758 52.503 53.0687 52.4741 53.068C52.4453 53.0673 52.4166 53.0729 52.3904 53.0845ZM50.846 53.9546L49.7901 54.5475C49.7441 54.5731 49.7485 54.6157 49.7901 54.6413L51.0234 55.3302C51.0493 55.3428 51.0778 55.3493 51.1067 55.3493C51.1356 55.3493 51.164 55.3428 51.1899 55.3302L52.248 54.7373C52.2918 54.7117 52.2896 54.6691 52.248 54.6413L51.0234 53.9568C50.9964 53.9419 50.966 53.9339 50.935 53.9335C50.9039 53.9331 50.8733 53.9404 50.846 53.9546ZM49.3016 54.8226L48.2457 55.4155C48.1997 55.4411 48.2041 55.4837 48.2457 55.5114L49.4681 56.1982C49.4943 56.2108 49.5231 56.2173 49.5524 56.2173C49.5816 56.2173 49.6105 56.2108 49.6367 56.1982L50.6948 55.6053C50.7386 55.5797 50.7364 55.537 50.6948 55.5093L49.4724 54.8226C49.4459 54.8097 49.4167 54.8029 49.387 54.8029C49.3573 54.8029 49.3281 54.8097 49.3016 54.8226ZM57.1988 55.8783L58.2525 55.2875C58.2985 55.2619 58.2963 55.2193 58.2525 55.1915L57.0302 54.5048C57.0041 54.4917 56.9752 54.4849 56.9458 54.4849C56.9165 54.4849 56.8876 54.4917 56.8615 54.5048L55.8034 55.0977C55.7596 55.1233 55.7618 55.166 55.8034 55.1937L57.0258 55.8804C57.0527 55.8934 57.0825 55.8999 57.1126 55.8996C57.1426 55.8992 57.1722 55.8919 57.1988 55.8783ZM70.7655 42.7582L69.7074 43.3447C69.6636 43.3682 69.6658 43.4108 69.7074 43.4386L70.9298 44.1253C70.956 44.1379 70.9849 44.1444 71.0141 44.1444C71.0434 44.1444 71.0722 44.1379 71.0985 44.1253L72.1544 43.5303C72.2004 43.5047 72.1982 43.462 72.1544 43.4364L70.932 42.7497C70.9055 42.7383 70.8766 42.7331 70.8477 42.7346C70.8188 42.7361 70.7906 42.7442 70.7655 42.7582ZM68.8947 43.8096L67.8388 44.411C67.7928 44.4366 67.795 44.4793 67.8388 44.507L69.059 45.1937C69.0851 45.2068 69.114 45.2136 69.1433 45.2136C69.1727 45.2136 69.2016 45.2068 69.2277 45.1937L70.2857 44.6009C70.3296 44.5753 70.3274 44.5326 70.2857 44.507L69.0634 43.8182C69.0378 43.8042 69.0093 43.7962 68.98 43.7947C68.9508 43.7932 68.9216 43.7983 68.8947 43.8096ZM72.3099 41.8903L71.2518 42.4917C71.208 42.5173 71.2102 42.5599 71.2518 42.5876L72.4742 43.2744C72.5004 43.287 72.5293 43.2935 72.5585 43.2935C72.5878 43.2935 72.6166 43.287 72.6429 43.2744L73.6988 42.6793C73.7448 42.6537 73.7426 42.6111 73.6988 42.5855L72.4764 41.8967C72.4509 41.8834 72.4227 41.8759 72.3939 41.8748C72.3651 41.8737 72.3363 41.879 72.3099 41.8903ZM64.314 49.9175L65.3721 49.3161C65.4159 49.2905 65.4137 49.2479 65.3721 49.2223L64.1498 48.5356C64.1237 48.5225 64.0948 48.5157 64.0654 48.5157C64.0361 48.5157 64.0071 48.5225 63.9811 48.5356L62.923 49.1284C62.8792 49.154 62.8814 49.1967 62.923 49.2244L64.1454 49.9111C64.1711 49.9247 64.1997 49.9324 64.2289 49.9335C64.2582 49.9346 64.2873 49.9291 64.314 49.9175ZM74.0252 41.0244C73.9989 41.0118 73.9701 41.0053 73.9408 41.0053C73.9116 41.0053 73.8827 41.0118 73.8565 41.0244L72.8006 41.6173C72.7546 41.6429 72.7568 41.6855 72.8006 41.7133L74.023 42.4C74.0491 42.4131 74.078 42.4199 74.1073 42.4199C74.1367 42.4199 74.1656 42.4131 74.1917 42.4L75.2497 41.8071C75.2936 41.7815 75.2914 41.7388 75.2497 41.7111L74.0252 41.0244ZM58.7432 55.0103L59.7991 54.4174C59.8451 54.3918 59.8429 54.3492 59.7991 54.3214L58.5768 53.6347C58.5505 53.6221 58.5217 53.6156 58.4924 53.6156C58.4632 53.6156 58.4343 53.6221 58.4081 53.6347L57.3456 54.2212C57.3018 54.2468 57.304 54.2894 57.3456 54.315L58.568 55.0039C58.5945 55.0185 58.6243 55.0267 58.6548 55.0279C58.6853 55.029 58.7156 55.0229 58.7432 55.0103ZM77.6857 44.3641L78.7438 43.7691C78.7876 43.7435 78.7854 43.7009 78.7438 43.6753L77.5214 42.9886C77.4954 42.9755 77.4664 42.9686 77.4371 42.9686C77.4078 42.9686 77.3788 42.9755 77.3528 42.9886L76.2947 43.5836C76.2509 43.607 76.2531 43.6497 76.2947 43.6774L77.5171 44.3641C77.5431 44.3772 77.5721 44.384 77.6014 44.384C77.6307 44.384 77.6597 44.3772 77.6857 44.3641ZM74.3998 44.2511L75.4557 43.6561C75.5017 43.6305 75.4995 43.5878 75.4557 43.5623L74.2333 42.8755C74.2072 42.8624 74.1783 42.8556 74.1489 42.8556C74.1196 42.8556 74.0907 42.8624 74.0646 42.8755L73.0065 43.4705C72.9627 43.494 72.9649 43.5367 73.0065 43.5644L74.2289 44.2511C74.2547 44.2638 74.2832 44.2705 74.3121 44.2705C74.3411 44.2705 74.3696 44.2638 74.3954 44.2511H74.3998ZM75.7777 42.0054C75.7515 41.9928 75.7226 41.9863 75.6933 41.9863C75.6641 41.9863 75.6352 41.9928 75.609 42.0054L74.5531 42.6004C74.5071 42.6239 74.5093 42.6665 74.5531 42.6943L75.7755 43.381C75.8017 43.3936 75.8306 43.4001 75.8598 43.4001C75.8891 43.4001 75.9179 43.3936 75.9442 43.381L77.0023 42.786C77.0461 42.7604 77.0439 42.7177 77.0023 42.6921L75.7777 42.0054ZM76.1019 41.8241L79.0637 43.4919C79.0899 43.5045 79.1187 43.511 79.148 43.511C79.1772 43.511 79.2061 43.5045 79.2323 43.4919L80.2904 42.8969C80.3342 42.8713 80.332 42.8286 80.2904 42.803L77.3111 41.1374C77.2849 41.1248 77.2561 41.1183 77.2268 41.1183C77.1975 41.1183 77.1687 41.1248 77.1425 41.1374L76.0866 41.7303C76.0428 41.7538 76.0449 41.7964 76.0931 41.8241H76.1019ZM72.5202 43.7435L71.4621 44.3385C71.4183 44.362 71.4205 44.4046 71.4621 44.4324L72.6845 45.1191C72.7106 45.1322 72.7395 45.139 72.7688 45.139C72.7982 45.139 72.8271 45.1322 72.8532 45.1191L73.9091 44.5241C73.9551 44.4985 73.9529 44.4558 73.9091 44.4302L72.6867 43.7435C72.6602 43.7287 72.6302 43.7205 72.5996 43.7198C72.569 43.719 72.5387 43.7257 72.5114 43.7393L72.5202 43.7435ZM60.8813 50.2737L59.8232 50.8687C59.7794 50.8943 59.7816 50.9348 59.8232 50.9625L61.0456 51.6492C61.0717 51.6623 61.1006 51.6692 61.1299 51.6692C61.1593 51.6692 61.1882 51.6623 61.2143 51.6492L62.2702 51.0542C62.3162 51.0286 62.314 50.9881 62.2702 50.9604L61.0478 50.2737C61.022 50.2609 60.9935 50.2543 60.9646 50.2543C60.9356 50.2543 60.9071 50.2609 60.8813 50.2737ZM75.9683 45.2278C75.9944 45.2409 76.0233 45.2478 76.0526 45.2478C76.082 45.2478 76.1109 45.2409 76.137 45.2278L77.1928 44.6328C77.2388 44.6073 77.2367 44.5667 77.1928 44.539L75.9705 43.8523C75.9444 43.8392 75.9155 43.8324 75.8861 43.8324C75.8568 43.8324 75.8279 43.8392 75.8018 43.8523L74.7437 44.4473C74.6999 44.4729 74.7021 44.5134 74.7437 44.5411L75.9683 45.2278ZM62.4257 49.4057L61.3676 50.0007C61.3238 50.0242 61.326 50.0668 61.3676 50.0945L62.59 50.7812C62.6161 50.7943 62.645 50.8012 62.6743 50.8012C62.7037 50.8012 62.7326 50.7943 62.7587 50.7812L63.8146 50.1862C63.8606 50.1606 63.8584 50.118 63.8146 50.0924L62.5922 49.4057C62.567 49.3936 62.5392 49.3874 62.5111 49.3874C62.483 49.3874 62.4553 49.3936 62.4301 49.4057H62.4257ZM50.8503 59.3395C50.8766 59.3521 50.9054 59.3587 50.9347 59.3587C50.9639 59.3587 50.9928 59.3521 51.019 59.3395L52.0771 58.7445C52.1209 58.7189 52.1187 58.6763 52.0771 58.6507L50.8547 57.964C50.8286 57.9509 50.7997 57.9441 50.7704 57.9441C50.741 57.9441 50.7121 57.9509 50.6861 57.964L49.6302 58.559C49.5842 58.5824 49.5863 58.6251 49.6302 58.6528L50.8503 59.3395ZM48.5283 57.2069L47.4702 57.8019C47.4264 57.8254 47.4286 57.868 47.4702 57.8957L48.6926 58.5825C48.7188 58.5951 48.7477 58.6016 48.7769 58.6016C48.8062 58.6016 48.835 58.5951 48.8612 58.5825L49.9171 57.9874C49.9631 57.9619 49.9609 57.9192 49.9171 57.8936L48.6948 57.2069C48.6679 57.1961 48.6389 57.1916 48.6099 57.1938C48.581 57.1961 48.553 57.2049 48.5283 57.2197V57.2069ZM52.5569 58.4865L53.6149 57.8915C53.6588 57.8659 53.6566 57.8232 53.6149 57.7976L52.3926 57.1109C52.3665 57.0978 52.3376 57.091 52.3082 57.091C52.2789 57.091 52.25 57.0978 52.2239 57.1109L51.168 57.7038C51.122 57.7294 51.1264 57.772 51.168 57.7998L52.3904 58.4865C52.4162 58.4991 52.4447 58.5056 52.4736 58.5056C52.5025 58.5056 52.531 58.4991 52.5569 58.4865ZM54.1035 57.6185L55.1593 57.0235C55.2053 56.9979 55.201 56.9552 55.1593 56.9275L53.937 56.2408C53.9107 56.2282 53.8819 56.2217 53.8526 56.2217C53.8234 56.2217 53.7945 56.2282 53.7683 56.2408L52.7124 56.8337C52.6686 56.8593 52.6708 56.9019 52.7124 56.9297L53.9348 57.6164C53.9619 57.63 53.9919 57.6371 54.0224 57.6371C54.0529 57.6371 54.0829 57.63 54.11 57.6164L54.1035 57.6185ZM55.6369 56.7484L56.6928 56.1555C56.7388 56.1299 56.7344 56.0873 56.6928 56.0595L55.4726 55.3728C55.4464 55.3602 55.4175 55.3537 55.3883 55.3537C55.359 55.3537 55.3302 55.3602 55.3039 55.3728L54.2458 55.9657C54.202 55.9913 54.2042 56.0339 54.2458 56.0617L55.4682 56.7484C55.4969 56.7636 55.529 56.7713 55.5616 56.771C55.5942 56.7706 55.6262 56.7621 55.6544 56.7462L55.6369 56.7484ZM50.0727 56.3538L49.0146 56.9467C48.9708 56.9723 48.973 57.015 49.0146 57.0427L50.237 57.7294C50.2632 57.742 50.2921 57.7486 50.3213 57.7486C50.3506 57.7486 50.3794 57.742 50.4056 57.7294L51.4615 57.1344C51.5075 57.1088 51.5054 57.0661 51.4615 57.0406L50.2413 56.3538C50.2151 56.3412 50.1863 56.3347 50.157 56.3347C50.1278 56.3347 50.0989 56.3412 50.0727 56.3538ZM51.6171 55.4859L50.559 56.0787C50.5152 56.1043 50.5174 56.147 50.559 56.1747L51.7814 56.8614C51.8075 56.8745 51.8364 56.8813 51.8657 56.8813C51.8951 56.8813 51.924 56.8745 51.95 56.8614L53.0081 56.2685C53.0519 56.2429 53.0498 56.2003 53.0081 56.1726L51.7858 55.4859C51.7597 55.4729 51.7309 55.466 51.7017 55.4656C51.6724 55.4653 51.6435 55.4715 51.6171 55.4837V55.4859ZM57.7969 52.0118L56.7388 52.6068C56.6928 52.6324 56.6972 52.675 56.7388 52.7006L57.9612 53.3873C57.9873 53.4004 58.0162 53.4073 58.0455 53.4073C58.0749 53.4073 58.1038 53.4004 58.1299 53.3873L59.1858 52.7923C59.2318 52.7689 59.2274 52.7262 59.1858 52.6985L57.9634 52.0118C57.9377 51.9989 57.9093 51.992 57.8804 51.9916C57.8515 51.9912 57.8229 51.9974 57.7969 52.0096V52.0118ZM56.2503 52.8819L55.1856 53.4726C55.1396 53.4982 55.144 53.5409 55.1856 53.5665L56.4058 54.2553C56.4321 54.2679 56.4609 54.2745 56.4902 54.2745C56.5194 54.2745 56.5483 54.2679 56.5745 54.2553L57.6326 53.6624C57.6764 53.6369 57.6742 53.5942 57.6326 53.5665L56.4102 52.8798C56.3853 52.8681 56.3579 52.862 56.3302 52.862C56.3026 52.862 56.2752 52.8681 56.2503 52.8798V52.8819ZM59.3479 51.1417L58.2898 51.7367C58.246 51.7623 58.2482 51.8049 58.2898 51.8305L59.5122 52.5172C59.5382 52.5303 59.5672 52.5371 59.5965 52.5371C59.6258 52.5371 59.6548 52.5303 59.6808 52.5172L60.7367 51.9222C60.7827 51.8988 60.7783 51.8561 60.7367 51.8284L59.5165 51.1417C59.4905 51.1286 59.4615 51.1217 59.4322 51.1217C59.4029 51.1217 59.3739 51.1286 59.3479 51.1417ZM53.168 54.6157L52.1122 55.2086C52.0662 55.2342 52.0683 55.2769 52.1122 55.3046L53.3345 55.9913C53.3608 56.0039 53.3896 56.0104 53.4189 56.0104C53.4481 56.0104 53.477 56.0039 53.5032 55.9913L54.5613 55.3984C54.6051 55.3728 54.6029 55.3302 54.5613 55.3024L53.3389 54.6157C53.3116 54.6017 53.2811 54.5944 53.2502 54.5944C53.2193 54.5944 53.1888 54.6017 53.1615 54.6157H53.168ZM54.7125 53.7478L53.6522 54.3406C53.6062 54.3662 53.6084 54.4089 53.6522 54.4366L54.8746 55.1233C54.9008 55.1359 54.9296 55.1425 54.9589 55.1425C54.9882 55.1425 55.017 55.1359 55.0432 55.1233L56.1013 54.5304C56.1451 54.5048 56.1429 54.4622 56.1013 54.4345L54.8789 53.7478C54.8523 53.7339 54.8226 53.7267 54.7924 53.7267C54.7622 53.7267 54.7325 53.7339 54.7059 53.7478H54.7125ZM53.5843 59.877L54.6424 59.282C54.6862 59.2564 54.684 59.2137 54.6424 59.1881L53.42 58.4993C53.3937 58.4867 53.3649 58.4801 53.3356 58.4801C53.3064 58.4801 53.2775 58.4867 53.2513 58.4993L52.1954 59.0922C52.1494 59.1177 52.1538 59.1604 52.1954 59.1881L53.4156 59.8748C53.4408 59.8868 53.4684 59.8931 53.4964 59.8935C53.5244 59.8939 53.5522 59.8882 53.5777 59.877H53.5843ZM44.5216 58.9855L43.2992 58.2988C43.2731 58.2857 43.2442 58.2789 43.2149 58.2789C43.1855 58.2789 43.1566 58.2857 43.1305 58.2988L42.0724 58.8938C42.0286 58.9173 42.0308 58.9599 42.0724 58.9877L43.2948 59.6744C43.3209 59.6875 43.3498 59.6943 43.3792 59.6943C43.4085 59.6943 43.4374 59.6875 43.4635 59.6744L44.5194 59.0794C44.5654 59.0538 44.561 59.0111 44.515 58.9855H44.5216ZM46.8349 59.6466L45.6125 58.9599C45.5864 58.9468 45.5575 58.94 45.5282 58.94C45.4988 58.94 45.4699 58.9468 45.4438 58.9599L43.8184 59.8748C43.7746 59.9004 43.7768 59.9409 43.8184 59.9687L45.0408 60.6554C45.0668 60.6685 45.0958 60.6753 45.1251 60.6753C45.1544 60.6753 45.1834 60.6685 45.2094 60.6554L46.8349 59.7405C46.8809 59.7149 46.8765 59.6744 46.8283 59.6466H46.8349ZM42.6464 57.6569L41.424 56.9702C41.3979 56.9571 41.369 56.9502 41.3397 56.9502C41.3103 56.9502 41.2814 56.9571 41.2553 56.9702L39.9541 57.7017C39.9081 57.7273 39.9125 57.7699 39.9541 57.7976L41.1765 58.4843C41.2027 58.4969 41.2316 58.5035 41.2608 58.5035C41.2901 58.5035 41.3189 58.4969 41.3451 58.4843L42.6442 57.7529C42.699 57.7273 42.699 57.6846 42.6398 57.6569H42.6464ZM43.6431 57.096C43.6692 57.1091 43.6981 57.1159 43.7275 57.1159C43.7568 57.1159 43.7857 57.1091 43.8118 57.096L44.8677 56.501C44.9137 56.4754 44.9115 56.4349 44.8677 56.4072L43.6453 55.7204C43.6192 55.7074 43.5903 55.7005 43.561 55.7005C43.5316 55.7005 43.5027 55.7074 43.4766 55.7204L42.4186 56.3155C42.3747 56.341 42.3769 56.3816 42.4186 56.4093L43.6431 57.096ZM48.9817 60.4059L47.7593 59.7191C47.7333 59.7061 47.7044 59.6992 47.675 59.6992C47.6457 59.6992 47.6167 59.7061 47.5907 59.7191L45.5578 60.8622C45.5139 60.8878 45.5161 60.9305 45.5578 60.9561L46.7801 61.6428C46.8062 61.6559 46.8351 61.6627 46.8645 61.6627C46.8938 61.6627 46.9227 61.6559 46.9488 61.6428L48.9817 60.4997C49.0321 60.4677 49.0299 60.4272 48.9817 60.4059ZM49.996 61.7985L48.7736 61.1118C48.7475 61.0987 48.7186 61.0918 48.6893 61.0918C48.6599 61.0918 48.631 61.0987 48.6049 61.1118L47.2993 61.8326C47.2555 61.8582 47.2577 61.9008 47.2993 61.9264L48.5217 62.6153C48.5479 62.6279 48.5768 62.6344 48.606 62.6344C48.6353 62.6344 48.6641 62.6279 48.6904 62.6153L49.9916 61.8838C50.0464 61.8603 50.0442 61.8198 49.996 61.7921V61.7985ZM55.1221 50.6469C55.1478 50.66 55.1764 50.6668 55.2053 50.6668C55.2343 50.6668 55.2629 50.66 55.2886 50.6469L56.3467 50.0519C56.3905 50.0284 56.3883 49.9858 56.3467 49.958L55.1243 49.2713C55.0982 49.2582 55.0693 49.2514 55.04 49.2514C55.0106 49.2514 54.9817 49.2582 54.9556 49.2713L53.8997 49.8663C53.8537 49.8919 53.8581 49.9346 53.8997 49.9602L55.1221 50.6469ZM52.0311 52.385C52.0573 52.3976 52.0862 52.4042 52.1154 52.4042C52.1447 52.4042 52.1736 52.3976 52.1998 52.385L53.2579 51.79C53.3017 51.7665 53.2995 51.7239 53.2579 51.6962L52.0355 51.0094C52.0093 50.9968 51.9804 50.9903 51.9511 50.9903C51.9219 50.9903 51.893 50.9968 51.8668 51.0094L50.8043 51.5959C50.7583 51.6215 50.7605 51.6642 50.8043 51.6898L52.0311 52.385ZM45.181 56.2344C45.2072 56.247 45.236 56.2536 45.2653 56.2536C45.2945 56.2536 45.3234 56.247 45.3496 56.2344L46.4055 55.6394C46.4515 55.6138 46.4493 55.5712 46.4055 55.5456L45.1788 54.861C45.1527 54.8479 45.1238 54.8411 45.0944 54.8411C45.0651 54.8411 45.0362 54.8479 45.0101 54.861L43.952 55.456C43.9082 55.4795 43.9104 55.5221 43.952 55.5498L45.181 56.2344ZM53.5755 51.5149C53.6016 51.528 53.6305 51.5348 53.6598 51.5348C53.6892 51.5348 53.7181 51.528 53.7442 51.5149L54.8023 50.9199C54.8461 50.8964 54.8439 50.8538 54.8023 50.826L53.5799 50.1393C53.5538 50.1262 53.5249 50.1194 53.4956 50.1194C53.4662 50.1194 53.4373 50.1262 53.4112 50.1393L52.3553 50.7343C52.3093 50.7599 52.3137 50.8026 52.3553 50.8282L53.5755 51.5149ZM50.4867 53.253C50.5129 53.2656 50.5418 53.2721 50.571 53.2721C50.6003 53.2721 50.6292 53.2656 50.6554 53.253L51.7135 52.6601C51.7573 52.6345 51.7551 52.5919 51.7135 52.5641L50.4845 51.8753C50.4584 51.8622 50.4295 51.8554 50.4002 51.8554C50.3708 51.8554 50.3419 51.8622 50.3158 51.8753L49.2709 52.4639C49.2249 52.4895 49.2271 52.5321 49.2709 52.5599L50.4867 53.253ZM50.8438 61.8987C50.8177 61.8856 50.7888 61.8788 50.7594 61.8788C50.7301 61.8788 50.7012 61.8856 50.6751 61.8987L49.0518 62.8136C49.008 62.8392 49.0102 62.8819 49.0518 62.9096L50.2786 63.6048C50.3048 63.6174 50.3337 63.624 50.3629 63.624C50.3922 63.624 50.421 63.6174 50.4473 63.6048L52.0727 62.6921C52.1165 62.6665 52.1143 62.6238 52.0727 62.5961L50.8438 61.8987ZM48.2698 54.4878C48.2958 54.5009 48.3248 54.5077 48.3541 54.5077C48.3835 54.5077 48.4124 54.5009 48.4384 54.4878L49.49 53.9013C49.5338 53.8757 49.5316 53.8331 49.49 53.8053L48.2676 53.1186C48.2413 53.106 48.2125 53.0995 48.1832 53.0995C48.154 53.0995 48.1251 53.106 48.0989 53.1186L47.043 53.7115C46.997 53.7371 46.9992 53.7797 47.043 53.8075L48.2698 54.4878ZM46.7254 55.3558C46.7516 55.3684 46.7805 55.3749 46.8097 55.3749C46.839 55.3749 46.8678 55.3684 46.894 55.3558L47.9521 54.7608C47.9959 54.7352 47.9937 54.6925 47.9521 54.6669L46.7297 53.9802C46.7037 53.9671 46.6747 53.9603 46.6454 53.9603C46.6161 53.9603 46.5871 53.9671 46.5611 53.9802L45.503 54.5731C45.4592 54.5987 45.4614 54.6413 45.503 54.6691L46.7254 55.3558ZM79.4624 45.8186C79.4361 45.806 79.4073 45.7994 79.378 45.7994C79.3488 45.7994 79.3199 45.806 79.2937 45.8186L76.6912 47.2816C76.6474 47.3072 76.6496 47.3498 76.6912 47.3754L77.9136 48.0643C77.9398 48.0769 77.9687 48.0834 77.9979 48.0834C78.0272 48.0834 78.056 48.0769 78.0822 48.0643L80.6825 46.6013C80.7285 46.5778 80.7264 46.5352 80.6825 46.5074L79.4624 45.8186ZM76.0471 47.738C76.0211 47.7249 75.9921 47.718 75.9628 47.718C75.9335 47.718 75.9045 47.7249 75.8785 47.738L74.8226 48.333C74.7766 48.3586 74.7788 48.4012 74.8226 48.4268L76.0449 49.1135C76.071 49.1266 76.0999 49.1334 76.1293 49.1334C76.1586 49.1334 76.1875 49.1266 76.2136 49.1135L77.2717 48.5185C77.3155 48.4951 77.3133 48.4524 77.2717 48.4247L76.0471 47.738ZM55.1243 59.0068L56.1802 58.414C56.224 58.3884 56.2218 58.3457 56.1802 58.318L54.9512 57.6334C54.925 57.6208 54.8961 57.6143 54.8669 57.6143C54.8376 57.6143 54.8088 57.6208 54.7826 57.6334L53.7267 58.2263C53.6807 58.2519 53.685 58.2945 53.7267 58.3223L54.949 59.009C54.9761 59.0228 55.0063 59.0299 55.0369 59.0295C55.0675 59.0292 55.0976 59.0214 55.1243 59.0068ZM72.9583 49.4739C72.9323 49.4608 72.9033 49.454 72.874 49.454C72.8446 49.454 72.8157 49.4608 72.7896 49.4739L71.7316 50.0668C71.6878 50.0924 71.6899 50.1351 71.7316 50.1628L72.9539 50.8495C72.9802 50.8621 73.009 50.8686 73.0383 50.8686C73.0675 50.8686 73.0964 50.8621 73.1226 50.8495L74.1785 50.2566C74.2245 50.231 74.2223 50.1884 74.1785 50.1606L72.9583 49.4739ZM81.0068 44.9506C80.9807 44.9375 80.9518 44.9307 80.9224 44.9307C80.8931 44.9307 80.8642 44.9375 80.8381 44.9506L79.78 45.5456C79.7362 45.5712 79.7384 45.6139 79.78 45.6394L81.0024 46.3262C81.0285 46.3393 81.0574 46.3461 81.0867 46.3461C81.1161 46.3461 81.145 46.3393 81.1711 46.3262L82.2269 45.7312C82.2729 45.7077 82.2708 45.665 82.2269 45.6373L81.0068 44.9506ZM83.7735 44.7693L80.8162 43.1016C80.7901 43.0885 80.7612 43.0817 80.7318 43.0817C80.7025 43.0817 80.6736 43.0885 80.6475 43.1016L79.5916 43.6966C79.5456 43.7201 79.5478 43.7627 79.5916 43.7904L82.5599 45.4582C82.586 45.4713 82.6149 45.4781 82.6443 45.4781C82.6736 45.4781 82.7025 45.4713 82.7286 45.4582L83.7867 44.8632C83.8239 44.8376 83.8217 44.7971 83.7735 44.7693ZM67.186 52.7283C67.1597 52.7157 67.1309 52.7092 67.1016 52.7092C67.0724 52.7092 67.0435 52.7157 67.0173 52.7283L65.7161 53.4598C65.6722 53.4833 65.6744 53.526 65.7161 53.5537L66.9384 54.2404C66.9645 54.2535 66.9934 54.2603 67.0228 54.2603C67.0521 54.2603 67.081 54.2535 67.1071 54.2404L68.4062 53.5089C68.4522 53.4833 68.45 53.4406 68.4062 53.4129L67.186 52.7283ZM71.0875 50.536C71.0613 50.5234 71.0324 50.5168 71.0032 50.5168C70.9739 50.5168 70.9451 50.5234 70.9188 50.536L69.2934 51.4509C69.2496 51.4765 69.2518 51.5191 69.2934 51.5447L70.5201 52.2165C70.5462 52.2296 70.5751 52.2364 70.6045 52.2364C70.6338 52.2364 70.6627 52.2296 70.6888 52.2165L72.3143 51.3016C72.3581 51.2782 72.3559 51.2355 72.3143 51.2078L71.0875 50.536ZM63.6087 54.7394C63.5826 54.7263 63.5537 54.7195 63.5243 54.7195C63.495 54.7195 63.4661 54.7263 63.44 54.7394L54.7475 59.6147C54.7015 59.6402 54.7059 59.6829 54.7475 59.7106L55.9699 60.3973C55.9961 60.4099 56.025 60.4165 56.0542 60.4165C56.0835 60.4165 56.1123 60.4099 56.1386 60.3973L64.8354 55.5093C64.8814 55.4837 64.8792 55.4411 64.8354 55.4133L63.6087 54.7394ZM54.4211 59.9026C54.3949 59.89 54.366 59.8834 54.3368 59.8834C54.3075 59.8834 54.2786 59.89 54.2524 59.9026L52.9512 60.6191C52.9074 60.6447 52.9096 60.6852 52.9512 60.713L54.1736 61.3997C54.1996 61.4128 54.2286 61.4196 54.2579 61.4196C54.2872 61.4196 54.3162 61.4128 54.3422 61.3997L55.6435 60.6682C55.6873 60.6426 55.6851 60.5999 55.6435 60.5743L54.4211 59.9026ZM65.3962 53.735C65.3701 53.7219 65.3412 53.715 65.3119 53.715C65.2825 53.715 65.2536 53.7219 65.2275 53.735L63.9285 54.4665C63.8825 54.492 63.8847 54.5347 63.9285 54.5624L65.1509 55.2491C65.1771 55.2617 65.206 55.2683 65.2352 55.2683C65.2645 55.2683 65.2933 55.2617 65.3196 55.2491L66.6208 54.5176C66.6646 54.492 66.6624 54.4515 66.6208 54.4238L65.3962 53.735ZM52.6335 60.9092C52.6075 60.8961 52.5785 60.8892 52.5492 60.8892C52.5198 60.8892 52.4909 60.8961 52.4649 60.9092L51.1636 61.6407C51.1176 61.6663 51.122 61.7089 51.1636 61.7366L52.386 62.4233C52.4122 62.4359 52.4411 62.4425 52.4703 62.4425C52.4996 62.4425 52.5284 62.4359 52.5547 62.4233L53.8712 61.6854C53.9172 61.6599 53.9151 61.6193 53.8712 61.5916L52.6335 60.9092ZM68.9735 51.7239C68.9473 51.7113 68.9185 51.7047 68.8892 51.7047C68.86 51.7047 68.8311 51.7113 68.8049 51.7239L67.5036 52.4554C67.4598 52.481 67.462 52.5236 67.5036 52.5513L68.726 53.2381C68.7521 53.2511 68.781 53.258 68.8103 53.258C68.8397 53.258 68.8686 53.2511 68.8947 53.2381L70.1959 52.5087C70.2397 52.4831 70.2375 52.4404 70.1959 52.4127L68.9735 51.7239ZM74.5027 48.6166C74.4765 48.604 74.4476 48.5975 74.4184 48.5975C74.3891 48.5975 74.3603 48.604 74.3341 48.6166L73.276 49.2116C73.2322 49.2372 73.2343 49.2799 73.276 49.3055L74.4984 49.9943C74.5246 50.0069 74.5534 50.0135 74.5827 50.0135C74.6119 50.0135 74.6408 50.0069 74.667 49.9943L75.7251 49.4014C75.7689 49.3758 75.7667 49.3332 75.7251 49.3055L74.5027 48.6166ZM77.8873 46.2238L78.9432 45.6288C78.9892 45.6032 78.987 45.5627 78.9432 45.5349L77.7164 44.8376C77.6903 44.8245 77.6614 44.8177 77.6321 44.8177C77.6027 44.8177 77.5738 44.8245 77.5477 44.8376L76.4896 45.4326C76.4458 45.4582 76.448 45.5008 76.4896 45.5264L77.712 46.2131C77.7389 46.2273 77.7691 46.2347 77.7997 46.2347C77.8303 46.2347 77.8604 46.2273 77.8873 46.2131V46.2238ZM70.9802 46.1811L72.0383 45.5861C72.0821 45.5605 72.0799 45.5179 72.0383 45.4923L70.8159 44.8056C70.7898 44.7925 70.7609 44.7857 70.7315 44.7857C70.7022 44.7857 70.6733 44.7925 70.6472 44.8056L69.5913 45.4006C69.5453 45.4241 69.5475 45.4667 69.5913 45.4944L70.8137 46.1811C70.8405 46.1918 70.8694 46.1963 70.8982 46.1945C70.927 46.1926 70.9551 46.1844 70.9802 46.1705V46.1811ZM67.4751 52.0736L70.564 50.3355C70.6078 50.3121 70.6056 50.2694 70.564 50.2417L69.3416 49.555C69.3155 49.5419 69.2866 49.5351 69.2572 49.5351C69.2279 49.5351 69.199 49.5419 69.1729 49.555L66.0841 51.2909C66.0381 51.3165 66.0425 51.3592 66.0841 51.3869L67.3065 52.0736C67.3344 52.0857 67.3649 52.091 67.3954 52.0891C67.4259 52.0873 67.4555 52.0783 67.4817 52.063L67.4751 52.0736ZM76.1676 47.0875C76.1937 47.1006 76.2226 47.1074 76.252 47.1074C76.2813 47.1074 76.3102 47.1006 76.3363 47.0875L77.3922 46.4946C77.4382 46.469 77.4338 46.4264 77.3922 46.3987L76.1698 45.712C76.1436 45.6994 76.1147 45.6928 76.0855 45.6928C76.0562 45.6928 76.0274 45.6994 76.0011 45.712L74.9431 46.307C74.8992 46.3326 74.9014 46.3752 74.9431 46.4008L76.1676 47.0875ZM74.5904 46.1108L75.6462 45.5158C75.6923 45.4923 75.6901 45.4496 75.6462 45.4219L74.4239 44.7352C74.3978 44.7221 74.3689 44.7153 74.3395 44.7153C74.3102 44.7153 74.2813 44.7221 74.2552 44.7352L73.1971 45.3302C73.1533 45.3558 73.1555 45.3985 73.1971 45.4241L74.4195 46.1108C74.4476 46.1237 74.4786 46.1295 74.5096 46.1277C74.5406 46.1258 74.5707 46.1163 74.5969 46.1001L74.5904 46.1108ZM65.9286 52.9352L66.9866 52.3402C67.0304 52.3146 67.0283 52.272 66.9866 52.2464L65.7643 51.5597C65.7382 51.5466 65.7093 51.5397 65.6799 51.5397C65.6506 51.5397 65.6217 51.5466 65.5956 51.5597L64.5397 52.1547C64.4937 52.1781 64.4981 52.2208 64.5397 52.2485L65.7599 52.9352C65.7864 52.9499 65.8162 52.9581 65.8467 52.9592C65.8772 52.9603 65.9075 52.9543 65.9351 52.9416L65.9286 52.9352ZM72.7524 49.0005C72.7785 49.0136 72.8074 49.0204 72.8368 49.0204C72.8661 49.0204 72.895 49.0136 72.9211 49.0005L73.9792 48.4055C74.023 48.382 74.0208 48.3394 73.9792 48.3116L72.7568 47.6249C72.7307 47.6118 72.7018 47.605 72.6725 47.605C72.6431 47.605 72.6142 47.6118 72.5881 47.6249L71.5322 48.2199C71.4862 48.2455 71.4884 48.2882 71.5322 48.3138L72.7524 49.0005ZM58.2065 57.2751L59.2624 56.6823C59.3084 56.6567 59.304 56.614 59.2624 56.5863L58.0335 55.8953C58.0072 55.8827 57.9784 55.8762 57.9491 55.8762C57.9199 55.8762 57.891 55.8827 57.8648 55.8953L56.8067 56.4903C56.7629 56.5159 56.7651 56.5586 56.8067 56.5863L58.0291 57.273C58.0575 57.2878 58.0892 57.2954 58.1214 57.295C58.1536 57.2946 58.1851 57.2863 58.2131 57.2709L58.2065 57.2751ZM59.7509 56.4072L60.8068 55.8143C60.8528 55.7887 60.8506 55.746 60.8068 55.7183L59.5844 55.0316C59.5582 55.019 59.5294 55.0124 59.5001 55.0124C59.4709 55.0124 59.442 55.019 59.4158 55.0316L58.3577 55.6266C58.3139 55.6522 58.3161 55.6949 58.3577 55.7204L59.5801 56.4072C59.6076 56.4211 59.6383 56.428 59.6693 56.4272C59.7004 56.4265 59.7307 56.4181 59.7575 56.4029L59.7509 56.4072ZM56.6621 58.1431L57.718 57.5502C57.764 57.5247 57.7596 57.482 57.718 57.4543L56.5 56.7633C56.4739 56.7502 56.445 56.7434 56.4157 56.7434C56.3863 56.7434 56.3574 56.7502 56.3313 56.7633L55.2733 57.3562C55.2294 57.3818 55.2316 57.4244 55.2733 57.4521L56.4956 58.1389C56.5224 58.1522 56.5521 58.1591 56.5822 58.1591C56.6122 58.1591 56.6419 58.1522 56.6687 58.1389L56.6621 58.1431ZM62.8529 54.6669L63.911 54.0719C63.9548 54.0463 63.9526 54.0058 63.911 53.9781L62.6886 53.2914C62.6625 53.2783 62.6336 53.2714 62.6042 53.2714C62.5749 53.2714 62.546 53.2783 62.5199 53.2914L61.464 53.8864C61.418 53.912 61.4202 53.9525 61.464 53.9802L62.6864 54.6669C62.7122 54.6797 62.7407 54.6863 62.7696 54.6863C62.7986 54.6863 62.8271 54.6797 62.8529 54.6669ZM61.3085 55.5349L62.3666 54.9399C62.4104 54.9164 62.4082 54.8738 62.3666 54.8461L61.1442 54.1593C61.1181 54.1463 61.0892 54.1394 61.0598 54.1394C61.0305 54.1394 61.0016 54.1463 60.9755 54.1593L59.9174 54.7544C59.8736 54.78 59.8758 54.8226 59.9174 54.8482L61.1398 55.5349C61.165 55.547 61.1928 55.5532 61.2209 55.5532C61.249 55.5532 61.2767 55.547 61.3019 55.5349H61.3085ZM64.3863 53.7947L65.4444 53.1997C65.4882 53.1741 65.486 53.1335 65.4444 53.1058L64.222 52.4191C64.196 52.406 64.167 52.3992 64.1377 52.3992C64.1084 52.3992 64.0794 52.406 64.0534 52.4191L62.9975 53.0141C62.9515 53.0397 62.9558 53.0802 62.9975 53.108L64.2198 53.7947C64.2456 53.8074 64.2742 53.8141 64.3031 53.8141C64.332 53.8141 64.3605 53.8074 64.3863 53.7947ZM71.4534 40.9498C71.4794 40.9629 71.5084 40.9697 71.5377 40.9697C71.567 40.9697 71.596 40.9629 71.622 40.9498L72.6801 40.3548C72.7239 40.3292 72.7217 40.2887 72.6801 40.2609L72.3537 40.0775C72.3276 40.0644 72.2987 40.0576 72.2694 40.0576C72.24 40.0576 72.2111 40.0644 72.185 40.0775L71.1291 40.6704C71.0853 40.696 71.0875 40.7386 71.1291 40.7664L71.4534 40.9498ZM63.854 45.7269C63.8802 45.7395 63.9091 45.746 63.9383 45.746C63.9676 45.746 63.9965 45.7395 64.0227 45.7269L65.0786 45.134C65.1246 45.1084 65.1224 45.0658 65.0786 45.038L63.8562 44.3513C63.8301 44.3382 63.8012 44.3314 63.7719 44.3314C63.7425 44.3314 63.7136 44.3382 63.6875 44.3513L62.6338 44.9485C62.59 44.9741 62.5922 45.0167 62.6338 45.0444L63.854 45.7269ZM66.9428 43.9888C66.9689 44.0019 66.9978 44.0087 67.0272 44.0087C67.0565 44.0087 67.0854 44.0019 67.1115 43.9888L68.1696 43.3959C68.2134 43.3703 68.2112 43.3277 68.1696 43.2999L66.9472 42.6132C66.921 42.6006 66.8921 42.5941 66.8629 42.5941C66.8336 42.5941 66.8048 42.6006 66.7785 42.6132L65.7204 43.2082C65.6766 43.2338 65.6788 43.2765 65.7204 43.3021L66.9428 43.9888ZM61.9766 46.7911C62.0027 46.8042 62.0316 46.811 62.061 46.811C62.0903 46.811 62.1192 46.8042 62.1453 46.7911L63.2012 46.1982C63.2472 46.1726 63.245 46.13 63.2012 46.1022L61.9766 45.4177C61.9504 45.4051 61.9215 45.3985 61.8923 45.3985C61.863 45.3985 61.8342 45.4051 61.808 45.4177L60.7499 46.0105C60.7061 46.0361 60.7082 46.0788 60.7499 46.1065L61.9766 46.7911ZM65.4072 44.8717C65.4334 44.8843 65.4623 44.8909 65.4915 44.8909C65.5208 44.8909 65.5496 44.8843 65.5759 44.8717L66.6317 44.2788C66.6778 44.2532 66.6756 44.2106 66.6317 44.1829L65.4094 43.4961C65.3833 43.483 65.3544 43.4762 65.325 43.4762C65.2957 43.4762 65.2668 43.483 65.2407 43.4961L64.1673 44.0805C64.1235 44.1061 64.1257 44.1487 64.1673 44.1743L65.4072 44.8717ZM58.8834 48.527C58.9097 48.5396 58.9385 48.5462 58.9678 48.5462C58.997 48.5462 59.0259 48.5396 59.0521 48.527L60.108 47.932C60.1518 47.9064 60.1496 47.8638 60.108 47.8382L58.8856 47.1515C58.8596 47.1384 58.8306 47.1316 58.8013 47.1316C58.7719 47.1316 58.743 47.1384 58.7169 47.1515L57.6611 47.7444C57.6151 47.77 57.6194 47.8126 57.6611 47.8403L58.8834 48.527ZM60.4278 47.6591C60.4539 47.6722 60.4828 47.679 60.5122 47.679C60.5415 47.679 60.5704 47.6722 60.5965 47.6591L61.6524 47.0662C61.6984 47.0406 61.694 46.9979 61.6524 46.9702L60.4322 46.2835C60.406 46.2709 60.3771 46.2644 60.3479 46.2644C60.3186 46.2644 60.2898 46.2709 60.2635 46.2835L59.2055 46.8764C59.1617 46.902 59.1638 46.9446 59.2055 46.9724L60.4278 47.6591ZM68.3689 42.69C68.395 42.7031 68.4239 42.7099 68.4533 42.7099C68.4826 42.7099 68.5115 42.7031 68.5376 42.69L69.5935 42.0971C69.6395 42.0715 69.6373 42.0289 69.5935 42.0012L69.2671 41.8178C69.2409 41.8052 69.212 41.7986 69.1828 41.7986C69.1535 41.7986 69.1246 41.8052 69.0984 41.8178L68.0425 42.4106C67.9965 42.4362 67.9987 42.4789 68.0425 42.5066L68.3689 42.69ZM73.0021 40.086C73.0282 40.0991 73.0571 40.106 73.0865 40.106C73.1158 40.106 73.1447 40.0991 73.1708 40.086L74.2289 39.491C74.2727 39.4654 74.2705 39.4228 74.2289 39.3972L73.9047 39.2138C73.8785 39.2012 73.8496 39.1946 73.8204 39.1946C73.7911 39.1946 73.7622 39.2012 73.736 39.2138L72.6779 39.8088C72.6341 39.8344 72.6363 39.877 72.6779 39.9026L73.0021 40.086ZM75.5696 41.5298C75.5958 41.5424 75.6247 41.549 75.6539 41.549C75.6832 41.549 75.712 41.5424 75.7383 41.5298L76.7963 40.937C76.8401 40.9114 76.838 40.8687 76.7963 40.841L75.5586 40.1564C75.5324 40.1438 75.5035 40.1373 75.4743 40.1373C75.445 40.1373 75.4162 40.1438 75.3899 40.1564L74.3341 40.7493C74.2881 40.7749 74.2902 40.8175 74.3341 40.8453L75.5696 41.5298ZM79.4317 45.3451L80.4876 44.7501C80.5336 44.7245 80.5314 44.684 80.4876 44.6563L79.2652 43.9696C79.2391 43.9565 79.2102 43.9497 79.1809 43.9497C79.1515 43.9497 79.1226 43.9565 79.0965 43.9696L78.0384 44.5646C77.9946 44.5902 77.9968 44.6307 78.0384 44.6584L79.2608 45.3451C79.2872 45.3586 79.3165 45.3656 79.3462 45.3656C79.376 45.3656 79.4053 45.3586 79.4317 45.3451ZM69.9133 41.822C69.9394 41.8351 69.9683 41.8419 69.9977 41.8419C70.027 41.8419 70.0559 41.8351 70.082 41.822L71.1401 41.227C71.1839 41.2036 71.1817 41.1609 71.1401 41.1332L70.8137 40.9498C70.7875 40.9372 70.7586 40.9306 70.7293 40.9306C70.7001 40.9306 70.6712 40.9372 70.645 40.9498L69.5891 41.5426C69.5431 41.5682 69.5475 41.6109 69.5891 41.6386L69.9133 41.822ZM57.3368 49.395C57.3631 49.4076 57.3919 49.4142 57.4212 49.4142C57.4504 49.4142 57.4793 49.4076 57.5055 49.395L58.5636 48.8C58.6074 48.7744 58.6052 48.7318 58.5636 48.7062L57.3412 48.0195C57.3151 48.0064 57.2862 47.9995 57.2569 47.9995C57.2275 47.9995 57.1986 48.0064 57.1725 48.0195L56.1167 48.6145C56.0707 48.6379 56.075 48.6806 56.1167 48.7083L57.3368 49.395Z" fill="#E0E0E0"/>
<path d="M63.6174 58.7424L75.1862 52.24L82.3058 56.2408L70.737 62.7432L63.6174 58.7424Z" fill="#263238"/>
<path d="M40.3813 20.1821L74.851 0.807051C75.5258 0.427441 76.0778 0.738806 76.0778 1.49589V27.4885C76.0662 27.6806 76.0087 27.8675 75.9098 28.0341C75.8109 28.2007 75.6734 28.3425 75.5082 28.4482L40.1622 48.3138C39.8489 48.4887 39.5926 48.3458 39.5926 47.9939V21.5107C39.6084 21.2447 39.6879 20.986 39.8248 20.7552C39.9618 20.5245 40.1523 20.3282 40.3813 20.1821Z" fill="#F5F5F5"/>
<path d="M76.0778 2.11861V1.49587C76.0778 0.738786 75.5258 0.429554 74.851 0.807032L40.3813 20.1821C40.1523 20.3282 39.9618 20.5245 39.8248 20.7552C39.6879 20.9859 39.6084 21.2447 39.5926 21.5107V22.6261L76.0778 2.11861Z" fill="#263238"/>
<path d="M70.9363 3.53682C70.8149 3.61587 70.714 3.72141 70.6417 3.84506C70.5695 3.96871 70.5278 4.10706 70.5201 4.24912C70.5201 4.51143 70.7107 4.61807 70.9429 4.48584C71.0662 4.40858 71.1688 4.30389 71.2423 4.18041C71.3158 4.05693 71.3581 3.9182 71.3657 3.77567C71.3591 3.51336 71.1773 3.40672 70.9363 3.53682Z" fill="#E0E0E0"/>
<path d="M72.6122 2.59632C72.4889 2.67404 72.3862 2.77913 72.3127 2.90295C72.2393 3.02678 72.197 3.1658 72.1894 3.30862C72.1894 3.57094 72.3778 3.67544 72.6122 3.54535C72.7363 3.46641 72.8393 3.35988 72.9128 3.23456C72.9864 3.10923 73.0282 2.96868 73.035 2.82451C73.035 2.57073 72.8444 2.4641 72.6122 2.59632Z" fill="#E0E0E0"/>
<path d="M74.288 1.6537C74.165 1.73167 74.0625 1.83682 73.9891 1.96059C73.9156 2.08436 73.8732 2.22326 73.8652 2.366C73.8652 2.62831 74.0536 2.73495 74.288 2.60272C74.4106 2.52497 74.5127 2.42012 74.5857 2.29671C74.6588 2.17329 74.7009 2.03481 74.7086 1.89255C74.7086 1.63024 74.5202 1.52361 74.288 1.6537Z" fill="#E0E0E0"/>
<path d="M39.5926 22.6261V27.6272L76.0756 7.12183V2.11865L39.5926 22.6261Z" fill="#BA68C8"/>
<path opacity="0.1" d="M39.5926 22.6261V27.6272L76.0756 7.12183V2.11865L39.5926 22.6261Z" fill="black"/>
<path d="M41.9826 25.0211C41.8599 25.0582 41.7296 25.0648 41.6036 25.0403V22.5899C41.6026 22.5433 41.6131 22.4973 41.6343 22.4555C41.6604 22.4153 41.6966 22.3823 41.7394 22.3595L41.9278 22.255C41.976 22.2273 42.0111 22.2188 42.033 22.2316C42.0549 22.2444 42.0658 22.2764 42.0658 22.3297V23.1358C42.1357 23.0302 42.2197 22.9341 42.3156 22.8501C42.4173 22.7601 42.529 22.6815 42.6485 22.6155C42.9246 22.4598 43.1371 22.4235 43.2882 22.511C43.4394 22.5984 43.5073 22.7967 43.5073 23.1038C43.511 23.4485 43.4202 23.7878 43.2444 24.087C43.0571 24.3953 42.7886 24.6493 42.4667 24.8227C42.3155 24.9103 42.1526 24.9771 41.9826 25.0211ZM42.8983 24.0209C43.0013 23.8229 43.0518 23.6029 43.0451 23.3811C43.0451 23.1678 43.0056 23.0399 42.929 22.9865C42.8523 22.9332 42.723 22.9546 42.5412 23.0569C42.4115 23.1312 42.2989 23.2306 42.2104 23.3491C42.1195 23.4594 42.0686 23.5959 42.0658 23.7372V24.5775C42.1237 24.5836 42.1823 24.5763 42.2367 24.5562C42.3127 24.532 42.3861 24.5006 42.4558 24.4623C42.6433 24.3591 42.7968 24.2059 42.8983 24.0209Z" fill="#FAFAFA"/>
<path d="M43.9038 23.9185C43.8819 23.9036 43.8709 23.8737 43.8709 23.8226V21.3146C43.8696 21.2677 43.8809 21.2214 43.9038 21.1802C43.9287 21.1391 43.9652 21.1058 44.0089 21.0842L44.2039 20.9755C44.2521 20.9478 44.2872 20.9414 44.3091 20.952C44.331 20.9627 44.3419 20.9968 44.3419 21.0501V23.5581C44.344 23.6034 44.3334 23.6484 44.3112 23.6882C44.2856 23.73 44.2484 23.764 44.2039 23.7863L44.0089 23.8951C43.9586 23.9228 43.9235 23.9377 43.9038 23.9185Z" fill="#FAFAFA"/>
<path d="M44.9619 23.138C44.7888 23.0463 44.7034 22.8394 44.7034 22.5131C44.7025 22.1902 44.7918 21.8732 44.9619 21.5961C45.1407 21.3045 45.3954 21.0639 45.7001 20.8987C46.0178 20.7195 46.2653 20.6854 46.4384 20.7665C46.6114 20.8475 46.6991 21.065 46.6991 21.3913C46.7003 21.7145 46.6101 22.0318 46.4384 22.3084C46.2597 22.6006 46.005 22.8419 45.7001 23.0079C45.3803 23.187 45.1349 23.2297 44.9619 23.138ZM46.0966 22.2252C46.1902 22.0487 46.2369 21.8522 46.2324 21.6536C46.2324 21.4404 46.1864 21.3018 46.0966 21.2399C46.0068 21.1781 45.8776 21.1973 45.7001 21.2954C45.5331 21.3868 45.3957 21.522 45.3036 21.6856C45.2089 21.8602 45.1614 22.0555 45.1656 22.2529C45.1656 22.469 45.2116 22.6112 45.3036 22.6794C45.3956 22.7434 45.5227 22.7264 45.7001 22.6304C45.8685 22.5368 46.006 22.3985 46.0966 22.2316V22.2252Z" fill="#FAFAFA"/>
<path d="M47.5819 22.5451C47.484 22.5839 47.3787 22.6021 47.273 22.5984C47.2336 22.5984 47.2248 22.5707 47.2445 22.5238L47.3497 22.2614C47.3579 22.236 47.3731 22.2132 47.3935 22.1953C47.4057 22.1922 47.4185 22.1922 47.4307 22.1953C47.6187 22.1814 47.7998 22.1204 47.9565 22.0183C48.1051 21.9395 48.2297 21.8241 48.3179 21.6835C48.4007 21.5253 48.4399 21.349 48.4318 21.1717C48.3671 21.2886 48.286 21.3963 48.1909 21.4916C48.092 21.5885 47.98 21.6717 47.8579 21.739C47.5841 21.8925 47.3694 21.9288 47.216 21.8477C47.0627 21.7667 46.986 21.5705 46.986 21.2655C46.9832 20.929 47.0781 20.5985 47.2599 20.3122C47.4574 20.0094 47.7301 19.7601 48.0529 19.5871C48.1991 19.5025 48.3569 19.4386 48.5217 19.3973C48.6424 19.3624 48.7697 19.3544 48.8941 19.3739V20.7921C48.8975 21.1077 48.8224 21.4194 48.675 21.7006C48.5196 21.9823 48.2838 22.2141 47.9959 22.3681C47.8635 22.4387 47.7249 22.4979 47.5819 22.5451ZM48.3026 20.9669C48.3862 20.8458 48.4312 20.7034 48.4318 20.5575V19.8217C48.3707 19.8266 48.3108 19.841 48.2544 19.8644C48.1785 19.8932 48.1053 19.9282 48.0353 19.9689C47.852 20.0636 47.7001 20.2071 47.5973 20.3827C47.4945 20.5583 47.4451 20.7587 47.4548 20.9605C47.4548 21.1738 47.4964 21.2932 47.5819 21.3465C47.6673 21.3999 47.8009 21.3743 47.9718 21.2783C48.106 21.2016 48.2194 21.0949 48.3026 20.9669Z" fill="#FAFAFA"/>
<path d="M45.8206 26.339V43.9184C45.8206 44.0357 45.8842 44.0954 45.9608 44.0506C46.0053 44.0144 46.0409 43.969 46.0651 43.9177C46.0894 43.8665 46.1016 43.8106 46.101 43.7542V26.1748C46.101 26.0575 46.0375 25.9999 45.9608 26.0447C45.9162 26.0803 45.8804 26.1253 45.8562 26.1763C45.8319 26.2272 45.8197 26.2829 45.8206 26.339Z" fill="#BA68C8"/>
<path d="M35.1434 33.1592L43.0933 28.6807C43.3561 28.5335 43.5686 28.653 43.5686 28.9473V34.3919C43.5597 34.5522 43.512 34.7082 43.4294 34.8472C43.3467 34.9862 43.2316 35.1042 43.0933 35.1916L35.1434 39.6595C34.8827 39.8067 34.6702 39.6872 34.6702 39.3929V33.9611C34.6789 33.8007 34.7263 33.6445 34.8085 33.5052C34.8907 33.3659 35.0054 33.2474 35.1434 33.1592Z" fill="#E0E0E0"/>
<path d="M43.5752 28.9558C43.5752 28.6615 43.3561 28.5421 43.0998 28.6892L35.15 33.1678C35.0123 33.2557 34.8977 33.3739 34.8155 33.5128C34.7334 33.6517 34.6858 33.8074 34.6768 33.9675V34.4303L43.5752 29.4207V28.9558Z" fill="#BA68C8"/>
<path d="M35.5574 34.9229L39.1172 32.9225V36.4243L35.5574 38.4247V34.9229Z" fill="#FAFAFA"/>
<path d="M35.5596 37.915L36.8937 35.6075C36.9042 35.5842 36.9209 35.564 36.9419 35.549C36.963 35.5339 36.9877 35.5245 37.0137 35.5217C37.0396 35.5189 37.0659 35.5228 37.0898 35.533C37.1138 35.5432 37.1345 35.5593 37.15 35.5798L37.6166 36.0788L38.4206 34.2725C38.4688 34.1637 38.563 34.153 38.6397 34.2512L39.126 34.9229V36.4158L35.5662 38.4162L35.5596 37.915Z" fill="#BA68C8"/>
<path d="M40.0089 32.7242C40.0089 32.8905 40.1359 32.9545 40.2936 32.865L42.3923 31.6856C42.4736 31.6355 42.5417 31.5675 42.5912 31.4872C42.6406 31.4068 42.67 31.3163 42.6771 31.2228C42.6771 31.0565 42.55 30.9925 42.3945 31.0821L40.2893 32.255C40.2075 32.3058 40.1394 32.3749 40.0907 32.4565C40.0419 32.5381 40.0138 32.6299 40.0089 32.7242Z" fill="#FAFAFA"/>
<path d="M40.0089 34.1744C40.0089 34.3407 40.1359 34.4047 40.2936 34.3173L42.3923 33.1358C42.4738 33.0859 42.5421 33.018 42.5916 32.9376C42.6411 32.8572 42.6704 32.7665 42.6771 32.673C42.6771 32.5066 42.55 32.4448 42.3945 32.5322L40.2893 33.7009C40.2073 33.7525 40.1391 33.8224 40.0904 33.9047C40.0416 33.987 40.0137 34.0795 40.0089 34.1744Z" fill="#FAFAFA"/>
<path d="M40.0089 35.6032C40.0089 35.7717 40.1359 35.8335 40.2936 35.7461L42.3923 34.5646C42.4738 34.5152 42.5421 34.4477 42.5916 34.3677C42.6411 34.2876 42.6704 34.1972 42.6771 34.104C42.6771 33.9376 42.55 33.8736 42.3945 33.9611L40.2893 35.1426C40.2086 35.1924 40.1411 35.2601 40.0924 35.3402C40.0436 35.4202 40.015 35.5104 40.0089 35.6032Z" fill="#FAFAFA"/>
<path d="M35.1434 41.5875L43.0933 37.1196C43.3561 36.9724 43.5686 37.0919 43.5686 37.3862V42.8308C43.5597 42.9911 43.512 43.1471 43.4294 43.2861C43.3467 43.4251 43.2316 43.5431 43.0933 43.6305L35.1434 48.1091C34.8827 48.2562 34.6702 48.1368 34.6702 47.8425V42.3872C34.6793 42.2271 34.7268 42.0714 34.809 41.9325C34.8912 41.7936 35.0057 41.6754 35.1434 41.5875Z" fill="#E0E0E0"/>
<path d="M43.5752 37.3862C43.5752 37.0919 43.3561 36.9724 43.0998 37.1196L35.15 41.5875C35.0123 41.6754 34.8977 41.7936 34.8155 41.9325C34.7334 42.0714 34.6858 42.2271 34.6768 42.3872V42.8521L43.5752 37.8489V37.3862Z" fill="#BA68C8"/>
<path d="M35.5574 43.3511L39.1172 41.3507V44.8525L35.5574 46.8529V43.3511Z" fill="#FAFAFA"/>
<path d="M35.5596 46.3453L36.8937 44.0378C36.9042 44.0145 36.9209 43.9943 36.9419 43.9793C36.963 43.9642 36.9877 43.9548 37.0137 43.952C37.0396 43.9492 37.0659 43.9531 37.0898 43.9633C37.1138 43.9735 37.1345 43.9896 37.15 44.0101L37.6166 44.507L38.4206 42.7006C38.4688 42.5919 38.563 42.5833 38.6397 42.6793L39.126 43.3511V44.8439L35.5662 46.8444L35.5596 46.3453Z" fill="#BA68C8"/>
<path d="M40.0089 41.1524C40.0089 41.3187 40.1359 41.3827 40.2936 41.2953L42.3923 40.1138C42.4738 40.0644 42.5421 39.9969 42.5916 39.9168C42.6411 39.8368 42.6704 39.7464 42.6771 39.6531C42.6771 39.4847 42.55 39.4228 42.3945 39.5103L40.2893 40.6917C40.2086 40.7416 40.1411 40.8093 40.0924 40.8894C40.0436 40.9694 40.015 41.0595 40.0089 41.1524Z" fill="#FAFAFA"/>
<path d="M40.0089 42.5919C40.0089 42.7604 40.1359 42.8223 40.2936 42.7348L42.3923 41.5533C42.4738 41.504 42.5421 41.4364 42.5916 41.3564C42.6411 41.2763 42.6704 41.1859 42.6771 41.0927C42.6771 40.9263 42.55 40.8623 42.3945 40.9498L40.2893 42.1313C40.2086 42.1811 40.1411 42.2488 40.0924 42.3289C40.0436 42.4089 40.015 42.4991 40.0089 42.5919Z" fill="#FAFAFA"/>
<path d="M40.0089 44.0336C40.0089 44.1999 40.1359 44.2639 40.2936 44.1743L42.3923 42.995C42.4736 42.9449 42.5417 42.8769 42.5912 42.7966C42.6406 42.7162 42.67 42.6256 42.6771 42.5322C42.6771 42.3659 42.55 42.3019 42.3945 42.3915L40.2893 43.5708C40.2087 43.6214 40.1415 43.6895 40.0928 43.7699C40.0441 43.8502 40.0154 43.9405 40.0089 44.0336Z" fill="#FAFAFA"/>
<path d="M48.9664 33.3618L73.4074 19.6255C73.6681 19.4783 73.8806 19.5978 73.8806 19.8921V26.8296C73.8716 26.9896 73.824 27.1454 73.7418 27.2843C73.6597 27.4232 73.5451 27.5414 73.4074 27.6293L48.9664 41.3657C48.7035 41.5128 48.491 41.3934 48.491 41.0991V34.1616C48.5 34.0013 48.5477 33.8452 48.6303 33.7063C48.7129 33.5673 48.8281 33.4493 48.9664 33.3618Z" fill="#E0E0E0"/>
<path d="M73.8806 19.8857C73.8806 19.5914 73.6615 19.4719 73.4074 19.6191L48.9664 33.3618C48.8281 33.4493 48.7129 33.5673 48.6303 33.7063C48.5477 33.8452 48.5 34.0012 48.491 34.1616V34.6244L73.8806 20.3549V19.8857Z" fill="#BA68C8"/>
<path d="M54.5284 31.9202L49.5907 34.6926C49.4807 34.7632 49.3892 34.8577 49.3234 34.9688C49.2576 35.0799 49.2194 35.2044 49.2117 35.3324V40.0839C49.2117 40.3185 49.3826 40.4145 49.5907 40.2972L54.5284 37.5248C54.6385 37.4543 54.7302 37.3598 54.796 37.2487C54.8618 37.1376 54.9 37.013 54.9074 36.885V32.1334C54.8986 31.8989 54.7278 31.8029 54.5284 31.9202Z" fill="#FAFAFA"/>
<path d="M50.9445 36.0938L49.203 39.7193V40.0946C49.203 40.3292 49.3738 40.4252 49.582 40.3079L54.5197 37.5354C54.6298 37.465 54.7214 37.3705 54.7872 37.2594C54.853 37.1483 54.8912 37.0237 54.8986 36.8956V35.2407L53.9654 33.5346C53.8515 33.3213 53.6828 33.332 53.5886 33.5495L52.1187 36.9084L51.4046 36.0426C51.3808 36 51.3445 35.9654 51.3004 35.943C51.2562 35.9207 51.2063 35.9117 51.1568 35.9172C51.1074 35.9227 51.0608 35.9424 51.023 35.9739C50.9851 36.0054 50.9578 36.0471 50.9445 36.0938Z" fill="#BA68C8"/>
<path d="M49.7747 36.0511C50.0228 35.8936 50.2293 35.6814 50.3774 35.4316C50.5254 35.1819 50.6109 34.9017 50.6269 34.6137C50.6331 34.4616 50.5877 34.3117 50.4976 34.1872L49.582 34.7012C49.472 34.7717 49.3804 34.8663 49.3146 34.9774C49.2488 35.0884 49.2106 35.2129 49.203 35.341V36.1322C49.2979 36.1647 49.3995 36.1743 49.4991 36.1602C49.5987 36.1461 49.6933 36.1086 49.7747 36.0511Z" fill="#BA68C8"/>
<path d="M57.1287 30.8752L72.3887 22.2998C72.6078 22.1804 72.7677 22.2614 72.7677 22.479C72.7576 22.6017 72.7181 22.7205 72.6523 22.8257C72.5865 22.9309 72.4962 23.0196 72.3887 23.0846L57.1287 31.6621C56.9096 31.7794 56.7497 31.6984 56.7497 31.4808C56.7598 31.358 56.7993 31.2393 56.8652 31.1341C56.931 31.0289 57.0213 30.9402 57.1287 30.8752Z" fill="#FAFAFA"/>
<path d="M57.1287 32.8756L72.3887 24.3002C72.6078 24.1808 72.7677 24.2619 72.7677 24.4794C72.7576 24.6022 72.7181 24.7209 72.6523 24.8261C72.5865 24.9313 72.4962 25.02 72.3887 25.0851L57.1287 33.6625C56.9096 33.7798 56.7497 33.6988 56.7497 33.4813C56.76 33.3585 56.7996 33.2398 56.8654 33.1346C56.9312 33.0295 57.0214 32.9408 57.1287 32.8756Z" fill="#FAFAFA"/>
<path d="M57.1287 34.876L72.3887 26.3007C72.6078 26.1812 72.7677 26.2623 72.7677 26.4798C72.7575 26.6028 72.7179 26.7218 72.6521 26.8274C72.5863 26.9329 72.4961 27.022 72.3887 27.0876L57.1287 35.6672C56.9096 35.7845 56.7497 35.7035 56.7497 35.486C56.7593 35.3625 56.7986 35.2429 56.8644 35.137C56.9303 35.031 57.0208 34.9416 57.1287 34.876Z" fill="#FAFAFA"/>
<path d="M82.0955 11.4212L79.8566 11.3551C79.7055 11.2314 77.3527 8.64667 77.3527 8.64667C77.3527 8.64667 76.5071 9.94545 76.4918 10.0286C76.4765 10.1118 78.7986 12.5281 79.0286 12.7712C79.0931 12.8529 79.176 12.919 79.271 12.9645C79.366 13.01 79.4704 13.0336 79.5762 13.0335C80.183 13.0676 82.4547 13.2233 82.4547 13.2233L82.0955 11.4212Z" fill="#F28F8F"/>
<path d="M85.2785 13.9271L81.826 13.6775L82.0933 11.4212L85.6575 11.498L85.2785 13.9271Z" fill="#BA68C8"/>
<path opacity="0.2" d="M85.2785 13.9271L81.826 13.6775L82.0933 11.4212L85.6575 11.498L85.2785 13.9271Z" fill="black"/>
<path d="M53.4156 21.3487L77.8566 7.61232C78.1173 7.46517 78.3298 7.58459 78.3298 7.8789V14.8185C78.3205 14.9785 78.2729 15.1342 78.1908 15.2731C78.1086 15.412 77.9941 15.5302 77.8566 15.6183L53.4156 29.3546C53.1527 29.5018 52.9402 29.3823 52.9402 29.088V22.1484C52.9491 21.9881 52.9968 21.8321 53.0795 21.6931C53.1621 21.5541 53.2772 21.4361 53.4156 21.3487Z" fill="#E0E0E0"/>
<path d="M78.3298 7.8789C78.3298 7.58459 78.1107 7.46517 77.8566 7.61232L53.4156 21.3487C53.2772 21.4361 53.1621 21.5541 53.0795 21.6931C52.9968 21.8321 52.9491 21.9881 52.9402 22.1484V22.6112L78.3298 8.34168V7.8789Z" fill="#BA68C8"/>
<path d="M58.9688 19.9091L54.0311 22.6816C53.9208 22.7518 53.829 22.8462 53.7631 22.9574C53.6973 23.0686 53.6593 23.1932 53.6521 23.3214V28.0708C53.6521 28.3054 53.823 28.4013 54.0311 28.284L58.9688 25.5116C59.0792 25.4414 59.171 25.3469 59.2369 25.2358C59.3027 25.1246 59.3407 24.9999 59.3478 24.8718V20.1224C59.3478 19.8857 59.1769 19.7919 58.9688 19.9091Z" fill="#FAFAFA"/>
<path d="M55.4047 24.0827L53.6521 27.6975V28.0729C53.6521 28.3074 53.823 28.4034 54.0311 28.2861L58.9688 25.5137C59.0792 25.4435 59.171 25.349 59.2369 25.2379C59.3027 25.1267 59.3407 25.002 59.3478 24.8739V23.2339L58.4146 21.5278C58.3007 21.3145 58.132 21.3273 58.0378 21.5427L56.5679 24.908L55.8537 24.04C55.8289 24.0013 55.7934 23.9701 55.7514 23.95C55.7093 23.9298 55.6623 23.9214 55.6156 23.9259C55.569 23.9303 55.5245 23.9473 55.4872 23.975C55.4499 24.0027 55.4214 24.04 55.4047 24.0827Z" fill="#BA68C8"/>
<path d="M54.2239 24.0401C54.4719 23.882 54.6783 23.6693 54.8263 23.4192C54.9744 23.1692 55.0599 22.8887 55.0761 22.6005C55.0819 22.4484 55.0366 22.2986 54.9468 22.174L54.0311 22.6901C53.9208 22.7603 53.829 22.8548 53.7631 22.9659C53.6973 23.0771 53.6593 23.2018 53.6521 23.3299V24.119C53.7469 24.1518 53.8484 24.1618 53.948 24.148C54.0476 24.1343 54.1422 24.0972 54.2239 24.0401Z" fill="#BA68C8"/>
<path d="M61.5779 18.862L76.8379 10.2888C77.057 10.1715 77.2169 10.2504 77.2169 10.4679C77.2068 10.591 77.1673 10.7101 77.1015 10.8156C77.0357 10.9212 76.9454 11.0102 76.8379 11.0757L61.5779 19.6511C61.3698 19.7684 61.1989 19.6895 61.1989 19.472C61.2088 19.3486 61.2483 19.2291 61.3141 19.1232C61.3799 19.0173 61.4702 18.9279 61.5779 18.862Z" fill="#FAFAFA"/>
<path d="M61.5779 20.8624L76.8379 12.2871C77.057 12.1698 77.2169 12.2508 77.2169 12.4662C77.2068 12.5893 77.1673 12.7084 77.1015 12.8139C77.0357 12.9194 76.9454 13.0085 76.8379 13.074L61.5779 21.6494C61.3698 21.7688 61.1989 21.6878 61.1989 21.4702C61.2092 21.3472 61.2488 21.2282 61.3146 21.1227C61.3803 21.0172 61.4705 20.9281 61.5779 20.8624Z" fill="#FAFAFA"/>
<path d="M61.5779 22.8714L76.8379 14.296C77.057 14.1787 77.2169 14.2597 77.2169 14.4751C77.2068 14.5982 77.1673 14.7173 77.1015 14.8228C77.0357 14.9284 76.9454 15.0174 76.8379 15.0829L61.5779 23.6583C61.3698 23.7777 61.1989 23.6967 61.1989 23.4792C61.2092 23.3561 61.2488 23.2371 61.3146 23.1316C61.3803 23.0261 61.4705 22.937 61.5779 22.8714Z" fill="#FAFAFA"/>
<path d="M89.6861 37.7828H88.3936V39.6169H89.6861V37.7828Z" fill="#FFA8A7"/>
<path d="M85.1403 35.5085L83.8486 35.5518L83.9133 37.3847L85.205 37.3415L85.1403 35.5085Z" fill="#FFA8A7"/>
<path d="M89.6028 19.8857C89.6028 21.0885 89.7627 28.8662 89.7627 28.8662C89.7934 29.2117 90.1264 29.8494 90.0541 31.1802C89.9577 32.9844 89.7956 38.0046 89.7956 38.0046C89.7956 38.0046 89.191 38.5911 88.3344 38.0046C88.3344 38.0046 87.1624 31.1908 86.9302 29.4037C86.7287 27.8426 86.3848 23.6007 86.3848 23.6007L85.1974 28.5826C85.1974 28.5826 85.4165 29.7555 85.4559 30.5851C85.4953 31.4147 85.2369 36.1961 85.2369 36.1961C85.0277 36.3241 84.7878 36.3964 84.541 36.4057C84.2942 36.4151 84.0492 36.3612 83.8305 36.2494C83.8305 36.2494 82.7877 29.2693 82.6453 28.5101C82.5029 27.7509 83.5544 19.8857 83.5544 19.8857H89.6028Z" fill="#455A64"/>
<path d="M87.6575 11.5534H87.675C88.2285 11.6913 88.7188 12.0052 89.068 12.4452C89.4173 12.8853 89.6055 13.4264 89.6028 13.9825V19.8857C88.6959 20.8454 85.5348 21.2932 83.5544 19.8857V13.7437C83.5544 12.7626 84.1131 11.5833 85.6596 11.4958L87.6575 11.5534Z" fill="#BA68C8"/>
<path d="M88.0913 6.53319C88.1956 6.52137 88.3014 6.53289 88.4005 6.56689C88.4995 6.6009 88.5894 6.65648 88.663 6.7294C88.9084 6.97252 88.8558 7.42464 88.663 8.4611L87.9051 8.54641L88.0913 6.53319Z" fill="#263238"/>
<path d="M83.6793 6.23672C83.5159 6.23738 83.3541 6.20544 83.2039 6.14289C82.9717 6.01279 82.9126 6.26871 83.0396 6.49264C83.1234 6.65262 83.248 6.78898 83.4014 6.88868C83.5548 6.98838 83.732 7.04808 83.9159 7.06206C83.9159 7.03007 84.135 6.48624 84.135 6.48624L83.6793 6.23672Z" fill="#263238"/>
<path d="M87.7364 8.54643C87.8503 8.61254 88.0102 8.40141 88.1482 8.26065C88.2029 8.20017 88.2725 8.15421 88.3504 8.12707C88.4284 8.09994 88.5121 8.09253 88.5938 8.10553C88.6755 8.11854 88.7524 8.15153 88.8174 8.20142C88.8824 8.25131 88.9333 8.31645 88.9653 8.39075C89.1954 8.86206 88.674 9.48906 88.3673 9.69592C88.2814 9.7685 88.1741 9.81274 88.0607 9.82232C87.9474 9.83189 87.8339 9.80631 87.7364 9.74924L87.6575 11.5535C87.522 11.8429 87.3147 12.0949 87.0543 12.287C86.7939 12.4791 86.4885 12.6052 86.1657 12.6539C85.0704 12.7989 85.3026 11.9245 85.6597 11.4959V10.8412C85.3876 10.8975 85.1081 10.9111 84.8316 10.8817C84.6892 10.8454 84.3518 10.4551 84.1328 10.0009C83.8874 9.49972 83.4756 8.61041 83.8414 7.1069C84.2335 5.49249 86.0145 5.44344 87.077 6.09389C88.1395 6.74435 87.7364 8.54643 87.7364 8.54643Z" fill="#FFA8A7"/>
<path d="M87.7364 8.73193C87.7933 8.73193 88.008 8.38431 88.1482 8.26061C88.3432 8.09 88.0913 6.53317 88.0913 6.53317C88.0913 6.53317 88.2884 5.94457 87.9051 5.55216C87.5217 5.15975 86.7791 5.228 86.2358 5.2088C85.569 5.21273 84.9084 5.08354 84.2949 4.82919C83.526 4.5029 83.4668 4.46451 83.3726 4.79507C83.2784 5.12563 83.239 5.87845 83.7012 6.38602L84.0824 6.52251C84.0824 6.52251 84.2905 6.70165 85.009 6.78696C85.6725 6.8357 86.3393 6.82284 87.0003 6.74857C87.2084 6.72085 87.2544 6.91918 87.3662 7.45661C87.4647 7.92792 87.548 8.72766 87.7364 8.73193Z" fill="#263238"/>
<path d="M88.0913 6.66328L88.7704 6.30926C88.7487 6.2646 88.718 6.22469 88.68 6.19194C88.6421 6.15919 88.5977 6.13428 88.5496 6.11873C88.5014 6.10317 88.4506 6.0973 88.4 6.10145C88.3495 6.10561 88.3003 6.11972 88.2556 6.14292C88.1648 6.1925 88.097 6.27421 88.0665 6.37109C88.0359 6.46797 88.0448 6.5726 88.0913 6.66328Z" fill="#263238"/>
<path d="M85.6618 10.8411C86.1262 10.7548 86.5815 10.6278 87.0222 10.4615C87.2283 10.3552 87.3975 10.192 87.5086 9.99231C87.4555 10.1926 87.3616 10.3804 87.2325 10.5447C86.974 10.8646 85.6618 11.1013 85.6618 11.1013V10.8411Z" fill="#F28F8F"/>
<path d="M85.9028 8.30116C85.9058 8.33971 85.9203 8.37657 85.9445 8.4072C85.9687 8.43783 86.0016 8.46091 86.0391 8.47359C86.0766 8.48627 86.1171 8.488 86.1557 8.47857C86.1942 8.46914 86.229 8.44896 86.2559 8.42051C86.2828 8.39206 86.3005 8.35658 86.307 8.31844C86.3134 8.28029 86.3083 8.24115 86.2922 8.20581C86.2761 8.17047 86.2497 8.14049 86.2164 8.11954C86.183 8.09859 86.1441 8.08759 86.1043 8.0879C86.0766 8.08871 86.0494 8.09491 86.0241 8.10613C85.9989 8.11735 85.9762 8.13337 85.9575 8.15323C85.9387 8.1731 85.9242 8.19642 85.9148 8.22182C85.9054 8.24723 85.9013 8.2742 85.9028 8.30116Z" fill="#263238"/>
<path d="M86.1175 7.55898L86.5557 7.79144C86.5866 7.73377 86.5933 7.66669 86.5745 7.60426C86.5558 7.54184 86.5129 7.48892 86.4549 7.45661C86.4262 7.44021 86.3943 7.42984 86.3612 7.42614C86.3282 7.42244 86.2947 7.42551 86.2629 7.43515C86.2312 7.44479 86.2018 7.46078 86.1768 7.48211C86.1518 7.50343 86.1316 7.52961 86.1175 7.55898Z" fill="#263238"/>
<path d="M85.9181 9.63403L85.4581 9.80251C85.4679 9.83278 85.484 9.86079 85.5053 9.88484C85.5265 9.90889 85.5526 9.92849 85.5819 9.94245C85.6112 9.9564 85.6431 9.96443 85.6756 9.96604C85.7082 9.96764 85.7408 9.9628 85.7714 9.9518C85.8332 9.92749 85.883 9.88086 85.9104 9.82164C85.9377 9.76242 85.9405 9.6952 85.9181 9.63403Z" fill="#F28F8F"/>
<path d="M84.1021 7.72962L84.4964 7.43319C84.4779 7.40736 84.4542 7.38546 84.4268 7.36881C84.3994 7.35216 84.3688 7.34111 84.3368 7.33632C84.3048 7.33154 84.2722 7.33312 84.2409 7.34097C84.2096 7.34882 84.1803 7.36278 84.1547 7.382C84.102 7.42247 84.0672 7.48101 84.0574 7.54564C84.0476 7.61027 84.0636 7.6761 84.1021 7.72962Z" fill="#263238"/>
<path d="M84.2248 8.24572C84.2223 8.27289 84.2257 8.30025 84.2348 8.32606C84.2438 8.35187 84.2583 8.37556 84.2772 8.39563C84.2962 8.41569 84.3193 8.43169 84.3449 8.4426C84.3706 8.45351 84.3983 8.45909 84.4263 8.45899C84.4702 8.46242 84.5142 8.45288 84.5524 8.43163C84.5907 8.41038 84.6215 8.37839 84.6408 8.33985C84.6601 8.30131 84.667 8.258 84.6606 8.21557C84.6542 8.17314 84.6349 8.13357 84.6051 8.10201C84.5752 8.07046 84.5363 8.04839 84.4934 8.03868C84.4505 8.02897 84.4056 8.03208 84.3646 8.04759C84.3235 8.06311 84.2882 8.09032 84.2633 8.12566C84.2383 8.161 84.2249 8.20284 84.2248 8.24572Z" fill="#263238"/>
<path d="M85.2522 8.06018L85.1865 9.24166L84.5512 9.03267L85.2522 8.06018Z" fill="#F28F8F"/>
<path d="M88.3958 38.9941V38.815C88.2709 38.8662 87.9839 39.9346 87.4713 40.391C87.0617 40.7536 86.5052 41.1716 86.365 41.5746C86.2248 41.9777 87.1405 42.2272 87.5217 42.1611C87.9598 42.0843 88.7309 41.7815 88.9237 41.5C89.1165 41.2185 89.2063 40.8026 89.3618 40.5979C89.5174 40.3931 89.8788 40.1607 89.9643 39.9218C89.9896 39.6988 89.9642 39.4731 89.8898 39.2607C89.8306 39.0474 89.7649 38.7937 89.6861 38.815V38.9515C89.5025 39.0932 89.2741 39.1686 89.0398 39.1647C88.8536 39.1711 88.3936 39.1349 88.3958 38.9941Z" fill="#263238"/>
<path d="M83.8984 37.0001C83.8305 37.0001 83.7757 37.094 83.6267 37.2518C83.4057 37.4696 83.1488 37.6498 82.8666 37.785C82.3824 38.0195 81.4405 38.3821 81.0155 38.5698C80.7482 38.6871 80.7614 38.9963 81.0352 39.1776C81.309 39.3588 81.975 39.4847 82.7746 39.3098C83.2127 39.216 83.7735 38.8257 84.1328 38.847C84.492 38.8683 85.1602 38.8619 85.4253 38.6849C85.6903 38.5079 85.583 38.1283 85.5085 37.8041C85.4274 37.448 85.3091 36.9042 85.1887 36.9298V37.0407C85.0331 37.2689 84.2423 37.3627 83.9006 37.1942L83.8984 37.0001Z" fill="#263238"/>
<path d="M88.0453 12.3724L84.0495 16.3945C84.0495 16.3945 80.5445 15.7846 79.3484 15.4498C78.9716 15.3453 78.7087 14.7972 78.6255 14.3835C78.6042 14.168 78.4963 13.9695 78.3254 13.8311C78.3254 13.8311 78.3254 14.1318 78.2465 14.6244C78.2158 14.8377 77.8697 14.8654 77.5609 14.9315C76.4655 15.1619 76.0931 14.9315 75.6397 15.2386C75.2892 15.4818 75.7295 16.113 76.5291 16.3263C77.6529 16.627 78.2816 16.4777 78.9563 16.6419C79.4842 16.7699 83.2828 17.9215 84.0057 18.0836C84.3869 18.1646 84.6783 18.139 85.101 17.7402C85.5238 17.3414 88.6696 14.6628 88.6696 14.6628L88.0453 12.3724Z" fill="#FFA8A7"/>
<path d="M88.2227 12.2338C87.7846 12.125 85.112 15.2195 85.112 15.2195L86.5841 16.4223C86.5841 16.4223 88.4899 15.2067 88.8273 14.7162C89.1647 14.2256 89.548 12.5558 88.2227 12.2338Z" fill="#BA68C8"/>
<path d="M86.6805 16.5033C86.6805 16.5033 88.6915 14.7503 88.7857 14.5584C88.9675 14.1894 88.9172 13.507 88.9172 13.507C88.9172 13.507 89.1362 14.0998 88.9172 14.5584C88.6981 15.0169 87.1646 16.3199 86.9215 16.5438L86.6739 16.7699L86.4352 16.5566L86.5775 16.4351L86.6805 16.5033Z" fill="#BA68C8"/>
<path opacity="0.2" d="M86.6805 16.5033C86.6805 16.5033 88.6915 14.7503 88.7857 14.5584C88.9675 14.1894 88.9172 13.507 88.9172 13.507C88.9172 13.507 89.1362 14.0998 88.9172 14.5584C88.6981 15.0169 87.1646 16.3199 86.9215 16.5438L86.6739 16.7699L86.4352 16.5566L86.5775 16.4351L86.6805 16.5033Z" fill="black"/>
<path d="M76.5772 7.82348C77.0154 7.77656 77.3067 7.46093 77.4053 7.54837C77.4452 7.5898 77.4686 7.64383 77.471 7.7006C77.4734 7.75738 77.4547 7.8131 77.4184 7.8576C77.2163 8.00711 76.9954 8.13108 76.7612 8.22655C76.7063 8.44331 76.6668 8.66349 76.6429 8.88553C76.6057 9.21183 76.6188 9.86442 76.3319 10.0862C75.4753 10.7559 75.2563 9.69381 75.2891 8.9815C75.3395 8.09646 76.1194 7.87253 76.5772 7.82348Z" fill="#F28F8F"/>
</svg>
