<?xml version="1.0" encoding="UTF-8"?>
<!DOCTYPE svg PUBLIC "-//W3C//DTD SVG 1.1//EN" "http://www.w3.org/Graphics/SVG/1.1/DTD/svg11.dtd">
<svg xmlns="http://www.w3.org/2000/svg" version="1.1" width="379px" height="247px" style="shape-rendering:geometricPrecision; text-rendering:geometricPrecision; image-rendering:optimizeQuality; fill-rule:evenodd; clip-rule:evenodd" xmlns:xlink="http://www.w3.org/1999/xlink">
<g><path style="opacity:0.795" fill="#fefefe" d="M 276.5,87.5 C 278.453,88.4619 280.286,88.7953 282,88.5C 282.173,109.74 282.673,130.906 283.5,152C 282.167,152.667 281.167,153.667 280.5,155C 275.713,155.879 271.047,155.545 266.5,154C 258.628,143.092 251.128,131.925 244,120.5C 243.764,126.038 243.264,131.538 242.5,137C 242.833,138 243.167,139 243.5,140C 241.993,146.341 238.66,151.508 233.5,155.5C 231.167,155.5 228.833,155.5 226.5,155.5C 225.219,133.323 225.219,111.489 226.5,90C 231.382,88.4453 236.382,88.112 241.5,89C 249.243,100.039 257.41,111.873 266,124.5C 266.778,117.629 266.612,110.795 265.5,104C 267.062,97.0288 270.728,91.5288 276.5,87.5 Z"/></g>
<g><path style="opacity:0.826" fill="#fefefe" d="M 103.5,156.5 C 101.828,134.95 100.828,113.117 100.5,91C 101.167,90.3333 101.833,89.6667 102.5,89C 111.453,88.6144 120.287,88.4477 129,88.5C 129.605,90.4812 130.605,90.8146 132,89.5C 143.067,94.4692 147.234,102.636 144.5,114C 142.597,115.447 140.93,117.114 139.5,119C 142.736,121.781 145.736,124.781 148.5,128C 148.621,133.697 148.621,139.364 148.5,145C 144.325,151.292 138.825,155.125 132,156.5C 130.144,155.264 128.311,155.264 126.5,156.5C 123.445,155.322 120.445,153.489 117.5,151C 117.833,150.667 118.167,150.333 118.5,150C 117.069,149.535 115.903,148.701 115,147.5C 112.378,152.657 108.544,155.657 103.5,156.5 Z M 123.5,103.5 C 130.359,106.494 130.859,110.16 125,114.5C 124.586,114.043 124.086,113.709 123.5,113.5C 121.878,115.439 120.044,115.772 118,114.5C 117.502,111.183 117.335,107.85 117.5,104.5C 119.735,104.795 121.735,104.461 123.5,103.5 Z M 128.5,128.5 C 130.303,130.481 131.97,132.648 133.5,135C 131.959,136.579 130.792,138.413 130,140.5C 129.667,140.167 129.333,139.833 129,139.5C 117.832,144.289 113.999,140.956 117.5,129.5C 121.371,129.815 125.038,129.482 128.5,128.5 Z"/></g>
<g><path style="opacity:0.792" fill="#fefefe" d="M 215.5,142.5 C 220.591,146.9 220.425,151.567 215,156.5C 213.057,155.193 211.223,155.193 209.5,156.5C 190.548,137.882 171.548,119.215 152.5,100.5C 151.071,98.6687 150.571,96.6687 151,94.5C 154.394,88.1955 159.227,87.0289 165.5,91C 183.462,108.439 200.129,125.606 215.5,142.5 Z"/></g>
<g><path style="opacity:0.774" fill="#fefefe" d="M 209.5,88.5 C 217.224,88.3831 220.39,92.0498 219,99.5C 216.203,103.299 213.036,106.799 209.5,110C 212.317,113.318 215.317,116.485 218.5,119.5C 220.77,127.12 217.603,131.12 209,131.5C 201.844,126.009 195.678,119.509 190.5,112C 191.615,110.765 191.615,109.598 190.5,108.5C 196.18,101.155 202.513,94.4882 209.5,88.5 Z"/></g>
<g><path style="opacity:0.768" fill="#fefefe" d="M 187.5,156.5 C 186.833,156.5 186.167,156.5 185.5,156.5C 184.811,155.226 183.977,155.226 183,156.5C 171.858,145.691 161.025,134.524 150.5,123C 150.794,119.525 152.294,116.691 155,114.5C 155.333,114.833 155.667,115.167 156,115.5C 158,112.833 160,112.833 162,115.5C 162.333,115.167 162.667,114.833 163,114.5C 173,124.5 183,134.5 193,144.5C 194.727,146.903 194.894,149.403 193.5,152C 191.976,153.194 190.81,154.694 190,156.5C 189.023,155.226 188.189,155.226 187.5,156.5 Z"/></g>
<g><path style="opacity:0.004" fill="#fefffe" d="M 211.5,131.5 C 212.833,132.167 212.833,132.167 211.5,131.5 Z"/></g>
<g><path style="opacity:0.707" fill="#fefefe" d="M 157.5,138.5 C 165.129,139.621 168.962,143.955 169,151.5C 167.303,154.463 164.803,156.463 161.5,157.5C 157.526,156.408 154.359,153.741 152,149.5C 151.333,147.5 151.333,145.5 152,143.5C 153.516,140.747 155.35,139.081 157.5,138.5 Z"/></g>
<g><path style="opacity:0.004" fill="#fefffe" d="M 215.5,141.5 C 216.833,142.167 216.833,142.167 215.5,141.5 Z"/></g>
<g><path style="opacity:0.004" fill="#fefffe" d="M 103.5,156.5 C 104.833,157.167 104.833,157.167 103.5,156.5 Z"/></g>
<g><path style="opacity:0.004" fill="#fefffe" d="M 185.5,156.5 C 184.833,157.167 184.833,157.167 185.5,156.5 Z"/></g>
<g><path style="opacity:0.004" fill="#fefffe" d="M 187.5,156.5 C 188.833,157.167 188.833,157.167 187.5,156.5 Z"/></g>
<g><path style="opacity:0.004" fill="#fefffe" d="M 209.5,156.5 C 210.833,157.167 210.833,157.167 209.5,156.5 Z"/></g>
<g><path style="opacity:0.004" fill="#fefffe" d="M 212.5,156.5 C 213.833,157.167 213.833,157.167 212.5,156.5 Z"/></g>
</svg>
