<svg width="47" height="47" viewBox="0 0 47 47" fill="none" xmlns="http://www.w3.org/2000/svg">
<path opacity="0.5" d="M23.0058 10C15.8136 10 10 15.8911 10 23.1792C10 30.4673 15.8136 36.3584 23.0058 36.3584C30.198 36.3584 36.0116 30.4673 36.0116 23.1792C36.0116 15.8911 30.198 10 23.0058 10ZM28.5983 28.8462C28.4779 28.9684 28.335 29.0653 28.1777 29.1315C28.0204 29.1976 27.8517 29.2317 27.6814 29.2317C27.511 29.2317 27.3424 29.1976 27.185 29.1315C27.0277 29.0653 26.8848 28.9684 26.7645 28.8462L23.0058 25.0375L19.2471 28.8462C19.0039 29.0927 18.6741 29.2311 18.3302 29.2311C17.9863 29.2311 17.6565 29.0927 17.4133 28.8462C17.1701 28.5998 17.0335 28.2656 17.0335 27.9171C17.0335 27.7446 17.067 27.5737 17.1322 27.4143C17.1974 27.2548 17.2929 27.11 17.4133 26.988L21.172 23.1792L17.4133 19.3704C17.1701 19.124 17.0335 18.7898 17.0335 18.4413C17.0335 18.0928 17.1701 17.7586 17.4133 17.5121C17.6565 17.2657 17.9863 17.1273 18.3302 17.1273C18.6741 17.1273 19.0039 17.2657 19.2471 17.5121L23.0058 21.3209L26.7645 17.5121C26.8849 17.3901 27.0278 17.2933 27.1851 17.2273C27.3425 17.1613 27.5111 17.1273 27.6814 17.1273C27.8516 17.1273 28.0203 17.1613 28.1776 17.2273C28.3349 17.2933 28.4779 17.3901 28.5983 17.5121C28.7187 17.6342 28.8142 17.779 28.8794 17.9384C28.9445 18.0978 28.9781 18.2687 28.9781 18.4413C28.9781 18.6138 28.9445 18.7847 28.8794 18.9441C28.8142 19.1035 28.7187 19.2484 28.5983 19.3704L24.8396 23.1792L28.5983 26.988C29.0925 27.4888 29.0925 28.3323 28.5983 28.8462Z" fill="black"/>
</svg>
