<svg width="95" height="76" viewBox="0 0 95 76" fill="none" xmlns="http://www.w3.org/2000/svg">
<path d="M87.3457 68.3362H93.8063" stroke="#263238" stroke-linecap="round" stroke-linejoin="round"/>
<path d="M5.48093 68.3362H85.8641" stroke="#263238" stroke-linecap="round" stroke-linejoin="round"/>
<path d="M2.41006 68.3362H4.3169" stroke="#263238" stroke-linecap="round" stroke-linejoin="round"/>
<path d="M84.622 49.5322C84.8433 49.5974 85.0768 49.5532 85.2712 49.4092C85.4657 49.2652 85.6054 49.0332 85.6595 48.7641L86.2086 46.0142C86.2621 45.7449 86.2258 45.4607 86.1075 45.224C85.9892 44.9873 85.7986 44.8173 85.5775 44.7514C85.3564 44.6862 85.1231 44.7305 84.9288 44.8746C84.7345 45.0186 84.5952 45.2506 84.5413 45.5195L83.9909 48.2662C83.9638 48.3998 83.9586 48.5385 83.9757 48.6746C83.9928 48.8106 84.0317 48.9411 84.0904 49.0588C84.149 49.1764 84.2262 49.2788 84.3174 49.36C84.4086 49.4413 84.5122 49.4998 84.622 49.5322Z" fill="white" stroke="#263238" stroke-linecap="round" stroke-linejoin="round"/>
<path d="M85.4967 52.744C85.571 52.7691 85.649 52.7733 85.7248 52.7564C85.8007 52.7395 85.8724 52.7019 85.9345 52.6464C85.9967 52.5909 86.0477 52.519 86.0838 52.436C86.1198 52.3531 86.1399 52.2613 86.1426 52.1675L86.3701 48.7133C86.3798 48.5057 86.3309 48.3003 86.2315 48.1311C86.1321 47.9619 85.9883 47.8391 85.8237 47.783C85.7493 47.7579 85.6712 47.7537 85.5953 47.7707C85.5193 47.7877 85.4476 47.8255 85.3854 47.8812C85.3232 47.9368 85.2722 48.009 85.2362 48.0921C85.2003 48.1753 85.1803 48.2673 85.1778 48.3612L84.949 51.8137C84.9391 52.0217 84.9881 52.2274 85.0878 52.3967C85.1875 52.566 85.3318 52.6886 85.4967 52.744Z" fill="white" stroke="#263238" stroke-linecap="round" stroke-linejoin="round"/>
<path d="M79.4304 48.9246L82.298 48.1991C83.3069 48.1744 84.3143 48.3087 85.2949 48.5987L87.2219 49.1687C87.3231 49.1987 87.4281 49.2042 87.531 49.1848C87.6339 49.1655 87.7327 49.1216 87.8217 49.0557C87.9107 48.9899 87.9881 48.9033 88.0496 48.801C88.1111 48.6987 88.1554 48.5826 88.18 48.4595L88.5837 46.4384C88.6332 46.1895 88.5995 45.9269 88.4899 45.7082C88.3804 45.4896 88.2041 45.3328 87.9997 45.2723L86.4387 44.8104C85.2576 44.4611 84.1287 43.8885 83.0933 43.1136L81.0559 40.7731L79.4304 48.9246Z" fill="white" stroke="#263238" stroke-linecap="round" stroke-linejoin="round"/>
<path d="M85.3621 44.4206C85.7174 44.5713 86.0767 44.7023 86.4387 44.8104L87.997 45.2723C88.2014 45.3328 88.3778 45.4896 88.4873 45.7083C88.5968 45.9269 88.6305 46.1895 88.581 46.4384L88.1773 48.4595C88.1527 48.5826 88.1084 48.6987 88.0469 48.801C87.9854 48.9033 87.908 48.9899 87.819 49.0557C87.73 49.1216 87.6313 49.1655 87.5283 49.1848C87.4254 49.2042 87.3204 49.1987 87.2192 49.1687L85.2922 48.5987C85.0517 48.5266 84.8086 48.4644 84.5628 48.412L85.3621 44.4206Z" fill="#263238" stroke="#263238" stroke-linecap="round" stroke-linejoin="round"/>
<path d="M79.0484 49.9245L79.1674 49.9597C79.509 50.0609 79.8533 49.8059 79.9364 49.3902L81.6155 40.9942C81.6986 40.5785 81.4891 40.1594 81.1476 40.0582L81.0286 40.023C80.687 39.9218 80.3427 40.1768 80.2596 40.5925L78.5805 48.9885C78.4974 49.4043 78.7069 49.8233 79.0484 49.9245Z" fill="#92E3A9" stroke="#263238" stroke-linecap="round" stroke-linejoin="round"/>
<path d="M77.9784 41.4528L78.6512 42.7451" stroke="#263238" stroke-width="2" stroke-linecap="round" stroke-linejoin="round"/>
<path d="M76.8951 46.8724L77.9797 46.101" stroke="#263238" stroke-width="2" stroke-linecap="round" stroke-linejoin="round"/>
<path d="M78.0793 44.4369L76.7619 44.0471" stroke="#263238" stroke-width="2" stroke-linecap="round" stroke-linejoin="round"/>
<path d="M84.9584 51.419L84.4969 51.8973C84.4429 51.9544 84.4048 52.0305 84.3879 52.1151C84.377 52.1681 84.3749 52.2232 84.3816 52.2772C84.3884 52.3313 84.4038 52.3831 84.4271 52.4299C84.4503 52.4766 84.481 52.5173 84.5172 52.5495C84.5534 52.5818 84.5945 52.605 84.6382 52.6179L86.0955 53.0503L86.1871 51.4288L84.9584 51.419Z" fill="#263238" stroke="#263238" stroke-linecap="round" stroke-linejoin="round"/>
<path d="M87.3174 46.5465C87.327 46.4998 87.3477 46.4575 87.377 46.4251C87.4062 46.3927 87.4427 46.3715 87.4818 46.3643C87.521 46.357 87.561 46.3641 87.5968 46.3844C87.6327 46.4048 87.6628 46.4377 87.6833 46.4788C87.7039 46.52 87.714 46.5676 87.7123 46.6157C87.7107 46.6638 87.6973 46.7103 87.6741 46.7492C87.6508 46.7881 87.6185 46.8178 87.5814 46.8345C87.5443 46.8512 87.5039 46.8541 87.4655 46.8429C87.4396 46.8356 87.4152 46.8221 87.3936 46.8032C87.3721 46.7843 87.3539 46.7603 87.3401 46.7326C87.3263 46.705 87.3172 46.6743 87.3133 46.6424C87.3094 46.6104 87.3108 46.5778 87.3174 46.5465Z" fill="#92E3A9"/>
<path d="M78.7548 57.0712V55.0223H79.2487C79.3342 55.0182 79.4191 55.0413 79.495 55.0894C79.5561 55.1362 79.6033 55.2057 79.6295 55.2876C79.6611 55.3878 79.6762 55.4947 79.6739 55.602C79.6782 55.7151 79.6593 55.8277 79.6188 55.9296C79.5839 56.0083 79.5285 56.0705 79.4613 56.1065C79.3866 56.1458 79.3058 56.1648 79.2245 56.1622H79.0576V57.0712H78.7548ZM79.0616 55.9001H79.1787C79.2249 55.9039 79.2711 55.8937 79.3133 55.8706C79.3288 55.8614 79.3426 55.8484 79.3537 55.8323C79.3648 55.8162 79.3731 55.7975 79.3779 55.7773C79.3912 55.7215 79.3971 55.6634 79.3954 55.6053C79.3967 55.5448 79.3922 55.4844 79.3819 55.4252C79.3787 55.404 79.3719 55.3839 79.362 55.3661C79.352 55.3483 79.3391 55.3333 79.3241 55.322C79.2821 55.2979 79.2359 55.2867 79.1895 55.2892H79.0724L79.0616 55.9001Z" fill="#263238"/>
<path d="M79.8448 57.0712V55.0222H80.2485C80.3461 55.0193 80.4434 55.0359 80.5365 55.0714C80.6097 55.099 80.6725 55.1569 80.7141 55.2352C80.7601 55.3349 80.7816 55.4486 80.776 55.5627C80.7765 55.6371 80.7702 55.7112 80.7572 55.7838C80.7459 55.8433 80.7243 55.8991 80.694 55.9476C80.6614 55.9961 80.6186 56.0329 80.5702 56.0541L80.8043 57.0614H80.4908L80.2876 56.1245H80.153V57.0614L79.8448 57.0712ZM80.153 55.9001H80.2472C80.2961 55.9031 80.3449 55.8925 80.3898 55.869C80.4246 55.848 80.4515 55.8117 80.4652 55.7675C80.4825 55.7104 80.4903 55.6497 80.4881 55.5889C80.4927 55.5081 80.4767 55.4274 80.4423 55.358C80.4195 55.3295 80.3916 55.3078 80.3608 55.2944C80.3301 55.2811 80.2972 55.2765 80.2647 55.281H80.153V55.9001Z" fill="#263238"/>
<path d="M81.4516 57.099C81.3526 57.1053 81.2542 57.0775 81.1677 57.0188C81.0966 56.9647 81.0429 56.8826 81.0156 56.7862C80.9837 56.6707 80.9682 56.5494 80.9698 56.4275V55.6626C80.968 55.5424 80.9835 55.4226 81.0156 55.3089C81.0435 55.2145 81.0972 55.1348 81.1677 55.0829C81.2567 55.0311 81.3542 55.0042 81.4529 55.0042C81.5517 55.0042 81.6491 55.0311 81.7382 55.0829C81.8084 55.1352 81.862 55.2148 81.8903 55.3089C81.9237 55.4223 81.9396 55.5422 81.9374 55.6626V56.4308C81.9393 56.5512 81.9233 56.671 81.8903 56.7846C81.8621 56.8804 81.8086 56.9622 81.7382 57.0171C81.6508 57.0763 81.5515 57.1047 81.4516 57.099ZM81.4516 56.8239C81.4922 56.8282 81.5326 56.8136 81.5646 56.7829C81.59 56.7536 81.607 56.7152 81.6131 56.6732C81.6214 56.6225 81.6255 56.5709 81.6252 56.5192V55.5775C81.6256 55.5258 81.6216 55.4742 81.6131 55.4235C81.6069 55.3821 81.59 55.3441 81.5646 55.3154C81.5312 55.2898 81.4925 55.2763 81.4529 55.2763C81.4134 55.2763 81.3747 55.2898 81.3412 55.3154C81.3155 55.344 81.298 55.3819 81.2915 55.4235C81.283 55.4742 81.2789 55.5258 81.2793 55.5775V56.5192C81.279 56.5709 81.2831 56.6225 81.2915 56.6732C81.2964 56.7156 81.3135 56.7545 81.3399 56.7829C81.3715 56.8133 81.4114 56.828 81.4516 56.8239Z" fill="#263238"/>
<path d="M82.1581 57.0712L82.1877 55.0272H82.5053L82.7434 56.4422L82.9924 55.0272H83.2992L83.3302 57.0712H83.1027L83.0772 55.6495L82.839 57.0712H82.6546L82.4111 55.6446L82.3895 57.0712H82.1581Z" fill="#263238"/>
<path d="M84.0353 57.099C83.9363 57.1052 83.8379 57.0774 83.7514 57.0188C83.6807 56.9646 83.6274 56.8825 83.6006 56.7862C83.5681 56.6708 83.5526 56.5494 83.5549 56.4275V55.6626C83.5522 55.5423 83.5677 55.4224 83.6006 55.3089C83.628 55.2146 83.6812 55.1348 83.7514 55.0828C83.8383 55.0254 83.9365 54.9982 84.0353 55.0042C84.1354 54.9978 84.235 55.025 84.3233 55.0828C84.393 55.1353 84.4462 55.215 84.474 55.3089C84.5074 55.4223 84.5233 55.5422 84.5211 55.6626V56.4308C84.523 56.5512 84.5071 56.671 84.474 56.7845C84.4464 56.8803 84.3933 56.9621 84.3233 57.0171C84.2355 57.0766 84.1357 57.105 84.0353 57.099ZM84.0353 56.8239C84.0759 56.8282 84.1163 56.8136 84.1483 56.7829C84.1738 56.7536 84.1908 56.7151 84.1968 56.6732C84.2063 56.6227 84.2108 56.571 84.2102 56.5192V55.5775C84.2109 55.5257 84.2064 55.474 84.1968 55.4235C84.1907 55.3821 84.1737 55.3441 84.1483 55.3154C84.1158 55.2861 84.0757 55.2721 84.0353 55.2761C83.9962 55.2725 83.9575 55.2865 83.9263 55.3154C83.9001 55.3435 83.8825 55.3816 83.8765 55.4235C83.8669 55.474 83.8624 55.5257 83.8631 55.5775V56.5192C83.8628 56.5709 83.8668 56.6225 83.8752 56.6732C83.8807 56.7153 83.8978 56.754 83.9236 56.7829C83.9553 56.8132 83.9952 56.8278 84.0353 56.8239Z" fill="#263238"/>
<path d="M84.9073 57.0711V55.3023H84.6382V55.0222H85.4752V55.2974H85.2061V57.0662L84.9073 57.0711Z" fill="#263238"/>
<path d="M85.6394 57.0711V55.0222H85.9421V57.0662L85.6394 57.0711Z" fill="#263238"/>
<path d="M86.6567 57.099C86.5578 57.1045 86.4595 57.0768 86.3728 57.0188C86.3021 56.9646 86.2488 56.8825 86.222 56.7862C86.1895 56.6708 86.174 56.5494 86.1763 56.4275V55.6626C86.1736 55.5423 86.1891 55.4224 86.222 55.3089C86.2494 55.2146 86.3026 55.1348 86.3728 55.0828C86.4621 55.031 86.5598 55.0042 86.6587 55.0042C86.7577 55.0042 86.8554 55.031 86.9447 55.0828C87.0144 55.1353 87.0676 55.215 87.0954 55.3089C87.1288 55.4223 87.1447 55.5422 87.1425 55.6626V56.4308C87.1444 56.5512 87.1285 56.671 87.0954 56.7845C87.0678 56.8803 87.0147 56.9621 86.9447 57.0171C86.8569 57.0766 86.7571 57.105 86.6567 57.099ZM86.6567 56.8238C86.6973 56.8282 86.7377 56.8136 86.7697 56.7829C86.7951 56.7533 86.8124 56.715 86.8195 56.6732C86.8279 56.6225 86.8319 56.5709 86.8316 56.5192V55.5775C86.8321 55.5258 86.828 55.4742 86.8195 55.4235C86.8124 55.3821 86.795 55.3444 86.7697 55.3154C86.7372 55.286 86.6971 55.2721 86.6567 55.2761C86.6176 55.2725 86.5789 55.2865 86.5477 55.3154C86.5215 55.3435 86.5039 55.3816 86.4979 55.4235C86.4883 55.474 86.4838 55.5257 86.4845 55.5775V56.5192C86.4842 56.5709 86.4882 56.6225 86.4966 56.6732C86.5021 56.7153 86.5192 56.754 86.545 56.7829C86.5767 56.8132 86.6166 56.8278 86.6567 56.8238Z" fill="#263238"/>
<path d="M87.3686 57.0711V55.0222H87.5825L87.9862 56.1884V55.0222H88.2392V57.0662H88.0401L87.6364 55.8444V57.0662L87.3686 57.0711Z" fill="#263238"/>
<path d="M87.0658 27.8506L86.4185 27.2479L85.6434 26.5256L83.4701 24.5013V24.4996L83.4674 24.498L83.4513 24.4833L81.0869 26.5666L80.2741 27.2807L79.6107 27.867L81.1394 18.1088L81.8674 13.4639L84.5561 13.5327L84.7566 13.5376L84.9127 13.5409L85.5546 17.8042L87.0658 27.8506Z" fill="#92E3A9" stroke="#263238" stroke-linecap="round" stroke-linejoin="round"/>
<path d="M85.5546 17.8042C85.4571 17.7648 85.3524 17.7609 85.2531 17.7927C85.1186 17.8812 85.0836 18.2677 84.9356 18.3365C84.7875 18.4053 84.5534 18.1465 84.3973 18.1973C84.2412 18.248 84.1497 18.6182 83.9936 18.6493C83.8375 18.6804 83.6518 18.3643 83.493 18.3758C83.3342 18.3872 83.1794 18.7246 83.0206 18.7148C82.8619 18.705 82.7313 18.3512 82.5766 18.3217C82.4218 18.2923 82.2079 18.5838 82.0571 18.5363C81.9064 18.4888 81.8364 18.1072 81.6898 18.0449C81.5431 17.9827 81.2861 18.2087 81.1515 18.1203H81.1421L81.8634 13.4639L84.5547 13.5327H84.7552H84.9113L85.5546 17.8042Z" fill="#263238" stroke="#263238" stroke-linecap="round" stroke-linejoin="round"/>
<path d="M78.8679 11.7393C78.8759 11.5444 78.6162 11.32 78.6404 11.1317C78.6647 10.9433 78.9674 10.8205 79.0065 10.6403C79.0455 10.4602 78.8315 10.167 78.8867 9.98518C78.9419 9.80339 79.2608 9.76572 79.3308 9.59374C79.4007 9.42177 79.2406 9.08765 79.3308 8.92715C79.4209 8.76664 79.7345 8.80595 79.8314 8.6569C79.9283 8.50786 79.8314 8.13935 79.9404 8.00177C80.0494 7.86419 80.3548 7.98539 80.4786 7.86255C80.6025 7.73972 80.5648 7.35647 80.6966 7.25001C80.8285 7.14355 81.1004 7.33845 81.2443 7.25001C81.3883 7.16156 81.4139 6.77503 81.5619 6.70461C81.7099 6.63418 81.9454 6.8946 82.1002 6.84382C82.255 6.79305 82.3465 6.42454 82.5039 6.39342C82.6613 6.3623 82.8457 6.67677 83.0045 6.66694C83.1633 6.65711 83.3167 6.31808 83.4768 6.32791C83.637 6.33773 83.7662 6.69151 83.9196 6.71935C84.073 6.74719 84.2883 6.45893 84.439 6.50643C84.5897 6.55393 84.6597 6.93554 84.8064 6.99778C84.953 7.06002 85.2101 6.834 85.3446 6.92244C85.4792 7.01088 85.4792 7.39577 85.6138 7.50059C85.7483 7.60542 86.0363 7.44327 86.1588 7.56447C86.2812 7.68567 86.2153 8.05582 86.3283 8.19995C86.4414 8.34408 86.7509 8.25072 86.8505 8.39976C86.95 8.54881 86.8209 8.90258 86.9083 9.06309C86.9958 9.22359 87.312 9.21868 87.386 9.39065C87.4601 9.56262 87.2703 9.87381 87.3282 10.0458C87.386 10.2178 87.6982 10.3013 87.74 10.488C87.7817 10.6747 87.5435 10.9302 87.5691 11.1218C87.5946 11.3135 87.8866 11.4641 87.8947 11.6574C87.9028 11.8507 87.6256 12.0407 87.6256 12.2356C87.6256 12.4305 87.8772 12.6549 87.8543 12.8432C87.8315 13.0316 87.5273 13.1544 87.487 13.3346C87.4466 13.5147 87.6619 13.8079 87.6067 13.9897C87.5516 14.1715 87.234 14.2108 87.1627 14.3811C87.0913 14.5515 87.2528 14.8872 87.1627 15.0494C87.0725 15.2115 86.759 15.1689 86.6607 15.3196C86.5625 15.4703 86.6607 15.8372 86.5517 15.9747C86.4427 16.1123 86.1373 15.9911 86.0135 16.1123C85.8896 16.2335 85.9287 16.62 85.7968 16.7249C85.6649 16.8297 85.3931 16.6364 85.2478 16.7249C85.1024 16.8133 85.0782 17.1982 84.9302 17.2686C84.7821 17.3391 84.5466 17.0786 84.3919 17.1294C84.2371 17.1802 84.1443 17.5503 83.9882 17.5814C83.8321 17.6126 83.6477 17.2965 83.4889 17.3079C83.3302 17.3194 83.1754 17.6568 83.0153 17.647C82.8551 17.6371 82.7273 17.2834 82.5725 17.2539C82.4178 17.2244 82.2038 17.5159 82.0531 17.4668C81.9024 17.4177 81.8324 17.0393 81.6857 16.9755C81.539 16.9116 81.282 17.1392 81.1407 17.0524C80.9994 16.9656 81.0062 16.5775 80.8716 16.4743C80.737 16.3711 80.449 16.53 80.3333 16.4104C80.2176 16.2908 80.2768 15.9092 80.1651 15.7749C80.0534 15.6406 79.7412 15.7241 79.6416 15.5751C79.542 15.4261 79.6712 15.0723 79.5838 14.92C79.4963 14.7677 79.1801 14.7562 79.106 14.5924C79.032 14.4286 79.2218 14.1011 79.1639 13.9274C79.106 13.7538 78.7952 13.6736 78.7602 13.4869C78.7252 13.3002 78.9553 13.043 78.9298 12.853C78.9042 12.663 78.6122 12.5091 78.6041 12.3158C78.596 12.1226 78.8611 11.9326 78.8679 11.7393Z" fill="#92E3A9" stroke="#263238" stroke-linecap="round" stroke-linejoin="round"/>
<path d="M84.3809 16.3143C86.3412 15.5519 87.4225 12.9998 86.7962 10.6139C86.1698 8.22806 84.0729 6.91194 82.1126 7.67428C80.1523 8.43662 79.071 10.9888 79.6973 13.3746C80.3237 15.7605 82.4206 17.0766 84.3809 16.3143Z" fill="#263238" stroke="#263238" stroke-linecap="round" stroke-linejoin="round"/>
<path d="M86.0039 14.206C87.008 12.3518 86.5871 9.85804 85.0636 8.63592C83.5402 7.41381 81.4913 7.92617 80.4872 9.7803C79.483 11.6344 79.904 14.1282 81.4274 15.3503C82.9508 16.5725 84.9998 16.0601 86.0039 14.206Z" fill="white" stroke="#263238" stroke-linecap="round" stroke-linejoin="round"/>
<path d="M80.8474 11.3741L80.955 11.777H81.3036L81.021 12.0259L81.1286 12.4305L80.8474 12.1799L80.5648 12.4305L80.6724 12.0259L80.3912 11.777H80.7397L80.8474 11.3741Z" fill="#92E3A9" stroke="#263238" stroke-width="0.5" stroke-linecap="round" stroke-linejoin="round"/>
<path d="M82.0423 11.3741L82.15 11.777H82.4985L82.2173 12.0259L82.3236 12.4305L82.0423 12.1799L81.7611 12.4305L81.8687 12.0259L81.5862 11.777H81.9347L82.0423 11.3741Z" fill="#92E3A9" stroke="#263238" stroke-width="0.5" stroke-linecap="round" stroke-linejoin="round"/>
<path d="M83.2373 11.3741L83.345 11.777H83.6935L83.4122 12.0259L83.5199 12.4305L83.2373 12.1799L82.956 12.4305L83.0637 12.0259L82.7825 11.777H83.1296L83.2373 11.3741Z" fill="#92E3A9" stroke="#263238" stroke-width="0.5" stroke-linecap="round" stroke-linejoin="round"/>
<path d="M84.4336 11.3741L84.5413 11.777H84.8898L84.6072 12.0259L84.7149 12.4305L84.4336 12.1799L84.151 12.4305L84.2587 12.0259L83.9774 11.777H84.326L84.4336 11.3741Z" fill="#92E3A9" stroke="#263238" stroke-width="0.5" stroke-linecap="round" stroke-linejoin="round"/>
<path d="M85.6286 11.3741L85.7362 11.777H86.0848L85.8022 12.0259L85.9112 12.4305L85.6286 12.1799L85.3473 12.4305L85.455 12.0259L85.1724 11.777H85.5209L85.6286 11.3741Z" fill="#92E3A9" stroke="#263238" stroke-width="0.5" stroke-linecap="round" stroke-linejoin="round"/>
<path d="M81.0775 32.2564C81.0372 32.2325 80.9996 32.2022 80.9658 32.1663C80.9249 32.1235 80.8863 32.0775 80.8501 32.0288C80.8143 31.9809 80.7815 31.93 80.7518 31.8764H80.7142C80.6152 31.8827 80.5168 31.8549 80.4302 31.7962C80.3595 31.7421 80.3063 31.6599 80.2795 31.5636C80.2469 31.4483 80.2315 31.3268 80.2337 31.2049V30.4548C80.2311 30.3345 80.2466 30.2146 80.2795 30.101C80.3069 30.0068 80.3601 29.927 80.4302 29.875C80.5171 29.8176 80.6154 29.7904 80.7142 29.7964C80.8143 29.79 80.9139 29.8172 81.0021 29.875C81.0726 29.9269 81.1263 30.0067 81.1542 30.101C81.1871 30.2146 81.2026 30.3345 81.1999 30.4548V31.223C81.2004 31.3122 81.1927 31.4011 81.1771 31.4883C81.1639 31.5622 81.1382 31.6319 81.1017 31.693C81.0675 31.752 81.0211 31.7989 80.9671 31.8289L81.0223 31.901L81.0802 31.9731C81.0979 31.9923 81.1167 32.0099 81.1367 32.0255L81.0775 32.2564ZM80.7142 31.6013C80.7331 31.6048 80.7524 31.6036 80.771 31.5979C80.7895 31.5921 80.8069 31.5819 80.8222 31.5679C80.8375 31.5539 80.8504 31.5363 80.86 31.5161C80.8696 31.496 80.8758 31.4737 80.8783 31.4506C80.8867 31.3999 80.8907 31.3483 80.8904 31.2967V30.3549C80.8909 30.3032 80.8868 30.2516 80.8783 30.2009C80.8717 30.1593 80.8543 30.1214 80.8285 30.0928C80.7954 30.0638 80.7549 30.0499 80.7142 30.0535C80.6742 30.0498 80.6346 30.0637 80.6025 30.0928C80.5762 30.1207 80.559 30.159 80.554 30.2009C80.5455 30.2516 80.5415 30.3032 80.5419 30.3549V31.2967C80.5416 31.3483 80.5457 31.3999 80.554 31.4506C80.5593 31.4934 80.5764 31.5326 80.6025 31.562C80.6346 31.5911 80.6742 31.6051 80.7142 31.6013Z" fill="#263238"/>
<path d="M81.8876 31.883C81.7865 31.8901 81.686 31.861 81.5983 31.7995C81.5285 31.7437 81.4775 31.6595 81.4543 31.562C81.4264 31.4422 81.4133 31.318 81.4152 31.1935V29.8112H81.714V31.2377C81.714 31.298 81.7176 31.3582 81.7247 31.4179C81.7294 31.4681 81.7462 31.5154 81.7732 31.5538C81.788 31.572 81.806 31.5862 81.8257 31.5952C81.8454 31.6043 81.8665 31.608 81.8876 31.6062C81.9093 31.6086 81.9311 31.6052 81.9516 31.5961C81.9721 31.5871 81.9906 31.5726 82.006 31.5538C82.0315 31.5145 82.0477 31.4675 82.0531 31.4179C82.0614 31.3583 82.0654 31.2981 82.0652 31.2377V29.8112H82.3613V31.1935C82.3632 31.318 82.3501 31.4422 82.3222 31.562C82.2991 31.6591 82.2486 31.7431 82.1796 31.7995C82.091 31.8614 81.9895 31.8904 81.8876 31.883Z" fill="#263238"/>
<path d="M82.5079 31.8552L82.8444 29.8112H83.1714L83.5078 31.8552H83.2238L83.1579 31.3835H82.8645L82.7959 31.8552H82.5079ZM82.8955 31.146H83.1243L83.0099 30.2878L82.8955 31.146Z" fill="#263238"/>
<path d="M83.6679 31.8552V29.8112H83.9747V31.6013H84.3784V31.8584L83.6679 31.8552Z" fill="#263238"/>
<path d="M84.5413 31.8552V29.8112H84.8441V31.8552H84.5413Z" fill="#263238"/>
<path d="M85.2706 31.8552V30.0863H85.0015V29.8112H85.8399V30.0863H85.5707V31.8552H85.2706Z" fill="#263238"/>
<path d="M86.2288 31.8552V31.0756L85.8883 29.8112H86.1696L86.3768 30.6301L86.5719 29.8112H86.8518L86.5154 31.0756V31.8552H86.2288Z" fill="#263238"/>
<path d="M53.0657 4.75558L53.4815 8.46363L51.5424 9.0254C51.0106 9.46361 50.4554 9.85811 49.8805 10.2063C49.0946 10.655 48.5415 10.8237 48.2656 10.8237C47.9898 10.8237 46.9724 10.3177 46.9724 10.3177C46.9724 10.3177 47.6655 5.76612 48.4527 5.26003C49.2399 4.75394 51.3082 4.0251 53.0657 4.75558Z" fill="white" stroke="#263238" stroke-linecap="round" stroke-linejoin="round"/>
<path d="M43.2045 4.62615C43.2045 4.62615 46.671 4.35754 47.1783 4.35754C47.6857 4.35754 48.8147 5.88728 48.8147 5.88728C48.8147 5.88728 50.8817 10.0752 50.7081 10.3258C50.2721 10.9547 49.9235 10.4994 49.9235 10.4994L49.8441 10.9416C49.8441 10.9416 49.5077 11.4494 47.8 11.1693C46.0924 10.8892 45.5379 10.2619 45.1262 10.1456C44.7144 10.0294 42.4711 9.27268 42.4711 9.27268L43.2045 4.62615Z" fill="white" stroke="#263238" stroke-linecap="round" stroke-linejoin="round"/>
<path d="M49.9235 10.4912L49.353 9.15149" stroke="#263238" stroke-linecap="round" stroke-linejoin="round"/>
<path d="M49.353 11.112L48.6451 9.62976" stroke="#263238" stroke-linecap="round" stroke-linejoin="round"/>
<path d="M52.0928 5.09132C52.0928 5.09132 48.6249 3.79907 47.9386 4.69824C47.2523 5.59741 45.768 7.95753 46.091 8.23923C46.414 8.52094 47.5713 7.45144 47.8404 7.22705C48.0439 7.04762 48.23 6.84046 48.3948 6.60959C48.7165 6.99621 49.1164 7.27252 49.5541 7.41058C49.9917 7.54863 50.4515 7.54351 50.887 7.39575" fill="white"/>
<path d="M52.0928 5.09132C52.0928 5.09132 48.6249 3.79907 47.9386 4.69824C47.2523 5.59741 45.768 7.95753 46.091 8.23923C46.414 8.52094 47.5713 7.45144 47.8404 7.22705C48.0439 7.04762 48.23 6.84046 48.3948 6.60959C48.7165 6.99621 49.1164 7.27252 49.5541 7.41058C49.9917 7.54863 50.4515 7.54351 50.887 7.39575" stroke="#263238" stroke-linecap="round" stroke-linejoin="round"/>
<path d="M48.2845 9.54952C48.2845 9.54952 47.9521 10.9941 48.0867 11.2398C48.1369 11.3426 48.2135 11.4223 48.3048 11.4667C48.396 11.5111 48.4967 11.5177 48.5913 11.4854C48.7049 11.4285 48.8082 11.345 48.8954 11.2398C48.8954 11.2398 48.9452 10.0114 48.7945 9.70348C48.6438 9.39557 48.5119 9.18101 48.2845 9.54952Z" fill="white" stroke="#263238" stroke-linecap="round" stroke-linejoin="round"/>
<path d="M47.4004 9.73458C47.4004 9.73458 47.072 11.1791 47.1985 11.4248C47.249 11.5277 47.3259 11.6076 47.4173 11.652C47.5088 11.6964 47.6097 11.7029 47.7045 11.6705C47.8172 11.6124 47.9199 11.5291 48.0073 11.4248C48.0073 11.4248 48.0571 10.1948 47.9064 9.88853C47.7556 9.58226 47.6278 9.36606 47.4004 9.73458Z" fill="white" stroke="#263238" stroke-linecap="round" stroke-linejoin="round"/>
<path d="M46.5122 9.78539C46.5122 9.78539 46.2606 10.8942 46.3575 11.0826C46.3957 11.1606 46.4539 11.2213 46.5232 11.2553C46.5924 11.2893 46.6689 11.2948 46.741 11.2709C46.8278 11.2269 46.9069 11.163 46.9738 11.0826C46.9738 11.0826 47.0128 10.1392 46.8971 9.90331C46.7814 9.66747 46.6858 9.50368 46.5122 9.78539Z" fill="white" stroke="#263238" stroke-linecap="round" stroke-linejoin="round"/>
<path d="M45.4639 9.83282C45.4639 9.83282 45.2661 10.5666 45.3428 10.691C45.3782 10.7453 45.4258 10.786 45.4797 10.8081C45.5337 10.8302 45.5918 10.8328 45.6469 10.8155C45.7136 10.7877 45.7755 10.7455 45.8299 10.691C45.8299 10.691 45.8609 10.067 45.7694 9.91144C45.6779 9.75585 45.6012 9.6543 45.4639 9.83282Z" fill="white" stroke="#263238" stroke-linecap="round" stroke-linejoin="round"/>
<path d="M53.6847 3.61162L52.3729 3.94604L53.4446 10.1739L54.7565 9.83945L53.6847 3.61162Z" fill="white" stroke="#263238" stroke-linecap="round" stroke-linejoin="round"/>
<path d="M55.378 3.09723L53.2785 3.63245L54.4741 10.58L56.5736 10.0448L55.378 3.09723Z" fill="#92E3A9" stroke="#263238" stroke-linecap="round" stroke-linejoin="round"/>
<path d="M41.6304 9.8394L42.9422 10.1738L44.014 3.946L42.7022 3.61157L41.6304 9.8394Z" fill="white" stroke="#263238" stroke-linecap="round" stroke-linejoin="round"/>
<path d="M39.8137 10.0446L41.9132 10.5798L43.1088 3.63224L41.0094 3.09702L39.8137 10.0446Z" fill="#263238" stroke="#263238" stroke-linecap="round" stroke-linejoin="round"/>
<path d="M40.9545 14.9281C40.853 14.9351 40.752 14.9043 40.6652 14.8397C40.5958 14.7813 40.5443 14.6967 40.5185 14.5989C40.4898 14.4849 40.4757 14.3661 40.4768 14.2468V13.5163C40.4753 13.3932 40.4894 13.2706 40.5185 13.1527C40.5436 13.0554 40.5954 12.9715 40.6652 12.9152C40.7531 12.8545 40.8536 12.8261 40.9545 12.8333C41.0477 12.828 41.1405 12.8523 41.2237 12.9038C41.2858 12.9529 41.333 13.0253 41.3582 13.1101C41.3865 13.2102 41.4002 13.3155 41.3986 13.4213V13.5851H41.1053V13.4213C41.1055 13.3693 41.1028 13.3173 41.0972 13.2657C41.0949 13.2238 41.0812 13.184 41.0582 13.1527C41.0428 13.137 41.025 13.1253 41.0058 13.1183C40.9866 13.1112 40.9664 13.109 40.9465 13.1118C40.9259 13.1096 40.9053 13.1124 40.8856 13.12C40.866 13.1275 40.8478 13.1398 40.8321 13.156C40.8065 13.1882 40.79 13.2295 40.785 13.2739C40.7784 13.3281 40.7752 13.3829 40.7756 13.4377V14.3254C40.7743 14.387 40.7788 14.4485 40.789 14.5088C40.7959 14.5525 40.8157 14.5915 40.8448 14.6184C40.8739 14.6453 40.9101 14.6582 40.9465 14.6546C40.9662 14.6575 40.9862 14.655 41.005 14.6474C41.0239 14.6397 41.0411 14.6271 41.0555 14.6104C41.0784 14.5769 41.0924 14.5358 41.0958 14.4925C41.1027 14.4383 41.1058 14.3835 41.1053 14.3287V14.142H41.3986V14.3057C41.4012 14.4168 41.388 14.5277 41.3596 14.6333C41.3364 14.7229 41.2889 14.8002 41.225 14.8528C41.1426 14.9088 41.0488 14.935 40.9545 14.9281Z" fill="#263238"/>
<path d="M42.0795 14.9282C41.9784 14.9352 41.8779 14.9062 41.7902 14.8446C41.7205 14.7889 41.6694 14.7047 41.6462 14.6072C41.6186 14.4873 41.6054 14.3631 41.6072 14.2386V12.8547H41.9059V14.2812C41.9052 14.3415 41.9088 14.4018 41.9167 14.4614C41.921 14.5122 41.9379 14.5601 41.9651 14.599C41.9977 14.6317 42.0386 14.6496 42.0809 14.6496C42.1231 14.6496 42.164 14.6317 42.1966 14.599C42.2227 14.5593 42.2394 14.5117 42.245 14.4614C42.2529 14.4018 42.2565 14.3415 42.2558 14.2812V12.8547H42.5532V14.2403C42.5552 14.3649 42.5416 14.4892 42.5128 14.6088C42.4906 14.706 42.4405 14.7903 42.3715 14.8463C42.2828 14.9076 42.1813 14.9361 42.0795 14.9282Z" fill="#263238"/>
<path d="M43.2166 14.9282C43.1286 14.9318 43.0413 14.9069 42.9637 14.8561C42.895 14.8079 42.8412 14.7337 42.8102 14.6448C42.7728 14.537 42.7531 14.4212 42.7524 14.3042L43.0148 14.2403C43.0164 14.3111 43.0245 14.3814 43.039 14.4499C43.0488 14.5025 43.0697 14.551 43.0996 14.5908C43.1136 14.6074 43.1302 14.6204 43.1485 14.6288C43.1668 14.6373 43.1863 14.641 43.2059 14.6399C43.2259 14.6422 43.246 14.6385 43.2646 14.6291C43.2831 14.6196 43.2995 14.6048 43.3122 14.5859C43.3338 14.5449 43.3446 14.4969 43.3431 14.4483C43.3462 14.3706 43.3287 14.2937 43.2933 14.2288C43.2544 14.1651 43.2092 14.1073 43.1588 14.0569L42.9475 13.8292C42.8906 13.7702 42.8423 13.6999 42.8049 13.6212C42.7677 13.5338 42.7497 13.4362 42.7524 13.3378C42.7491 13.2692 42.7578 13.2005 42.7777 13.1362C42.7976 13.0719 42.8284 13.0133 42.8681 12.9644C42.956 12.8724 43.0699 12.8254 43.1857 12.8334C43.2533 12.831 43.3206 12.8455 43.3835 12.876C43.4333 12.9029 43.4765 12.9452 43.5087 12.9988C43.5402 13.053 43.5639 13.1134 43.5786 13.1773C43.5939 13.2464 43.6034 13.3172 43.6069 13.3886L43.3458 13.4427C43.3438 13.3876 43.3379 13.3328 43.3283 13.2789C43.3214 13.2344 43.3047 13.1931 43.2799 13.1593C43.2665 13.1444 43.2508 13.133 43.2337 13.1257C43.2166 13.1183 43.1984 13.1153 43.1803 13.1167C43.1606 13.1159 43.141 13.1202 43.1229 13.1296C43.1048 13.1389 43.0885 13.153 43.0753 13.1708C43.0504 13.2095 43.0375 13.2576 43.039 13.3067C43.0387 13.3641 43.0507 13.4206 43.074 13.4705C43.103 13.5216 43.1374 13.5678 43.1763 13.6081L43.3849 13.8325C43.4544 13.9036 43.5144 13.9876 43.5625 14.0814C43.6133 14.1853 43.639 14.3045 43.6365 14.4254C43.638 14.5165 43.6194 14.6064 43.5827 14.6858C43.5485 14.7604 43.4976 14.8218 43.436 14.8627C43.3689 14.9077 43.2932 14.9303 43.2166 14.9282Z" fill="#263238"/>
<path d="M43.9864 14.8954V13.1298H43.7172V12.8547H44.5542V13.1298H44.2918V14.8954H43.9864Z" fill="#263238"/>
<path d="M45.1571 14.9281C45.058 14.9337 44.9597 14.9053 44.8732 14.8463C44.8025 14.7927 44.7493 14.7112 44.7224 14.6153C44.6899 14.5 44.6744 14.3786 44.6767 14.2566V13.4918C44.6741 13.3709 44.6896 13.2505 44.7224 13.1364C44.7498 13.0422 44.803 12.9623 44.8732 12.9103C44.9626 12.8592 45.0603 12.8327 45.1591 12.8327C45.258 12.8327 45.3556 12.8592 45.4451 12.9103C45.5148 12.9628 45.568 13.0425 45.5958 13.1364C45.6291 13.2504 45.645 13.3708 45.6429 13.4918V14.2583C45.6449 14.3792 45.629 14.4996 45.5958 14.6137C45.5678 14.7092 45.5149 14.7909 45.4451 14.8463C45.3572 14.9057 45.2575 14.9341 45.1571 14.9281ZM45.1571 14.653C45.1976 14.6565 45.2378 14.642 45.2701 14.612C45.2958 14.5821 45.3132 14.5432 45.3199 14.5007C45.3283 14.45 45.3323 14.3984 45.332 14.3467V13.405C45.3325 13.3533 45.3284 13.3017 45.3199 13.251C45.3125 13.2102 45.2951 13.1731 45.2701 13.1446C45.2376 13.1152 45.1975 13.1012 45.1571 13.1052C45.118 13.1017 45.0793 13.1157 45.0481 13.1446C45.0221 13.1722 45.0046 13.2097 44.9983 13.251C44.9887 13.3015 44.9842 13.3532 44.9849 13.405V14.3467C44.9846 14.3984 44.9886 14.45 44.997 14.5007C45.0027 14.5432 45.0197 14.5823 45.0454 14.612C45.0774 14.6415 45.1171 14.656 45.1571 14.653Z" fill="#263238"/>
<path d="M45.8649 14.8954L45.8932 12.8497H46.2108L46.4503 14.2665L46.6979 12.8497H47.0101L47.037 14.8954H46.8083L46.784 13.4737L46.5445 14.8954H46.3601L46.1179 13.4688L46.095 14.8954H45.8649Z" fill="#263238"/>
<path d="M47.2793 14.8954V12.8547H47.9844V13.1184H47.5807V13.7063H47.8942V13.9668H47.5807V14.6432H47.9844V14.8954H47.2793Z" fill="#263238"/>
<path d="M48.1607 14.8954V12.8546H48.5644C48.6615 12.8518 48.7583 12.8684 48.851 12.9038C48.9244 12.9315 48.9877 12.9894 49.03 13.0675C49.0751 13.1676 49.096 13.2812 49.0905 13.3951C49.0915 13.4699 49.0856 13.5446 49.073 13.6179C49.0616 13.6772 49.04 13.733 49.0098 13.7816C48.9771 13.8303 48.9344 13.8676 48.886 13.8897L49.1201 14.897H48.8133L48.6101 13.9602H48.4688V14.8954H48.1607ZM48.4675 13.7243H48.563C48.6093 13.7255 48.6552 13.7143 48.6976 13.6916C48.733 13.6718 48.7605 13.6359 48.7743 13.5917C48.7907 13.5343 48.7984 13.4738 48.7972 13.4131C48.8018 13.332 48.7853 13.2512 48.7501 13.1822C48.7275 13.1534 48.6996 13.1314 48.6688 13.1181C48.6379 13.1047 48.6049 13.1003 48.5725 13.1052H48.4608L48.4675 13.7243Z" fill="#263238"/>
<path d="M49.8239 14.8954V12.8547H50.1308V14.6432H50.5345V14.8954H49.8239Z" fill="#263238"/>
<path d="M51.132 14.9281C51.0329 14.9337 50.9345 14.9053 50.848 14.8463C50.7774 14.7927 50.7241 14.7112 50.6973 14.6153C50.6648 14.5 50.6493 14.3786 50.6515 14.2566V13.4918C50.649 13.3709 50.6645 13.2505 50.6973 13.1364C50.7247 13.0422 50.7779 12.9623 50.848 12.9103C50.9375 12.8592 51.0351 12.8327 51.134 12.8327C51.2328 12.8327 51.3305 12.8592 51.4199 12.9103C51.4897 12.9628 51.5428 13.0425 51.5707 13.1364C51.6046 13.2502 51.6205 13.3708 51.6177 13.4918V14.2583C51.6204 14.3793 51.6045 14.4998 51.5707 14.6137C51.5427 14.7092 51.4897 14.7909 51.4199 14.8463C51.3321 14.9057 51.2323 14.9341 51.132 14.9281ZM51.132 14.653C51.1725 14.6565 51.2127 14.642 51.245 14.612C51.2711 14.5825 51.2886 14.5434 51.2948 14.5007C51.3031 14.45 51.3072 14.3984 51.3069 14.3467V13.405C51.3073 13.3533 51.3033 13.3017 51.2948 13.251C51.2879 13.21 51.2705 13.1727 51.245 13.1446C51.2125 13.1152 51.1723 13.1012 51.132 13.1052C51.0929 13.1017 51.0541 13.1157 51.023 13.1446C50.997 13.1722 50.9795 13.2097 50.9732 13.251C50.9647 13.3017 50.9606 13.3533 50.9611 13.405V14.3467C50.9603 14.3984 50.9639 14.4499 50.9718 14.5007C50.9776 14.5432 50.9946 14.5823 51.0203 14.612C51.0523 14.6415 51.0919 14.656 51.132 14.653Z" fill="#263238"/>
<path d="M52.0618 14.8954V14.1142L51.72 12.8547H52.0066L52.2139 13.6654L52.409 12.8547H52.6889L52.3525 14.1191V14.8954H52.0618Z" fill="#263238"/>
<path d="M52.6876 14.8954L53.024 12.8497H53.3523L53.6874 14.8954H53.4035L53.3375 14.4237H53.0442L52.9755 14.8954H52.6876ZM53.0765 14.1862H53.3039L53.1895 13.328L53.0765 14.1862Z" fill="#263238"/>
<path d="M53.8475 14.8954V12.8547H54.1544V14.6432H54.5581V14.8954H53.8475Z" fill="#263238"/>
<path d="M54.8057 14.8954V13.1298H54.5365V12.8547H55.3749V13.1298H55.1058V14.8954H54.8057Z" fill="#263238"/>
<path d="M55.7638 14.8954V14.1141L55.4233 12.8497H55.71L55.9172 13.6605L56.1123 12.8497H56.3922L56.0558 14.1141V14.8954H55.7638Z" fill="#263238"/>
<path d="M13.5537 16.8723V15.1771L12.1636 14.9888C12.0887 14.6355 11.9741 14.2966 11.8231 13.9815L12.7019 12.645L11.7168 11.4559L10.6241 12.5189C10.3655 12.3341 10.0875 12.1926 9.79787 12.098L9.64311 10.3914H8.25437L8.09692 12.0816C7.80635 12.1738 7.52747 12.3137 7.26798 12.4976L6.1699 11.4281L5.1862 12.627L6.0609 13.9569C5.90865 14.2717 5.79187 14.6099 5.71371 14.9625L4.31824 15.1509V16.8444L5.70833 17.0328C5.78358 17.3864 5.89812 17.7258 6.04879 18.0417L5.17006 19.3781L6.1551 20.5754L7.24779 19.5108C7.50617 19.6963 7.78416 19.8379 8.07405 19.9317L8.2288 21.6318H9.62158L9.77499 19.9399C10.0655 19.8483 10.3444 19.7089 10.6039 19.5255L11.702 20.5934L12.6857 19.3962L11.811 18.0662C11.9633 17.7515 12.08 17.4132 12.1582 17.0606L13.5537 16.8723ZM8.93663 18.0335C8.60788 18.0338 8.28643 17.9154 8.01295 17.6934C7.73947 17.4713 7.52625 17.1555 7.40026 16.786C7.27426 16.4164 7.24116 16.0096 7.30513 15.6171C7.36911 15.2247 7.52728 14.8641 7.75965 14.5811C7.99202 14.298 8.28815 14.1052 8.61056 14.027C8.93298 13.9488 9.26721 13.9888 9.57096 14.1418C9.87472 14.2949 10.1344 14.5542 10.317 14.8868C10.4997 15.2195 10.5972 15.6106 10.5972 16.0108C10.5972 16.5469 10.4223 17.0612 10.1109 17.4405C9.79954 17.8197 9.37717 18.033 8.93663 18.0335Z" fill="#263238" stroke="#263238" stroke-linecap="round" stroke-linejoin="round"/>
<path d="M19.0199 13.4721L18.8651 12.3502L17.9231 12.4124C17.8405 12.1892 17.7337 11.9804 17.6055 11.7917L18.0779 10.7877L17.3176 10.1326L16.6905 10.9842C16.5024 10.8973 16.3055 10.8422 16.1051 10.8205L15.8481 9.71655L14.9263 9.90327L14.9788 11.0497C14.7948 11.1499 14.6227 11.2799 14.4674 11.4363L13.6371 10.863L13.0988 11.7835L13.7986 12.5451C13.7272 12.774 13.6819 13.0137 13.664 13.2575L12.7516 13.5851L12.9064 14.7054L13.8484 14.6432C13.93 14.8667 14.0364 15.0755 14.1646 15.2639L13.7057 16.2679L14.4661 16.923L15.0931 16.0713C15.2812 16.1583 15.4781 16.2134 15.6785 16.2351L15.9355 17.339L16.8573 17.1523L16.8049 16.0058C16.9889 15.9057 17.1609 15.7756 17.3162 15.6193L18.1398 16.1794L18.678 15.2524L17.9783 14.4908C18.0491 14.2617 18.0943 14.0221 18.1129 13.7784L19.0199 13.4721ZM16.0674 14.8626C15.8501 14.9065 15.627 14.871 15.4262 14.7606C15.2255 14.6503 15.0561 14.4699 14.9396 14.2424C14.823 14.015 14.7645 13.7505 14.7713 13.4826C14.7782 13.2146 14.8501 12.9551 14.9781 12.7369C15.1061 12.5187 15.2844 12.3515 15.4904 12.2566C15.6964 12.1616 15.9209 12.1431 16.1355 12.2034C16.3501 12.2637 16.5453 12.4 16.6963 12.5952C16.8473 12.7904 16.9473 13.0357 16.9838 13.3001C17.0326 13.6545 16.9639 14.0179 16.7929 14.3108C16.6219 14.6037 16.3624 14.8021 16.0715 14.8626H16.0674Z" fill="#92E3A9" stroke="#263238" stroke-linecap="round" stroke-linejoin="round"/>
<path d="M16.8385 23.7921L16.6837 22.6702L15.7418 22.7324C15.6591 22.5092 15.5523 22.3004 15.4242 22.1117L15.8844 21.1094L15.1227 20.4542L14.497 21.3059C14.3087 21.2201 14.1118 21.165 13.9116 21.1421L13.6533 20.0382L12.7328 20.2266L12.7839 21.373C12.6002 21.4739 12.4283 21.6039 12.2726 21.7596L11.449 21.2011L10.9107 22.1264L11.6105 22.8897C11.5392 23.118 11.4939 23.3572 11.4759 23.6005L10.5676 23.9035L10.721 25.0254L11.663 24.9615C11.7448 25.1858 11.8517 25.3952 11.9806 25.5839L11.5203 26.5863L12.2807 27.2414L12.9077 26.3897C13.0958 26.4767 13.2928 26.5318 13.4931 26.5535L13.7501 27.659L14.6719 27.4707L14.6208 26.3242C14.8044 26.2248 14.976 26.0953 15.1308 25.9393L15.9557 26.4978L16.494 25.5724L15.7942 24.8092C15.8651 24.5801 15.9103 24.3405 15.9288 24.0968L16.8385 23.7921ZM13.8874 25.1843C13.6698 25.2289 13.4461 25.1939 13.2448 25.0838C13.0435 24.9737 12.8736 24.7934 12.7565 24.5657C12.6394 24.338 12.5804 24.0731 12.5871 23.8046C12.5937 23.5361 12.6656 23.276 12.7937 23.0573C12.9218 22.8385 13.1003 22.671 13.3067 22.5758C13.5131 22.4805 13.738 22.462 13.9531 22.5224C14.1681 22.5828 14.3636 22.7196 14.5148 22.9153C14.666 23.1109 14.7661 23.3568 14.8025 23.6218C14.8511 23.9766 14.7821 24.3405 14.6105 24.6335C14.439 24.9264 14.1789 25.1245 13.8874 25.1843Z" fill="white" stroke="#263238" stroke-linecap="round" stroke-linejoin="round"/>
<path d="M8.14267 31.883C8.05453 31.8873 7.96707 31.8624 7.88968 31.8109C7.82179 31.7623 7.76814 31.6889 7.73627 31.6013C7.69891 31.4934 7.67926 31.3776 7.67841 31.2606L7.94754 31.1967C7.94954 31.2673 7.9572 31.3375 7.97042 31.4064C7.98023 31.4584 8.00111 31.5064 8.03097 31.5456C8.04507 31.562 8.06175 31.5749 8.08002 31.5833C8.09828 31.5918 8.11776 31.5956 8.13728 31.5947C8.15731 31.5973 8.17755 31.5937 8.19613 31.5843C8.21471 31.5748 8.23104 31.5598 8.24359 31.5407C8.26575 31.5 8.2766 31.4518 8.27454 31.4031C8.27731 31.3254 8.25988 31.2486 8.22475 31.1836C8.18583 31.1222 8.14061 31.0672 8.09019 31.0198L7.87488 30.7823C7.81828 30.7234 7.77047 30.6531 7.73358 30.5743C7.69645 30.4863 7.67838 30.3882 7.6811 30.2894C7.67785 30.2207 7.68647 30.152 7.70641 30.0877C7.72634 30.0234 7.75714 29.9649 7.79683 29.9159C7.88483 29.824 7.99862 29.7771 8.11441 29.7849C8.18175 29.7823 8.24875 29.7974 8.31088 29.8291C8.36072 29.856 8.40388 29.8984 8.43603 29.952C8.46782 30.0054 8.49152 30.0653 8.506 30.1288C8.52088 30.1981 8.53078 30.2688 8.53561 30.3401L8.26647 30.3958C8.26426 30.3407 8.25841 30.286 8.24898 30.232C8.24335 30.1879 8.22694 30.1468 8.20188 30.1141C8.18833 30.099 8.17239 30.0874 8.15503 30.0801C8.13768 30.0728 8.11927 30.0699 8.10095 30.0715C8.08127 30.0706 8.06167 30.075 8.04354 30.0844C8.0254 30.0937 8.00917 30.1078 7.99599 30.1256C7.97116 30.1637 7.95828 30.2113 7.95965 30.2599C7.95887 30.3173 7.97097 30.3739 7.99464 30.4237C8.02368 30.4747 8.05806 30.521 8.09691 30.5612L8.31357 30.7823C8.38275 30.8535 8.44225 30.9375 8.48985 31.0313C8.54133 31.1348 8.56704 31.2543 8.56387 31.3752C8.56535 31.4661 8.54725 31.5559 8.51139 31.6356C8.47676 31.7109 8.42547 31.7727 8.36336 31.8142C8.29598 31.8601 8.2199 31.8839 8.14267 31.883Z" fill="#263238"/>
<path d="M9.20443 31.883C9.10336 31.8901 9.0028 31.861 8.91511 31.7995C8.84538 31.7437 8.79432 31.6595 8.77112 31.562C8.74329 31.4422 8.73014 31.318 8.73209 31.1935V29.8112H9.03083V31.2377C9.03045 31.298 9.0336 31.3582 9.04025 31.4179C9.04593 31.468 9.0632 31.5152 9.09004 31.5538C9.12226 31.5875 9.16331 31.606 9.20577 31.606C9.24823 31.606 9.28929 31.5875 9.3215 31.5538C9.34739 31.5146 9.36412 31.4677 9.36995 31.4179C9.37707 31.3582 9.38067 31.298 9.38071 31.2377V29.8112H9.67811V31.1935C9.68035 31.3181 9.66673 31.4424 9.63774 31.562C9.61727 31.658 9.56961 31.7421 9.50317 31.7995C9.41267 31.863 9.30863 31.8921 9.20443 31.883Z" fill="#263238"/>
<path d="M9.91763 31.8551V29.8111H10.4075C10.493 29.807 10.5778 29.8302 10.6537 29.8783C10.7149 29.925 10.7621 29.9945 10.7883 30.0765C10.8199 30.1767 10.835 30.2836 10.8327 30.3909C10.8372 30.504 10.8182 30.6167 10.7775 30.7185C10.7427 30.7971 10.6873 30.8594 10.6201 30.8954C10.5454 30.9347 10.4646 30.9537 10.3832 30.9511H10.2164V31.8601L9.91763 31.8551ZM10.2244 30.6841H10.3415C10.3877 30.6878 10.4339 30.6777 10.4761 30.6546C10.4916 30.6454 10.5054 30.6323 10.5165 30.6163C10.5276 30.6002 10.5359 30.5814 10.5407 30.5613C10.554 30.5054 10.5599 30.4474 10.5582 30.3893C10.5595 30.3288 10.555 30.2683 10.5447 30.2091C10.5374 30.1668 10.5166 30.1297 10.4869 30.1059C10.4449 30.0819 10.3987 30.0706 10.3523 30.0732H10.2352L10.2244 30.6841Z" fill="#263238"/>
<path d="M11.0023 31.8551V29.8111H11.4961C11.5816 29.807 11.6665 29.8302 11.7424 29.8783C11.8036 29.925 11.8507 29.9945 11.877 30.0765C11.9086 30.1767 11.9236 30.2836 11.9214 30.3909C11.9258 30.504 11.9069 30.6167 11.8662 30.7185C11.8314 30.7971 11.7759 30.8594 11.7087 30.8954C11.6341 30.9347 11.5532 30.9537 11.4719 30.9511H11.3064V31.8601L11.0023 31.8551ZM11.3104 30.6841H11.4261C11.4723 30.6878 11.5185 30.6777 11.5607 30.6546C11.5762 30.6454 11.59 30.6323 11.6011 30.6163C11.6123 30.6002 11.6205 30.5814 11.6253 30.5613C11.6387 30.5054 11.6446 30.4474 11.6428 30.3893C11.6441 30.3288 11.6396 30.2683 11.6293 30.2091C11.622 30.1668 11.6012 30.1297 11.5715 30.1059C11.5295 30.0819 11.4833 30.0706 11.4369 30.0732H11.3212L11.3104 30.6841Z" fill="#263238"/>
<path d="M12.5525 31.883C12.4535 31.8894 12.3551 31.8616 12.2685 31.8027C12.1975 31.7487 12.1438 31.6666 12.1165 31.5702C12.0839 31.4548 12.0684 31.3334 12.0707 31.2115V30.4548C12.068 30.3345 12.0836 30.2145 12.1165 30.101C12.1444 30.0067 12.1981 29.9269 12.2685 29.875C12.3555 29.8176 12.4537 29.7904 12.5525 29.7964C12.6522 29.7897 12.7514 29.817 12.8391 29.875C12.9093 29.9273 12.9629 30.007 12.9912 30.101C13.0241 30.2145 13.0396 30.3345 13.0369 30.4548V31.2229C13.0393 31.3433 13.0238 31.4631 12.9912 31.5767C12.963 31.6726 12.9095 31.7544 12.8391 31.8093C12.751 31.8656 12.6518 31.8911 12.5525 31.883ZM12.5525 31.6078C12.5928 31.6119 12.633 31.5979 12.6655 31.5685C12.6907 31.5383 12.7076 31.4994 12.714 31.4572C12.7223 31.4065 12.7264 31.3549 12.7261 31.3032V30.3614C12.7265 30.3097 12.7225 30.2581 12.714 30.2075C12.7078 30.166 12.6908 30.1281 12.6655 30.0994C12.6321 30.0738 12.5933 30.0602 12.5538 30.0602C12.5143 30.0602 12.4756 30.0738 12.4421 30.0994C12.4164 30.1279 12.3989 30.1659 12.3924 30.2075C12.3839 30.2581 12.3798 30.3097 12.3802 30.3614V31.3032C12.3802 31.3548 12.3838 31.4063 12.391 31.4572C12.3922 31.4806 12.3974 31.5035 12.4065 31.5242C12.4155 31.545 12.4281 31.5631 12.4435 31.5774C12.4588 31.5917 12.4764 31.6018 12.4953 31.6071C12.5141 31.6123 12.5336 31.6126 12.5525 31.6078Z" fill="#263238"/>
<path d="M13.263 31.8551V29.8111H13.6667C13.7643 29.8082 13.8616 29.8248 13.9547 29.8603C14.0278 29.8879 14.0907 29.9458 14.1323 30.024C14.1783 30.1238 14.1997 30.2375 14.1942 30.3516C14.1947 30.4259 14.1883 30.5001 14.1754 30.5727C14.1643 30.6322 14.1427 30.6881 14.1121 30.7365C14.0795 30.785 14.0368 30.8218 13.9883 30.843L14.2225 31.8502H13.9157L13.7125 30.9134H13.5779V31.8502L13.263 31.8551ZM13.5698 30.6841H13.6654C13.7142 30.6871 13.763 30.6764 13.808 30.653C13.8428 30.6319 13.8697 30.5957 13.8834 30.5514C13.8998 30.4947 13.9076 30.4347 13.9062 30.3745C13.9115 30.2934 13.895 30.2123 13.8591 30.1436C13.8369 30.1146 13.8093 30.0925 13.7787 30.0791C13.748 30.0657 13.7152 30.0614 13.6829 30.0666H13.5698V30.6841Z" fill="#263238"/>
<path d="M14.5872 31.8552V30.0863H14.318V29.8112H15.155V30.0863H14.8926V31.8552H14.5872Z" fill="#263238"/>
<path d="M6.58167 47.1034H5.19562V52.1365H6.58167V47.1034Z" fill="#263238" stroke="#263238" stroke-width="0.5" stroke-linecap="round" stroke-linejoin="round"/>
<path d="M8.76035 48.9131H7.3743V52.1364H8.76035V48.9131Z" fill="#92E3A9" stroke="#263238" stroke-linecap="round" stroke-linejoin="round"/>
<path d="M10.939 46.0011H9.55295V52.1364H10.939V46.0011Z" fill="#263238" stroke="#263238" stroke-width="0.5" stroke-linecap="round" stroke-linejoin="round"/>
<path d="M13.1177 47.2704H11.7316V52.1364H13.1177V47.2704Z" fill="#92E3A9" stroke="#263238" stroke-linecap="round" stroke-linejoin="round"/>
<path d="M15.2963 46.1583H13.9103V52.1364H15.2963V46.1583Z" fill="#263238" stroke="#263238" stroke-width="0.5" stroke-linecap="round" stroke-linejoin="round"/>
<path d="M17.4736 42.6157H16.0876V52.1364H17.4736V42.6157Z" fill="#92E3A9" stroke="#263238" stroke-linecap="round" stroke-linejoin="round"/>
<path d="M19.032 42.5142H19.8434" stroke="#263238" stroke-width="0.5" stroke-linecap="round" stroke-linejoin="round"/>
<path d="M19.032 44.4386H19.8434" stroke="#263238" stroke-width="0.5" stroke-linecap="round" stroke-linejoin="round"/>
<path d="M19.032 46.3647H19.8434" stroke="#263238" stroke-width="0.5" stroke-linecap="round" stroke-linejoin="round"/>
<path d="M19.032 48.2891H19.8434" stroke="#263238" stroke-width="0.5" stroke-linecap="round" stroke-linejoin="round"/>
<path d="M19.032 50.2136H19.8434" stroke="#263238" stroke-width="0.5" stroke-linecap="round" stroke-linejoin="round"/>
<path d="M19.032 52.1381H19.8434" stroke="#263238" stroke-width="0.5" stroke-linecap="round" stroke-linejoin="round"/>
<path d="M5.98822 45.2477L8.11306 46.8102L10.3213 43.9309L12.5027 44.1553L14.6181 43.1333L17.0094 39.3024" stroke="#263238" stroke-linecap="round" stroke-linejoin="round"/>
<path d="M6.25602 45.2477C6.25602 45.1829 6.24023 45.1196 6.21066 45.0657C6.18109 45.0118 6.13905 44.9698 6.08987 44.945C6.0407 44.9202 5.98658 44.9138 5.93437 44.9264C5.88217 44.939 5.83421 44.9702 5.79657 45.016C5.75893 45.0619 5.7333 45.1202 5.72291 45.1838C5.71253 45.2473 5.71786 45.3132 5.73823 45.373C5.7586 45.4329 5.7931 45.484 5.83736 45.52C5.88161 45.556 5.93365 45.5752 5.98688 45.5752C6.05826 45.5752 6.12672 45.5407 6.17719 45.4793C6.22766 45.4179 6.25602 45.3345 6.25602 45.2477Z" fill="#263238"/>
<path d="M8.38086 46.8102C8.38086 46.7454 8.36508 46.6821 8.33551 46.6282C8.30593 46.5743 8.2639 46.5323 8.21472 46.5075C8.16554 46.4827 8.11143 46.4763 8.05922 46.4889C8.00701 46.5015 7.95906 46.5327 7.92142 46.5785C7.88378 46.6244 7.85815 46.6827 7.84776 46.7463C7.83738 46.8098 7.84271 46.8757 7.86308 46.9355C7.88345 46.9954 7.91794 47.0465 7.9622 47.0825C8.00646 47.1185 8.0585 47.1377 8.11173 47.1377C8.18311 47.1377 8.25156 47.1032 8.30204 47.0418C8.35251 46.9804 8.38086 46.897 8.38086 46.8102Z" fill="#263238"/>
<path d="M10.5891 43.9309C10.5891 43.8661 10.5733 43.8028 10.5438 43.7489C10.5142 43.695 10.4722 43.6531 10.423 43.6283C10.3738 43.6035 10.3197 43.597 10.2675 43.6096C10.2153 43.6223 10.1673 43.6535 10.1297 43.6993C10.092 43.7451 10.0664 43.8035 10.056 43.867C10.0456 43.9305 10.051 43.9964 10.0713 44.0563C10.0917 44.1161 10.1262 44.1673 10.1705 44.2033C10.2147 44.2393 10.2667 44.2585 10.32 44.2585C10.3914 44.2585 10.4598 44.224 10.5103 44.1625C10.5608 44.1011 10.5891 44.0178 10.5891 43.9309Z" fill="#263238"/>
<path d="M12.7705 44.1553C12.7705 44.0905 12.7547 44.0271 12.7251 43.9733C12.6956 43.9194 12.6535 43.8774 12.6043 43.8526C12.5552 43.8278 12.501 43.8214 12.4488 43.834C12.3966 43.8466 12.3487 43.8778 12.311 43.9236C12.2734 43.9695 12.2478 44.0278 12.2374 44.0914C12.227 44.1549 12.2323 44.2208 12.2527 44.2806C12.2731 44.3405 12.3076 44.3916 12.3518 44.4276C12.3961 44.4636 12.4481 44.4828 12.5013 44.4828C12.5727 44.4828 12.6412 44.4483 12.6917 44.3869C12.7421 44.3255 12.7705 44.2421 12.7705 44.1553Z" fill="#263238"/>
<path d="M14.8859 43.0825C14.8859 43.0177 14.8701 42.9543 14.8405 42.9005C14.811 42.8466 14.7689 42.8046 14.7198 42.7798C14.6706 42.755 14.6165 42.7485 14.5643 42.7612C14.512 42.7738 14.4641 42.805 14.4265 42.8508C14.3888 42.8966 14.3632 42.955 14.3528 43.0185C14.3424 43.0821 14.3477 43.1479 14.3681 43.2078C14.3885 43.2677 14.423 43.3188 14.4672 43.3548C14.5115 43.3908 14.5635 43.41 14.6168 43.41C14.6881 43.41 14.7566 43.3755 14.8071 43.3141C14.8575 43.2526 14.8859 43.1693 14.8859 43.0825Z" fill="#263238"/>
<path d="M17.2785 39.2991C17.2785 39.2343 17.2628 39.1709 17.2332 39.1171C17.2036 39.0632 17.1616 39.0212 17.1124 38.9964C17.0632 38.9716 17.0091 38.9652 16.9569 38.9778C16.9047 38.9904 16.8567 39.0216 16.8191 39.0674C16.7815 39.1132 16.7558 39.1716 16.7454 39.2352C16.7351 39.2987 16.7404 39.3646 16.7608 39.4244C16.7811 39.4843 16.8156 39.5354 16.8599 39.5714C16.9041 39.6074 16.9562 39.6266 17.0094 39.6266C17.0808 39.6266 17.1492 39.5921 17.1997 39.5307C17.2502 39.4693 17.2785 39.3859 17.2785 39.2991Z" fill="#263238"/>
<path d="M5.69757 57.0712V55.0223H6.00035V57.0663L5.69757 57.0712Z" fill="#263238"/>
<path d="M6.2587 57.0712L6.2883 55.0223H6.60454L6.84407 56.4374L7.09302 55.0223H7.39984L7.43079 57.0663H7.20202L7.1778 55.6496L6.93962 57.0712H6.75391L6.51169 55.6447L6.48881 57.0712H6.2587Z" fill="#263238"/>
<path d="M7.66629 57.0712V55.0223H8.16016C8.24565 55.0182 8.33054 55.0413 8.40642 55.0894C8.46759 55.1362 8.51477 55.2057 8.54099 55.2876C8.57259 55.3878 8.58767 55.4947 8.58539 55.602C8.5897 55.7151 8.57074 55.8277 8.53022 55.9296C8.49538 56.0083 8.43997 56.0705 8.37278 56.1065C8.29809 56.1458 8.21727 56.1648 8.13594 56.1622H7.97311V57.0712H7.66629ZM7.97311 55.9001H8.09018C8.13634 55.9039 8.18255 55.8937 8.22475 55.8706C8.24027 55.8614 8.25404 55.8484 8.26516 55.8323C8.27628 55.8162 8.28452 55.7975 8.28934 55.7773C8.30269 55.7215 8.3086 55.6634 8.30684 55.6053C8.30814 55.5448 8.30362 55.4844 8.29338 55.4252C8.2902 55.404 8.2834 55.3839 8.27343 55.3661C8.26347 55.3483 8.25055 55.3333 8.23552 55.322C8.19352 55.2979 8.14732 55.2867 8.10095 55.2892H7.98387L7.97311 55.9001Z" fill="#263238"/>
<path d="M8.75226 57.0712V55.0222H9.15596C9.25352 55.0193 9.35081 55.0359 9.44394 55.0714C9.51708 55.099 9.57994 55.1569 9.62157 55.2352C9.66752 55.3349 9.689 55.4486 9.68347 55.5627C9.68392 55.6371 9.6776 55.7112 9.66463 55.7838C9.65332 55.8433 9.63176 55.8991 9.60139 55.9476C9.56881 55.9961 9.52601 56.0329 9.47758 56.0541L9.71308 57.0614H9.40222L9.19633 56.1343H9.06177V57.0712H8.75226ZM9.06177 55.9001H9.15596C9.20484 55.9031 9.25362 55.8925 9.29861 55.869C9.33338 55.848 9.36031 55.8117 9.37397 55.7675C9.39124 55.7104 9.39902 55.6497 9.39684 55.5889C9.40144 55.5081 9.38546 55.4274 9.35109 55.358C9.3284 55.3293 9.30055 55.3074 9.26972 55.2941C9.2389 55.2807 9.20594 55.2762 9.17346 55.281H9.06177V55.9001Z" fill="#263238"/>
<path d="M10.363 57.099C10.2641 57.1053 10.1657 57.0775 10.0791 57.0188C10.008 56.9647 9.95436 56.8826 9.92704 56.7862C9.89513 56.6707 9.87966 56.5494 9.88128 56.4275V55.6626C9.87942 55.5424 9.89491 55.4226 9.92704 55.3089C9.95494 55.2145 10.0086 55.1348 10.0791 55.0829C10.1682 55.0311 10.2657 55.0042 10.3644 55.0042C10.4631 55.0042 10.5606 55.0311 10.6497 55.0829C10.7199 55.1352 10.7735 55.2148 10.8017 55.3089C10.8351 55.4223 10.8511 55.5422 10.8488 55.6626V56.4308C10.8508 56.5512 10.8348 56.671 10.8017 56.7846C10.7736 56.8804 10.7201 56.9622 10.6497 57.0171C10.5625 57.077 10.463 57.1054 10.363 57.099ZM10.363 56.8239C10.4036 56.8282 10.4441 56.8136 10.4761 56.7829C10.5015 56.7536 10.5185 56.7152 10.5245 56.6732C10.5329 56.6225 10.5369 56.5709 10.5366 56.5192V55.5775C10.5371 55.5258 10.533 55.4742 10.5245 55.4235C10.5184 55.3821 10.5014 55.3441 10.4761 55.3154C10.4426 55.2898 10.4039 55.2763 10.3644 55.2763C10.3249 55.2763 10.2862 55.2898 10.2527 55.3154C10.227 55.344 10.2095 55.3819 10.2029 55.4235C10.1944 55.4742 10.1904 55.5258 10.1908 55.5775V56.5192C10.1905 56.5709 10.1946 56.6225 10.2029 56.6732C10.2078 56.7156 10.225 56.7545 10.2513 56.7829C10.283 56.8133 10.3229 56.828 10.363 56.8239Z" fill="#263238"/>
<path d="M11.3239 57.0712L10.9847 55.0223H11.2539L11.4759 56.4685L11.6858 55.0223H11.9644L11.6266 57.0663L11.3239 57.0712Z" fill="#263238"/>
<path d="M12.1367 57.0712V55.0223H12.8418V55.2843H12.4381V55.8723H12.7503V56.1327H12.4381V56.8092H12.8418V57.0663L12.1367 57.0712Z" fill="#263238"/>
<path d="M13.0194 57.0712L13.049 55.0272H13.368L13.6062 56.4422L13.8551 55.0272H14.1619L14.1929 57.0712H13.9641L13.9399 55.6495L13.7017 57.0712H13.516L13.2724 55.6446L13.2496 57.0712H13.0194Z" fill="#263238"/>
<path d="M14.4284 57.0712V55.0223H15.1335V55.2843H14.7298V55.8723H15.042V56.1327H14.7298V56.8092H15.1335V57.0663L14.4284 57.0712Z" fill="#263238"/>
<path d="M15.3152 57.0712V55.0223H15.5291L15.9328 56.1884V55.0223H16.1939V57.0663H15.9907L15.5789 55.8445V57.0663L15.3152 57.0712Z" fill="#263238"/>
<path d="M16.6137 57.0712V55.3023H16.3446V55.0223H17.183V55.2974H16.9138V57.0663L16.6137 57.0712Z" fill="#263238"/>
<path d="M54.1853 67.5189H42.2033L43.9998 59.469H52.3875L54.1853 67.5189Z" fill="#263238" stroke="#263238" stroke-linecap="round" stroke-linejoin="round"/>
<path d="M57.3005 67.5189H39.088V68.3362H57.3005V67.5189Z" fill="#263238" stroke="#263238" stroke-linecap="round" stroke-linejoin="round"/>
<path d="M74.0947 20.2904H22.2925V60.3141H74.0947V20.2904Z" fill="#263238" stroke="#263238" stroke-linecap="round" stroke-linejoin="round"/>
<path d="M72.4355 21.8168H23.9531V58.7892H72.4355V21.8168Z" fill="#B2B2B2" stroke="#263238" stroke-linecap="round" stroke-linejoin="round"/>
<path d="M38.6009 31.1459L35.4601 31.7847L36.4505 49.4159L41.003 49.8631C41.003 49.8631 41.992 43.0841 42.0486 41.9835C42.1051 40.8828 40.4337 32.6249 40.4337 32.6249L38.6009 31.1459Z" fill="#92E3A9" stroke="#263238" stroke-linecap="round" stroke-linejoin="round"/>
<path d="M43.2422 58.7893C43.3455 58.355 43.3967 57.9049 43.3943 57.4528C43.3579 56.7976 43.2153 55.7969 43.2153 55.7969L41.9261 55.928L42.4254 58.7893H43.2422Z" fill="white" stroke="#263238" stroke-linecap="round" stroke-linejoin="round"/>
<path d="M29.4193 58.7893H42.4563C42.4213 58.4404 42.3217 57.5609 42.2181 56.6781C42.0768 55.5431 41.116 47.593 41.116 47.593L31.5347 46.4908C31.5347 46.4908 29.3009 51.7564 28.99 53.3042C28.6792 54.8519 29.3816 58.4994 29.3816 58.4994L29.4193 58.7893Z" fill="#263238" stroke="#263238" stroke-linecap="round" stroke-linejoin="round"/>
<path d="M42.0486 19.1701C42.0486 19.1701 42.7833 18.9638 43.0942 20.3739C43.405 21.7841 43.0377 22.5031 43.179 23.1959C43.3203 23.8887 43.6244 25.5004 43.2557 27.1169C42.8869 28.7334 41.5682 29.9012 41.5063 30.4908L41.4497 31.0755C41.4497 31.0755 41.2519 31.3163 40.6302 31.2475C40.0085 31.1787 39.2442 30.6284 39.2442 30.6284L39.3289 29.459C39.3289 29.459 40.4055 29.459 40.6585 29.2182C40.9115 28.9775 42.0149 26.5977 42.0997 25.9147C42.1845 25.2318 42.241 23.2647 42.1562 22.68C42.0715 22.0953 41.4834 20.8899 41.2519 20.7867C41.0205 20.6835 39.9789 19.7892 39.9789 19.7892C39.9789 19.7892 41.4269 18.723 42.0486 19.1701Z" fill="#263238" stroke="#263238" stroke-linecap="round" stroke-linejoin="round"/>
<path d="M42.755 33.9663C42.755 33.9663 43.6607 34.4822 43.6889 35.3421C43.7172 36.2019 43.2072 40.0214 43.2072 40.2982C43.2072 40.575 42.9529 46.2844 42.9529 46.2844L43.5006 56.231L42.2127 56.3194C42.2127 56.3194 41.0891 48.9623 41.2008 48.0746C41.3125 47.1869 41.992 42.7746 42.0486 41.9835C42.1051 41.1924 41.9638 37.8201 42.1616 36.8227C42.3594 35.8252 42.755 33.9663 42.755 33.9663Z" fill="white" stroke="#263238" stroke-linecap="round" stroke-linejoin="round"/>
<path d="M40.8199 19.9203C40.8199 19.9203 42.2168 20.6147 42.4428 21.8201C42.6689 23.0256 42.3298 24.5373 42.4428 25.502C42.5559 26.4667 41.4255 28.8743 41.0299 29.459C40.6342 30.0437 39.6721 29.8373 39.6721 29.8373L39.8174 31.7651C39.8174 31.7651 40.4095 34.1727 40.3234 34.7918C40.2373 35.4109 39.3047 36.3199 38.1192 36.2363C36.6483 36.1332 36.1948 34.4675 36.1948 34.4675L36.3926 30.6481C36.4421 29.8612 36.4236 29.0701 36.3375 28.2879C36.1962 26.8778 36.507 24.7437 36.6201 24.3997C36.7331 24.0558 37.78 22.6456 38.43 22.0953C39.08 21.545 40.3516 19.9661 40.3516 19.9661C40.3516 19.9661 40.7257 19.7745 40.8199 19.9203Z" fill="white" stroke="#263238" stroke-linecap="round" stroke-linejoin="round"/>
<path d="M36.3361 31.3703C36.3361 31.3703 31.9842 31.8617 31.3571 32.3825C30.73 32.9033 31.6397 43.9439 31.6397 43.9439C31.6397 43.9439 28.1409 53.3041 28.2472 53.3729C28.3535 53.4417 30.0276 55.127 31.8092 55.5021C33.5909 55.8772 36.1908 56.1572 36.1908 56.1572C36.1908 56.1572 37.1234 46.8658 37.2364 46.1435C37.3494 45.4213 36.9821 38.2639 37.0386 37.2665C37.0951 36.2691 36.3361 31.3703 36.3361 31.3703Z" fill="white" stroke="#263238" stroke-linecap="round" stroke-linejoin="round"/>
<path d="M36.4613 42.5649C36.5896 42.9325 36.7371 43.2897 36.9027 43.6344" stroke="#263238" stroke-linecap="round" stroke-linejoin="round"/>
<path d="M35.3457 33.6633C35.5328 35.7253 35.8207 38.9289 35.9136 40.1245C35.9787 40.8531 36.1259 41.5673 36.3509 42.2471" stroke="#263238" stroke-linecap="round" stroke-linejoin="round"/>
<path d="M35.1775 31.8191C35.1775 31.8191 35.2219 32.3104 35.2892 33.0491" stroke="#263238" stroke-linecap="round" stroke-linejoin="round"/>
<path d="M40.82 19.9202C40.5387 20.5049 40.2239 21.0648 39.878 21.5957C39.3855 22.3147 37.5177 23.7904 37.5177 23.7904C37.5177 23.7904 37.55 24.5897 37.4181 24.8288C37.2862 25.0679 36.861 24.9091 36.861 24.9091C36.861 24.9091 36.5663 26.863 36.6645 28.301C36.7627 29.739 37.3535 30.1354 37.1893 30.4957C37.0251 30.856 35.9903 31.806 34.5814 31.1328C33.1724 30.4597 32.4498 29.7751 32.0892 28.6974C31.7285 27.6197 32.9921 21.8758 33.9099 20.0398C34.8276 18.2038 37.0251 17.0065 38.3695 17.2064C39.7138 17.4062 42.1078 18.284 42.3043 18.9621C42.5007 19.6402 40.82 19.9202 40.82 19.9202Z" fill="#263238" stroke="#263238" stroke-linecap="round" stroke-linejoin="round"/>
<path d="M36.6201 24.3948C36.6201 24.3948 35.3551 26.1079 35.0954 27.9571C34.8357 29.8062 35.6162 30.5989 35.9203 30.7578" stroke="#5C5C5C" stroke-linecap="round" stroke-linejoin="round"/>
<path d="M32.8872 27.7048C32.853 28.0578 32.8805 28.4156 32.9679 28.7547" stroke="#5C5C5C" stroke-linecap="round" stroke-linejoin="round"/>
<path d="M38.8014 21.0012C38.4832 21.3456 38.1435 21.6593 37.7854 21.9397C36.067 23.3056 33.7713 24.9484 33.0755 26.8663" stroke="#5C5C5C" stroke-linecap="round" stroke-linejoin="round"/>
<path d="M39.7434 18.9802C39.7434 18.9802 39.8887 19.5337 39.2374 20.4657" stroke="#5C5C5C" stroke-linecap="round" stroke-linejoin="round"/>
<path d="M39.8174 31.7651C39.8174 31.7651 42.2181 33.5192 42.7551 33.9663C43.292 34.4134 42.3877 38.6112 42.4725 39.4367C42.5572 40.2621 42.8116 42.221 42.5572 43.0497C42.3029 43.8785 42.1616 44.3928 42.1616 44.3928L41.6812 48.1778C41.6812 48.1778 42.4725 55.4383 42.4442 55.548C42.4159 55.6578 39.6452 56.0983 39.6452 56.0983C39.6452 56.0983 40.1538 48.7281 40.4378 47.1853C40.7217 45.6424 41.6489 43.3658 41.4269 40.8206C41.2048 38.2755 39.8174 31.7651 39.8174 31.7651Z" fill="white" stroke="#263238" stroke-linecap="round" stroke-linejoin="round"/>
<path d="M41.9961 40.8173C41.9608 41.6462 41.7964 42.4593 41.5117 43.2135" stroke="#263238" stroke-linecap="round" stroke-linejoin="round"/>
<path d="M41.2237 33.1736C41.2237 33.1736 41.9719 38.0969 42.0095 40.0394" stroke="#263238" stroke-linecap="round" stroke-linejoin="round"/>
<path d="M42.3002 38.6112C42.3002 38.6112 42.128 36.8931 41.8965 35.9907" stroke="#263238" stroke-linecap="round" stroke-linejoin="round"/>
<path d="M40.1471 24.6716C40.1471 24.9435 40.0395 25.1629 39.9049 25.1629C39.7703 25.1629 39.6627 24.9418 39.6627 24.6716C39.6627 24.4013 39.7703 24.1802 39.9049 24.1802C40.0395 24.1802 40.1471 24.3948 40.1471 24.6716Z" fill="#263238"/>
<path d="M42.2047 24.6716C42.2047 24.9435 42.097 25.1629 41.9624 25.1629C41.8279 25.1629 41.7189 24.9418 41.7189 24.6716C41.7189 24.4013 41.8279 24.1802 41.9624 24.1802C42.097 24.1802 42.2047 24.3948 42.2047 24.6716Z" fill="#263238"/>
<path d="M39.1701 23.7396C39.3707 23.5787 39.5977 23.4734 39.8354 23.4309C40.073 23.3885 40.3154 23.41 40.5454 23.494" stroke="#263238" stroke-linecap="round" stroke-linejoin="round"/>
<path d="M42.2451 23.7397C42.1761 23.6432 42.0809 23.5801 41.9768 23.5621C41.8728 23.544 41.7669 23.5722 41.6785 23.6414C41.6785 23.6414 41.3152 24.2326 41.3959 24.6241" stroke="#263238" stroke-linecap="round" stroke-linejoin="round"/>
<path d="M41.4363 26.9875L40.6665 27.1349" stroke="#263238" stroke-linecap="round" stroke-linejoin="round"/>
<path d="M40.9545 27.7753C40.9545 27.7753 39.8215 28.1684 39.1338 27.1349" stroke="#263238" stroke-linecap="round" stroke-linejoin="round"/>
<path d="M39.6734 29.8373L38.5619 29.4L39.5335 30.8299L39.6734 29.8373Z" fill="#263238" stroke="#263238" stroke-linecap="round" stroke-linejoin="round"/>
<path d="M59.7753 31.7257C59.5098 32.2244 59.316 32.7743 59.202 33.3521C59.0432 34.2414 58.8844 35.2487 58.8844 35.2487C58.8844 35.2487 59.6797 34.474 59.7753 34.4298C59.8708 34.3855 59.712 33.4241 59.712 33.4241L60.2503 32.882L59.7753 31.7257Z" fill="#263238" stroke="#263238" stroke-linecap="round" stroke-linejoin="round"/>
<path d="M60.0929 18.6804C60.0929 18.6804 59.2976 19.0292 58.98 19.7253C58.6624 20.4214 57.8348 22.0478 57.9626 22.5899C58.0905 23.132 58.1524 23.3646 58.1524 23.3646C58.1524 23.3646 57.0085 25.8033 57.135 26.0359C57.2899 26.2705 57.46 26.4896 57.6437 26.691C57.6437 26.691 58.1524 29.5933 58.3758 29.7865C58.5991 29.9798 59.2343 30.0961 59.2343 30.0961L60.1561 31.4899L65.2132 28.9807L65.2778 27.6262C65.2778 27.6262 66.9949 24.9156 67.2169 23.3679C67.439 21.8201 65.8174 19.1488 64.068 18.1039C62.3186 17.0589 60.475 17.6355 60.0929 18.6804Z" fill="white" stroke="#263238" stroke-linecap="round" stroke-linejoin="round"/>
<path d="M58.4484 24.1983C58.6667 24.4178 58.9358 24.5489 59.2182 24.5734" stroke="#263238" stroke-linecap="round" stroke-linejoin="round"/>
<path d="M64.068 18.1006C62.3186 17.0557 60.475 17.6355 60.0929 18.6804C60.0929 18.6804 60.2517 18.836 60.7657 18.7967C61.2798 18.7574 62.4841 18.1415 62.8017 18.6804C63.1193 19.2192 61.8476 19.6877 61.3713 20.5C60.8949 21.3124 61.0214 21.3517 61.4022 21.9741C61.783 22.5964 61.8476 22.865 61.7844 23.1353C61.7211 23.4055 61.6256 23.6381 62.0387 23.7167C62.4519 23.7953 62.577 22.5555 63.2149 22.942C63.8527 23.3286 63.9469 24.4898 63.7235 25.2645C63.6689 25.481 63.5789 25.6818 63.4588 25.8549C63.3388 26.028 63.1913 26.1698 63.0251 26.2717C63.0251 26.2717 63.1193 26.7746 63.8191 27.2004C64.2778 27.4635 64.7763 27.6085 65.2832 27.6262C65.2832 27.6262 67.0003 24.9156 67.2223 23.3679C67.4443 21.8201 65.8174 19.1537 64.068 18.1006Z" fill="#263238" stroke="#263238" stroke-linecap="round" stroke-linejoin="round"/>
<path d="M65.2778 25.0352C65.3819 25.3578 65.4225 25.7056 65.3962 26.0507" stroke="#5C5C5C" stroke-linecap="round" stroke-linejoin="round"/>
<path d="M61.6606 21.0127C61.6606 21.0127 61.8853 21.5597 63.1408 22.2165C63.8487 22.5867 64.5148 23.3728 64.9387 24.2032" stroke="#5C5C5C" stroke-linecap="round" stroke-linejoin="round"/>
<path d="M65.1257 22.6554C65.1257 22.6554 66.2507 23.4743 66.0677 25.0646" stroke="#5C5C5C" stroke-linecap="round" stroke-linejoin="round"/>
<path d="M58.9867 23.4613C58.9867 23.7282 58.8939 23.9526 58.7795 23.9526C58.6651 23.9526 58.5736 23.7348 58.5736 23.4613C58.5736 23.1877 58.6651 22.9699 58.7795 22.9699C58.8939 22.9699 58.9867 23.1943 58.9867 23.4613Z" fill="#263238"/>
<path d="M58.3139 22.3967C58.3139 22.3967 58.8858 21.5777 59.3904 22.436" stroke="#263238" stroke-linecap="round" stroke-linejoin="round"/>
<path d="M58.0891 26.8089C58.0891 26.8089 58.8521 26.732 59.3298 26.1538" stroke="#263238" stroke-linecap="round" stroke-linejoin="round"/>
<path d="M63.0238 26.2685L62.6739 26.3831C62.5181 26.9515 62.2565 27.4683 61.9095 27.8932" fill="white"/>
<path d="M63.0238 26.2685L62.6739 26.3831C62.5181 26.9515 62.2565 27.4683 61.9095 27.8932" stroke="#263238" stroke-linecap="round" stroke-linejoin="round"/>
<path d="M65.3114 28.396C65.3114 28.396 60.3499 30.9133 60.1278 31.2229C59.9058 31.5324 59.778 31.7257 59.778 31.7257L60.1588 34.2037L65.9452 29.5572L65.3114 28.396Z" fill="white" stroke="#263238" stroke-linecap="round" stroke-linejoin="round"/>
<path d="M50.8816 45.4541L51.1575 47.919L49.8683 48.2924C49.5135 48.5837 49.1431 48.8458 48.7595 49.077C48.2387 49.375 47.87 49.4864 47.6829 49.4864C47.4959 49.4864 46.8244 49.1507 46.8244 49.1507C46.8244 49.1507 47.2846 46.1256 47.8068 45.7898C48.3289 45.4541 49.7149 44.9676 50.8816 45.4541Z" fill="white" stroke="#263238" stroke-linecap="round" stroke-linejoin="round"/>
<path d="M44.3914 46.4875C44.3914 46.4875 46.8136 46.0502 47.0828 46.0044C47.3519 45.9585 48.057 46.6742 48.057 46.6742C48.057 46.6742 49.4256 48.7379 49.3476 48.8886C49.1511 49.2669 48.9371 49.0524 48.9371 49.0524L48.921 49.298C48.921 49.298 48.7716 49.6027 47.835 49.606C46.8984 49.6092 46.5633 49.3292 46.3332 49.3062C46.1031 49.2833 44.2891 48.7199 44.2891 48.7199L44.3914 46.4875Z" fill="white" stroke="#263238" stroke-linecap="round" stroke-linejoin="round"/>
<path d="M43.5786 46.2681L44.4681 46.463L44.3699 48.9033L43.5611 48.8395L43.5786 46.2681Z" fill="white" stroke="#263238" stroke-linecap="round" stroke-linejoin="round"/>
<path d="M33.7161 32.2285C33.7161 32.2285 31.1862 32.014 30.656 32.5151C30.1258 33.0163 30.3868 39.6413 30.8336 42.0408C31.2804 44.4402 31.8927 48.2727 32.1793 48.4512C32.4659 48.6298 43.6957 49.1833 43.6957 49.1833L43.8141 46.2107L35.1519 43.939L34.5343 34.5575" fill="white"/>
<path d="M33.7161 32.2285C33.7161 32.2285 31.1862 32.014 30.656 32.5151C30.1258 33.0163 30.3868 39.6413 30.8336 42.0408C31.2804 44.4402 31.8927 48.2727 32.1793 48.4512C32.4659 48.6298 43.6957 49.1833 43.6957 49.1833L43.8141 46.2107L35.1519 43.939L34.5343 34.5575" stroke="#263238" stroke-linecap="round" stroke-linejoin="round"/>
<path d="M48.9439 49.0523L48.5536 48.3841" stroke="#263238" stroke-linecap="round" stroke-linejoin="round"/>
<path d="M48.6747 49.4389L48.2024 48.7068" stroke="#263238" stroke-linecap="round" stroke-linejoin="round"/>
<path d="M50.2398 45.6866C50.2398 45.6866 47.9386 44.8267 47.4784 45.4246C47.0182 46.0224 46.0358 47.5914 46.2512 47.7781C46.4665 47.9648 47.2322 47.254 47.4165 47.105C47.552 46.9856 47.6757 46.8477 47.7852 46.6939C47.999 46.9511 48.2647 47.135 48.5556 47.227C48.8465 47.319 49.1522 47.3159 49.4418 47.218" fill="white"/>
<path d="M50.2398 45.6866C50.2398 45.6866 47.9386 44.8267 47.4784 45.4246C47.0182 46.0224 46.0358 47.5914 46.2512 47.7781C46.4665 47.9648 47.2322 47.254 47.4165 47.105C47.552 46.9856 47.6757 46.8477 47.7852 46.6939C47.999 46.9511 48.2647 47.135 48.5556 47.227C48.8465 47.319 49.1522 47.3159 49.4418 47.218" stroke="#263238" stroke-linecap="round" stroke-linejoin="round"/>
<path d="M47.7058 48.6347C47.7058 48.6347 47.4878 49.5961 47.5713 49.7583C47.6049 49.8267 47.656 49.8797 47.7168 49.9093C47.7775 49.9389 47.8446 49.9434 47.9077 49.922C47.9824 49.8834 48.0505 49.8278 48.1082 49.7583C48.1082 49.7583 48.1418 48.9393 48.0409 48.7379C47.94 48.5364 47.8566 48.3956 47.7058 48.6347Z" fill="white" stroke="#263238" stroke-linecap="round" stroke-linejoin="round"/>
<path d="M47.1178 48.7625C47.1178 48.7625 46.8998 49.7223 46.9832 49.886C47.0164 49.9545 47.0672 50.0077 47.1278 50.0373C47.1885 50.0669 47.2554 50.0713 47.3183 50.0498C47.3936 50.0115 47.4621 49.9559 47.5201 49.886C47.5201 49.886 47.5538 49.0671 47.4528 48.8657C47.3519 48.6642 47.2698 48.5184 47.1178 48.7625Z" fill="white" stroke="#263238" stroke-linecap="round" stroke-linejoin="round"/>
<path d="M46.527 48.7985C46.527 48.7985 46.3602 49.5355 46.4247 49.66C46.4502 49.7126 46.4892 49.7534 46.5357 49.7762C46.5821 49.799 46.6335 49.8025 46.6818 49.7861C46.7397 49.757 46.7923 49.7141 46.8365 49.66C46.8365 49.66 46.8621 49.0344 46.7854 48.8771C46.7087 48.7199 46.6427 48.6102 46.527 48.7985Z" fill="white" stroke="#263238" stroke-linecap="round" stroke-linejoin="round"/>
<path d="M45.8313 48.828C45.8313 48.828 45.6967 49.3193 45.7506 49.3996C45.7741 49.4355 45.8057 49.4624 45.8415 49.4769C45.8773 49.4915 45.9159 49.493 45.9524 49.4815C45.9968 49.463 46.0383 49.4353 46.0749 49.3996C46.0749 49.3996 46.0951 48.9836 46.0345 48.8804C45.9739 48.7772 45.9228 48.7035 45.8313 48.828Z" fill="white" stroke="#263238" stroke-linecap="round" stroke-linejoin="round"/>
<path d="M50.6973 45.192L51.0041 48.6658L52.0161 48.4414L51.6487 44.9676L50.6973 45.192Z" fill="white" stroke="#263238" stroke-linecap="round" stroke-linejoin="round"/>
<path d="M51.3419 44.7449L51.9555 49.1507L56.1581 48.4792L56.6183 43.4739L51.3419 44.7449Z" fill="#92E3A9" stroke="#263238" stroke-linecap="round" stroke-linejoin="round"/>
<path d="M54.6415 48.7216L56.1581 48.4792L56.6183 43.4739L55.5108 43.7409L54.6415 48.7216Z" fill="#263238" stroke="#263238" stroke-linecap="round" stroke-linejoin="round"/>
<path d="M67.33 58.7893L66.9868 50.7639C66.9868 50.7639 68.4294 43.0661 68.1226 38.8077C67.8158 34.5493 65.4527 30.1075 65.4527 30.1075C65.4527 30.1075 59.8991 34.3266 59.3164 35.0734C58.7337 35.8203 57.6922 37.088 57.3853 38.2836C57.0785 39.4792 55.8822 46.8331 55.8822 46.8331C55.8822 46.8331 54.624 51.9873 54.2257 55.0877C53.9835 56.9729 54.0131 58.1505 54.0736 58.786L67.33 58.7893Z" fill="#92E3A9" stroke="#263238" stroke-linecap="round" stroke-linejoin="round"/>
<path d="M65.2441 31.5111C65.6247 31.3233 65.9967 31.1106 66.3584 30.874" stroke="#263238" stroke-linecap="round" stroke-linejoin="round"/>
<path d="M57.6922 39.9886C58.1712 38.9339 58.7687 37.6809 59.0379 37.2993C59.5465 36.6032 63.3629 32.5005 64.7624 31.7651" stroke="#263238" stroke-linecap="round" stroke-linejoin="round"/>
<path d="M56.9763 41.5921C56.9763 41.5921 57.2037 41.068 57.5145 40.3801" stroke="#263238" stroke-linecap="round" stroke-linejoin="round"/>
<path d="M60.5046 41.9949C60.5046 44.396 60.2355 46.7725 60.3701 49.149C59.673 52.2052 58.4175 54.9207 57.5145 57.7885" stroke="#263238" stroke-linecap="round" stroke-linejoin="round"/>
<path d="M61.016 37.0684C61.016 37.0684 60.4427 38.1133 60.506 40.0476C60.5141 40.2851 60.5167 40.6094 60.5154 40.9942" stroke="#263238" stroke-linecap="round" stroke-linejoin="round"/>
<path d="M66.5495 38.1526C66.5495 38.1526 65.2778 50.076 65.1499 51.044C65.0584 51.7368 63.1085 55.5267 62.0078 57.6215" stroke="#263238" stroke-linecap="round" stroke-linejoin="round"/>
<path d="M58.1443 55.4055L55.5431 54.8552L55.7126 53.8905L58.2573 54.4425" stroke="#263238" stroke-linecap="round" stroke-linejoin="round"/>
</svg>
