<svg width="14" height="13" viewBox="0 0 14 13" fill="none" xmlns="http://www.w3.org/2000/svg">
<path d="M2.71429 11.5V2.37667C2.71423 2.18277 2.78041 1.99435 2.90245 1.84099C3.02448 1.68763 3.19545 1.57802 3.38851 1.52938C3.58157 1.48074 3.78578 1.49582 3.96907 1.57226C4.15235 1.64869 4.30433 1.78215 4.40114 1.95167L9.59886 11.0483C9.69567 11.2179 9.84765 11.3513 10.0309 11.4277C10.2142 11.5042 10.4184 11.5193 10.6115 11.4706C10.8045 11.422 10.9755 11.3124 11.0976 11.159C11.2196 11.0057 11.2858 10.8172 11.2857 10.6233V1.5M1 4.83333H13M1 8.16667H13" stroke="#830D3F" stroke-width="2" stroke-linecap="round" stroke-linejoin="round"/>
</svg>
