<?xml version="1.0" encoding="UTF-8"?>
<!DOCTYPE svg PUBLIC "-//W3C//DTD SVG 1.1//EN" "http://www.w3.org/Graphics/SVG/1.1/DTD/svg11.dtd">
<svg xmlns="http://www.w3.org/2000/svg" version="1.1" width="335px" height="325px" style="shape-rendering:geometricPrecision; text-rendering:geometricPrecision; image-rendering:optimizeQuality; fill-rule:evenodd; clip-rule:evenodd" xmlns:xlink="http://www.w3.org/1999/xlink">
<g><path style="opacity:0.989" fill="#0fd2d9" d="M 143.5,-0.5 C 149.5,-0.5 155.5,-0.5 161.5,-0.5C 162.933,8.49805 164.433,17.4981 166,26.5C 166.821,33.3464 166.654,40.013 165.5,46.5C 165.5,40.8333 165.5,35.1667 165.5,29.5C 154.5,29.5 143.5,29.5 132.5,29.5C 131.556,20.5053 130.556,11.5053 129.5,2.5C 134.261,1.49308 138.927,0.493082 143.5,-0.5 Z"/></g>
<g><path style="opacity:1" fill="#fefefe" d="M 161.5,-0.5 C 168.833,-0.5 176.167,-0.5 183.5,-0.5C 182.541,8.25199 181.041,16.9187 179,25.5C 178.178,33.0118 178.345,40.3451 179.5,47.5C 181.532,54.1988 185.865,58.5322 192.5,60.5C 192.5,81.5 192.5,102.5 192.5,123.5C 191.039,122.314 189.705,122.314 188.5,123.5C 188.167,123.5 187.833,123.5 187.5,123.5C 184.5,123.5 181.5,123.5 178.5,123.5C 178.34,121.801 178.506,120.134 179,118.5C 180.483,115.674 182.483,113.341 185,111.5C 185.844,109.537 185.344,108.204 183.5,107.5C 184.355,104.514 184.855,101.514 185,98.5C 179.157,91.8534 172.49,90.8534 165,95.5C 164.501,99.4862 164.334,103.486 164.5,107.5C 162.656,108.204 162.156,109.537 163,111.5C 165.354,113.88 167.354,116.546 169,119.5C 169.494,121.134 169.66,122.801 169.5,124.5C 166.535,123.266 163.535,123.266 160.5,124.5C 159.209,124.263 158.209,124.596 157.5,125.5C 156.5,125.5 155.5,125.5 154.5,125.5C 154.5,103.5 154.5,81.5 154.5,59.5C 160.722,57.2814 164.389,52.9481 165.5,46.5C 166.654,40.013 166.821,33.3464 166,26.5C 164.433,17.4981 162.933,8.49805 161.5,-0.5 Z"/></g>
<g><path style="opacity:0.987" fill="#0dd2d9" d="M 183.5,-0.5 C 185.5,-0.5 187.5,-0.5 189.5,-0.5C 197.778,0.828057 206.111,2.49472 214.5,4.5C 214.397,12.8828 213.731,21.2161 212.5,29.5C 201.5,29.5 190.5,29.5 179.5,29.5C 179.5,35.5 179.5,41.5 179.5,47.5C 178.345,40.3451 178.178,33.0118 179,25.5C 181.041,16.9187 182.541,8.25199 183.5,-0.5 Z"/></g>
<g><path style="opacity:0.983" fill="#daf0fe" d="M 129.5,2.5 C 130.556,11.5053 131.556,20.5053 132.5,29.5C 121.5,29.5 110.5,29.5 99.5,29.5C 98.7081,23.8698 98.3748,18.2031 98.5,12.5C 108.227,7.59183 118.561,4.2585 129.5,2.5 Z"/></g>
<g><path style="opacity:0.999" fill="#0ec4cd" d="M 98.5,12.5 C 98.3748,18.2031 98.7081,23.8698 99.5,29.5C 99.5,35.1667 99.5,40.8333 99.5,46.5C 96.3804,56.0718 89.7138,60.7385 79.5,60.5C 79.1583,59.6618 78.4916,59.3284 77.5,59.5C 70.2732,57.6061 66.2732,52.9394 65.5,45.5C 65.8182,40.9677 65.4849,36.6344 64.5,32.5C 74.5267,23.8485 85.86,17.1818 98.5,12.5 Z"/></g>
<g><path style="opacity:1" fill="#ceebfe" d="M 99.5,29.5 C 110.5,29.5 121.5,29.5 132.5,29.5C 132.5,35.5 132.5,41.5 132.5,47.5C 126.891,59.9922 117.891,63.1589 105.5,57C 102.066,54.2967 100.066,50.7967 99.5,46.5C 99.5,40.8333 99.5,35.1667 99.5,29.5 Z"/></g>
<g><path style="opacity:1" fill="#06c2cb" d="M 132.5,29.5 C 143.5,29.5 154.5,29.5 165.5,29.5C 165.5,35.1667 165.5,40.8333 165.5,46.5C 164.389,52.9481 160.722,57.2814 154.5,59.5C 153.508,59.3284 152.842,59.6618 152.5,60.5C 150.833,60.5 149.167,60.5 147.5,60.5C 140.307,58.6366 135.307,54.3033 132.5,47.5C 132.5,41.5 132.5,35.5 132.5,29.5 Z"/></g>
<g><path style="opacity:1" fill="#06c2cb" d="M 212.5,29.5 C 212.746,35.5594 212.413,41.5594 211.5,47.5C 209.503,54.1638 205.169,58.4972 198.5,60.5C 196.833,60.5 195.167,60.5 193.5,60.5C 193.167,60.5 192.833,60.5 192.5,60.5C 185.865,58.5322 181.532,54.1988 179.5,47.5C 179.5,41.5 179.5,35.5 179.5,29.5C 190.5,29.5 201.5,29.5 212.5,29.5 Z"/></g>
<g><path style="opacity:1" fill="#d0ebfe" d="M 214.5,4.5 C 225.637,7.65716 236.303,11.9905 246.5,17.5C 246.5,26.8333 246.5,36.1667 246.5,45.5C 242.124,58.521 233.457,62.6877 220.5,58C 216.886,54.8967 213.886,51.3967 211.5,47.5C 212.413,41.5594 212.746,35.5594 212.5,29.5C 213.731,21.2161 214.397,12.8828 214.5,4.5 Z"/></g>
<g><path style="opacity:0.995" fill="#0bc2cc" d="M 246.5,17.5 C 259.312,24.0035 270.978,32.0035 281.5,41.5C 279.744,42.5521 279.077,44.2188 279.5,46.5C 274.446,60.0242 265.446,63.5242 252.5,57C 248.951,53.9571 246.951,50.1238 246.5,45.5C 246.5,36.1667 246.5,26.8333 246.5,17.5 Z"/></g>
<g><path style="opacity:0.996" fill="#c6e2f5" d="M 64.5,32.5 C 65.4849,36.6344 65.8182,40.9677 65.5,45.5C 62.7087,56.2414 55.7087,61.0747 44.5,60C 41.9746,59.5762 39.9746,58.4095 38.5,56.5C 45.8608,47.1413 54.5275,39.1413 64.5,32.5 Z"/></g>
<g><path style="opacity:0.991" fill="#c3dff4" d="M 281.5,41.5 C 283.833,44.5 286.5,47.1667 289.5,49.5C 289.5,51.5 290.5,52.5 292.5,52.5C 293.925,53.922 294.925,55.5887 295.5,57.5C 296.167,58.5 296.833,59.5 297.5,60.5C 293.805,60.6498 290.472,59.6498 287.5,57.5C 285.833,56.1667 284.167,54.8333 282.5,53.5C 281.736,50.9823 280.736,48.649 279.5,46.5C 279.077,44.2188 279.744,42.5521 281.5,41.5 Z"/></g>
<g><path style="opacity:0.998" fill="#540c28" d="M 65.5,45.5 C 66.2732,52.9394 70.2732,57.6061 77.5,59.5C 78.782,64.781 78.782,70.1143 77.5,75.5C 76.5832,74.8728 75.5832,74.5394 74.5,74.5C 74.1583,73.6618 73.4916,73.3284 72.5,73.5C 57.1667,73.5 41.8333,73.5 26.5,73.5C 29.3325,67.0022 33.3325,61.3355 38.5,56.5C 39.9746,58.4095 41.9746,59.5762 44.5,60C 55.7087,61.0747 62.7087,56.2414 65.5,45.5 Z"/></g>
<g><path style="opacity:1" fill="#9f8ead" d="M 99.5,46.5 C 100.066,50.7967 102.066,54.2967 105.5,57C 117.891,63.1589 126.891,59.9922 132.5,47.5C 135.307,54.3033 140.307,58.6366 147.5,60.5C 147.5,75.1667 147.5,89.8333 147.5,104.5C 147.173,114.015 147.506,123.348 148.5,132.5C 148.672,133.492 148.338,134.158 147.5,134.5C 146.503,115.007 146.17,95.3404 146.5,75.5C 139.719,74.0582 135.052,70.0582 132.5,63.5C 128.396,73.3862 121.063,77.2195 110.5,75C 103.994,72.8455 100.161,68.3455 99,61.5C 96.2491,71.4209 89.7491,76.0875 79.5,75.5C 79.5,70.5 79.5,65.5 79.5,60.5C 89.7138,60.7385 96.3804,56.0718 99.5,46.5 Z"/></g>
<g><path style="opacity:1" fill="#3e55bf" d="M 246.5,45.5 C 246.951,50.1238 248.951,53.9571 252.5,57C 265.446,63.5242 274.446,60.0242 279.5,46.5C 280.736,48.649 281.736,50.9823 282.5,53.5C 275.167,60.1667 268.167,67.1667 261.5,74.5C 261.167,74.5 260.833,74.5 260.5,74.5C 253.067,73.2413 248.233,68.908 246,61.5C 240.968,74.1833 232.135,77.6833 219.5,72C 216.6,69.6032 214.267,66.7698 212.5,63.5C 210.536,66.5697 208.202,69.4031 205.5,72C 203.35,73.4114 201.016,74.2447 198.5,74.5C 198.5,69.8333 198.5,65.1667 198.5,60.5C 205.169,58.4972 209.503,54.1638 211.5,47.5C 213.886,51.3967 216.886,54.8967 220.5,58C 233.457,62.6877 242.124,58.521 246.5,45.5 Z"/></g>
<g><path style="opacity:0.005" fill="#000000" d="M 289.5,49.5 C 290.833,50.1667 291.833,51.1667 292.5,52.5C 290.5,52.5 289.5,51.5 289.5,49.5 Z"/></g>
<g><path style="opacity:1" fill="#3143bd" d="M 282.5,53.5 C 284.167,54.8333 285.833,56.1667 287.5,57.5C 286.687,60.9895 284.687,63.6562 281.5,65.5C 280.91,64.234 280.41,62.9007 280,61.5C 276.951,70.3963 270.784,74.7297 261.5,74.5C 268.167,67.1667 275.167,60.1667 282.5,53.5 Z"/></g>
<g><path style="opacity:0.007" fill="#525252" d="M 295.5,57.5 C 297.833,57.8333 299.167,59.1667 299.5,61.5C 298.833,61.1667 298.167,60.8333 297.5,60.5C 296.833,59.5 296.167,58.5 295.5,57.5 Z"/></g>
<g><path style="opacity:0.993" fill="#3d50bb" d="M 287.5,57.5 C 290.472,59.6498 293.805,60.6498 297.5,60.5C 298.167,60.8333 298.833,61.1667 299.5,61.5C 300.401,62.2905 301.068,63.2905 301.5,64.5C 301.427,66.0269 302.094,67.0269 303.5,67.5C 304.718,68.7311 306.051,69.8978 307.5,71C 306.944,71.3826 306.611,71.8826 306.5,72.5C 301.659,74.1517 296.659,74.8183 291.5,74.5C 287.357,72.7723 284.024,70.1056 281.5,66.5C 281.5,66.1667 281.5,65.8333 281.5,65.5C 284.687,63.6562 286.687,60.9895 287.5,57.5 Z"/></g>
<g><path style="opacity:1" fill="#506bf3" d="M 260.5,74.5 C 255.833,79.5 251.167,84.5 246.5,89.5C 244.833,89.5 243.167,89.5 241.5,89.5C 241.217,88.7109 240.717,88.0442 240,87.5C 237.963,89.7059 235.797,91.7059 233.5,93.5C 233.509,91.6916 233.009,90.0249 232,88.5C 231.189,89.9597 230.355,90.293 229.5,89.5C 230.428,88.2322 230.595,86.8989 230,85.5C 228.961,86.2438 228.461,87.2438 228.5,88.5C 227.842,87.6016 227.176,86.6016 226.5,85.5C 225.893,85.6236 225.56,85.9569 225.5,86.5C 225.335,88.8268 224.669,90.9935 223.5,93C 221.887,93.0885 220.72,92.2552 220,90.5C 220.029,94.2897 220.863,97.9564 222.5,101.5C 221.063,110.121 220.063,118.788 219.5,127.5C 217.833,127.5 216.167,127.5 214.5,127.5C 209.362,126.069 204.029,125.069 198.5,124.5C 198.5,107.833 198.5,91.1667 198.5,74.5C 201.016,74.2447 203.35,73.4114 205.5,72C 208.202,69.4031 210.536,66.5697 212.5,63.5C 214.267,66.7698 216.6,69.6032 219.5,72C 232.135,77.6833 240.968,74.1833 246,61.5C 248.233,68.908 253.067,73.2413 260.5,74.5 Z"/></g>
<g><path style="opacity:1" fill="#cab7de" d="M 147.5,134.5 C 145.463,139.23 143.463,143.897 141.5,148.5C 132.014,147.506 122.348,147.173 112.5,147.5C 112.5,153.167 112.5,158.833 112.5,164.5C 117.833,164.5 123.167,164.5 128.5,164.5C 128.5,159.5 128.5,154.5 128.5,149.5C 132.833,149.5 137.167,149.5 141.5,149.5C 140.044,151.801 139.711,154.135 140.5,156.5C 139.808,159.26 138.808,161.927 137.5,164.5C 129.764,168.7 121.764,172.367 113.5,175.5C 110.341,173.836 107.008,173.003 103.5,173C 104.833,174 106.167,175 107.5,176C 104.833,177.333 102.167,178.667 99.5,180C 104.627,180.474 104.627,181.474 99.5,183C 101.235,183.651 102.902,183.485 104.5,182.5C 104.833,182.667 105.167,182.833 105.5,183C 104.672,183.915 103.672,184.581 102.5,185C 103.872,185.402 105.205,185.902 106.5,186.5C 107.852,185.476 109.185,184.476 110.5,183.5C 110.5,184.5 110.5,185.5 110.5,186.5C 116.5,186.5 122.5,186.5 128.5,186.5C 128.5,183.5 128.5,180.5 128.5,177.5C 128.842,176.662 129.508,176.328 130.5,176.5C 129.586,179.728 129.253,183.061 129.5,186.5C 135.167,186.5 140.833,186.5 146.5,186.5C 146.5,190.5 146.5,194.5 146.5,198.5C 140.491,198.701 134.491,199.034 128.5,199.5C 128.5,195.833 128.5,192.167 128.5,188.5C 122.5,188.5 116.5,188.5 110.5,188.5C 110.1,194.829 109.767,201.162 109.5,207.5C 122.167,207.5 134.833,207.5 147.5,207.5C 147.5,216.167 147.5,224.833 147.5,233.5C 147.482,238.956 146.815,244.289 145.5,249.5C 144.167,249.5 142.833,249.5 141.5,249.5C 141.5,245.5 141.5,241.5 141.5,237.5C 137.167,237.5 132.833,237.5 128.5,237.5C 128.5,235.167 128.5,232.833 128.5,230.5C 122.132,230.83 115.798,230.496 109.5,229.5C 113.783,228.508 118.116,228.174 122.5,228.5C 127.833,228.5 133.167,228.5 138.5,228.5C 138.5,225.5 138.5,222.5 138.5,219.5C 135.167,219.5 131.833,219.5 128.5,219.5C 128.5,216.167 128.5,212.833 128.5,209.5C 122.167,209.5 115.833,209.5 109.5,209.5C 109.5,211.5 109.5,213.5 109.5,215.5C 108.833,224.167 108.167,232.833 107.5,241.5C 98.1667,232.5 88.8333,223.5 79.5,214.5C 79.5,207.5 79.5,200.5 79.5,193.5C 80.8333,193.5 82.1667,193.5 83.5,193.5C 84.831,186.03 85.4977,178.196 85.5,170C 85.4977,161.804 84.831,153.97 83.5,146.5C 82.1667,146.5 80.8333,146.5 79.5,146.5C 79.5,122.833 79.5,99.1667 79.5,75.5C 89.7491,76.0875 96.2491,71.4209 99,61.5C 100.161,68.3455 103.994,72.8455 110.5,75C 121.063,77.2195 128.396,73.3862 132.5,63.5C 135.052,70.0582 139.719,74.0582 146.5,75.5C 146.17,95.3404 146.503,115.007 147.5,134.5 Z"/></g>
<g><path style="opacity:0.006" fill="#2e2e2e" d="M 301.5,64.5 C 302.906,64.9731 303.573,65.9731 303.5,67.5C 302.094,67.0269 301.427,66.0269 301.5,64.5 Z"/></g>
<g><path style="opacity:1" fill="#4f6af3" d="M 281.5,66.5 C 284.024,70.1056 287.357,72.7723 291.5,74.5C 287.167,79.1667 282.833,83.8333 278.5,88.5C 274.958,88.1872 271.625,88.5206 268.5,89.5C 265.167,89.5 261.833,89.5 258.5,89.5C 265.833,81.5 273.5,73.8333 281.5,66.5 Z"/></g>
<g><path style="opacity:1" fill="#3f56f0" d="M 281.5,65.5 C 281.5,65.8333 281.5,66.1667 281.5,66.5C 273.5,73.8333 265.833,81.5 258.5,89.5C 254.5,89.5 250.5,89.5 246.5,89.5C 251.167,84.5 255.833,79.5 260.5,74.5C 260.833,74.5 261.167,74.5 261.5,74.5C 270.784,74.7297 276.951,70.3963 280,61.5C 280.41,62.9007 280.91,64.234 281.5,65.5 Z"/></g>
<g><path style="opacity:0.998" fill="#3f55ef" d="M 306.5,72.5 C 307.167,72.5 307.5,72.8333 307.5,73.5C 307.427,75.0269 308.094,76.0269 309.5,76.5C 310.338,76.8417 310.672,77.5084 310.5,78.5C 310.833,79.8333 311.167,81.1667 311.5,82.5C 304.202,89.2974 297.035,96.2974 290,103.5C 289.039,99.5081 289.539,95.8415 291.5,92.5C 289.557,89.5293 286.891,87.5293 283.5,86.5C 282.221,87.968 280.554,88.6347 278.5,88.5C 282.833,83.8333 287.167,79.1667 291.5,74.5C 296.659,74.8183 301.659,74.1517 306.5,72.5 Z"/></g>
<g><path style="opacity:1" fill="#3842b9" d="M 26.5,73.5 C 41.8333,73.5 57.1667,73.5 72.5,73.5C 72.5,141.5 72.5,209.5 72.5,277.5C 72.1667,277.5 71.8333,277.5 71.5,277.5C 71.6667,242.498 71.5,207.498 71,172.5C 55.7219,152.25 40.2219,132.25 24.5,112.5C 24.5,101.167 24.5,89.8333 24.5,78.5C 25.1667,76.8333 25.8333,75.1667 26.5,73.5 Z"/></g>
<g><path style="opacity:1" fill="#931a39" d="M 72.5,73.5 C 73.4916,73.3284 74.1583,73.6618 74.5,74.5C 74.5,108.833 74.5,143.167 74.5,177.5C 74.8332,211.173 74.4999,244.84 73.5,278.5C 72.8933,278.376 72.56,278.043 72.5,277.5C 72.5,209.5 72.5,141.5 72.5,73.5 Z"/></g>
<g><path style="opacity:1" fill="#6c1539" d="M 77.5,59.5 C 78.4916,59.3284 79.1583,59.6618 79.5,60.5C 79.5,65.5 79.5,70.5 79.5,75.5C 79.5,99.1667 79.5,122.833 79.5,146.5C 78.5,146.5 77.5,146.5 76.5,146.5C 76.5,147.833 76.5,149.167 76.5,150.5C 77.5,150.5 78.5,150.5 79.5,150.5C 79.5,163.5 79.5,176.5 79.5,189.5C 78.5,189.5 77.5,189.5 76.5,189.5C 79.4664,184.936 78.7997,180.936 74.5,177.5C 74.5,143.167 74.5,108.833 74.5,74.5C 75.5832,74.5394 76.5832,74.8728 77.5,75.5C 78.782,70.1143 78.782,64.781 77.5,59.5 Z"/></g>
<g><path style="opacity:0.016" fill="#333333" d="M 307.5,73.5 C 308.906,73.9731 309.573,74.9731 309.5,76.5C 308.094,76.0269 307.427,75.0269 307.5,73.5 Z"/></g>
<g><path style="opacity:1" fill="#61092e" d="M 147.5,60.5 C 149.167,60.5 150.833,60.5 152.5,60.5C 153.496,74.9905 153.829,89.6572 153.5,104.5C 151.5,104.5 149.5,104.5 147.5,104.5C 147.5,89.8333 147.5,75.1667 147.5,60.5 Z"/></g>
<g><path style="opacity:1" fill="#833757" d="M 152.5,60.5 C 152.842,59.6618 153.508,59.3284 154.5,59.5C 154.5,81.5 154.5,103.5 154.5,125.5C 154.167,125.5 153.833,125.5 153.5,125.5C 153.5,118.5 153.5,111.5 153.5,104.5C 153.829,89.6572 153.496,74.9905 152.5,60.5 Z"/></g>
<g><path style="opacity:1" fill="#d05c6d" d="M 192.5,60.5 C 192.833,60.5 193.167,60.5 193.5,60.5C 193.5,81.5 193.5,102.5 193.5,123.5C 194.791,123.263 195.791,123.596 196.5,124.5C 194.901,124.768 193.568,124.434 192.5,123.5C 192.5,102.5 192.5,81.5 192.5,60.5 Z"/></g>
<g><path style="opacity:1" fill="#c8344b" d="M 193.5,60.5 C 195.167,60.5 196.833,60.5 198.5,60.5C 198.5,65.1667 198.5,69.8333 198.5,74.5C 198.5,91.1667 198.5,107.833 198.5,124.5C 197.833,124.5 197.167,124.5 196.5,124.5C 195.791,123.596 194.791,123.263 193.5,123.5C 193.5,102.5 193.5,81.5 193.5,60.5 Z"/></g>
<g><path style="opacity:0.012" fill="#3c3c3c" d="M 310.5,78.5 C 312.943,81.0516 314.61,84.0516 315.5,87.5C 314.833,87.5 314.5,87.1667 314.5,86.5C 313.488,85.1283 312.488,83.795 311.5,82.5C 311.167,81.1667 310.833,79.8333 310.5,78.5 Z"/></g>
<g><path style="opacity:0.988" fill="#660930" d="M 23.5,80.5 C 23.6665,90.1724 23.4998,99.8391 23,109.5C 22.0513,107.907 20.8846,106.574 19.5,105.5C 19.8214,99.9738 19.4881,94.6405 18.5,89.5C 19.9287,86.3037 21.5954,83.3037 23.5,80.5 Z"/></g>
<g><path style="opacity:0.998" fill="#5066ee" d="M 311.5,82.5 C 312.488,83.795 313.488,85.1283 314.5,86.5C 306.167,94.5 297.833,102.5 289.5,110.5C 288.835,104.523 288.502,98.523 288.5,92.5C 289.5,92.5 290.5,92.5 291.5,92.5C 289.539,95.8415 289.039,99.5081 290,103.5C 297.035,96.2974 304.202,89.2974 311.5,82.5 Z"/></g>
<g><path style="opacity:1" fill="#fb8a69" d="M 233.5,93.5 C 228.791,96.9253 226.791,101.592 227.5,107.5C 227.5,111.167 227.5,114.833 227.5,118.5C 227.666,124.176 227.499,129.843 227,135.5C 223.013,137.106 218.847,138.106 214.5,138.5C 215.758,134.8 215.758,131.134 214.5,127.5C 216.167,127.5 217.833,127.5 219.5,127.5C 220.063,118.788 221.063,110.121 222.5,101.5C 220.863,97.9564 220.029,94.2897 220,90.5C 220.72,92.2552 221.887,93.0885 223.5,93C 224.669,90.9935 225.335,88.8268 225.5,86.5C 226.29,87.6085 226.79,88.9419 227,90.5C 227.717,89.9558 228.217,89.2891 228.5,88.5C 228.461,87.2438 228.961,86.2438 230,85.5C 230.595,86.8989 230.428,88.2322 229.5,89.5C 230.355,90.293 231.189,89.9597 232,88.5C 233.009,90.0249 233.509,91.6916 233.5,93.5 Z"/></g>
<g><path style="opacity:1" fill="#3f55f0" d="M 314.5,86.5 C 314.5,87.1667 314.833,87.5 315.5,87.5C 320.158,98.142 323.825,109.142 326.5,120.5C 325.506,129.652 325.173,138.985 325.5,148.5C 313.83,148.728 302.163,149.062 290.5,149.5C 290.133,136.501 289.8,123.501 289.5,110.5C 297.833,102.5 306.167,94.5 314.5,86.5 Z"/></g>
<g><path style="opacity:1" fill="#a079b6" d="M 225.5,86.5 C 225.56,85.9569 225.893,85.6236 226.5,85.5C 227.176,86.6016 227.842,87.6016 228.5,88.5C 228.217,89.2891 227.717,89.9558 227,90.5C 226.79,88.9419 226.29,87.6085 225.5,86.5 Z"/></g>
<g><path style="opacity:1" fill="#703283" d="M 283.5,86.5 C 283.5,87.1667 283.5,87.8333 283.5,88.5C 278.695,89.4872 273.695,89.8205 268.5,89.5C 271.625,88.5206 274.958,88.1872 278.5,88.5C 280.554,88.6347 282.221,87.968 283.5,86.5 Z"/></g>
<g><path style="opacity:1" fill="#c4975c" d="M 283.5,86.5 C 286.891,87.5293 289.557,89.5293 291.5,92.5C 290.5,92.5 289.5,92.5 288.5,92.5C 287.421,90.457 285.754,89.1237 283.5,88.5C 283.5,87.8333 283.5,87.1667 283.5,86.5 Z"/></g>
<g><path style="opacity:1" fill="#800e42" d="M 24.5,78.5 C 24.5,89.8333 24.5,101.167 24.5,112.5C 24.5,153.833 24.5,195.167 24.5,236.5C 22.2619,233.028 20.2619,229.362 18.5,225.5C 19.4986,185.67 19.8319,145.67 19.5,105.5C 20.8846,106.574 22.0513,107.907 23,109.5C 23.4998,99.8391 23.6665,90.1724 23.5,80.5C 23.3284,79.5084 23.6618,78.8417 24.5,78.5 Z"/></g>
<g><path style="opacity:0.016" fill="#696969" d="M 334.5,167.5 C 334.5,167.833 334.5,168.167 334.5,168.5C 333.167,169.167 333.167,169.833 334.5,170.5C 334.5,170.833 334.5,171.167 334.5,171.5C 333.833,171.5 333.5,171.833 333.5,172.5C 332.861,171.903 332.528,171.07 332.5,170C 332.684,168.624 333.351,167.791 334.5,167.5 Z"/></g>
<g><path style="opacity:0.132" fill="#141414" d="M 26.5,73.5 C 25.8333,75.1667 25.1667,76.8333 24.5,78.5C 23.6618,78.8417 23.3284,79.5084 23.5,80.5C 21.5954,83.3037 19.9287,86.3037 18.5,89.5C 17.2271,91.7128 16.2271,94.0462 15.5,96.5C 12.1958,103.079 9.86246,110.079 8.5,117.5C 4.75817,130.266 3.09151,143.432 3.5,157C 3.0251,170.579 4.69177,183.746 8.5,196.5C 9.86039,203.915 12.1937,210.915 15.5,217.5C 15.6036,219.703 16.2702,221.703 17.5,223.5C 17.8333,224.167 18.1667,224.833 18.5,225.5C 20.2619,229.362 22.2619,233.028 24.5,236.5C 33.6966,252.887 45.6966,266.887 60.5,278.5C 66.2471,283.907 72.5804,288.573 79.5,292.5C 90.2736,299.719 101.94,305.052 114.5,308.5C 131.26,314.096 148.594,316.43 166.5,315.5C 184.414,316.429 201.747,314.095 218.5,308.5C 258.946,295.891 289.779,271.225 311,234.5C 313.735,229.701 315.902,224.701 317.5,219.5C 318.167,219.5 318.5,219.167 318.5,218.5C 319.441,216.95 320.107,215.284 320.5,213.5C 323.303,206.754 325.303,199.754 326.5,192.5C 329.853,181.205 331.187,169.538 330.5,157.5C 331.112,145.144 329.778,133.144 326.5,121.5C 326.5,121.167 326.5,120.833 326.5,120.5C 323.825,109.142 320.158,98.142 315.5,87.5C 317.729,91.2898 320.063,95.1232 322.5,99C 322.762,102.767 324.095,106.434 326.5,110C 325.911,111.873 326.578,113.54 328.5,115C 328.043,115.414 327.709,115.914 327.5,116.5C 329.694,121.955 331.36,127.622 332.5,133.5C 332.291,134.086 331.957,134.586 331.5,135C 332.06,139.602 333.06,144.102 334.5,148.5C 334.5,148.833 334.5,149.167 334.5,149.5C 333.167,150.167 333.167,150.833 334.5,151.5C 334.5,153.833 334.5,156.167 334.5,158.5C 333.167,158.833 333.167,159.167 334.5,159.5C 334.5,162.167 334.5,164.833 334.5,167.5C 333.351,167.791 332.684,168.624 332.5,170C 332.528,171.07 332.861,171.903 333.5,172.5C 331.335,207.692 318.502,239.358 295,267.5C 285.735,278.1 275.235,287.267 263.5,295C 263.833,295.333 264.167,295.667 264.5,296C 254.584,300.958 243.918,306.291 232.5,312C 225.824,313.689 219.657,315.856 214,318.5C 212.657,317.786 211.324,318.12 210,319.5C 209.667,319.167 209.333,318.833 209,318.5C 203.663,320.218 198.163,321.385 192.5,322C 178.783,322.982 165.949,323.482 154,323.5C 108.686,320.219 70.5196,301.886 39.5,268.5C 34.8996,262.283 30.5663,255.949 26.5,249.5C 26.1667,248.5 25.5,247.833 24.5,247.5C 21.32,243.257 18.6533,239.09 16.5,235C 16.8333,234.667 17.1667,234.333 17.5,234C 12.9348,225.967 9.26812,217.967 6.5,210C 6.83333,209.667 7.16667,209.333 7.5,209C 5.06941,205.135 4.06941,201.135 4.5,197C 2.66294,189.45 0.996272,181.95 -0.5,174.5C -0.5,174.167 -0.5,173.833 -0.5,173.5C 0.833333,172.5 0.833333,171.5 -0.5,170.5C -0.5,170.167 -0.5,169.833 -0.5,169.5C 0.833333,168.167 0.833333,166.833 -0.5,165.5C -0.5,165.167 -0.5,164.833 -0.5,164.5C 0.833333,164.167 0.833333,163.833 -0.5,163.5C -0.5,163.167 -0.5,162.833 -0.5,162.5C 0.833333,162.167 0.833333,161.833 -0.5,161.5C -0.5,160.167 -0.5,158.833 -0.5,157.5C 0.833333,157.167 0.833333,156.833 -0.5,156.5C -0.5,156.167 -0.5,155.833 -0.5,155.5C 0.833333,154.833 0.833333,154.167 -0.5,153.5C -0.5,153.167 -0.5,152.833 -0.5,152.5C 0.833333,151.833 0.833333,151.167 -0.5,150.5C -0.5,150.167 -0.5,149.833 -0.5,149.5C 1.16792,136.054 4.00125,122.72 8,109.5C 11.1505,100.542 14.8171,91.8753 19,83.5C 21.0601,79.7552 23.5601,76.4218 26.5,73.5 Z"/></g>
<g><path style="opacity:1" fill="#396e80" d="M 188.5,228.5 C 183.695,229.487 178.695,229.821 173.5,229.5C 173.821,234.695 173.487,239.695 172.5,244.5C 172.5,239.5 172.5,234.5 172.5,229.5C 177.64,228.512 182.974,228.179 188.5,228.5 Z"/></g>
<g><path style="opacity:1" fill="#c3bdfd" d="M 109.5,215.5 C 114.14,219.473 118.473,223.806 122.5,228.5C 118.116,228.174 113.783,228.508 109.5,229.5C 115.798,230.496 122.132,230.83 128.5,230.5C 128.5,232.833 128.5,235.167 128.5,237.5C 132.833,237.5 137.167,237.5 141.5,237.5C 141.5,241.5 141.5,245.5 141.5,249.5C 130.833,249.5 120.167,249.5 109.5,249.5C 109.5,250.5 109.5,251.5 109.5,252.5C 115.833,252.5 122.167,252.5 128.5,252.5C 128.5,256.167 128.5,259.833 128.5,263.5C 130.167,263.5 131.833,263.5 133.5,263.5C 133.5,265.833 133.5,268.167 133.5,270.5C 125.5,270.5 117.5,270.5 109.5,270.5C 109.5,271.5 109.5,272.5 109.5,273.5C 115.833,273.5 122.167,273.5 128.5,273.5C 128.5,279.167 128.5,284.833 128.5,290.5C 131.833,290.5 135.167,290.5 138.5,290.5C 138.453,293.969 137.787,297.302 136.5,300.5C 133.544,301.137 130.544,301.637 127.5,302C 126.418,303.33 125.751,304.83 125.5,306.5C 125.5,307.167 125.5,307.833 125.5,308.5C 121.833,308.5 118.167,308.5 114.5,308.5C 101.94,305.052 90.2736,299.719 79.5,292.5C 79.5,291.833 79.5,291.167 79.5,290.5C 88.1667,290.5 96.8333,290.5 105.5,290.5C 106.629,274.194 107.296,257.86 107.5,241.5C 108.167,232.833 108.833,224.167 109.5,215.5 Z"/></g>
<g><path style="opacity:1" fill="#fbfbfc" d="M 164.5,229.5 C 167.167,229.5 169.833,229.5 172.5,229.5C 172.5,234.5 172.5,239.5 172.5,244.5C 172.131,261.537 171.131,278.537 169.5,295.5C 169.511,297.045 169.844,298.378 170.5,299.5C 170.443,300.609 170.11,301.609 169.5,302.5C 167.738,303.262 166.738,304.596 166.5,306.5C 166.5,307.167 166.5,307.833 166.5,308.5C 162.5,308.5 158.5,308.5 154.5,308.5C 154.5,297.833 154.5,287.167 154.5,276.5C 157.51,260.772 160.844,245.106 164.5,229.5 Z"/></g>
<g><path style="opacity:1" fill="#0e3c53" d="M 190.5,199.5 C 191.648,203.981 191.815,208.648 191,213.5C 188.526,238.796 186.526,264.129 185,289.5C 184.478,293.584 183.645,297.584 182.5,301.5C 181.609,300.89 180.609,300.557 179.5,300.5C 176.778,298.327 173.778,297.994 170.5,299.5C 169.844,298.378 169.511,297.045 169.5,295.5C 171.131,278.537 172.131,261.537 172.5,244.5C 173.487,239.695 173.821,234.695 173.5,229.5C 178.695,229.821 183.695,229.487 188.5,228.5C 188.685,218.796 189.352,209.129 190.5,199.5 Z"/></g>
<g><path style="opacity:1" fill="#d96677" d="M 193.5,199.5 C 193.5,205.833 193.5,212.167 193.5,218.5C 235.167,218.5 276.833,218.5 318.5,218.5C 318.5,219.167 318.167,219.5 317.5,219.5C 275.833,219.5 234.167,219.5 192.5,219.5C 192.176,212.646 192.509,205.979 193.5,199.5 Z"/></g>
<g><path style="opacity:1" fill="#ddc8f3" d="M 79.5,214.5 C 88.8333,223.5 98.1667,232.5 107.5,241.5C 107.296,257.86 106.629,274.194 105.5,290.5C 96.8333,290.5 88.1667,290.5 79.5,290.5C 79.5,265.167 79.5,239.833 79.5,214.5 Z"/></g>
<g><path style="opacity:1" fill="#b3aee7" d="M 122.5,228.5 C 118.473,223.806 114.14,219.473 109.5,215.5C 109.5,213.5 109.5,211.5 109.5,209.5C 115.833,209.5 122.167,209.5 128.5,209.5C 128.5,212.833 128.5,216.167 128.5,219.5C 131.833,219.5 135.167,219.5 138.5,219.5C 138.5,222.5 138.5,225.5 138.5,228.5C 133.167,228.5 127.833,228.5 122.5,228.5 Z"/></g>
<g><path style="opacity:1" fill="#fdfdfd" d="M 193.5,184.5 C 193.5,189.5 193.5,194.5 193.5,199.5C 192.509,205.979 192.176,212.646 192.5,219.5C 234.167,219.5 275.833,219.5 317.5,219.5C 315.902,224.701 313.735,229.701 311,234.5C 289.779,271.225 258.946,295.891 218.5,308.5C 206.5,308.5 194.5,308.5 182.5,308.5C 182.5,307.833 182.5,307.167 182.5,306.5C 182.5,304.833 182.5,303.167 182.5,301.5C 183.645,297.584 184.478,293.584 185,289.5C 186.526,264.129 188.526,238.796 191,213.5C 191.815,208.648 191.648,203.981 190.5,199.5C 190.52,194.046 191.52,189.046 193.5,184.5 Z"/></g>
<g><path style="opacity:1" fill="#8275c1" d="M 234.5,207.5 C 243.167,207.5 251.833,207.5 260.5,207.5C 274.849,207.167 289.182,207.501 303.5,208.5C 280.176,209.5 256.843,209.833 233.5,209.5C 233.328,208.508 233.662,207.842 234.5,207.5 Z"/></g>
<g><path style="opacity:1" fill="#0f3a53" d="M 152.5,197.5 C 152.833,197.5 153.167,197.5 153.5,197.5C 153.5,208.167 153.5,218.833 153.5,229.5C 157.167,229.5 160.833,229.5 164.5,229.5C 160.844,245.106 157.51,260.772 154.5,276.5C 152.501,285.191 150.501,293.858 148.5,302.5C 144.616,301.207 140.616,300.541 136.5,300.5C 137.787,297.302 138.453,293.969 138.5,290.5C 141.295,276.938 143.629,263.271 145.5,249.5C 146.815,244.289 147.482,238.956 147.5,233.5C 149.807,221.722 151.474,209.722 152.5,197.5 Z"/></g>
<g><path style="opacity:1" fill="#594388" d="M 234.5,188.5 C 240.5,188.5 246.5,188.5 252.5,188.5C 252.5,192.167 252.5,195.833 252.5,199.5C 255.167,199.5 257.833,199.5 260.5,199.5C 260.5,202.167 260.5,204.833 260.5,207.5C 251.833,207.5 243.167,207.5 234.5,207.5C 234.5,201.167 234.5,194.833 234.5,188.5 Z"/></g>
<g><path style="opacity:1" fill="#b5ade4" d="M 147.5,169.5 C 147.5,182.167 147.5,194.833 147.5,207.5C 134.833,207.5 122.167,207.5 109.5,207.5C 109.767,201.162 110.1,194.829 110.5,188.5C 116.5,188.5 122.5,188.5 128.5,188.5C 128.5,192.167 128.5,195.833 128.5,199.5C 134.491,199.034 140.491,198.701 146.5,198.5C 146.5,194.5 146.5,190.5 146.5,186.5C 140.833,186.5 135.167,186.5 129.5,186.5C 129.253,183.061 129.586,179.728 130.5,176.5C 135.148,175.338 139.815,174.171 144.5,173C 145.163,171.482 146.163,170.315 147.5,169.5 Z"/></g>
<g><path style="opacity:1" fill="#c0dcf0" d="M 152.5,184.5 C 153.117,184.611 153.617,184.944 154,185.5C 154.812,189.689 154.645,193.689 153.5,197.5C 153.167,197.5 152.833,197.5 152.5,197.5C 152.176,193.29 152.176,188.957 152.5,184.5 Z"/></g>
<g><path style="opacity:1" fill="#8275c0" d="M 235.5,186.5 C 258.843,186.167 282.176,186.5 305.5,187.5C 287.846,188.5 270.179,188.833 252.5,188.5C 246.5,188.5 240.5,188.5 234.5,188.5C 233.243,187.377 233.576,186.711 235.5,186.5 Z"/></g>
<g><path style="opacity:1" fill="#b5aee5" d="M 128.5,177.5 C 128.5,180.5 128.5,183.5 128.5,186.5C 122.5,186.5 116.5,186.5 110.5,186.5C 110.5,185.5 110.5,184.5 110.5,183.5C 115.985,180.116 121.985,178.116 128.5,177.5 Z"/></g>
<g><path style="opacity:1" fill="#851544" d="M 74.5,177.5 C 78.7997,180.936 79.4664,184.936 76.5,189.5C 76.5,190.833 76.5,192.167 76.5,193.5C 77.5,193.5 78.5,193.5 79.5,193.5C 79.5,200.5 79.5,207.5 79.5,214.5C 79.5,239.833 79.5,265.167 79.5,290.5C 79.5,291.167 79.5,291.833 79.5,292.5C 72.5804,288.573 66.2471,283.907 60.5,278.5C 64.3714,278.815 68.0381,278.482 71.5,277.5C 71.8333,277.5 72.1667,277.5 72.5,277.5C 72.56,278.043 72.8933,278.376 73.5,278.5C 74.4999,244.84 74.8332,211.173 74.5,177.5 Z"/></g>
<g><path style="opacity:1" fill="#594287" d="M 235.5,167.5 C 241.167,167.5 246.833,167.5 252.5,167.5C 252.5,173.5 252.5,179.5 252.5,185.5C 246.833,185.5 241.167,185.5 235.5,185.5C 235.5,179.5 235.5,173.5 235.5,167.5 Z"/></g>
<g><path style="opacity:1" fill="#3f55f1" d="M 233.5,167.5 C 234.167,167.5 234.833,167.5 235.5,167.5C 235.5,173.5 235.5,179.5 235.5,185.5C 235.5,185.833 235.5,186.167 235.5,186.5C 233.576,186.711 233.243,187.377 234.5,188.5C 234.5,194.833 234.5,201.167 234.5,207.5C 233.662,207.842 233.328,208.508 233.5,209.5C 233.5,210.5 233.5,211.5 233.5,212.5C 221.833,212.5 210.167,212.5 198.5,212.5C 198.5,208.833 198.5,205.167 198.5,201.5C 210.167,190.167 221.833,178.833 233.5,167.5 Z"/></g>
<g><path style="opacity:1" fill="#ad8bab" d="M 154.5,171.5 C 154.5,172.167 154.167,172.5 153.5,172.5C 153.815,168.629 153.482,164.962 152.5,161.5C 152.783,160.711 153.283,160.044 154,159.5C 154.499,163.486 154.666,167.486 154.5,171.5 Z"/></g>
<g><path style="opacity:1" fill="#8275c0" d="M 236.5,165.5 C 259.833,165.5 283.167,165.5 306.5,165.5C 288.864,167.487 270.864,168.153 252.5,167.5C 246.833,167.5 241.167,167.5 235.5,167.5C 234.833,167.5 234.167,167.5 233.5,167.5C 233.821,165.952 234.821,165.285 236.5,165.5 Z"/></g>
<g><path style="opacity:1" fill="#5f498f" d="M 306.5,165.5 C 283.167,165.5 259.833,165.5 236.5,165.5C 236.5,162.833 236.5,160.167 236.5,157.5C 238.186,159.016 240.019,160.35 242,161.5C 243.03,161.164 243.53,160.497 243.5,159.5C 257.5,159.5 271.5,159.5 285.5,159.5C 285.369,160.376 285.702,161.043 286.5,161.5C 287.852,160.476 289.185,159.476 290.5,158.5C 292.5,158.5 294.5,158.5 296.5,158.5C 296.5,156.833 296.5,155.167 296.5,153.5C 299.833,153.5 303.167,153.5 306.5,153.5C 306.5,157.5 306.5,161.5 306.5,165.5 Z"/></g>
<g><path style="opacity:1" fill="#821341" d="M 150.5,161.5 C 151.167,161.5 151.833,161.5 152.5,161.5C 153.482,164.962 153.815,168.629 153.5,172.5C 153.167,176.5 152.833,180.5 152.5,184.5C 152.176,188.957 152.176,193.29 152.5,197.5C 151.474,209.722 149.807,221.722 147.5,233.5C 147.5,224.833 147.5,216.167 147.5,207.5C 147.5,194.833 147.5,182.167 147.5,169.5C 148.108,166.673 149.108,164.007 150.5,161.5 Z"/></g>
<g><path style="opacity:1" fill="#4e6af4" d="M 235.5,157.5 C 235.833,157.5 236.167,157.5 236.5,157.5C 236.5,160.167 236.5,162.833 236.5,165.5C 234.821,165.285 233.821,165.952 233.5,167.5C 221.833,178.833 210.167,190.167 198.5,201.5C 198.5,199.167 198.5,196.833 198.5,194.5C 211.167,182.5 223.5,170.167 235.5,157.5 Z"/></g>
<g><path style="opacity:1" fill="#c39659" d="M 290.5,158.5 C 289.185,159.476 287.852,160.476 286.5,161.5C 285.702,161.043 285.369,160.376 285.5,159.5C 287.5,158.167 289.167,156.5 290.5,154.5C 291.648,153.105 292.648,153.272 293.5,155C 292.29,156.039 291.29,157.206 290.5,158.5 Z"/></g>
<g><path style="opacity:1" fill="#fc8c6a" d="M 140.5,156.5 C 143.282,159.224 146.615,160.891 150.5,161.5C 149.108,164.007 148.108,166.673 147.5,169.5C 146.163,170.315 145.163,171.482 144.5,173C 139.815,174.171 135.148,175.338 130.5,176.5C 129.508,176.328 128.842,176.662 128.5,177.5C 121.985,178.116 115.985,180.116 110.5,183.5C 109.185,184.476 107.852,185.476 106.5,186.5C 105.205,185.902 103.872,185.402 102.5,185C 103.672,184.581 104.672,183.915 105.5,183C 105.167,182.833 104.833,182.667 104.5,182.5C 102.902,183.485 101.235,183.651 99.5,183C 104.627,181.474 104.627,180.474 99.5,180C 102.167,178.667 104.833,177.333 107.5,176C 106.167,175 104.833,174 103.5,173C 107.008,173.003 110.341,173.836 113.5,175.5C 121.764,172.367 129.764,168.7 137.5,164.5C 138.808,161.927 139.808,159.26 140.5,156.5 Z"/></g>
<g><path style="opacity:1" fill="#c2935b" d="M 235.5,155.5 C 236.167,155.5 236.833,155.5 237.5,155.5C 239.223,157.218 241.223,158.551 243.5,159.5C 243.53,160.497 243.03,161.164 242,161.5C 240.019,160.35 238.186,159.016 236.5,157.5C 236.167,157.5 235.833,157.5 235.5,157.5C 234.494,156.604 234.494,155.938 235.5,155.5 Z"/></g>
<g><path style="opacity:1" fill="#604792" d="M 237.5,148.5 C 237.5,150.833 237.5,153.167 237.5,155.5C 236.833,155.5 236.167,155.5 235.5,155.5C 236.065,153.048 236.732,150.715 237.5,148.5 Z"/></g>
<g><path style="opacity:1" fill="#6b549e" d="M 326.5,120.5 C 326.5,120.833 326.5,121.167 326.5,121.5C 326.5,145.167 326.5,168.833 326.5,192.5C 325.303,199.754 323.303,206.754 320.5,213.5C 279.663,213.832 238.997,213.499 198.5,212.5C 210.167,212.5 221.833,212.5 233.5,212.5C 233.5,211.5 233.5,210.5 233.5,209.5C 256.843,209.833 280.176,209.5 303.5,208.5C 289.182,207.501 274.849,207.167 260.5,207.5C 260.5,204.833 260.5,202.167 260.5,199.5C 257.833,199.5 255.167,199.5 252.5,199.5C 252.5,195.833 252.5,192.167 252.5,188.5C 270.179,188.833 287.846,188.5 305.5,187.5C 282.176,186.5 258.843,186.167 235.5,186.5C 235.5,186.167 235.5,185.833 235.5,185.5C 241.167,185.5 246.833,185.5 252.5,185.5C 252.5,179.5 252.5,173.5 252.5,167.5C 270.864,168.153 288.864,167.487 306.5,165.5C 306.5,161.5 306.5,157.5 306.5,153.5C 303.167,153.5 299.833,153.5 296.5,153.5C 296.5,155.167 296.5,156.833 296.5,158.5C 294.5,158.5 292.5,158.5 290.5,158.5C 291.29,157.206 292.29,156.039 293.5,155C 292.648,153.272 291.648,153.105 290.5,154.5C 290.5,152.833 290.5,151.167 290.5,149.5C 302.163,149.062 313.83,148.728 325.5,148.5C 325.173,138.985 325.506,129.652 326.5,120.5 Z"/></g>
<g><path style="opacity:1" fill="#b4aee7" d="M 141.5,148.5 C 141.5,148.833 141.5,149.167 141.5,149.5C 137.167,149.5 132.833,149.5 128.5,149.5C 128.5,154.5 128.5,159.5 128.5,164.5C 123.167,164.5 117.833,164.5 112.5,164.5C 112.5,158.833 112.5,153.167 112.5,147.5C 122.348,147.173 132.014,147.506 141.5,148.5 Z"/></g>
<g><path style="opacity:1" fill="#cdd9f3" d="M 83.5,146.5 C 84.831,153.97 85.4977,161.804 85.5,170C 85.4977,178.196 84.831,186.03 83.5,193.5C 83.5,177.833 83.5,162.167 83.5,146.5 Z"/></g>
<g><path style="opacity:1" fill="#f4f1f8" d="M 79.5,146.5 C 80.8333,146.5 82.1667,146.5 83.5,146.5C 83.5,162.167 83.5,177.833 83.5,193.5C 82.1667,193.5 80.8333,193.5 79.5,193.5C 78.5,193.5 77.5,193.5 76.5,193.5C 76.5,192.167 76.5,190.833 76.5,189.5C 77.5,189.5 78.5,189.5 79.5,189.5C 79.5,176.5 79.5,163.5 79.5,150.5C 78.5,150.5 77.5,150.5 76.5,150.5C 76.5,149.167 76.5,147.833 76.5,146.5C 77.5,146.5 78.5,146.5 79.5,146.5 Z"/></g>
<g><path style="opacity:1" fill="#cc394f" d="M 196.5,145.5 C 197.167,145.5 197.833,145.5 198.5,145.5C 198.5,152.833 198.5,160.167 198.5,167.5C 198.5,176.5 198.5,185.5 198.5,194.5C 198.5,196.833 198.5,199.167 198.5,201.5C 198.5,205.167 198.5,208.833 198.5,212.5C 238.997,213.499 279.663,213.832 320.5,213.5C 320.107,215.284 319.441,216.95 318.5,218.5C 276.833,218.5 235.167,218.5 193.5,218.5C 193.5,212.167 193.5,205.833 193.5,199.5C 193.5,194.5 193.5,189.5 193.5,184.5C 194.482,181.038 194.815,177.371 194.5,173.5C 194.924,164.096 195.59,154.763 196.5,145.5 Z"/></g>
<g><path style="opacity:1" fill="#08c2cb" d="M 186.5,132.5 C 187.5,132.5 188.5,132.5 189.5,132.5C 189.231,145.532 189.731,158.532 191,171.5C 192.113,172.305 193.279,172.972 194.5,173.5C 194.815,177.371 194.482,181.038 193.5,184.5C 191.52,189.046 190.52,194.046 190.5,199.5C 189.352,209.129 188.685,218.796 188.5,228.5C 182.974,228.179 177.64,228.512 172.5,229.5C 169.833,229.5 167.167,229.5 164.5,229.5C 160.833,229.5 157.167,229.5 153.5,229.5C 153.5,218.833 153.5,208.167 153.5,197.5C 154.645,193.689 154.812,189.689 154,185.5C 153.617,184.944 153.117,184.611 152.5,184.5C 152.833,180.5 153.167,176.5 153.5,172.5C 154.167,172.5 154.5,172.167 154.5,171.5C 155.76,159.185 156.76,146.851 157.5,134.5C 158.5,134.5 159.5,134.5 160.5,134.5C 169.372,134.581 178.039,133.915 186.5,132.5 Z"/></g>
<g><path style="opacity:1" fill="#7d1843" d="M 169.5,144.5 C 177.832,144.334 181.999,148.334 182,156.5C 180.362,163.058 176.196,165.558 169.5,164C 164.268,161.367 162.435,157.201 164,151.5C 165.666,149.004 167.5,146.671 169.5,144.5 Z"/></g>
<g><path style="opacity:1" fill="#2c2d4c" d="M 174.5,158.5 C 176.379,158.393 176.712,158.893 175.5,160C 173.833,160.667 172.167,160.667 170.5,160C 172.058,159.79 173.391,159.29 174.5,158.5 Z"/></g>
<g><path style="opacity:1" fill="#3f55f1" d="M 237.5,136.5 C 237.5,140.5 237.5,144.5 237.5,148.5C 236.732,150.715 236.065,153.048 235.5,155.5C 234.494,155.938 234.494,156.604 235.5,157.5C 223.5,170.167 211.167,182.5 198.5,194.5C 198.5,185.5 198.5,176.5 198.5,167.5C 211.132,155.369 223.632,143.035 236,130.5C 236.191,132.708 236.691,134.708 237.5,136.5 Z"/></g>
<g><path style="opacity:1" fill="#b7d9ec" d="M 153.5,125.5 C 153.833,125.5 154.167,125.5 154.5,125.5C 155.5,125.5 156.5,125.5 157.5,125.5C 157.5,128.5 157.5,131.5 157.5,134.5C 156.76,146.851 155.76,159.185 154.5,171.5C 154.666,167.486 154.499,163.486 154,159.5C 153.283,160.044 152.783,160.711 152.5,161.5C 151.833,161.5 151.167,161.5 150.5,161.5C 146.615,160.891 143.282,159.224 140.5,156.5C 139.711,154.135 140.044,151.801 141.5,149.5C 141.5,149.167 141.5,148.833 141.5,148.5C 143.463,143.897 145.463,139.23 147.5,134.5C 148.338,134.158 148.672,133.492 148.5,132.5C 149.456,129.561 151.123,127.228 153.5,125.5 Z"/></g>
<g><path style="opacity:0.994" fill="#c73449" d="M 326.5,121.5 C 329.778,133.144 331.112,145.144 330.5,157.5C 331.187,169.538 329.853,181.205 326.5,192.5C 326.5,168.833 326.5,145.167 326.5,121.5 Z"/></g>
<g><path style="opacity:1" fill="#afd4e9" d="M 196.5,124.5 C 197.167,124.5 197.833,124.5 198.5,124.5C 204.029,125.069 209.362,126.069 214.5,127.5C 215.758,131.134 215.758,134.8 214.5,138.5C 213.699,140.042 213.366,141.708 213.5,143.5C 208.217,143.096 203.217,143.762 198.5,145.5C 197.833,145.5 197.167,145.5 196.5,145.5C 196.5,138.5 196.5,131.5 196.5,124.5 Z"/></g>
<g><path style="opacity:1" fill="#cdeafd" d="M 188.5,123.5 C 189.705,122.314 191.039,122.314 192.5,123.5C 193.568,124.434 194.901,124.768 196.5,124.5C 196.5,131.5 196.5,138.5 196.5,145.5C 195.59,154.763 194.924,164.096 194.5,173.5C 193.279,172.972 192.113,172.305 191,171.5C 189.731,158.532 189.231,145.532 189.5,132.5C 189.443,130.116 189.777,127.782 190.5,125.5C 190.253,124.287 189.586,123.62 188.5,123.5 Z"/></g>
<g><path style="opacity:1" fill="#821d48" d="M 160.5,124.5 C 160.5,127.833 160.5,131.167 160.5,134.5C 159.5,134.5 158.5,134.5 157.5,134.5C 157.5,131.5 157.5,128.5 157.5,125.5C 158.209,124.596 159.209,124.263 160.5,124.5 Z"/></g>
<g><path style="opacity:1" fill="#89234d" d="M 187.5,123.5 C 187.833,123.5 188.167,123.5 188.5,123.5C 189.586,123.62 190.253,124.287 190.5,125.5C 189.777,127.782 189.443,130.116 189.5,132.5C 188.5,132.5 187.5,132.5 186.5,132.5C 186.508,129.455 186.841,126.455 187.5,123.5 Z"/></g>
<g><path style="opacity:1" fill="#ceeafd" d="M 169.5,124.5 C 172.83,127.252 175.83,126.919 178.5,123.5C 181.5,123.5 184.5,123.5 187.5,123.5C 186.841,126.455 186.508,129.455 186.5,132.5C 178.039,133.915 169.372,134.581 160.5,134.5C 160.5,131.167 160.5,127.833 160.5,124.5C 163.535,123.266 166.535,123.266 169.5,124.5 Z"/></g>
<g><path style="opacity:0.996" fill="#f9f9f9" d="M 8.5,117.5 C 8.5,143.833 8.5,170.167 8.5,196.5C 4.69177,183.746 3.0251,170.579 3.5,157C 3.09151,143.432 4.75817,130.266 8.5,117.5 Z"/></g>
<g><path style="opacity:1" fill="#3f55f1" d="M 24.5,112.5 C 40.2219,132.25 55.7219,152.25 71,172.5C 71.5,207.498 71.6667,242.498 71.5,277.5C 68.0381,278.482 64.3714,278.815 60.5,278.5C 45.6966,266.887 33.6966,252.887 24.5,236.5C 24.5,195.167 24.5,153.833 24.5,112.5 Z"/></g>
<g><path style="opacity:1" fill="#5469ef" d="M 233.5,93.5 C 233.804,95.7957 234.804,96.129 236.5,94.5C 236.5,108.51 236.834,122.51 237.5,136.5C 236.691,134.708 236.191,132.708 236,130.5C 223.632,143.035 211.132,155.369 198.5,167.5C 198.5,160.167 198.5,152.833 198.5,145.5C 203.217,143.762 208.217,143.096 213.5,143.5C 213.366,141.708 213.699,140.042 214.5,138.5C 218.847,138.106 223.013,137.106 227,135.5C 227.499,129.843 227.666,124.176 227.5,118.5C 235.185,114.917 237.685,108.917 235,100.5C 232.63,103.039 230.13,105.372 227.5,107.5C 226.791,101.592 228.791,96.9253 233.5,93.5 Z"/></g>
<g><path style="opacity:1" fill="#830f3f" d="M 147.5,104.5 C 149.5,104.5 151.5,104.5 153.5,104.5C 153.5,111.5 153.5,118.5 153.5,125.5C 151.123,127.228 149.456,129.561 148.5,132.5C 147.506,123.348 147.173,114.015 147.5,104.5 Z"/></g>
<g><path style="opacity:1" fill="#9c1c3d" d="M 18.5,89.5 C 19.4881,94.6405 19.8214,99.9738 19.5,105.5C 19.8319,145.67 19.4986,185.67 18.5,225.5C 18.1667,224.833 17.8333,224.167 17.5,223.5C 18.4986,184.004 18.8319,144.337 18.5,104.5C 17.5,104.5 16.5,104.5 15.5,104.5C 15.5,101.833 15.5,99.1667 15.5,96.5C 16.2271,94.0462 17.2271,91.7128 18.5,89.5 Z"/></g>
<g><path style="opacity:1" fill="#871743" d="M 15.5,96.5 C 15.5,99.1667 15.5,101.833 15.5,104.5C 15.5,142.167 15.5,179.833 15.5,217.5C 12.1937,210.915 9.86039,203.915 8.5,196.5C 8.5,170.167 8.5,143.833 8.5,117.5C 9.86246,110.079 12.1958,103.079 15.5,96.5 Z"/></g>
<g><path style="opacity:1" fill="#b92643" d="M 15.5,104.5 C 16.5,104.5 17.5,104.5 18.5,104.5C 18.8319,144.337 18.4986,184.004 17.5,223.5C 16.2702,221.703 15.6036,219.703 15.5,217.5C 15.5,179.833 15.5,142.167 15.5,104.5 Z"/></g>
<g><path style="opacity:1" fill="#4056f1" d="M 227.5,118.5 C 227.5,114.833 227.5,111.167 227.5,107.5C 230.13,105.372 232.63,103.039 235,100.5C 237.685,108.917 235.185,114.917 227.5,118.5 Z"/></g>
<g><path style="opacity:1" fill="#f08564" d="M 183.5,107.5 C 185.344,108.204 185.844,109.537 185,111.5C 182.483,113.341 180.483,115.674 179,118.5C 178.506,120.134 178.34,121.801 178.5,123.5C 175.83,126.919 172.83,127.252 169.5,124.5C 169.66,122.801 169.494,121.134 169,119.5C 167.354,116.546 165.354,113.88 163,111.5C 162.156,109.537 162.656,108.204 164.5,107.5C 165.409,106.682 165.909,105.016 166,102.5C 166.725,101.941 167.558,101.608 168.5,101.5C 172.812,101.594 177.145,101.927 181.5,102.5C 181.927,104.977 182.594,106.644 183.5,107.5 Z"/></g>
<g><path style="opacity:1" fill="#3b5052" d="M 169.5,112.5 C 172.247,112.187 174.914,112.52 177.5,113.5C 175.643,116.506 173.143,117.172 170,115.5C 169.517,114.552 169.351,113.552 169.5,112.5 Z"/></g>
<g><path style="opacity:1" fill="#254e55" d="M 183.5,107.5 C 182.594,106.644 181.927,104.977 181.5,102.5C 177.145,101.927 172.812,101.594 168.5,101.5C 167.558,101.608 166.725,101.941 166,102.5C 165.909,105.016 165.409,106.682 164.5,107.5C 164.334,103.486 164.501,99.4862 165,95.5C 172.49,90.8534 179.157,91.8534 185,98.5C 184.855,101.514 184.355,104.514 183.5,107.5 Z"/></g>
<g><path style="opacity:1" fill="#c3955e" d="M 241.5,89.5 C 239.5,90.8333 237.833,92.5 236.5,94.5C 234.804,96.129 233.804,95.7957 233.5,93.5C 235.797,91.7059 237.963,89.7059 240,87.5C 240.717,88.0442 241.217,88.7109 241.5,89.5 Z"/></g>
<g><path style="opacity:1" fill="#841242" d="M 283.5,88.5 C 285.754,89.1237 287.421,90.457 288.5,92.5C 288.502,98.523 288.835,104.523 289.5,110.5C 289.8,123.501 290.133,136.501 290.5,149.5C 290.5,151.167 290.5,152.833 290.5,154.5C 289.167,156.5 287.5,158.167 285.5,159.5C 271.5,159.5 257.5,159.5 243.5,159.5C 241.223,158.551 239.223,157.218 237.5,155.5C 237.5,153.167 237.5,150.833 237.5,148.5C 237.5,144.5 237.5,140.5 237.5,136.5C 236.834,122.51 236.5,108.51 236.5,94.5C 237.833,92.5 239.5,90.8333 241.5,89.5C 243.167,89.5 244.833,89.5 246.5,89.5C 250.5,89.5 254.5,89.5 258.5,89.5C 261.833,89.5 265.167,89.5 268.5,89.5C 273.695,89.8205 278.695,89.4872 283.5,88.5 Z"/></g>
<g><path style="opacity:1" fill="#c08098" d="M 259.5,146.5 C 263.087,146.93 266.42,148.096 269.5,150C 268.584,150.278 267.918,150.778 267.5,151.5C 266.596,150.791 266.263,149.791 266.5,148.5C 265.167,148.5 263.833,148.5 262.5,148.5C 262.934,151.166 261.934,152.333 259.5,152C 258.464,150.224 258.464,148.391 259.5,146.5 Z"/></g>
<g><path style="opacity:1" fill="#f1e4e9" d="M 258.5,138.5 C 259.919,139.451 261.585,139.784 263.5,139.5C 263.5,140.5 263.5,141.5 263.5,142.5C 264.5,142.5 265.5,142.5 266.5,142.5C 266.833,138.5 267.167,138.5 267.5,142.5C 268.791,142.263 269.791,142.596 270.5,143.5C 270.664,146.187 270.497,148.854 270,151.5C 269.023,152.774 268.189,152.774 267.5,151.5C 267.918,150.778 268.584,150.278 269.5,150C 266.42,148.096 263.087,146.93 259.5,146.5C 259.5,145.167 259.5,143.833 259.5,142.5C 258.549,140.882 257.216,139.549 255.5,138.5C 256.233,137.913 257.233,137.913 258.5,138.5 Z"/></g>
<g><path style="opacity:1" fill="#a1496c" d="M 267.5,143.5 C 269.465,143.948 269.798,144.948 268.5,146.5C 267.614,145.675 267.281,144.675 267.5,143.5 Z"/></g>
<g><path style="opacity:1" fill="#be7f95" d="M 259.5,142.5 C 259.821,140.952 260.821,140.285 262.5,140.5C 262.343,141.873 262.51,143.207 263,144.5C 264.011,143.663 265.178,143.33 266.5,143.5C 266.5,144.5 266.5,145.5 266.5,146.5C 262.721,147.32 260.388,145.987 259.5,142.5 Z"/></g>
<g><path style="opacity:1" fill="#c68ea3" d="M 258.5,138.5 C 262.833,138.5 267.167,138.5 271.5,138.5C 271.784,140.415 271.451,142.081 270.5,143.5C 269.791,142.596 268.791,142.263 267.5,142.5C 267.167,138.5 266.833,138.5 266.5,142.5C 265.5,142.5 264.5,142.5 263.5,142.5C 263.5,141.5 263.5,140.5 263.5,139.5C 261.585,139.784 259.919,139.451 258.5,138.5 Z"/></g>
<g><path style="opacity:1" fill="#eedde4" d="M 251.5,121.5 C 252.496,121.414 253.329,121.748 254,122.5C 255.705,130.479 253.038,132.813 246,129.5C 245.333,127.167 245.333,124.833 246,122.5C 247.678,120.447 249.511,120.113 251.5,121.5 Z"/></g>
<g><path style="opacity:1" fill="#eddce3" d="M 265.5,120.5 C 271.167,120.664 271.5,120.997 266.5,121.5C 266.5,122.5 266.5,123.5 266.5,124.5C 271.833,124.833 271.833,125.167 266.5,125.5C 266.5,126.833 266.5,128.167 266.5,129.5C 268.199,129.34 269.866,129.506 271.5,130C 269.527,130.495 267.527,130.662 265.5,130.5C 265.5,127.167 265.5,123.833 265.5,120.5 Z"/></g>
<g><path style="opacity:1" fill="#e4c9d4" d="M 272.5,120.5 C 274.017,120.511 275.184,121.177 276,122.5C 278.905,129.005 280.238,128.338 280,120.5C 281.565,130.71 279.898,132.044 275,124.5C 274.808,126.577 274.308,128.577 273.5,130.5C 272.513,127.232 272.18,123.898 272.5,120.5 Z"/></g>
<g><path style="opacity:1" fill="#f3e7ec" d="M 261.5,125.5 C 258.848,125.991 257.348,127.658 257,130.5C 256.502,127.183 256.335,123.85 256.5,120.5C 261.509,119.5 263.176,121.167 261.5,125.5 Z"/></g>
<g><path style="opacity:1" fill="#933155" d="M 261.5,125.5 C 260.167,125.5 258.833,125.5 257.5,125.5C 257.5,124.167 257.5,122.833 257.5,121.5C 260.5,121.167 261.833,122.5 261.5,125.5 Z"/></g>
<g><path style="opacity:1" fill="#8d254d" d="M 251.5,121.5 C 254.639,125.253 254.139,128.253 250,130.5C 246.034,128.335 245.534,125.502 248.5,122C 249.448,121.517 250.448,121.351 251.5,121.5 Z"/></g>
<g><path style="opacity:1" fill="#c48ea4" d="M 255.5,109.5 C 260.041,109.331 260.374,109.998 256.5,111.5C 257.376,112.251 258.376,112.751 259.5,113C 255.622,113.949 255.622,115.115 259.5,116.5C 258.311,117.429 256.978,117.762 255.5,117.5C 255.5,114.833 255.5,112.167 255.5,109.5 Z"/></g>
<g><path style="opacity:1" fill="#d4afbe" d="M 245.5,109.5 C 246.232,110.808 247.066,112.142 248,113.5C 248.936,108.387 250.269,108.387 252,113.5C 252.219,112.062 252.719,110.729 253.5,109.5C 253.833,109.667 254.167,109.833 254.5,110C 253.873,112.343 252.873,114.51 251.5,116.5C 250.719,115.271 250.219,113.938 250,112.5C 249.417,114.002 248.584,115.335 247.5,116.5C 246.056,114.392 245.39,112.059 245.5,109.5 Z"/></g>
<g><path style="opacity:1" fill="#c48fa5" d="M 273.5,113.5 C 274.222,113.918 274.722,114.584 275,115.5C 275.497,113.19 275.663,110.857 275.5,108.5C 277.199,108.34 278.866,108.506 280.5,109C 277.332,109.582 276.999,110.582 279.5,112C 278.027,112.71 277.36,113.876 277.5,115.5C 278.552,115.351 279.552,115.517 280.5,116C 278.19,116.497 275.857,116.663 273.5,116.5C 273.5,115.5 273.5,114.5 273.5,113.5 Z"/></g>
<g><path style="opacity:1" fill="#c590a4" d="M 273.5,113.5 C 271.952,113.821 271.285,114.821 271.5,116.5C 269.43,116.551 267.597,115.885 266,114.5C 264.943,115.627 263.777,116.127 262.5,116C 264.291,107.519 266.457,107.352 269,115.5C 269.333,113.5 269.667,111.5 270,109.5C 274.094,108.097 275.26,109.43 273.5,113.5 Z"/></g>
<g><path style="opacity:0.004" fill="#fefffe" d="M 24.5,247.5 C 25.5,247.833 26.1667,248.5 26.5,249.5C 25.1667,249.5 24.5,248.833 24.5,247.5 Z"/></g>
<g><path style="opacity:1" fill="#dccaf7" d="M 141.5,249.5 C 142.833,249.5 144.167,249.5 145.5,249.5C 143.629,263.271 141.295,276.938 138.5,290.5C 135.167,290.5 131.833,290.5 128.5,290.5C 128.5,284.833 128.5,279.167 128.5,273.5C 122.167,273.5 115.833,273.5 109.5,273.5C 109.5,272.5 109.5,271.5 109.5,270.5C 117.5,270.5 125.5,270.5 133.5,270.5C 133.5,268.167 133.5,265.833 133.5,263.5C 131.833,263.5 130.167,263.5 128.5,263.5C 128.5,259.833 128.5,256.167 128.5,252.5C 122.167,252.5 115.833,252.5 109.5,252.5C 109.5,251.5 109.5,250.5 109.5,249.5C 120.167,249.5 130.833,249.5 141.5,249.5 Z"/></g>
<g><path style="opacity:1" fill="#841d49" d="M 154.5,276.5 C 154.5,287.167 154.5,297.833 154.5,308.5C 152.114,308.741 150.114,308.075 148.5,306.5C 148.5,305.167 148.5,303.833 148.5,302.5C 150.501,293.858 152.501,285.191 154.5,276.5 Z"/></g>
<g><path style="opacity:1" fill="#5c8fae" d="M 179.5,300.5 C 176.512,302.273 173.179,302.94 169.5,302.5C 170.11,301.609 170.443,300.609 170.5,299.5C 173.778,297.994 176.778,298.327 179.5,300.5 Z"/></g>
<g><path style="opacity:1" fill="#aed4e7" d="M 179.5,300.5 C 180.609,300.557 181.609,300.89 182.5,301.5C 182.5,303.167 182.5,304.833 182.5,306.5C 177.167,306.5 171.833,306.5 166.5,306.5C 166.738,304.596 167.738,303.262 169.5,302.5C 173.179,302.94 176.512,302.273 179.5,300.5 Z"/></g>
<g><path style="opacity:1" fill="#a9cfe5" d="M 136.5,300.5 C 140.616,300.541 144.616,301.207 148.5,302.5C 148.5,303.833 148.5,305.167 148.5,306.5C 140.833,306.5 133.167,306.5 125.5,306.5C 125.751,304.83 126.418,303.33 127.5,302C 130.544,301.637 133.544,301.137 136.5,300.5 Z"/></g>
<g><path style="opacity:1" fill="#31618c" d="M 125.5,306.5 C 133.167,306.5 140.833,306.5 148.5,306.5C 141.24,308.465 133.573,309.132 125.5,308.5C 125.5,307.833 125.5,307.167 125.5,306.5 Z"/></g>
<g><path style="opacity:1" fill="#31618c" d="M 166.5,306.5 C 171.833,306.5 177.167,306.5 182.5,306.5C 182.5,307.167 182.5,307.833 182.5,308.5C 177.167,308.5 171.833,308.5 166.5,308.5C 166.5,307.833 166.5,307.167 166.5,306.5 Z"/></g>
<g><path style="opacity:0.999" fill="#574084" d="M 148.5,306.5 C 150.114,308.075 152.114,308.741 154.5,308.5C 158.5,308.5 162.5,308.5 166.5,308.5C 171.833,308.5 177.167,308.5 182.5,308.5C 194.5,308.5 206.5,308.5 218.5,308.5C 201.747,314.095 184.414,316.429 166.5,315.5C 148.594,316.43 131.26,314.096 114.5,308.5C 118.167,308.5 121.833,308.5 125.5,308.5C 133.573,309.132 141.24,308.465 148.5,306.5 Z"/></g>
</svg>
