<?xml version="1.0" encoding="UTF-8"?>
<!DOCTYPE svg PUBLIC "-//W3C//DTD SVG 1.1//EN" "http://www.w3.org/Graphics/SVG/1.1/DTD/svg11.dtd">
<svg xmlns="http://www.w3.org/2000/svg" version="1.1" width="335px" height="324px" style="shape-rendering:geometricPrecision; text-rendering:geometricPrecision; image-rendering:optimizeQuality; fill-rule:evenodd; clip-rule:evenodd" xmlns:xlink="http://www.w3.org/1999/xlink">
<g><path style="opacity:1" fill="#fcfcfc" d="M 217.5,7.5 C 217.5,55.1667 217.5,102.833 217.5,150.5C 194.833,150.5 172.167,150.5 149.5,150.5C 148.5,150.5 147.5,150.5 146.5,150.5C 146.167,152.5 145.833,154.5 145.5,156.5C 144.167,156.5 142.833,156.5 141.5,156.5C 137.5,156.5 133.5,156.5 129.5,156.5C 132.147,154.067 132.814,151.233 131.5,148C 126.577,149.105 121.577,150.272 116.5,151.5C 112.37,139.78 108.037,128.113 103.5,116.5C 101.604,115.534 99.604,115.201 97.5,115.5C 96.8333,115.5 96.5,115.167 96.5,114.5C 99.8525,110.821 102.853,106.821 105.5,102.5C 105.154,101.304 104.654,101.304 104,102.5C 103.383,99.9649 103.883,97.6316 105.5,95.5C 104.754,94.2638 104.421,92.9305 104.5,91.5C 108.333,91.1631 110.333,88.9964 110.5,85C 106.447,75.3017 99.1132,71.3017 88.5,73C 89.7059,71.9823 89.3726,71.4823 87.5,71.5C 84.7335,72.9669 81.7335,73.8003 78.5,74C 79.2583,75.3639 78.7583,76.5305 77,77.5C 75.9246,81.77 75.4246,86.1033 75.5,90.5C 74.0069,91.3121 73.3402,92.6455 73.5,94.5C 74.6046,98.5505 75.6046,102.55 76.5,106.5C 67.7295,105.422 60.3962,108.088 54.5,114.5C 47.8333,114.5 41.1667,114.5 34.5,114.5C 34.5,109.833 34.5,105.167 34.5,100.5C 56.8333,77.8333 79.1667,55.1667 101.5,32.5C 102.965,33.4057 103.965,34.739 104.5,36.5C 102.103,39.0116 99.7694,41.5116 97.5,44C 100.47,50.1069 103.304,56.2736 106,62.5C 118.678,50.6545 131.178,38.6545 143.5,26.5C 137.911,22.7873 132.078,19.454 126,16.5C 123.651,19.0168 121.151,21.3501 118.5,23.5C 115.167,21.1667 111.833,18.8333 108.5,16.5C 104.391,19.1059 100.724,22.2726 97.5,26C 98.8228,26.8159 99.4894,27.9826 99.5,29.5C 70.5,57.8333 41.8333,86.5 13.5,115.5C 12.5,115.5 11.5,115.5 10.5,115.5C 22.2767,74.2322 46.6101,42.7322 83.5,21C 120.245,1.19508 159.245,-4.80492 200.5,3C 206.459,3.87052 212.125,5.37052 217.5,7.5 Z"/></g>
<g><path style="opacity:1" fill="#fefefe" d="M 224.5,9.5 C 233.037,12.5729 241.37,16.2396 249.5,20.5C 249.5,38.5 249.5,56.5 249.5,74.5C 241.167,74.5 232.833,74.5 224.5,74.5C 224.5,52.8333 224.5,31.1667 224.5,9.5 Z"/></g>
<g><path style="opacity:0.625" fill="#86d8db" d="M 143.5,-0.5 C 159.167,-0.5 174.833,-0.5 190.5,-0.5C 233.221,5.85068 268.554,25.184 296.5,57.5C 296.833,58.8333 297.167,60.1667 297.5,61.5C 293.167,56.8333 288.833,52.1667 284.5,47.5C 284.027,46.0937 283.027,45.427 281.5,45.5C 273.147,36.1592 263.48,28.4926 252.5,22.5C 251.5,21.8333 250.5,21.1667 249.5,20.5C 241.37,16.2396 233.037,12.5729 224.5,9.5C 222.299,8.43363 219.965,7.76697 217.5,7.5C 212.125,5.37052 206.459,3.87052 200.5,3C 159.245,-4.80492 120.245,1.19508 83.5,21C 46.6101,42.7322 22.2767,74.2322 10.5,115.5C 10.1667,115.5 9.83333,115.5 9.5,115.5C 10.7963,106.622 13.7963,97.9552 18.5,89.5C 18.3764,88.8933 18.0431,88.56 17.5,88.5C 17.4021,86.4471 18.0687,84.7804 19.5,83.5C 21.5638,83.2381 22.8971,82.0714 23.5,80C 23.2716,79.6012 22.9382,79.4346 22.5,79.5C 22.5,79.1667 22.5,78.8333 22.5,78.5C 24.5311,77.4613 25.8645,75.7946 26.5,73.5C 27.7389,70.4111 29.2389,67.4111 31,64.5C 59.6367,27.8665 97.1367,6.19988 143.5,-0.5 Z"/></g>
<g><path style="opacity:1" fill="#4257f1" d="M 101.5,32.5 C 101.573,30.9731 100.906,29.9731 99.5,29.5C 99.4894,27.9826 98.8228,26.8159 97.5,26C 100.724,22.2726 104.391,19.1059 108.5,16.5C 111.833,18.8333 115.167,21.1667 118.5,23.5C 121.151,21.3501 123.651,19.0168 126,16.5C 132.078,19.454 137.911,22.7873 143.5,26.5C 131.178,38.6545 118.678,50.6545 106,62.5C 103.304,56.2736 100.47,50.1069 97.5,44C 99.7694,41.5116 102.103,39.0116 104.5,36.5C 103.965,34.739 102.965,33.4057 101.5,32.5 Z"/></g>
<g><path style="opacity:1" fill="#fefefe" d="M 252.5,22.5 C 263.48,28.4926 273.147,36.1592 281.5,45.5C 281.5,54.8333 281.5,64.1667 281.5,73.5C 271.833,73.5 262.167,73.5 252.5,73.5C 252.5,56.5 252.5,39.5 252.5,22.5 Z"/></g>
<g><path style="opacity:1" fill="#2e393f" d="M 99.5,29.5 C 100.906,29.9731 101.573,30.9731 101.5,32.5C 79.1667,55.1667 56.8333,77.8333 34.5,100.5C 33.5128,105.305 33.1795,110.305 33.5,115.5C 32.1667,115.5 30.8333,115.5 29.5,115.5C 29.665,112.15 29.4983,108.817 29,105.5C 25.6291,108.703 22.4625,112.036 19.5,115.5C 17.5,115.5 15.5,115.5 13.5,115.5C 41.8333,86.5 70.5,57.8333 99.5,29.5 Z"/></g>
<g><path style="opacity:1" fill="#fdfefe" d="M 284.5,47.5 C 288.833,52.1667 293.167,56.8333 297.5,61.5C 300.14,65.8159 302.806,70.1493 305.5,74.5C 298.167,74.5 290.833,74.5 283.5,74.5C 283.173,65.3178 283.507,56.3178 284.5,47.5 Z"/></g>
<g><path style="opacity:0.569" fill="#6b9fa1" d="M 296.5,57.5 C 299.829,61.9295 303.329,66.2629 307,70.5C 309.325,75.82 312.158,80.82 315.5,85.5C 314.202,84.8843 313.202,84.8843 312.5,85.5C 311.5,84.1667 310.5,82.8333 309.5,81.5C 309.267,79.9382 308.6,78.6049 307.5,77.5C 307.068,76.2905 306.401,75.2905 305.5,74.5C 302.806,70.1493 300.14,65.8159 297.5,61.5C 297.167,60.1667 296.833,58.8333 296.5,57.5 Z"/></g>
<g><path style="opacity:1" fill="#4a5c66" d="M 104.5,91.5 C 102.473,91.6621 100.473,91.4955 98.5,91C 95.5804,87.5726 92.2471,84.7392 88.5,82.5C 87.5581,82.6082 86.7247,82.9415 86,83.5C 84.5826,87.2647 83.0826,90.9314 81.5,94.5C 81.1667,94.5 80.8333,94.5 80.5,94.5C 79.2402,92.6329 77.5735,91.2995 75.5,90.5C 75.4246,86.1033 75.9246,81.77 77,77.5C 78.7583,76.5305 79.2583,75.3639 78.5,74C 81.7335,73.8003 84.7335,72.9669 87.5,71.5C 89.3726,71.4823 89.7059,71.9823 88.5,73C 99.1132,71.3017 106.447,75.3017 110.5,85C 110.333,88.9964 108.333,91.1631 104.5,91.5 Z"/></g>
<g><path style="opacity:0.007" fill="#131313" d="M 26.5,73.5 C 25.8645,75.7946 24.5311,77.4613 22.5,78.5C 23.0798,76.2512 24.4131,74.5846 26.5,73.5 Z"/></g>
<g><path style="opacity:1" fill="#fefefe" d="M 307.5,77.5 C 308.6,78.6049 309.267,79.9382 309.5,81.5C 309.5,85.5 309.5,89.5 309.5,93.5C 300.833,93.5 292.167,93.5 283.5,93.5C 283.5,88.1667 283.5,82.8333 283.5,77.5C 291.5,77.5 299.5,77.5 307.5,77.5 Z"/></g>
<g><path style="opacity:0.009" fill="#000000" d="M 22.5,79.5 C 22.9382,79.4346 23.2716,79.6012 23.5,80C 22.8971,82.0714 21.5638,83.2381 19.5,83.5C 20.5116,82.1283 21.5116,80.795 22.5,79.5 Z"/></g>
<g><path style="opacity:1" fill="#e3917f" d="M 104.5,91.5 C 104.421,92.9305 104.754,94.2638 105.5,95.5C 103.883,97.6316 103.383,99.9649 104,102.5C 104.654,101.304 105.154,101.304 105.5,102.5C 102.853,106.821 99.8525,110.821 96.5,114.5C 94.5,114.833 92.5,115.167 90.5,115.5C 86.8177,115.409 83.651,114.076 81,111.5C 82.0213,117.593 85.188,119.259 90.5,116.5C 88.5933,131.449 83.4266,132.449 75,119.5C 74.4221,115.045 74.9221,110.712 76.5,106.5C 75.6046,102.55 74.6046,98.5505 73.5,94.5C 73.3402,92.6455 74.0069,91.3121 75.5,90.5C 77.5735,91.2995 79.2402,92.6329 80.5,94.5C 84.1559,94.6603 85.9893,96.6603 86,100.5C 87.8121,101.977 89.6455,103.31 91.5,104.5C 91.9623,105.88 92.9623,106.547 94.5,106.5C 97.614,104.263 100.281,101.597 102.5,98.5C 100.978,97.438 99.3117,96.7713 97.5,96.5C 95.2591,95.7002 94.2591,94.0336 94.5,91.5C 90.0549,92.3627 85.7216,93.3627 81.5,94.5C 83.0826,90.9314 84.5826,87.2647 86,83.5C 86.7247,82.9415 87.5581,82.6082 88.5,82.5C 92.2471,84.7392 95.5804,87.5726 98.5,91C 100.473,91.4955 102.473,91.6621 104.5,91.5 Z"/></g>
<g><path style="opacity:1" fill="#e8e8e8" d="M 217.5,7.5 C 219.965,7.76697 222.299,8.43363 224.5,9.5C 224.5,31.1667 224.5,52.8333 224.5,74.5C 232.833,74.5 241.167,74.5 249.5,74.5C 249.5,56.5 249.5,38.5 249.5,20.5C 250.5,21.1667 251.5,21.8333 252.5,22.5C 252.5,39.5 252.5,56.5 252.5,73.5C 262.167,73.5 271.833,73.5 281.5,73.5C 281.5,64.1667 281.5,54.8333 281.5,45.5C 283.027,45.427 284.027,46.0937 284.5,47.5C 283.507,56.3178 283.173,65.3178 283.5,74.5C 290.833,74.5 298.167,74.5 305.5,74.5C 306.401,75.2905 307.068,76.2905 307.5,77.5C 299.5,77.5 291.5,77.5 283.5,77.5C 283.5,82.8333 283.5,88.1667 283.5,93.5C 292.167,93.5 300.833,93.5 309.5,93.5C 309.5,89.5 309.5,85.5 309.5,81.5C 310.5,82.8333 311.5,84.1667 312.5,85.5C 314.119,89.069 315.452,92.7356 316.5,96.5C 316.5,115.167 316.5,133.833 316.5,152.5C 297.497,152.667 278.497,152.5 259.5,152C 255.383,150.824 251.383,150.824 247.5,152C 237.909,153.095 228.575,152.595 219.5,150.5C 218.833,150.5 218.167,150.5 217.5,150.5C 217.5,102.833 217.5,55.1667 217.5,7.5 Z"/></g>
<g><path style="opacity:1" fill="#fefffe" d="M 252.5,78.5 C 262.167,78.5 271.833,78.5 281.5,78.5C 281.5,83.5 281.5,88.5 281.5,93.5C 271.833,93.5 262.167,93.5 252.5,93.5C 252.5,88.5 252.5,83.5 252.5,78.5 Z"/></g>
<g><path style="opacity:1" fill="#fefffe" d="M 224.5,78.5 C 232.833,78.5 241.167,78.5 249.5,78.5C 249.5,83.5 249.5,88.5 249.5,93.5C 241.167,93.5 232.833,93.5 224.5,93.5C 224.5,88.5 224.5,83.5 224.5,78.5 Z"/></g>
<g><path style="opacity:1" fill="#fefefe" d="M 220.5,97.5 C 251.167,97.5 281.833,97.5 312.5,97.5C 312.5,114.5 312.5,131.5 312.5,148.5C 296.167,148.5 279.833,148.5 263.5,148.5C 265.055,139.741 261.721,134.241 253.5,132C 261.996,138.837 261.329,144.337 251.5,148.5C 251.393,146.097 252.393,144.264 254.5,143C 251.158,143.297 248.491,144.964 246.5,148C 237.84,148.5 229.173,148.666 220.5,148.5C 220.5,131.5 220.5,114.5 220.5,97.5 Z"/></g>
<g><path style="opacity:1" fill="#fdfdfd" d="M 316.5,96.5 C 330.943,129.844 333.277,164.177 323.5,199.5C 313.5,199.5 303.5,199.5 293.5,199.5C 288.697,192.925 284.031,192.925 279.5,199.5C 273.5,199.5 267.5,199.5 261.5,199.5C 262.987,197.395 264.987,195.728 267.5,194.5C 272.225,196.387 275.725,195.054 278,190.5C 280.394,185.605 279.894,181.105 276.5,177C 275.207,176.51 273.873,176.343 272.5,176.5C 272.5,175.5 272.5,174.5 272.5,173.5C 266.843,172.834 261.01,172.501 255,172.5C 248.793,172.504 242.96,173.171 237.5,174.5C 231.167,174.5 224.833,174.5 218.5,174.5C 218.5,177.5 218.5,180.5 218.5,183.5C 225.5,183.5 232.5,183.5 239.5,183.5C 240.167,185.167 240.833,186.833 241.5,188.5C 241.892,190.179 242.392,191.846 243,193.5C 245.09,195.416 246.923,197.416 248.5,199.5C 242.5,199.5 236.5,199.5 230.5,199.5C 230.5,202.5 230.5,205.5 230.5,208.5C 225.337,200.186 219.671,192.186 213.5,184.5C 214.192,177.04 215.526,169.706 217.5,162.5C 252.5,162.5 287.5,162.5 322.5,162.5C 322.5,159.167 322.5,155.833 322.5,152.5C 320.5,152.5 318.5,152.5 316.5,152.5C 316.5,133.833 316.5,115.167 316.5,96.5 Z"/></g>
<g><path style="opacity:1" fill="#5d5050" d="M 97.5,96.5 C 99.3117,96.7713 100.978,97.438 102.5,98.5C 100.281,101.597 97.614,104.263 94.5,106.5C 92.9623,106.547 91.9623,105.88 91.5,104.5C 92.5832,104.539 93.5832,104.873 94.5,105.5C 96.7029,102.891 97.7029,99.8912 97.5,96.5 Z"/></g>
<g><path style="opacity:0.702" fill="#85d7da" d="M 315.5,85.5 C 316.167,85.5 316.5,85.8333 316.5,86.5C 315.624,86.3691 314.957,86.7025 314.5,87.5C 328.071,114.921 333.238,143.921 330,174.5C 328.929,182.926 327.429,191.259 325.5,199.5C 324.833,199.5 324.167,199.5 323.5,199.5C 333.277,164.177 330.943,129.844 316.5,96.5C 315.452,92.7356 314.119,89.069 312.5,85.5C 313.202,84.8843 314.202,84.8843 315.5,85.5 Z"/></g>
<g><path style="opacity:1" fill="#ac786e" d="M 97.5,96.5 C 97.7029,99.8912 96.7029,102.891 94.5,105.5C 93.5832,104.873 92.5832,104.539 91.5,104.5C 89.6455,103.31 87.8121,101.977 86,100.5C 85.9893,96.6603 84.1559,94.6603 80.5,94.5C 80.8333,94.5 81.1667,94.5 81.5,94.5C 85.7216,93.3627 90.0549,92.3627 94.5,91.5C 94.2591,94.0336 95.2591,95.7002 97.5,96.5 Z"/></g>
<g><path style="opacity:1" fill="#f1ebee" d="M 29.5,115.5 C 26.1667,115.5 22.8333,115.5 19.5,115.5C 22.4625,112.036 25.6291,108.703 29,105.5C 29.4983,108.817 29.665,112.15 29.5,115.5 Z"/></g>
<g><path style="opacity:1" fill="#f3bd2c" d="M 76.5,106.5 C 74.9221,110.712 74.4221,115.045 75,119.5C 83.4266,132.449 88.5933,131.449 90.5,116.5C 90.5,116.167 90.5,115.833 90.5,115.5C 92.5,115.167 94.5,114.833 96.5,114.5C 96.5,115.167 96.8333,115.5 97.5,115.5C 99.0565,119.274 98.3899,122.608 95.5,125.5C 93.6115,126.604 91.9448,127.937 90.5,129.5C 89.0048,129.989 87.6715,130.655 86.5,131.5C 85.5084,131.328 84.8417,131.662 84.5,132.5C 82.9557,132.297 81.6223,131.63 80.5,130.5C 79.8933,130.624 79.56,130.957 79.5,131.5C 79.1667,131.5 78.8333,131.5 78.5,131.5C 78.7373,130.209 78.404,129.209 77.5,128.5C 77.0269,127.094 76.0269,126.427 74.5,126.5C 74.0269,125.094 73.0269,124.427 71.5,124.5C 69.1843,123.84 66.851,123.173 64.5,122.5C 61.5072,123.662 58.8405,125.329 56.5,127.5C 55.5041,127.586 54.6708,127.252 54,126.5C 53.2446,122.745 53.4113,119.078 54.5,115.5C 54.5,115.167 54.5,114.833 54.5,114.5C 60.3962,108.088 67.7295,105.422 76.5,106.5 Z"/></g>
<g><path style="opacity:1" fill="#35393d" d="M 90.5,115.5 C 90.5,115.833 90.5,116.167 90.5,116.5C 85.188,119.259 82.0213,117.593 81,111.5C 83.651,114.076 86.8177,115.409 90.5,115.5 Z"/></g>
<g><path style="opacity:1" fill="#c3a8b4" d="M 34.5,100.5 C 34.5,105.167 34.5,109.833 34.5,114.5C 41.1667,114.5 47.8333,114.5 54.5,114.5C 54.5,114.833 54.5,115.167 54.5,115.5C 47.5,115.5 40.5,115.5 33.5,115.5C 33.1795,110.305 33.5128,105.305 34.5,100.5 Z"/></g>
<g><path style="opacity:1" fill="#851644" d="M 97.5,115.5 C 99.604,115.201 101.604,115.534 103.5,116.5C 108.037,128.113 112.37,139.78 116.5,151.5C 116.167,151.5 115.833,151.5 115.5,151.5C 108.833,142.833 102.167,134.167 95.5,125.5C 98.3899,122.608 99.0565,119.274 97.5,115.5 Z"/></g>
<g><path style="opacity:1" fill="#4155ee" d="M 71.5,124.5 C 71.9731,125.906 72.9731,126.573 74.5,126.5C 74.9731,127.906 75.9731,128.573 77.5,128.5C 78.404,129.209 78.7373,130.209 78.5,131.5C 77.2057,135.934 77.2057,140.267 78.5,144.5C 78.4469,147.061 79.4469,149.061 81.5,150.5C 81.8333,150 82.1667,149.5 82.5,149C 81.5912,146.105 80.5912,143.272 79.5,140.5C 79.5,137.5 79.5,134.5 79.5,131.5C 80.5307,132.355 81.6974,133.022 83,133.5C 83.7648,133.43 84.2648,133.097 84.5,132.5C 84.8417,131.662 85.5084,131.328 86.5,131.5C 87.5,131.5 88.5,131.5 89.5,131.5C 89.2155,133.415 89.5489,135.081 90.5,136.5C 90.5862,140.318 89.9195,143.984 88.5,147.5C 89.1015,151.378 89.9348,151.378 91,147.5C 91.4986,143.848 91.6653,140.182 91.5,136.5C 90.7814,134.236 90.448,131.903 90.5,129.5C 91.9448,127.937 93.6115,126.604 95.5,125.5C 102.167,134.167 108.833,142.833 115.5,151.5C 108.159,151.334 100.826,151.5 93.5,152C 88.9555,153.542 84.2888,154.376 79.5,154.5C 74.63,154.84 69.7966,155.507 65,156.5C 63.3419,156.325 62.0086,155.658 61,154.5C 60.044,155.579 59.2106,156.745 58.5,158C 64.7244,157.88 70.8911,157.047 77,155.5C 77.9021,155.743 78.7354,156.077 79.5,156.5C 82.3701,166.444 85.0368,176.444 87.5,186.5C 87.5,187.5 87.5,188.5 87.5,189.5C 71.1523,189.662 54.8189,189.329 38.5,188.5C 32.8057,188.336 27.639,186.669 23,183.5C 22.3333,180.5 22.3333,177.5 23,174.5C 31.6394,157.028 42.806,141.361 56.5,127.5C 58.8405,125.329 61.5072,123.662 64.5,122.5C 66.851,123.173 69.1843,123.84 71.5,124.5 Z"/></g>
<g><path style="opacity:1" fill="#4e4a48" d="M 71.5,124.5 C 73.0269,124.427 74.0269,125.094 74.5,126.5C 72.9731,126.573 71.9731,125.906 71.5,124.5 Z"/></g>
<g><path style="opacity:1" fill="#4a4847" d="M 74.5,126.5 C 76.0269,126.427 77.0269,127.094 77.5,128.5C 75.9731,128.573 74.9731,127.906 74.5,126.5 Z"/></g>
<g><path style="opacity:1" fill="#504c42" d="M 79.5,131.5 C 79.56,130.957 79.8933,130.624 80.5,130.5C 81.6223,131.63 82.9557,132.297 84.5,132.5C 84.2648,133.097 83.7648,133.43 83,133.5C 81.6974,133.022 80.5307,132.355 79.5,131.5 Z"/></g>
<g><path style="opacity:1" fill="#80748f" d="M 90.5,129.5 C 90.448,131.903 90.7814,134.236 91.5,136.5C 91.1667,136.5 90.8333,136.5 90.5,136.5C 89.5489,135.081 89.2155,133.415 89.5,131.5C 88.5,131.5 87.5,131.5 86.5,131.5C 87.6715,130.655 89.0048,129.989 90.5,129.5 Z"/></g>
<g><path style="opacity:1" fill="#fbfafb" d="M 6.5,129.5 C 6.83333,129.5 7.16667,129.5 7.5,129.5C 14.8261,158.137 22.1595,186.804 29.5,215.5C 29.5,224.167 29.5,232.833 29.5,241.5C 15.6946,219.922 7.52791,196.255 5,170.5C 4.08026,156.756 4.58026,143.09 6.5,129.5 Z"/></g>
<g><path style="opacity:1" fill="#9c8784" d="M 78.5,131.5 C 78.8333,131.5 79.1667,131.5 79.5,131.5C 79.5,134.5 79.5,137.5 79.5,140.5C 78.5655,141.568 78.2322,142.901 78.5,144.5C 77.2057,140.267 77.2057,135.934 78.5,131.5 Z"/></g>
<g><path style="opacity:1" fill="#d2a742" d="M 90.5,136.5 C 90.8333,136.5 91.1667,136.5 91.5,136.5C 91.6653,140.182 91.4986,143.848 91,147.5C 89.9348,151.378 89.1015,151.378 88.5,147.5C 89.9195,143.984 90.5862,140.318 90.5,136.5 Z"/></g>
<g><path style="opacity:1" fill="#daac34" d="M 79.5,140.5 C 80.5912,143.272 81.5912,146.105 82.5,149C 82.1667,149.5 81.8333,150 81.5,150.5C 79.4469,149.061 78.4469,147.061 78.5,144.5C 78.2322,142.901 78.5655,141.568 79.5,140.5 Z"/></g>
<g><path style="opacity:1" fill="#e49180" d="M 129.5,156.5 C 128.373,157.122 127.373,157.955 126.5,159C 130.036,162.201 133.203,165.701 136,169.5C 136.333,168.833 136.667,168.167 137,167.5C 137.498,170.482 137.665,173.482 137.5,176.5C 135.435,176.483 133.435,176.15 131.5,175.5C 128.536,173.038 125.703,170.371 123,167.5C 123.15,169.506 123.65,171.506 124.5,173.5C 126.118,177.689 127.118,182.022 127.5,186.5C 125.901,188.729 123.901,189.062 121.5,187.5C 121.217,186.711 120.717,186.044 120,185.5C 120.944,191.326 118.778,193.326 113.5,191.5C 108.333,195.917 105.166,194.584 104,187.5C 103.184,186.177 102.017,185.511 100.5,185.5C 96.1018,185.294 91.7685,185.627 87.5,186.5C 85.0368,176.444 82.3701,166.444 79.5,156.5C 79.5,155.833 79.5,155.167 79.5,154.5C 84.2888,154.376 88.9555,153.542 93.5,152C 100.826,151.5 108.159,151.334 115.5,151.5C 115.833,151.5 116.167,151.5 116.5,151.5C 121.577,150.272 126.577,149.105 131.5,148C 132.814,151.233 132.147,154.067 129.5,156.5 Z"/></g>
<g><path style="opacity:1" fill="#dbdbdb" d="M 219.5,150.5 C 228.575,152.595 237.909,153.095 247.5,152C 251.383,150.824 255.383,150.824 259.5,152C 278.497,152.5 297.497,152.667 316.5,152.5C 318.5,152.5 320.5,152.5 322.5,152.5C 322.5,155.833 322.5,159.167 322.5,162.5C 287.5,162.5 252.5,162.5 217.5,162.5C 218.442,158.582 219.108,154.582 219.5,150.5 Z"/></g>
<g><path style="opacity:1" fill="#a4a4a8" d="M 149.5,150.5 C 146.129,166.429 143.129,182.429 140.5,198.5C 124.833,198.5 109.167,198.5 93.5,198.5C 93.5,197.5 93.5,196.5 93.5,195.5C 108.343,195.829 123.01,195.496 137.5,194.5C 140.155,182.235 142.489,169.901 144.5,157.5C 143.209,157.737 142.209,157.404 141.5,156.5C 142.833,156.5 144.167,156.5 145.5,156.5C 145.833,154.5 146.167,152.5 146.5,150.5C 147.5,150.5 148.5,150.5 149.5,150.5 Z"/></g>
<g><path style="opacity:1" fill="#c7c7c7" d="M 149.5,150.5 C 172.167,150.5 194.833,150.5 217.5,150.5C 218.167,150.5 218.833,150.5 219.5,150.5C 219.108,154.582 218.442,158.582 217.5,162.5C 215.526,169.706 214.192,177.04 213.5,184.5C 212.01,188.942 211.01,193.609 210.5,198.5C 187.167,198.5 163.833,198.5 140.5,198.5C 143.129,182.429 146.129,166.429 149.5,150.5 Z"/></g>
<g><path style="opacity:1" fill="#424bac" d="M 79.5,154.5 C 79.5,155.167 79.5,155.833 79.5,156.5C 78.7354,156.077 77.9021,155.743 77,155.5C 70.8911,157.047 64.7244,157.88 58.5,158C 59.2106,156.745 60.044,155.579 61,154.5C 62.0086,155.658 63.3419,156.325 65,156.5C 69.7966,155.507 74.63,154.84 79.5,154.5 Z"/></g>
<g><path style="opacity:1" fill="#4054e4" d="M 129.5,156.5 C 133.5,156.5 137.5,156.5 141.5,156.5C 142.209,157.404 143.209,157.737 144.5,157.5C 142.489,169.901 140.155,182.235 137.5,194.5C 131.541,193.262 125.874,191.262 120.5,188.5C 120.624,187.893 120.957,187.56 121.5,187.5C 123.901,189.062 125.901,188.729 127.5,186.5C 128.622,184.712 128.789,182.712 128,180.5C 127.478,177.719 126.311,175.385 124.5,173.5C 123.65,171.506 123.15,169.506 123,167.5C 125.703,170.371 128.536,173.038 131.5,175.5C 132.355,176.531 133.022,177.697 133.5,179C 132.591,180.789 132.424,182.623 133,184.5C 133.498,181.179 134.998,178.513 137.5,176.5C 137.665,173.482 137.498,170.482 137,167.5C 136.667,168.167 136.333,168.833 136,169.5C 133.203,165.701 130.036,162.201 126.5,159C 127.373,157.955 128.373,157.122 129.5,156.5 Z"/></g>
<g><path style="opacity:1" fill="#314084" d="M 52.5,158.5 C 54.1992,158.34 55.8659,158.506 57.5,159C 52.8225,160.339 48.1558,161.339 43.5,162C 46.5711,160.704 49.5711,159.538 52.5,158.5 Z"/></g>
<g><path style="opacity:1" fill="#334393" d="M 70.5,158.5 C 74.0835,167.164 76.5835,176.164 78,185.5C 74.7187,176.707 72.2187,167.707 70.5,158.5 Z"/></g>
<g><path style="opacity:1" fill="#fce092" d="M 272.5,173.5 C 260.988,173.172 249.654,173.505 238.5,174.5C 238.167,174.5 237.833,174.5 237.5,174.5C 242.96,173.171 248.793,172.504 255,172.5C 261.01,172.501 266.843,172.834 272.5,173.5 Z"/></g>
<g><path style="opacity:1" fill="#c6e3e2" d="M 237.5,174.5 C 237.833,174.5 238.167,174.5 238.5,174.5C 238.5,175.5 238.5,176.5 238.5,177.5C 239.15,179.435 239.483,181.435 239.5,183.5C 232.5,183.5 225.5,183.5 218.5,183.5C 218.5,180.5 218.5,177.5 218.5,174.5C 224.833,174.5 231.167,174.5 237.5,174.5 Z"/></g>
<g><path style="opacity:1" fill="#4f4768" d="M 124.5,173.5 C 126.311,175.385 127.478,177.719 128,180.5C 128.789,182.712 128.622,184.712 127.5,186.5C 127.118,182.022 126.118,177.689 124.5,173.5 Z"/></g>
<g><path style="opacity:0.569" fill="#81d2d5" d="M 6.5,129.5 C 4.58026,143.09 4.08026,156.756 5,170.5C 7.52791,196.255 15.6946,219.922 29.5,241.5C 29.6716,242.492 29.3382,243.158 28.5,243.5C 5.90147,207.073 -1.43186,169.073 6.5,129.5 Z"/></g>
<g><path style="opacity:1" fill="#ebbd42" d="M 238.5,177.5 C 239.802,178.807 241.135,178.807 242.5,177.5C 244.5,178.833 246.167,180.5 247.5,182.5C 248.446,182.987 249.446,183.32 250.5,183.5C 252.801,182.143 254.801,180.31 256.5,178C 258.5,177.333 260.5,177.333 262.5,178C 264.771,180.782 267.437,182.949 270.5,184.5C 270.396,186.703 269.73,188.703 268.5,190.5C 265.889,189.066 263.389,187.399 261,185.5C 258.334,188.658 255.168,191.324 251.5,193.5C 248.6,192.557 246.267,190.89 244.5,188.5C 243.313,187.347 242.313,187.347 241.5,188.5C 240.833,186.833 240.167,185.167 239.5,183.5C 239.483,181.435 239.15,179.435 238.5,177.5 Z"/></g>
<g><path style="opacity:1" fill="#48446d" d="M 131.5,175.5 C 133.435,176.15 135.435,176.483 137.5,176.5C 134.998,178.513 133.498,181.179 133,184.5C 132.424,182.623 132.591,180.789 133.5,179C 133.022,177.697 132.355,176.531 131.5,175.5 Z"/></g>
<g><path style="opacity:1" fill="#fffaef" d="M 268.5,190.5 C 269.73,188.703 270.396,186.703 270.5,184.5C 271.301,182.958 271.634,181.292 271.5,179.5C 273.144,179.286 274.644,179.62 276,180.5C 277.296,185.16 276.13,188.993 272.5,192C 270.648,192.773 269.314,192.273 268.5,190.5 Z"/></g>
<g><path style="opacity:1" fill="#831040" d="M 9.5,115.5 C 9.83333,115.5 10.1667,115.5 10.5,115.5C 11.5,115.5 12.5,115.5 13.5,115.5C 15.5,115.5 17.5,115.5 19.5,115.5C 22.8333,115.5 26.1667,115.5 29.5,115.5C 30.8333,115.5 32.1667,115.5 33.5,115.5C 40.5,115.5 47.5,115.5 54.5,115.5C 53.4113,119.078 53.2446,122.745 54,126.5C 54.6708,127.252 55.5041,127.586 56.5,127.5C 42.806,141.361 31.6394,157.028 23,174.5C 22.3333,177.5 22.3333,180.5 23,183.5C 27.639,186.669 32.8057,188.336 38.5,188.5C 40.5,189.167 42.5,189.833 44.5,190.5C 43.9644,193.698 44.631,196.365 46.5,198.5C 46.37,210.668 49.5366,222.001 56,232.5C 58.3834,235.273 61.2167,237.439 64.5,239C 78.5219,243.137 92.8552,245.47 107.5,246C 135.397,247.074 163.23,246.241 191,243.5C 192.436,243.559 193.769,243.892 195,244.5C 197.372,247.91 199.205,251.577 200.5,255.5C 178.944,260.878 157.278,265.878 135.5,270.5C 129.596,272.601 123.596,272.934 117.5,271.5C 116.833,271.167 116.167,270.833 115.5,270.5C 110.775,269.369 106.108,268.036 101.5,266.5C 80.7637,260.978 60.0971,255.144 39.5,249C 37.357,245.148 36.0236,240.981 35.5,236.5C 35.2041,234.597 34.5375,232.93 33.5,231.5C 32.7679,225.905 31.4346,220.571 29.5,215.5C 22.1595,186.804 14.8261,158.137 7.5,129.5C 8.03733,124.814 8.704,120.147 9.5,115.5 Z"/></g>
<g><path style="opacity:1" fill="#fec72d" d="M 272.5,173.5 C 272.5,174.5 272.5,175.5 272.5,176.5C 273.873,176.343 275.207,176.51 276.5,177C 279.894,181.105 280.394,185.605 278,190.5C 275.725,195.054 272.225,196.387 267.5,194.5C 264.987,195.728 262.987,197.395 261.5,199.5C 257.167,199.5 252.833,199.5 248.5,199.5C 246.923,197.416 245.09,195.416 243,193.5C 242.392,191.846 241.892,190.179 241.5,188.5C 242.313,187.347 243.313,187.347 244.5,188.5C 246.267,190.89 248.6,192.557 251.5,193.5C 255.168,191.324 258.334,188.658 261,185.5C 263.389,187.399 265.889,189.066 268.5,190.5C 269.314,192.273 270.648,192.773 272.5,192C 276.13,188.993 277.296,185.16 276,180.5C 274.644,179.62 273.144,179.286 271.5,179.5C 271.634,181.292 271.301,182.958 270.5,184.5C 267.437,182.949 264.771,180.782 262.5,178C 260.5,177.333 258.5,177.333 256.5,178C 254.801,180.31 252.801,182.143 250.5,183.5C 249.446,183.32 248.446,182.987 247.5,182.5C 246.167,180.5 244.5,178.833 242.5,177.5C 241.135,178.807 239.802,178.807 238.5,177.5C 238.5,176.5 238.5,175.5 238.5,174.5C 249.654,173.505 260.988,173.172 272.5,173.5 Z"/></g>
<g><path style="opacity:1" fill="#273339" d="M 213.5,184.5 C 219.671,192.186 225.337,200.186 230.5,208.5C 231.153,209.807 231.82,211.14 232.5,212.5C 248.152,213.499 263.819,213.833 279.5,213.5C 264.867,215.321 249.867,216.154 234.5,216C 235.066,216.995 235.733,217.828 236.5,218.5C 237.584,221.004 238.917,223.337 240.5,225.5C 242.439,230.09 244.773,234.423 247.5,238.5C 251.883,248.267 256.55,257.934 261.5,267.5C 261.376,268.107 261.043,268.44 260.5,268.5C 249.29,269.648 238.29,271.315 227.5,273.5C 224.14,273.616 220.807,273.949 217.5,274.5C 215.54,275.138 213.707,275.138 212,274.5C 208.643,267.77 204.81,261.437 200.5,255.5C 199.205,251.577 197.372,247.91 195,244.5C 193.769,243.892 192.436,243.559 191,243.5C 163.23,246.241 135.397,247.074 107.5,246C 92.8552,245.47 78.5219,243.137 64.5,239C 61.2167,237.439 58.3834,235.273 56,232.5C 49.5366,222.001 46.37,210.668 46.5,198.5C 55.3015,196.134 64.3015,194.134 73.5,192.5C 82.8439,191.169 91.8439,188.836 100.5,185.5C 102.017,185.511 103.184,186.177 104,187.5C 105.166,194.584 108.333,195.917 113.5,191.5C 118.778,193.326 120.944,191.326 120,185.5C 120.717,186.044 121.217,186.711 121.5,187.5C 120.957,187.56 120.624,187.893 120.5,188.5C 125.874,191.262 131.541,193.262 137.5,194.5C 123.01,195.496 108.343,195.829 93.5,195.5C 93.5,196.5 93.5,197.5 93.5,198.5C 109.167,198.5 124.833,198.5 140.5,198.5C 163.833,198.5 187.167,198.5 210.5,198.5C 211.01,193.609 212.01,188.942 213.5,184.5 Z"/></g>
<g><path style="opacity:1" fill="#3948a7" d="M 100.5,185.5 C 91.8439,188.836 82.8439,191.169 73.5,192.5C 64.012,191.434 54.3454,190.767 44.5,190.5C 42.5,189.833 40.5,189.167 38.5,188.5C 54.8189,189.329 71.1523,189.662 87.5,189.5C 87.5,188.5 87.5,187.5 87.5,186.5C 91.7685,185.627 96.1018,185.294 100.5,185.5 Z"/></g>
<g><path style="opacity:1" fill="#3e54ec" d="M 44.5,190.5 C 54.3454,190.767 64.012,191.434 73.5,192.5C 64.3015,194.134 55.3015,196.134 46.5,198.5C 44.631,196.365 43.9644,193.698 44.5,190.5 Z"/></g>
<g><path style="opacity:1" fill="#1bbcc5" d="M 293.5,199.5 C 296.672,203.841 299.339,208.508 301.5,213.5C 307.074,215.453 313.074,216.12 319.5,215.5C 319.586,216.496 319.252,217.329 318.5,218C 315.854,218.497 313.187,218.664 310.5,218.5C 308.167,218.5 305.833,218.5 303.5,218.5C 304.499,225.16 305.499,231.827 306.5,238.5C 308.445,235.607 310.111,232.607 311.5,229.5C 312.573,230.251 312.74,231.251 312,232.5C 309.739,236.696 307.239,240.696 304.5,244.5C 303.674,239.684 303.174,234.684 303,229.5C 302.667,233.5 302.333,237.5 302,241.5C 300.937,235.978 299.27,230.644 297,225.5C 296.748,227.931 297.248,230.265 298.5,232.5C 297.833,232.833 297.167,233.167 296.5,233.5C 299.954,237.832 301.621,242.832 301.5,248.5C 294.622,259.05 286.288,268.383 276.5,276.5C 276.733,274.938 277.4,273.605 278.5,272.5C 279.167,272.5 279.5,272.167 279.5,271.5C 282.146,269.521 284.479,267.188 286.5,264.5C 283.337,262.084 280.004,259.918 276.5,258C 270.978,253.739 269.978,248.573 273.5,242.5C 272.594,238.675 271.094,235.008 269,231.5C 266.755,224.412 268.921,222.245 275.5,225C 281.428,230.924 286.594,237.424 291,244.5C 291.823,240.262 291.156,236.262 289,232.5C 285.995,228.494 283.495,224.16 281.5,219.5C 271.188,218.501 260.855,218.168 250.5,218.5C 247.167,218.5 243.833,218.5 240.5,218.5C 239.167,218.5 237.833,218.5 236.5,218.5C 235.733,217.828 235.066,216.995 234.5,216C 249.867,216.154 264.867,215.321 279.5,213.5C 278.238,208.848 278.238,204.181 279.5,199.5C 284.031,192.925 288.697,192.925 293.5,199.5 Z"/></g>
<g><path style="opacity:1" fill="#830d3f" d="M 248.5,199.5 C 252.833,199.5 257.167,199.5 261.5,199.5C 267.5,199.5 273.5,199.5 279.5,199.5C 278.238,204.181 278.238,208.848 279.5,213.5C 263.819,213.833 248.152,213.499 232.5,212.5C 231.82,211.14 231.153,209.807 230.5,208.5C 230.5,205.5 230.5,202.5 230.5,199.5C 236.5,199.5 242.5,199.5 248.5,199.5 Z"/></g>
<g><path style="opacity:1" fill="#821040" d="M 293.5,199.5 C 303.5,199.5 313.5,199.5 323.5,199.5C 322.575,203.942 321.242,208.275 319.5,212.5C 313.537,213.496 307.537,213.829 301.5,213.5C 299.339,208.508 296.672,203.841 293.5,199.5 Z"/></g>
<g><path style="opacity:1" fill="#2e5360" d="M 323.5,199.5 C 324.167,199.5 324.833,199.5 325.5,199.5C 323.676,204.981 321.676,210.314 319.5,215.5C 313.074,216.12 307.074,215.453 301.5,213.5C 307.537,213.829 313.537,213.496 319.5,212.5C 321.242,208.275 322.575,203.942 323.5,199.5 Z"/></g>
<g><path style="opacity:0.069" fill="#202223" d="M 316.5,86.5 C 322.383,100.02 327.383,113.52 331.5,127C 331.167,127.333 330.833,127.667 330.5,128C 332.099,134.876 333.432,141.709 334.5,148.5C 334.5,148.833 334.5,149.167 334.5,149.5C 333.167,149.833 333.167,150.167 334.5,150.5C 334.5,153.167 334.5,155.833 334.5,158.5C 333.167,158.833 333.167,159.167 334.5,159.5C 334.5,162.5 334.5,165.5 334.5,168.5C 333.167,169.167 333.167,169.833 334.5,170.5C 334.5,170.833 334.5,171.167 334.5,171.5C 332.518,199.398 323.185,226.064 306.5,251.5C 305.732,250.737 305.232,249.737 305,248.5C 304.329,247.748 303.496,247.414 302.5,247.5C 303.167,246.5 303.833,245.5 304.5,244.5C 307.239,240.696 309.739,236.696 312,232.5C 312.74,231.251 312.573,230.251 311.5,229.5C 311.276,225.821 310.942,222.154 310.5,218.5C 313.187,218.664 315.854,218.497 318.5,218C 319.252,217.329 319.586,216.496 319.5,215.5C 321.676,210.314 323.676,204.981 325.5,199.5C 327.429,191.259 328.929,182.926 330,174.5C 333.238,143.921 328.071,114.921 314.5,87.5C 314.957,86.7025 315.624,86.3691 316.5,86.5 Z"/></g>
<g><path style="opacity:1" fill="#f2f2f2" d="M 236.5,218.5 C 237.833,218.5 239.167,218.5 240.5,218.5C 240.5,220.5 240.5,222.5 240.5,224.5C 240.5,224.833 240.5,225.167 240.5,225.5C 238.917,223.337 237.584,221.004 236.5,218.5 Z"/></g>
<g><path style="opacity:1" fill="#2b363c" d="M 240.5,218.5 C 243.833,218.5 247.167,218.5 250.5,218.5C 250.483,220.565 250.15,222.565 249.5,224.5C 246.5,224.5 243.5,224.5 240.5,224.5C 240.5,222.5 240.5,220.5 240.5,218.5 Z"/></g>
<g><path style="opacity:1" fill="#fcfdfd" d="M 250.5,218.5 C 260.855,218.168 271.188,218.501 281.5,219.5C 283.495,224.16 285.995,228.494 289,232.5C 291.156,236.262 291.823,240.262 291,244.5C 286.594,237.424 281.428,230.924 275.5,225C 268.921,222.245 266.755,224.412 269,231.5C 271.094,235.008 272.594,238.675 273.5,242.5C 269.978,248.573 270.978,253.739 276.5,258C 280.004,259.918 283.337,262.084 286.5,264.5C 284.479,267.188 282.146,269.521 279.5,271.5C 277.989,269.559 275.989,269.059 273.5,270C 270.261,271.736 267.927,274.236 266.5,277.5C 265.5,277.5 264.5,277.5 263.5,277.5C 263.353,274.208 262.353,271.208 260.5,268.5C 261.043,268.44 261.376,268.107 261.5,267.5C 256.55,257.934 251.883,248.267 247.5,238.5C 248.167,233.833 248.833,229.167 249.5,224.5C 250.15,222.565 250.483,220.565 250.5,218.5 Z"/></g>
<g><path style="opacity:1" fill="#f7f9fa" d="M 310.5,218.5 C 310.942,222.154 311.276,225.821 311.5,229.5C 310.111,232.607 308.445,235.607 306.5,238.5C 305.499,231.827 304.499,225.16 303.5,218.5C 305.833,218.5 308.167,218.5 310.5,218.5 Z"/></g>
<g><path style="opacity:1" fill="#313c43" d="M 29.5,215.5 C 31.4346,220.571 32.7679,225.905 33.5,231.5C 33.5,237.5 33.5,243.5 33.5,249.5C 31.8437,247.54 30.177,245.54 28.5,243.5C 29.3382,243.158 29.6716,242.492 29.5,241.5C 29.5,232.833 29.5,224.167 29.5,215.5 Z"/></g>
<g><path style="opacity:1" fill="#801742" d="M 240.5,224.5 C 243.5,224.5 246.5,224.5 249.5,224.5C 248.833,229.167 248.167,233.833 247.5,238.5C 244.773,234.423 242.439,230.09 240.5,225.5C 240.5,225.167 240.5,224.833 240.5,224.5 Z"/></g>
<g><path style="opacity:1" fill="#fdfdfd" d="M 35.5,236.5 C 36.0236,240.981 37.357,245.148 39.5,249C 60.0971,255.144 80.7637,260.978 101.5,266.5C 101.586,267.496 101.252,268.329 100.5,269C 92.0235,275.309 83.6901,281.809 75.5,288.5C 69.7972,284.45 64.1305,280.45 58.5,276.5C 50.1341,268.301 42.3008,259.635 35,250.5C 34.1849,245.648 34.3516,240.981 35.5,236.5 Z"/></g>
<g><path style="opacity:1" fill="#197178" d="M 304.5,244.5 C 303.833,245.5 303.167,246.5 302.5,247.5C 302.5,248.167 302.167,248.5 301.5,248.5C 301.621,242.832 299.954,237.832 296.5,233.5C 297.167,233.167 297.833,232.833 298.5,232.5C 297.248,230.265 296.748,227.931 297,225.5C 299.27,230.644 300.937,235.978 302,241.5C 302.333,237.5 302.667,233.5 303,229.5C 303.174,234.684 303.674,239.684 304.5,244.5 Z"/></g>
<g><path style="opacity:0.004" fill="#fefffe" d="M 21.5,242.5 C 22.9063,242.973 23.573,243.973 23.5,245.5C 22.0937,245.027 21.427,244.027 21.5,242.5 Z"/></g>
<g><path style="opacity:0.13" fill="#121414" d="M 17.5,88.5 C 18.0431,88.56 18.3764,88.8933 18.5,89.5C 13.7963,97.9552 10.7963,106.622 9.5,115.5C 8.704,120.147 8.03733,124.814 7.5,129.5C 7.16667,129.5 6.83333,129.5 6.5,129.5C -1.43186,169.073 5.90147,207.073 28.5,243.5C 30.177,245.54 31.8437,247.54 33.5,249.5C 40.0794,260.081 48.4128,269.081 58.5,276.5C 64.9878,282.987 72.3212,288.32 80.5,292.5C 96.6008,303.092 114.267,309.759 133.5,312.5C 135.292,313.309 137.292,313.809 139.5,314C 157.5,314.667 175.5,314.667 193.5,314C 206.8,312.345 219.466,308.845 231.5,303.5C 231.5,303.167 231.5,302.833 231.5,302.5C 233.284,302.107 234.95,301.441 236.5,300.5C 236.56,301.043 236.893,301.376 237.5,301.5C 246.187,297.83 254.187,293.163 261.5,287.5C 266.071,285.262 270.071,282.262 273.5,278.5C 274.5,277.833 275.5,277.167 276.5,276.5C 286.288,268.383 294.622,259.05 301.5,248.5C 302.167,248.5 302.5,248.167 302.5,247.5C 303.496,247.414 304.329,247.748 305,248.5C 305.232,249.737 305.732,250.737 306.5,251.5C 281.462,288.796 246.629,311.462 202,319.5C 192.484,321.462 182.984,322.795 173.5,323.5C 173.167,323.5 172.833,323.5 172.5,323.5C 169.167,322.167 165.833,322.167 162.5,323.5C 162.167,323.5 161.833,323.5 161.5,323.5C 110.477,321.908 68.3103,301.574 35,262.5C 30.9453,256.952 27.112,251.285 23.5,245.5C 23.573,243.973 22.9063,242.973 21.5,242.5C 19.5981,240.038 17.9314,237.538 16.5,235C 16.8333,234.667 17.1667,234.333 17.5,234C 14.4495,228.842 11.7828,223.508 9.5,218C 9.83333,217.667 10.1667,217.333 10.5,217C 6.81826,210.64 4.81826,203.973 4.5,197C 2.22713,188.184 0.560462,179.351 -0.5,170.5C -0.5,170.167 -0.5,169.833 -0.5,169.5C 0.833333,168.167 0.833333,166.833 -0.5,165.5C -0.5,165.167 -0.5,164.833 -0.5,164.5C 0.833333,164.167 0.833333,163.833 -0.5,163.5C -0.5,163.167 -0.5,162.833 -0.5,162.5C 0.833333,162.167 0.833333,161.833 -0.5,161.5C -0.5,160.167 -0.5,158.833 -0.5,157.5C 0.833333,157.167 0.833333,156.833 -0.5,156.5C -0.5,156.167 -0.5,155.833 -0.5,155.5C 0.833333,154.833 0.833333,154.167 -0.5,153.5C -0.5,153.167 -0.5,152.833 -0.5,152.5C 0.833333,151.833 0.833333,151.167 -0.5,150.5C -0.5,150.167 -0.5,149.833 -0.5,149.5C 1.55179,132.099 5.71846,115.099 12,98.5C 13.6219,94.9121 15.4552,91.5788 17.5,88.5 Z"/></g>
<g><path style="opacity:0.902" fill="#88c2c5" d="M 33.5,231.5 C 34.5375,232.93 35.2041,234.597 35.5,236.5C 34.3516,240.981 34.1849,245.648 35,250.5C 42.3008,259.635 50.1341,268.301 58.5,276.5C 48.4128,269.081 40.0794,260.081 33.5,249.5C 33.5,243.5 33.5,237.5 33.5,231.5 Z"/></g>
<g><path style="opacity:1" fill="#fdfdfd" d="M 200.5,255.5 C 204.81,261.437 208.643,267.77 212,274.5C 213.707,275.138 215.54,275.138 217.5,274.5C 215.089,279.574 214.255,284.907 215,290.5C 220.461,293.146 225.961,295.48 231.5,297.5C 231.5,299.167 231.5,300.833 231.5,302.5C 231.5,302.833 231.5,303.167 231.5,303.5C 216.832,308.25 201.832,311.583 186.5,313.5C 170.022,299.864 153.355,286.364 136.5,273C 135.748,272.329 135.414,271.496 135.5,270.5C 157.278,265.878 178.944,260.878 200.5,255.5 Z"/></g>
<g><path style="opacity:1" fill="#c3c8c8" d="M 101.5,266.5 C 106.108,268.036 110.775,269.369 115.5,270.5C 108.975,280.229 101.975,289.563 94.5,298.5C 92.847,298.34 91.5137,297.674 90.5,296.5C 94.4478,289.441 98.7812,282.608 103.5,276C 95.1889,280.499 87.5223,285.999 80.5,292.5C 72.3212,288.32 64.9878,282.987 58.5,276.5C 64.1305,280.45 69.7972,284.45 75.5,288.5C 83.6901,281.809 92.0235,275.309 100.5,269C 101.252,268.329 101.586,267.496 101.5,266.5 Z"/></g>
<g><path style="opacity:1" fill="#d9d8d4" d="M 260.5,268.5 C 262.353,271.208 263.353,274.208 263.5,277.5C 262.833,277.5 262.167,277.5 261.5,277.5C 258.055,273.441 253.721,271.608 248.5,272C 247.663,273.011 247.33,274.178 247.5,275.5C 240.864,274.552 234.197,273.885 227.5,273.5C 238.29,271.315 249.29,269.648 260.5,268.5 Z"/></g>
<g><path style="opacity:1" fill="#465156" d="M 279.5,271.5 C 279.5,272.167 279.167,272.5 278.5,272.5C 276.712,271.378 274.712,271.211 272.5,272C 270.63,274.04 268.63,275.873 266.5,277.5C 267.927,274.236 270.261,271.736 273.5,270C 275.989,269.059 277.989,269.559 279.5,271.5 Z"/></g>
<g><path style="opacity:1" fill="#fdfefe" d="M 115.5,270.5 C 116.167,270.833 116.833,271.167 117.5,271.5C 127.833,285.5 138.167,299.5 148.5,313.5C 143.507,313.084 138.507,312.751 133.5,312.5C 124.13,310.214 114.797,307.38 105.5,304C 101.493,302.663 97.8267,300.83 94.5,298.5C 101.975,289.563 108.975,280.229 115.5,270.5 Z"/></g>
<g><path style="opacity:1" fill="#c9c9c9" d="M 135.5,270.5 C 135.414,271.496 135.748,272.329 136.5,273C 153.355,286.364 170.022,299.864 186.5,313.5C 185.167,313.5 183.833,313.5 182.5,313.5C 165.234,301.189 147.9,288.855 130.5,276.5C 137.426,288.623 144.76,300.956 152.5,313.5C 151.167,313.5 149.833,313.5 148.5,313.5C 138.167,299.5 127.833,285.5 117.5,271.5C 123.596,272.934 129.596,272.601 135.5,270.5 Z"/></g>
<g><path style="opacity:1" fill="#eaf2f1" d="M 278.5,272.5 C 277.4,273.605 276.733,274.938 276.5,276.5C 275.5,277.167 274.5,277.833 273.5,278.5C 271.421,278.971 269.421,279.637 267.5,280.5C 266.89,279.609 266.557,278.609 266.5,277.5C 268.63,275.873 270.63,274.04 272.5,272C 274.712,271.211 276.712,271.378 278.5,272.5 Z"/></g>
<g><path style="opacity:1" fill="#fbc52a" d="M 227.5,273.5 C 234.197,273.885 240.864,274.552 247.5,275.5C 247.427,277.027 248.094,278.027 249.5,278.5C 250.058,279.79 251.058,280.623 252.5,281C 256.409,282.355 260.409,283.355 264.5,284C 262.754,284.471 261.087,285.138 259.5,286C 260.416,286.278 261.082,286.778 261.5,287.5C 255.517,290.492 249.517,293.492 243.5,296.5C 237.282,294.195 230.949,292.695 224.5,292C 230.511,294.002 236.511,296.002 242.5,298C 240.45,299.332 238.45,299.498 236.5,298.5C 234.883,297.962 233.216,297.629 231.5,297.5C 225.961,295.48 220.461,293.146 215,290.5C 214.255,284.907 215.089,279.574 217.5,274.5C 220.807,273.949 224.14,273.616 227.5,273.5 Z"/></g>
<g><path style="opacity:1" fill="#454f52" d="M 261.5,277.5 C 261.565,277.938 261.399,278.272 261,278.5C 260.184,277.177 259.017,276.511 257.5,276.5C 256.102,274.467 254.102,273.467 251.5,273.5C 249.97,273.64 248.97,274.307 248.5,275.5C 249.11,276.391 249.443,277.391 249.5,278.5C 248.094,278.027 247.427,277.027 247.5,275.5C 247.33,274.178 247.663,273.011 248.5,272C 253.721,271.608 258.055,273.441 261.5,277.5 Z"/></g>
<g><path style="opacity:1" fill="#e6e4e0" d="M 257.5,276.5 C 254.455,276.492 251.455,276.159 248.5,275.5C 248.97,274.307 249.97,273.64 251.5,273.5C 254.102,273.467 256.102,274.467 257.5,276.5 Z"/></g>
<g><path style="opacity:1" fill="#daae33" d="M 248.5,275.5 C 251.455,276.159 254.455,276.492 257.5,276.5C 259.017,276.511 260.184,277.177 261,278.5C 261.399,278.272 261.565,277.938 261.5,277.5C 262.167,277.5 262.833,277.5 263.5,277.5C 264.5,277.5 265.5,277.5 266.5,277.5C 266.557,278.609 266.89,279.609 267.5,280.5C 261.652,281.433 255.652,280.766 249.5,278.5C 249.443,277.391 249.11,276.391 248.5,275.5 Z"/></g>
<g><path style="opacity:1" fill="#fbfbfb" d="M 90.5,296.5 C 87.1667,295.167 83.8333,293.833 80.5,292.5C 87.5223,285.999 95.1889,280.499 103.5,276C 98.7812,282.608 94.4478,289.441 90.5,296.5 Z"/></g>
<g><path style="opacity:1" fill="#fdfdfd" d="M 182.5,313.5 C 172.5,313.5 162.5,313.5 152.5,313.5C 144.76,300.956 137.426,288.623 130.5,276.5C 147.9,288.855 165.234,301.189 182.5,313.5 Z"/></g>
<g><path style="opacity:0.667" fill="#3f5e52" d="M 249.5,278.5 C 255.652,280.766 261.652,281.433 267.5,280.5C 269.421,279.637 271.421,278.971 273.5,278.5C 270.071,282.262 266.071,285.262 261.5,287.5C 261.082,286.778 260.416,286.278 259.5,286C 261.087,285.138 262.754,284.471 264.5,284C 260.409,283.355 256.409,282.355 252.5,281C 251.058,280.623 250.058,279.79 249.5,278.5 Z"/></g>
<g><path style="opacity:0.812" fill="#84a165" d="M 261.5,287.5 C 254.187,293.163 246.187,297.83 237.5,301.5C 236.893,301.376 236.56,301.043 236.5,300.5C 236.5,299.833 236.5,299.167 236.5,298.5C 238.45,299.498 240.45,299.332 242.5,298C 236.511,296.002 230.511,294.002 224.5,292C 230.949,292.695 237.282,294.195 243.5,296.5C 249.517,293.492 255.517,290.492 261.5,287.5 Z"/></g>
<g><path style="opacity:1" fill="#89234b" d="M 231.5,297.5 C 233.216,297.629 234.883,297.962 236.5,298.5C 236.5,299.167 236.5,299.833 236.5,300.5C 234.95,301.441 233.284,302.107 231.5,302.5C 231.5,300.833 231.5,299.167 231.5,297.5 Z"/></g>
<g><path style="opacity:0.906" fill="#7ac6c9" d="M 80.5,292.5 C 83.8333,293.833 87.1667,295.167 90.5,296.5C 91.5137,297.674 92.847,298.34 94.5,298.5C 97.8267,300.83 101.493,302.663 105.5,304C 114.797,307.38 124.13,310.214 133.5,312.5C 114.267,309.759 96.6008,303.092 80.5,292.5 Z"/></g>
<g><path style="opacity:1" fill="#91d5d8" d="M 231.5,303.5 C 219.466,308.845 206.8,312.345 193.5,314C 175.5,314.667 157.5,314.667 139.5,314C 137.292,313.809 135.292,313.309 133.5,312.5C 138.507,312.751 143.507,313.084 148.5,313.5C 149.833,313.5 151.167,313.5 152.5,313.5C 162.5,313.5 172.5,313.5 182.5,313.5C 183.833,313.5 185.167,313.5 186.5,313.5C 201.832,311.583 216.832,308.25 231.5,303.5 Z"/></g>
</svg>
