<?xml version="1.0" encoding="UTF-8"?>
<!DOCTYPE svg PUBLIC "-//W3C//DTD SVG 1.1//EN" "http://www.w3.org/Graphics/SVG/1.1/DTD/svg11.dtd">
<svg xmlns="http://www.w3.org/2000/svg" version="1.1" width="335px" height="324px" style="shape-rendering:geometricPrecision; text-rendering:geometricPrecision; image-rendering:optimizeQuality; fill-rule:evenodd; clip-rule:evenodd" xmlns:xlink="http://www.w3.org/1999/xlink">
<g><path style="opacity:0.996" fill="#e7e8ea" d="M 143.5,-0.5 C 159.167,-0.5 174.833,-0.5 190.5,-0.5C 214.287,2.54044 236.287,10.5404 256.5,23.5C 256.53,24.4972 256.03,25.1639 255,25.5C 239.189,22.0625 224.689,24.8959 211.5,34C 205.961,39.0435 200.294,43.8768 194.5,48.5C 190.512,51.0466 186.179,51.88 181.5,51C 177.362,48.6855 173.695,45.8521 170.5,42.5C 159.826,28.4435 145.826,22.9435 128.5,26C 121.16,29.3408 114.993,34.1741 110,40.5C 103.719,50.7277 98.219,61.3943 93.5,72.5C 93.0431,73.2975 92.3764,73.6309 91.5,73.5C 87.3279,72.2211 83.3279,70.5545 79.5,68.5C 78.5023,76.4723 78.169,84.4723 78.5,92.5C 70.4494,97.3138 63.2827,96.3138 57,89.5C 54.147,82.3979 51.147,75.3979 48,68.5C 44.6652,64.8822 40.4986,62.8822 35.5,62.5C 36.1272,61.5832 36.4606,60.5832 36.5,59.5C 54.6223,36.3967 77.6223,19.5634 105.5,9C 117.984,4.54564 130.651,1.37898 143.5,-0.5 Z"/></g>
<g><path style="opacity:1" fill="#ccd4e1" d="M 170.5,42.5 C 170.831,50.1955 170.497,57.8622 169.5,65.5C 168.833,65.1667 168.167,64.8333 167.5,64.5C 166.304,64.8457 166.304,65.3457 167.5,66C 161.509,66.4995 155.509,66.6662 149.5,66.5C 149.177,62.774 149.511,59.1073 150.5,55.5C 151.451,56.3256 152.451,56.4922 153.5,56C 151.658,54.6565 149.992,53.1565 148.5,51.5C 146.085,52.9187 145.919,54.5854 148,56.5C 148.167,62 148.333,67.5 148.5,73C 148.475,78.9114 147.808,84.5781 146.5,90C 147.815,97.2645 148.482,104.765 148.5,112.5C 148.482,120.235 147.815,127.735 146.5,135C 147.789,138.402 148.456,142.069 148.5,146C 148.456,149.931 147.789,153.598 146.5,157C 147.973,157.71 148.64,158.876 148.5,160.5C 147.876,162.754 146.543,164.421 144.5,165.5C 144.667,143.831 144.5,122.164 144,100.5C 126.361,91.598 108.861,82.598 91.5,73.5C 92.3764,73.6309 93.0431,73.2975 93.5,72.5C 98.219,61.3943 103.719,50.7277 110,40.5C 114.993,34.1741 121.16,29.3408 128.5,26C 145.826,22.9435 159.826,28.4435 170.5,42.5 Z"/></g>
<g><path style="opacity:0.998" fill="#ccd5e1" d="M 256.5,23.5 C 269.261,30.0333 280.261,38.7 289.5,49.5C 289.5,51.5 290.5,52.5 292.5,52.5C 293.925,53.922 294.925,55.5887 295.5,57.5C 296.242,59.3497 297.242,60.0164 298.5,59.5C 303.405,65.73 307.405,72.0633 310.5,78.5C 260.5,78.5 210.5,78.5 160.5,78.5C 160.5,82.1667 160.5,85.8333 160.5,89.5C 156.833,89.5 153.167,89.5 149.5,89.5C 149.5,82.5 149.5,75.5 149.5,68.5C 156.5,68.5 163.5,68.5 170.5,68.5C 170.5,71.5 170.5,74.5 170.5,77.5C 185.833,77.5 201.167,77.5 216.5,77.5C 216.34,75.8008 216.506,74.1341 217,72.5C 218.833,71.3333 220.667,70.1667 222.5,69C 234.83,69.7927 247.163,69.626 259.5,68.5C 259.183,71.5719 259.516,74.5719 260.5,77.5C 261.386,76.675 261.719,75.675 261.5,74.5C 281.489,74.3322 281.489,73.8322 261.5,73C 281.5,72 281.5,71 261.5,70C 266.489,69.5007 271.489,69.3341 276.5,69.5C 276.5,68.5 276.5,67.5 276.5,66.5C 271.5,66.5 266.5,66.5 261.5,66.5C 261.18,63.1016 261.513,59.7683 262.5,56.5C 266.195,57.2514 266.028,56.5848 262,54.5C 261.825,50.789 261.325,47.1224 260.5,43.5C 260.039,46.9551 259.039,50.1218 257.5,53C 258,53.5 258.5,54 259,54.5C 259.499,58.4862 259.666,62.4862 259.5,66.5C 252.5,66.5 245.5,66.5 238.5,66.5C 237.899,62.7102 238.899,59.5435 241.5,57C 240.551,56.3828 239.718,56.5494 239,57.5C 238.667,52.8333 238.333,48.1667 238,43.5C 237.667,48.5 237.333,53.5 237,58.5C 232.972,60.5848 232.805,61.2514 236.5,60.5C 237.466,62.396 237.799,64.396 237.5,66.5C 234.15,66.665 230.817,66.4983 227.5,66C 228.016,63.9672 227.35,63.9672 225.5,66C 222.518,66.498 219.518,66.6646 216.5,66.5C 216.5,65.5 216.5,64.5 216.5,63.5C 221.592,63.5032 221.592,62.6699 216.5,61C 225.615,59.4457 225.615,58.1124 216.5,57C 224.474,55.8488 224.474,55.0155 216.5,54.5C 216.5,53.1667 216.5,51.8333 216.5,50.5C 208.035,50.63 207.701,51.63 215.5,53.5C 212.833,54.8333 212.833,56.1667 215.5,57.5C 207.576,58.9623 207.576,60.1289 215.5,61C 207.526,62.1512 207.526,62.9845 215.5,63.5C 215.5,64.5 215.5,65.5 215.5,66.5C 208.5,66.5 201.5,66.5 194.5,66.5C 194.5,60.5 194.5,54.5 194.5,48.5C 200.294,43.8768 205.961,39.0435 211.5,34C 224.689,24.8959 239.189,22.0625 255,25.5C 256.03,25.1639 256.53,24.4972 256.5,23.5 Z"/></g>
<g><path style="opacity:0.005" fill="#000000" d="M 289.5,49.5 C 290.833,50.1667 291.833,51.1667 292.5,52.5C 290.5,52.5 289.5,51.5 289.5,49.5 Z"/></g>
<g><path style="opacity:0.007" fill="#292929" d="M 295.5,57.5 C 297.027,57.427 298.027,58.0937 298.5,59.5C 297.242,60.0164 296.242,59.3497 295.5,57.5 Z"/></g>
<g><path style="opacity:0.008" fill="#303030" d="M 34.5,61.5 C 34.573,63.0269 33.9063,64.0269 32.5,64.5C 32.427,62.9731 33.0937,61.9731 34.5,61.5 Z"/></g>
<g><path style="opacity:0.999" fill="#cbd4e0" d="M 36.5,59.5 C 36.4606,60.5832 36.1272,61.5832 35.5,62.5C 40.4986,62.8822 44.6652,64.8822 48,68.5C 51.147,75.3979 54.147,82.3979 57,89.5C 63.2827,96.3138 70.4494,97.3138 78.5,92.5C 78.5,96.8333 78.5,101.167 78.5,105.5C 58.9507,99.3886 39.6174,92.7219 20.5,85.5C 20.5,85.1667 20.5,84.8333 20.5,84.5C 21.6006,83.1516 22.6006,81.6516 23.5,80C 23.2716,79.6012 22.9382,79.4346 22.5,79.5C 22.5,79.1667 22.5,78.8333 22.5,78.5C 24.5311,77.4613 25.8645,75.7946 26.5,73.5C 28.3264,71.8525 29.6597,69.8525 30.5,67.5C 31.9063,67.0269 32.573,66.0269 32.5,64.5C 33.9063,64.0269 34.573,63.0269 34.5,61.5C 34.8333,60.5 35.5,59.8333 36.5,59.5 Z"/></g>
<g><path style="opacity:0.007" fill="#292929" d="M 32.5,64.5 C 32.573,66.0269 31.9063,67.0269 30.5,67.5C 30.2852,65.8212 30.9519,64.8212 32.5,64.5 Z"/></g>
<g><path style="opacity:0.075" fill="#4d4f4f" d="M 30.5,67.5 C 29.6597,69.8525 28.3264,71.8525 26.5,73.5C 26.8449,70.8021 28.1782,68.8021 30.5,67.5 Z"/></g>
<g><path style="opacity:1" fill="#831141" d="M 91.5,73.5 C 108.861,82.598 126.361,91.598 144,100.5C 144.5,122.164 144.667,143.831 144.5,165.5C 143.521,165.542 142.521,165.542 141.5,165.5C 142.374,167.747 142.708,170.08 142.5,172.5C 141.662,172.842 141.328,173.508 141.5,174.5C 139.75,175.659 138.75,177.326 138.5,179.5C 134.917,178.993 131.583,177.993 128.5,176.5C 128.351,175.448 128.517,174.448 129,173.5C 130,174.833 131,174.833 132,173.5C 133.049,169.867 133.882,166.201 134.5,162.5C 136.385,160.947 137.385,158.947 137.5,156.5C 132.724,155.964 127.724,155.797 122.5,156C 118.199,160.019 117.532,164.519 120.5,169.5C 120.5,170.167 120.5,170.833 120.5,171.5C 120.371,173.216 120.038,174.883 119.5,176.5C 114.247,177.754 111.58,181.087 111.5,186.5C 111.5,186.833 111.5,187.167 111.5,187.5C 110.5,187.5 109.5,187.5 108.5,187.5C 105.074,201.554 106.074,215.22 111.5,228.5C 100.546,230.684 89.5459,232.684 78.5,234.5C 78.5,230.5 78.5,226.5 78.5,222.5C 78.5,211.5 78.5,200.5 78.5,189.5C 78.5,187.167 78.5,184.833 78.5,182.5C 78.5,178.5 78.5,174.5 78.5,170.5C 78.2155,168.585 78.5489,166.919 79.5,165.5C 81.7925,165.756 83.9592,165.423 86,164.5C 87.8483,160.141 89.6817,155.808 91.5,151.5C 91.8333,151.5 92.1667,151.5 92.5,151.5C 100.591,154.235 105.258,151.402 106.5,143C 106.432,140.044 105.432,137.544 103.5,135.5C 102.198,133.178 100.198,131.845 97.5,131.5C 89.1484,132.867 86.4818,137.533 89.5,145.5C 89.1667,146.167 88.8333,146.833 88.5,147.5C 86.5305,149.647 84.6971,151.98 83,154.5C 81.2006,150.93 79.7006,147.263 78.5,143.5C 78.5,130.833 78.5,118.167 78.5,105.5C 78.5,101.167 78.5,96.8333 78.5,92.5C 78.169,84.4723 78.5023,76.4723 79.5,68.5C 83.3279,70.5545 87.3279,72.2211 91.5,73.5 Z"/></g>
<g><path style="opacity:0.007" fill="#131313" d="M 26.5,73.5 C 25.8645,75.7946 24.5311,77.4613 22.5,78.5C 23.0798,76.2512 24.4131,74.5846 26.5,73.5 Z"/></g>
<g><path style="opacity:1" fill="#1ec3cc" d="M 310.5,78.5 C 311.5,78.8333 312.167,79.5 312.5,80.5C 311.662,80.8417 311.328,81.5084 311.5,82.5C 309.167,82.5 306.833,82.5 304.5,82.5C 304.5,83.8333 304.5,85.1667 304.5,86.5C 307.713,86.81 310.713,86.4767 313.5,85.5C 314.167,85.5 314.833,85.5 315.5,85.5C 315.557,86.609 315.89,87.609 316.5,88.5C 315.957,88.56 315.624,88.8933 315.5,89.5C 317.12,92.4037 318.453,95.4037 319.5,98.5C 318.504,98.4142 317.671,98.7476 317,99.5C 316.5,111.495 316.333,123.495 316.5,135.5C 315.89,136.391 315.557,137.391 315.5,138.5C 313.847,138.66 312.514,139.326 311.5,140.5C 302.305,143.266 292.972,143.933 283.5,142.5C 283.167,141.833 282.833,141.167 282.5,140.5C 282.5,139.5 282.5,138.5 282.5,137.5C 283.496,137.586 284.329,137.252 285,136.5C 285.199,134.598 286.033,133.098 287.5,132C 286.619,131.292 285.953,130.458 285.5,129.5C 296.167,128.833 296.167,128.167 285.5,127.5C 285.5,126.833 285.167,126.5 284.5,126.5C 284.5,125.5 284.5,124.5 284.5,123.5C 279.712,123.704 275.046,123.704 270.5,123.5C 269.522,123.977 268.689,124.643 268,125.5C 267.814,128.036 267.314,130.369 266.5,132.5C 266.5,117.5 266.5,102.5 266.5,87.5C 236.329,87.1686 206.329,87.5019 176.5,88.5C 175.668,110.33 175.168,132.33 175,154.5C 172.025,157.48 169.859,160.98 168.5,165C 169.377,167.378 171.044,168.878 173.5,169.5C 175.921,169.878 178.254,170.545 180.5,171.5C 181.091,172.151 181.757,172.818 182.5,173.5C 181.754,174.736 181.421,176.07 181.5,177.5C 181.5,177.833 181.5,178.167 181.5,178.5C 181.5,178.833 181.5,179.167 181.5,179.5C 181.5,179.833 181.5,180.167 181.5,180.5C 174.578,180.812 167.744,180.479 161,179.5C 160.5,149.502 160.333,119.502 160.5,89.5C 160.5,85.8333 160.5,82.1667 160.5,78.5C 210.5,78.5 260.5,78.5 310.5,78.5 Z"/></g>
<g><path style="opacity:0.011" fill="#000000" d="M 22.5,79.5 C 22.9382,79.4346 23.2716,79.6012 23.5,80C 22.6006,81.6516 21.6006,83.1516 20.5,84.5C 20.5,83.8333 20.1667,83.5 19.5,83.5C 20.5116,82.1283 21.5116,80.795 22.5,79.5 Z"/></g>
<g><path style="opacity:1" fill="#e7e8ea" d="M 176.5,82.5 C 189.167,82.5 201.833,82.5 214.5,82.5C 214.5,83.8333 214.5,85.1667 214.5,86.5C 201.833,86.5 189.167,86.5 176.5,86.5C 176.5,85.1667 176.5,83.8333 176.5,82.5 Z"/></g>
<g><path style="opacity:1" fill="#dee6e9" d="M 311.5,82.5 C 312.401,83.2905 313.068,84.2905 313.5,85.5C 310.713,86.4767 307.713,86.81 304.5,86.5C 304.5,85.1667 304.5,83.8333 304.5,82.5C 306.833,82.5 309.167,82.5 311.5,82.5 Z"/></g>
<g><path style="opacity:0.008" fill="#545455" d="M 312.5,80.5 C 313.248,82.3325 314.248,83.9991 315.5,85.5C 314.833,85.5 314.167,85.5 313.5,85.5C 313.068,84.2905 312.401,83.2905 311.5,82.5C 311.328,81.5084 311.662,80.8417 312.5,80.5 Z"/></g>
<g><path style="opacity:1" fill="#25bbca" d="M 96.5,83.5 C 98.3017,90.2373 100.302,96.904 102.5,103.5C 101.833,103.5 101.167,103.5 100.5,103.5C 96.3457,97.8697 92.679,91.8697 89.5,85.5C 91.588,84.0605 93.9214,83.3939 96.5,83.5 Z"/></g>
<g><path style="opacity:1" fill="#4456ec" d="M 96.5,83.5 C 100.781,84.1361 104.781,85.6361 108.5,88C 109.252,88.6708 109.586,89.5041 109.5,90.5C 107.226,94.7136 105.226,99.0469 103.5,103.5C 103.167,103.5 102.833,103.5 102.5,103.5C 100.302,96.904 98.3017,90.2373 96.5,83.5 Z"/></g>
<g><path style="opacity:0.999" fill="#7997a3" d="M 20.5,85.5 C 39.6174,92.7219 58.9507,99.3886 78.5,105.5C 78.5,118.167 78.5,130.833 78.5,143.5C 77.5,143.167 76.8333,142.5 76.5,141.5C 76.5,133.5 76.5,125.5 76.5,117.5C 55.4774,112.607 34.4774,107.607 13.5,102.5C 14.2751,100.388 14.2751,98.3881 13.5,96.5C 13.5,96.1667 13.5,95.8333 13.5,95.5C 14.1174,95.6107 14.6174,95.944 15,96.5C 15.2784,95.5842 15.7784,94.9175 16.5,94.5C 18.5405,95.5192 20.5405,95.5192 22.5,94.5C 21.1502,93.0499 19.4835,92.3832 17.5,92.5C 17.7512,90.8297 18.4178,89.3297 19.5,88C 19.1667,87.6667 18.8333,87.3333 18.5,87C 19.4158,86.7216 20.0825,86.2216 20.5,85.5 Z"/></g>
<g><path style="opacity:1" fill="#cad1df" d="M 89.5,85.5 C 92.679,91.8697 96.3457,97.8697 100.5,103.5C 98.6576,107.452 99.8243,110.119 104,111.5C 105.301,111.361 106.134,110.695 106.5,109.5C 110.718,110.971 115.051,111.971 119.5,112.5C 119.367,124.468 113.367,129.968 101.5,129C 86.8433,122.193 80.6767,110.693 83,94.5C 84.2094,90.7244 86.376,87.7244 89.5,85.5 Z"/></g>
<g><path style="opacity:1" fill="#841040" d="M 176.5,88.5 C 206.167,88.5 235.833,88.5 265.5,88.5C 265.5,109.833 265.5,131.167 265.5,152.5C 244.993,152.17 224.66,152.503 204.5,153.5C 203.167,152.833 202.167,151.833 201.5,150.5C 202.791,150.737 203.791,150.404 204.5,149.5C 204.5,131.167 204.5,112.833 204.5,94.5C 202.052,93.5269 199.385,93.1936 196.5,93.5C 196.5,110.5 196.5,127.5 196.5,144.5C 195.833,144.5 195.5,144.167 195.5,143.5C 195.5,126.833 195.5,110.167 195.5,93.5C 192.615,93.1936 189.948,93.5269 187.5,94.5C 187.5,107.833 187.5,121.167 187.5,134.5C 183.896,137.469 183.562,140.802 186.5,144.5C 186.5,145.5 186.5,146.5 186.5,147.5C 184.901,147.232 183.568,147.566 182.5,148.5C 181.209,148.263 180.209,148.596 179.5,149.5C 178.542,149.953 177.708,150.619 177,151.5C 176.5,130.503 176.333,109.503 176.5,88.5 Z"/></g>
<g><path style="opacity:1" fill="#584f71" d="M 176.5,88.5 C 206.329,87.5019 236.329,87.1686 266.5,87.5C 266.5,102.5 266.5,117.5 266.5,132.5C 266.5,133.5 266.5,134.5 266.5,135.5C 266.5,141.5 266.5,147.5 266.5,153.5C 245.833,153.5 225.167,153.5 204.5,153.5C 224.66,152.503 244.993,152.17 265.5,152.5C 265.5,131.167 265.5,109.833 265.5,88.5C 235.833,88.5 206.167,88.5 176.5,88.5 Z"/></g>
<g><path style="opacity:1" fill="#367992" d="M 272.5,87.5 C 276.555,87.1758 280.555,87.5091 284.5,88.5C 282.5,88.8333 280.5,89.1667 278.5,89.5C 276.048,89.4609 274.048,88.7943 272.5,87.5 Z"/></g>
<g><path style="opacity:0.004" fill="#454545" d="M 19.5,83.5 C 20.1667,83.5 20.5,83.8333 20.5,84.5C 20.5,84.8333 20.5,85.1667 20.5,85.5C 20.0825,86.2216 19.4158,86.7216 18.5,87C 18.8333,87.3333 19.1667,87.6667 19.5,88C 18.4178,89.3297 17.7512,90.8297 17.5,92.5C 16.6618,92.8417 16.3284,93.5084 16.5,94.5C 15.7784,94.9175 15.2784,95.5842 15,96.5C 14.6174,95.944 14.1174,95.6107 13.5,95.5C 15.0875,91.2595 17.0875,87.2595 19.5,83.5 Z"/></g>
<g><path style="opacity:1" fill="#e4e4e8" d="M 109.5,90.5 C 116.462,96.0033 119.795,103.337 119.5,112.5C 115.051,111.971 110.718,110.971 106.5,109.5C 106.975,106.687 105.975,104.687 103.5,103.5C 105.226,99.0469 107.226,94.7136 109.5,90.5 Z"/></g>
<g><path style="opacity:1" fill="#811945" d="M 17.5,92.5 C 19.4835,92.3832 21.1502,93.0499 22.5,94.5C 20.5405,95.5192 18.5405,95.5192 16.5,94.5C 16.3284,93.5084 16.6618,92.8417 17.5,92.5 Z"/></g>
<g><path style="opacity:1" fill="#e2e8ea" d="M 187.5,94.5 C 189.833,94.5 192.167,94.5 194.5,94.5C 194.5,101.5 194.5,108.5 194.5,115.5C 192.977,113.49 191.144,113.156 189,114.5C 188.5,121.158 188.334,127.825 188.5,134.5C 188.167,134.5 187.833,134.5 187.5,134.5C 187.5,121.167 187.5,107.833 187.5,94.5 Z"/></g>
<g><path style="opacity:1" fill="#b57d96" d="M 187.5,94.5 C 189.948,93.5269 192.615,93.1936 195.5,93.5C 195.5,110.167 195.5,126.833 195.5,143.5C 194.691,141.972 194.024,140.306 193.5,138.5C 194.11,137.609 194.443,136.609 194.5,135.5C 194.5,128.833 194.5,122.167 194.5,115.5C 194.5,108.5 194.5,101.5 194.5,94.5C 192.167,94.5 189.833,94.5 187.5,94.5 Z"/></g>
<g><path style="opacity:1" fill="#ad6987" d="M 204.5,94.5 C 202.167,94.5 199.833,94.5 197.5,94.5C 197.5,99.1667 197.5,103.833 197.5,108.5C 197.5,120.833 197.5,133.167 197.5,145.5C 196.833,145.5 196.5,145.167 196.5,144.5C 196.5,127.5 196.5,110.5 196.5,93.5C 199.385,93.1936 202.052,93.5269 204.5,94.5 Z"/></g>
<g><path style="opacity:1" fill="#d7e6e8" d="M 204.5,94.5 C 204.5,112.833 204.5,131.167 204.5,149.5C 203.669,135.673 203.169,121.673 203,107.5C 200.924,106.243 199.09,106.576 197.5,108.5C 197.5,103.833 197.5,99.1667 197.5,94.5C 199.833,94.5 202.167,94.5 204.5,94.5 Z"/></g>
<g><path style="opacity:1" fill="#c69fb1" d="M 214.5,94.5 C 212.167,94.5 209.833,94.5 207.5,94.5C 207.5,104.5 207.5,114.5 207.5,124.5C 207.5,133.167 207.5,141.833 207.5,150.5C 206.503,131.674 206.17,112.674 206.5,93.5C 209.385,93.1936 212.052,93.5269 214.5,94.5 Z"/></g>
<g><path style="opacity:1" fill="#e4e3e6" d="M 214.5,94.5 C 214.83,113.341 214.497,132.007 213.5,150.5C 213.666,141.827 213.5,133.16 213,124.5C 211.172,123.248 209.339,123.248 207.5,124.5C 207.5,114.5 207.5,104.5 207.5,94.5C 209.833,94.5 212.167,94.5 214.5,94.5 Z"/></g>
<g><path style="opacity:1" fill="#e3e7ea" d="M 216.5,94.5 C 218.833,94.5 221.167,94.5 223.5,94.5C 223.5,97.5 223.5,100.5 223.5,103.5C 221.661,102.248 219.828,102.248 218,103.5C 217.5,119.163 217.333,134.83 217.5,150.5C 216.503,132.007 216.17,113.341 216.5,94.5 Z"/></g>
<g><path style="opacity:1" fill="#c094a8" d="M 216.5,94.5 C 218.948,93.5269 221.615,93.1936 224.5,93.5C 224.83,112.674 224.497,131.674 223.5,150.5C 223.5,134.833 223.5,119.167 223.5,103.5C 223.5,100.5 223.5,97.5 223.5,94.5C 221.167,94.5 218.833,94.5 216.5,94.5 Z"/></g>
<g><path style="opacity:1" fill="#a65a7b" d="M 233.5,150.5 C 233.5,138.833 233.5,127.167 233.5,115.5C 233.5,108.5 233.5,101.5 233.5,94.5C 231.167,94.5 228.833,94.5 226.5,94.5C 226.5,101.5 226.5,108.5 226.5,115.5C 226.5,127.167 226.5,138.833 226.5,150.5C 225.503,131.674 225.17,112.674 225.5,93.5C 228.5,93.5 231.5,93.5 234.5,93.5C 234.83,112.674 234.497,131.674 233.5,150.5 Z"/></g>
<g><path style="opacity:1" fill="#e7e8ea" d="M 233.5,115.5 C 231.167,112.833 228.833,112.833 226.5,115.5C 226.5,108.5 226.5,101.5 226.5,94.5C 228.833,94.5 231.167,94.5 233.5,94.5C 233.5,101.5 233.5,108.5 233.5,115.5 Z"/></g>
<g><path style="opacity:1" fill="#bb879e" d="M 243.5,94.5 C 241.167,94.5 238.833,94.5 236.5,94.5C 236.5,104.167 236.5,113.833 236.5,123.5C 236.5,132.5 236.5,141.5 236.5,150.5C 235.503,131.674 235.17,112.674 235.5,93.5C 238.385,93.1936 241.052,93.5269 243.5,94.5 Z"/></g>
<g><path style="opacity:1" fill="#e3e8ea" d="M 243.5,94.5 C 243.83,113.341 243.497,132.007 242.5,150.5C 242.666,141.494 242.5,132.494 242,123.5C 240.172,122.248 238.339,122.248 236.5,123.5C 236.5,113.833 236.5,104.167 236.5,94.5C 238.833,94.5 241.167,94.5 243.5,94.5 Z"/></g>
<g><path style="opacity:1" fill="#e3e3e6" d="M 245.5,94.5 C 247.833,94.5 250.167,94.5 252.5,94.5C 252.5,101.167 252.5,107.833 252.5,114.5C 250.661,113.248 248.828,113.248 247,114.5C 246.5,126.495 246.333,138.495 246.5,150.5C 245.503,132.007 245.17,113.341 245.5,94.5 Z"/></g>
<g><path style="opacity:1" fill="#ccacbb" d="M 245.5,94.5 C 247.948,93.5269 250.615,93.1936 253.5,93.5C 253.83,112.674 253.497,131.674 252.5,150.5C 252.5,138.5 252.5,126.5 252.5,114.5C 252.5,107.833 252.5,101.167 252.5,94.5C 250.167,94.5 247.833,94.5 245.5,94.5 Z"/></g>
<g><path style="opacity:1" fill="#d1d9e4" d="M 170.5,42.5 C 173.695,45.8521 177.362,48.6855 181.5,51C 186.179,51.88 190.512,51.0466 194.5,48.5C 194.5,54.5 194.5,60.5 194.5,66.5C 201.5,66.5 208.5,66.5 215.5,66.5C 215.5,65.5 215.5,64.5 215.5,63.5C 207.526,62.9845 207.526,62.1512 215.5,61C 207.576,60.1289 207.576,58.9623 215.5,57.5C 212.833,56.1667 212.833,54.8333 215.5,53.5C 207.701,51.63 208.035,50.63 216.5,50.5C 216.5,51.8333 216.5,53.1667 216.5,54.5C 224.474,55.0155 224.474,55.8488 216.5,57C 225.615,58.1124 225.615,59.4457 216.5,61C 221.592,62.6699 221.592,63.5032 216.5,63.5C 216.5,64.5 216.5,65.5 216.5,66.5C 219.518,66.6646 222.518,66.498 225.5,66C 227.35,63.9672 228.016,63.9672 227.5,66C 230.817,66.4983 234.15,66.665 237.5,66.5C 237.799,64.396 237.466,62.396 236.5,60.5C 232.805,61.2514 232.972,60.5848 237,58.5C 237.333,53.5 237.667,48.5 238,43.5C 238.333,48.1667 238.667,52.8333 239,57.5C 239.718,56.5494 240.551,56.3828 241.5,57C 238.899,59.5435 237.899,62.7102 238.5,66.5C 245.5,66.5 252.5,66.5 259.5,66.5C 259.666,62.4862 259.499,58.4862 259,54.5C 258.5,54 258,53.5 257.5,53C 259.039,50.1218 260.039,46.9551 260.5,43.5C 261.325,47.1224 261.825,50.789 262,54.5C 266.028,56.5848 266.195,57.2514 262.5,56.5C 261.513,59.7683 261.18,63.1016 261.5,66.5C 266.5,66.5 271.5,66.5 276.5,66.5C 276.5,67.5 276.5,68.5 276.5,69.5C 271.489,69.3341 266.489,69.5007 261.5,70C 281.5,71 281.5,72 261.5,73C 281.489,73.8322 281.489,74.3322 261.5,74.5C 261.719,75.675 261.386,76.675 260.5,77.5C 259.516,74.5719 259.183,71.5719 259.5,68.5C 247.163,69.626 234.83,69.7927 222.5,69C 220.667,70.1667 218.833,71.3333 217,72.5C 216.506,74.1341 216.34,75.8008 216.5,77.5C 201.167,77.5 185.833,77.5 170.5,77.5C 170.5,74.5 170.5,71.5 170.5,68.5C 163.5,68.5 156.5,68.5 149.5,68.5C 149.5,75.5 149.5,82.5 149.5,89.5C 153.167,89.5 156.833,89.5 160.5,89.5C 160.333,119.502 160.5,149.502 161,179.5C 167.744,180.479 174.578,180.812 181.5,180.5C 182.451,196.48 182.284,212.48 181,228.5C 180.768,229.737 180.268,230.737 179.5,231.5C 178.708,227.165 177.374,222.998 175.5,219C 168.127,215.079 160.461,212.913 152.5,212.5C 146.569,207.881 142.569,201.881 140.5,194.5C 140.957,193.702 141.624,193.369 142.5,193.5C 143.509,200.395 144.176,200.728 144.5,194.5C 147.799,195.376 151.132,195.543 154.5,195C 158.5,192 158.5,189 154.5,186C 152.182,184.007 149.516,182.841 146.5,182.5C 145.722,181.844 145.056,181.011 144.5,180C 145.148,178.56 145.481,177.06 145.5,175.5C 146.338,175.158 146.672,174.492 146.5,173.5C 148.327,170.526 150.993,168.359 154.5,167C 152.109,166.309 152.109,165.309 154.5,164C 154.167,163.833 153.833,163.667 153.5,163.5C 149.802,166.328 149.135,165.995 151.5,162.5C 150.218,162.912 149.218,162.246 148.5,160.5C 148.64,158.876 147.973,157.71 146.5,157C 147.789,153.598 148.456,149.931 148.5,146C 148.456,142.069 147.789,138.402 146.5,135C 147.815,127.735 148.482,120.235 148.5,112.5C 148.482,104.765 147.815,97.2645 146.5,90C 147.808,84.5781 148.475,78.9114 148.5,73C 148.333,67.5 148.167,62 148,56.5C 145.919,54.5854 146.085,52.9187 148.5,51.5C 149.992,53.1565 151.658,54.6565 153.5,56C 152.451,56.4922 151.451,56.3256 150.5,55.5C 149.511,59.1073 149.177,62.774 149.5,66.5C 155.509,66.6662 161.509,66.4995 167.5,66C 166.304,65.3457 166.304,64.8457 167.5,64.5C 168.167,64.8333 168.833,65.1667 169.5,65.5C 170.497,57.8622 170.831,50.1955 170.5,42.5 Z"/></g>
<g><path style="opacity:1" fill="#316ea3" d="M 176.5,88.5 C 176.333,109.503 176.5,130.503 177,151.5C 177.708,150.619 178.542,149.953 179.5,149.5C 181.831,149.859 181.665,150.526 179,151.5C 176.706,156.579 173.539,161.079 169.5,165C 171.518,165.505 173.518,166.005 175.5,166.5C 174.833,167.5 174.167,168.5 173.5,169.5C 171.044,168.878 169.377,167.378 168.5,165C 169.859,160.98 172.025,157.48 175,154.5C 175.168,132.33 175.668,110.33 176.5,88.5 Z"/></g>
<g><path style="opacity:0.008" fill="#a8a8a8" d="M 10.5,219.5 C 11.9063,219.973 12.573,220.973 12.5,222.5C 11.0937,222.027 10.427,221.027 10.5,219.5 Z"/></g>
<g><path style="opacity:0.004" fill="#fefffe" d="M 21.5,242.5 C 22.9063,242.973 23.573,243.973 23.5,245.5C 22.0937,245.027 21.427,244.027 21.5,242.5 Z"/></g>
<g><path style="opacity:0.131" fill="#141414" d="M 316.5,88.5 C 323.993,102.705 329.327,117.705 332.5,133.5C 332.291,134.086 331.957,134.586 331.5,135C 332.06,139.602 333.06,144.102 334.5,148.5C 334.5,148.833 334.5,149.167 334.5,149.5C 333.167,150.167 333.167,150.833 334.5,151.5C 334.5,153.833 334.5,156.167 334.5,158.5C 333.167,158.833 333.167,159.167 334.5,159.5C 334.5,162.5 334.5,165.5 334.5,168.5C 333.167,169.167 333.167,169.833 334.5,170.5C 334.5,170.833 334.5,171.167 334.5,171.5C 326.685,240.12 291.018,287.62 227.5,314C 211.094,319.413 193.427,322.579 174.5,323.5C 173.5,323.5 172.5,323.5 171.5,323.5C 171.167,322.167 170.833,322.167 170.5,323.5C 170.167,323.5 169.833,323.5 169.5,323.5C 168.5,322.167 167.5,322.167 166.5,323.5C 165.833,323.5 165.167,323.5 164.5,323.5C 164.167,322.167 163.833,322.167 163.5,323.5C 162.5,323.5 161.5,323.5 160.5,323.5C 159.5,322.167 158.5,322.167 157.5,323.5C 157.167,323.5 156.833,323.5 156.5,323.5C 155.833,322.167 155.167,322.167 154.5,323.5C 154.167,323.5 153.833,323.5 153.5,323.5C 99.5548,319.592 57.2215,295.258 26.5,250.5C 27.3888,248.975 26.7221,247.975 24.5,247.5C 24.1667,246.833 23.8333,246.167 23.5,245.5C 23.573,243.973 22.9063,242.973 21.5,242.5C 19.5981,240.038 17.9314,237.538 16.5,235C 16.8333,234.667 17.1667,234.333 17.5,234C 14.603,230.706 12.9363,226.872 12.5,222.5C 12.573,220.973 11.9063,219.973 10.5,219.5C 8.072,212.848 5.73867,205.681 3.5,198C 3.83333,197.667 4.16667,197.333 4.5,197C 2.66294,189.45 0.996272,181.95 -0.5,174.5C -0.5,174.167 -0.5,173.833 -0.5,173.5C 0.833333,172.5 0.833333,171.5 -0.5,170.5C -0.5,170.167 -0.5,169.833 -0.5,169.5C 0.833333,168.167 0.833333,166.833 -0.5,165.5C -0.5,165.167 -0.5,164.833 -0.5,164.5C 0.833333,164.167 0.833333,163.833 -0.5,163.5C -0.5,163.167 -0.5,162.833 -0.5,162.5C 0.833333,162.167 0.833333,161.833 -0.5,161.5C -0.5,160.167 -0.5,158.833 -0.5,157.5C 0.833333,157.167 0.833333,156.833 -0.5,156.5C -0.5,156.167 -0.5,155.833 -0.5,155.5C 0.833333,154.833 0.833333,154.167 -0.5,153.5C -0.5,153.167 -0.5,152.833 -0.5,152.5C 0.833333,151.833 0.833333,151.167 -0.5,150.5C -0.5,150.167 -0.5,149.833 -0.5,149.5C 1.38126,131.092 6.04793,113.425 13.5,96.5C 14.2751,98.3881 14.2751,100.388 13.5,102.5C 11.2616,106.539 9.5949,110.872 8.5,115.5C 8.5,116.167 8.5,116.833 8.5,117.5C 7.59603,118.209 7.26269,119.209 7.5,120.5C 6.07043,125.743 5.07043,131.076 4.5,136.5C 3.18646,149.84 3.18646,163.173 4.5,176.5C 5.43428,187.174 7.76761,197.508 11.5,207.5C 11.7959,209.403 12.4625,211.07 13.5,212.5C 14.2635,216.137 15.5968,219.47 17.5,222.5C 19.0741,227.32 21.4074,231.653 24.5,235.5C 31.4191,249.318 40.7524,261.318 52.5,271.5C 84.1351,302.055 122.135,316.722 166.5,315.5C 210.122,316.856 247.788,302.856 279.5,273.5C 285.87,268.131 291.537,262.131 296.5,255.5C 304.748,245.557 311.414,234.557 316.5,222.5C 322.617,209.478 326.951,195.811 329.5,181.5C 330.535,174.437 330.535,167.437 329.5,160.5C 330.833,153.5 330.833,146.5 329.5,139.5C 329.5,138.167 329.5,136.833 329.5,135.5C 328.5,126.813 326.5,118.479 323.5,110.5C 322.762,106.285 321.428,102.285 319.5,98.5C 318.453,95.4037 317.12,92.4037 315.5,89.5C 315.624,88.8933 315.957,88.56 316.5,88.5 Z"/></g>
<g><path style="opacity:1" fill="#fbfbfb" d="M 75.5,218.5 C 75.5,219.833 75.5,221.167 75.5,222.5C 76.5,222.5 77.5,222.5 78.5,222.5C 78.5,226.5 78.5,230.5 78.5,234.5C 89.5459,232.684 100.546,230.684 111.5,228.5C 114.5,228.5 117.5,228.5 120.5,228.5C 120.611,229.117 120.944,229.617 121.5,230C 126.823,230.499 132.156,230.666 137.5,230.5C 136.978,237.826 136.478,245.159 136,252.5C 134.989,253.337 133.822,253.67 132.5,253.5C 115.474,252.834 98.4739,253.501 81.5,255.5C 80.8333,255.5 80.1667,255.5 79.5,255.5C 77.832,253.66 76.332,251.66 75,249.5C 74.1748,238.992 74.3415,228.658 75.5,218.5 Z"/></g>
<g><path style="opacity:1" fill="#f2f2f3" d="M 290.5,222.5 C 299.167,222.5 307.833,222.5 316.5,222.5C 311.414,234.557 304.748,245.557 296.5,255.5C 287.215,255.011 277.881,253.844 268.5,252C 266.875,251.147 266.542,250.147 267.5,249C 272.122,247.844 276.789,247.01 281.5,246.5C 281.5,247.5 281.5,248.5 281.5,249.5C 280.226,250.189 280.226,251.023 281.5,252C 284.5,252.5 287.5,253 290.5,253.5C 295.786,252.545 295.786,251.545 290.5,250.5C 290.5,250.167 290.5,249.833 290.5,249.5C 292.857,249.663 295.19,249.497 297.5,249C 296.756,247.961 295.756,247.461 294.5,247.5C 293.152,246.399 291.652,245.399 290,244.5C 289.479,237.152 289.645,229.819 290.5,222.5 Z"/></g>
<g><path style="opacity:1" fill="#e7e6e8" d="M 17.5,222.5 C 30.8333,222.5 44.1667,222.5 57.5,222.5C 58.4767,225.287 58.81,228.287 58.5,231.5C 57.8347,229.302 57.1681,226.969 56.5,224.5C 45.7308,228.183 35.0641,231.85 24.5,235.5C 21.4074,231.653 19.0741,227.32 17.5,222.5 Z"/></g>
<g><path style="opacity:1" fill="#f99386" d="M 57.5,218.5 C 60.8333,218.5 64.1667,218.5 67.5,218.5C 67.5628,223.203 67.2295,227.87 66.5,232.5C 65.6682,240.805 65.3348,249.138 65.5,257.5C 64.4379,261.353 62.1045,262.353 58.5,260.5C 59.9672,257.022 60.6339,253.355 60.5,249.5C 60.113,243.46 59.4464,237.46 58.5,231.5C 58.81,228.287 58.4767,225.287 57.5,222.5C 57.5,221.167 57.5,219.833 57.5,218.5 Z"/></g>
<g><path style="opacity:1" fill="#f89083" d="M 75.5,216.5 C 75.5,217.167 75.5,217.833 75.5,218.5C 74.3415,228.658 74.1748,238.992 75,249.5C 76.332,251.66 77.832,253.66 79.5,255.5C 76.4493,256.832 73.4493,256.499 70.5,254.5C 70.9337,247.579 69.9337,240.913 67.5,234.5C 68.3272,230.637 69.1606,226.637 70,222.5C 71.331,220.004 73.1644,218.004 75.5,216.5 Z"/></g>
<g><path style="opacity:1" fill="#29212c" d="M 75.5,214.5 C 75.5,215.167 75.5,215.833 75.5,216.5C 73.1644,218.004 71.331,220.004 70,222.5C 69.1606,226.637 68.3272,230.637 67.5,234.5C 67.6716,233.508 67.3382,232.842 66.5,232.5C 67.2295,227.87 67.5628,223.203 67.5,218.5C 64.1667,218.5 60.8333,218.5 57.5,218.5C 57.5,218.167 57.5,217.833 57.5,217.5C 63.6382,217.272 69.6382,216.272 75.5,214.5 Z"/></g>
<g><path style="opacity:1" fill="#f78f83" d="M 287.5,224.5 C 286.22,231.649 285.72,238.983 286,246.5C 286.9,239.164 287.733,231.831 288.5,224.5C 288.952,220.837 289.452,217.17 290,213.5C 290.383,212.944 290.883,212.611 291.5,212.5C 291.167,215.833 290.833,219.167 290.5,222.5C 289.645,229.819 289.479,237.152 290,244.5C 291.652,245.399 293.152,246.399 294.5,247.5C 292.586,248.185 290.586,248.685 288.5,249C 289.094,249.464 289.761,249.631 290.5,249.5C 290.5,249.833 290.5,250.167 290.5,250.5C 288.034,251.634 285.367,251.801 282.5,251C 281.944,250.617 281.611,250.117 281.5,249.5C 281.5,248.5 281.5,247.5 281.5,246.5C 280.502,238.506 279.502,230.506 278.5,222.5C 278.5,219.5 278.5,216.5 278.5,213.5C 281.779,212.508 285.112,212.341 288.5,213C 287.54,216.73 287.207,220.563 287.5,224.5 Z"/></g>
<g><path style="opacity:1" fill="#955350" d="M 287.5,224.5 C 287.833,224.5 288.167,224.5 288.5,224.5C 287.733,231.831 286.9,239.164 286,246.5C 285.72,238.983 286.22,231.649 287.5,224.5 Z"/></g>
<g><path style="opacity:1" fill="#2b3774" d="M 179.5,231.5 C 179.557,232.609 179.89,233.609 180.5,234.5C 180.5,235.167 180.833,235.5 181.5,235.5C 182.207,241.661 183.541,247.661 185.5,253.5C 184.766,254.708 184.433,256.041 184.5,257.5C 187.126,258.422 189.793,259.422 192.5,260.5C 193.386,261.325 193.719,262.325 193.5,263.5C 188.167,263.5 182.833,263.5 177.5,263.5C 177.292,261.08 177.626,258.747 178.5,256.5C 177.066,255.77 175.9,254.77 175,253.5C 173.227,247.287 170.894,241.287 168,235.5C 167.821,232.447 167.321,229.447 166.5,226.5C 165.675,236.484 165.675,246.484 166.5,256.5C 167.552,256.351 168.552,256.517 169.5,257C 171.398,258.417 173.064,259.917 174.5,261.5C 171.5,261.5 168.5,261.5 165.5,261.5C 165.14,257.642 162.973,255.642 159,255.5C 158.817,252.635 158.317,249.969 157.5,247.5C 155.507,241.626 156.173,236.126 159.5,231C 161.025,229.991 162.692,229.491 164.5,229.5C 164.715,227.821 164.048,226.821 162.5,226.5C 156.915,225.712 151.248,225.212 145.5,225C 144.944,224.617 144.611,224.117 144.5,223.5C 148.707,220.959 151.373,217.292 152.5,212.5C 160.461,212.913 168.127,215.079 175.5,219C 177.374,222.998 178.708,227.165 179.5,231.5 Z"/></g>
<g><path style="opacity:1" fill="#4b3032" d="M 278.5,211.5 C 282.833,211.5 287.167,211.5 291.5,211.5C 291.5,211.833 291.5,212.167 291.5,212.5C 290.883,212.611 290.383,212.944 290,213.5C 289.452,217.17 288.952,220.837 288.5,224.5C 288.167,224.5 287.833,224.5 287.5,224.5C 287.207,220.563 287.54,216.73 288.5,213C 285.112,212.341 281.779,212.508 278.5,213.5C 278.5,212.833 278.5,212.167 278.5,211.5 Z"/></g>
<g><path style="opacity:1" fill="#b5bbcb" d="M 77.5,189.5 C 77.8333,189.5 78.1667,189.5 78.5,189.5C 78.5,200.5 78.5,211.5 78.5,222.5C 77.5,222.5 76.5,222.5 75.5,222.5C 75.5,221.167 75.5,219.833 75.5,218.5C 75.5,217.833 75.5,217.167 75.5,216.5C 75.5,215.833 75.5,215.167 75.5,214.5C 76.1174,214.389 76.6174,214.056 77,213.5C 77.4997,206.174 77.6663,198.841 77.5,191.5C 77.5,190.833 77.5,190.167 77.5,189.5 Z"/></g>
<g><path style="opacity:1" fill="#c9d2df" d="M 55.5,204.5 C 57.1773,208.545 57.8439,212.878 57.5,217.5C 57.5,217.833 57.5,218.167 57.5,218.5C 57.5,219.833 57.5,221.167 57.5,222.5C 44.1667,222.5 30.8333,222.5 17.5,222.5C 15.5968,219.47 14.2635,216.137 13.5,212.5C 27.5707,210.219 41.5707,207.553 55.5,204.5 Z"/></g>
<g><path style="opacity:1" fill="#2e3775" d="M 132.5,195.5 C 134.224,199.142 136.058,202.808 138,206.5C 141.038,209.203 143.705,212.203 146,215.5C 146.838,218.481 146.005,220.814 143.5,222.5C 137.936,214.359 134.269,205.359 132.5,195.5 Z"/></g>
<g><path style="opacity:1" fill="#851544" d="M 142.5,193.5 C 142.833,193.5 143.167,193.5 143.5,193.5C 144.167,193.5 144.5,193.833 144.5,194.5C 144.176,200.728 143.509,200.395 142.5,193.5 Z"/></g>
<g><path style="opacity:1" fill="#293473" d="M 77.5,191.5 C 77.6663,198.841 77.4997,206.174 77,213.5C 76.6174,214.056 76.1174,214.389 75.5,214.5C 69.6382,216.272 63.6382,217.272 57.5,217.5C 57.8439,212.878 57.1773,208.545 55.5,204.5C 54.8333,200.5 54.1667,196.5 53.5,192.5C 61.5246,192.61 69.5246,192.276 77.5,191.5 Z"/></g>
<g><path style="opacity:1" fill="#141722" d="M 64.5,189.5 C 68.8333,189.5 73.1667,189.5 77.5,189.5C 77.5,190.167 77.5,190.833 77.5,191.5C 69.5246,192.276 61.5246,192.61 53.5,192.5C 56.8909,190.875 60.5575,189.875 64.5,189.5 Z"/></g>
<g><path style="opacity:1" fill="#da7851" d="M 111.5,187.5 C 116.43,187.034 121.097,187.701 125.5,189.5C 124.34,187.797 125.007,187.131 127.5,187.5C 128.496,187.414 129.329,187.748 130,188.5C 130.991,190.808 131.824,193.141 132.5,195.5C 134.269,205.359 137.936,214.359 143.5,222.5C 143.5,223.167 143.833,223.5 144.5,223.5C 144.611,224.117 144.944,224.617 145.5,225C 151.248,225.212 156.915,225.712 162.5,226.5C 148.873,228.482 134.873,229.149 120.5,228.5C 117.5,228.5 114.5,228.5 111.5,228.5C 106.074,215.22 105.074,201.554 108.5,187.5C 109.5,187.5 110.5,187.5 111.5,187.5 Z"/></g>
<g><path style="opacity:1" fill="#8d5a60" d="M 128.5,197.5 C 129.933,199.914 130.433,202.581 130,205.5C 128.921,202.937 128.421,200.271 128.5,197.5 Z"/></g>
<g><path style="opacity:1" fill="#8d5a60" d="M 125.5,189.5 C 127.655,191.617 128.655,194.284 128.5,197.5C 127.129,195.064 126.129,192.397 125.5,189.5 Z"/></g>
<g><path style="opacity:1" fill="#9b6361" d="M 111.5,187.5 C 111.5,187.167 111.5,186.833 111.5,186.5C 117.026,186.179 122.36,186.512 127.5,187.5C 125.007,187.131 124.34,187.797 125.5,189.5C 121.097,187.701 116.43,187.034 111.5,187.5 Z"/></g>
<g><path style="opacity:1" fill="#f49288" d="M 146.5,182.5 C 149.516,182.841 152.182,184.007 154.5,186C 158.5,189 158.5,192 154.5,195C 151.132,195.543 147.799,195.376 144.5,194.5C 144.5,193.833 144.167,193.5 143.5,193.5C 145.511,190.131 146.511,186.464 146.5,182.5 Z"/></g>
<g><path style="opacity:1" fill="#cbd3e0" d="M 325.5,179.5 C 326.833,180.167 328.167,180.833 329.5,181.5C 326.951,195.811 322.617,209.478 316.5,222.5C 307.833,222.5 299.167,222.5 290.5,222.5C 290.833,219.167 291.167,215.833 291.5,212.5C 291.5,212.167 291.5,211.833 291.5,211.5C 292.5,211.5 293.5,211.5 294.5,211.5C 294.5,201.167 294.5,190.833 294.5,180.5C 305.014,180.828 315.347,180.494 325.5,179.5 Z"/></g>
<g><path style="opacity:1" fill="#cbd4e1" d="M 199.5,180.5 C 224.167,180.5 248.833,180.5 273.5,180.5C 273.547,191.353 275.213,201.687 278.5,211.5C 278.5,212.167 278.5,212.833 278.5,213.5C 278.5,216.5 278.5,219.5 278.5,222.5C 253.167,222.5 227.833,222.5 202.5,222.5C 202.827,212.985 202.494,203.652 201.5,194.5C 201.221,189.773 200.554,185.107 199.5,180.5 Z"/></g>
<g><path style="opacity:1" fill="#2c3b7a" d="M 196.5,180.5 C 197.209,179.596 198.209,179.263 199.5,179.5C 199.5,179.833 199.5,180.167 199.5,180.5C 200.554,185.107 201.221,189.773 201.5,194.5C 201.832,206.851 201.499,219.185 200.5,231.5C 200.167,231.333 199.833,231.167 199.5,231C 201.101,214.488 200.601,197.988 198,181.5C 197.617,180.944 197.117,180.611 196.5,180.5 Z"/></g>
<g><path style="opacity:1" fill="#3169ac" d="M 181.5,179.5 C 186.453,180.329 191.453,180.663 196.5,180.5C 197.117,180.611 197.617,180.944 198,181.5C 200.601,197.988 201.101,214.488 199.5,231C 199.833,231.167 200.167,231.333 200.5,231.5C 201.499,219.185 201.832,206.851 201.5,194.5C 202.494,203.652 202.827,212.985 202.5,222.5C 202.5,226.167 202.5,229.833 202.5,233.5C 200.833,233.5 199.167,233.5 197.5,233.5C 195.701,230.276 194.701,226.61 194.5,222.5C 194.666,216.824 194.499,211.157 194,205.5C 193.8,203.68 192.966,202.347 191.5,201.5C 192.086,196.703 191.252,192.037 189,187.5C 188.928,199.948 187.761,212.281 185.5,224.5C 185.556,226.64 186.223,228.306 187.5,229.5C 187.5,230.833 187.5,232.167 187.5,233.5C 184.856,231.966 182.523,232.299 180.5,234.5C 179.89,233.609 179.557,232.609 179.5,231.5C 180.268,230.737 180.768,229.737 181,228.5C 182.284,212.48 182.451,196.48 181.5,180.5C 181.5,180.167 181.5,179.833 181.5,179.5 Z"/></g>
<g><path style="opacity:1" fill="#bdc8da" d="M 191.5,201.5 C 192.966,202.347 193.8,203.68 194,205.5C 194.499,211.157 194.666,216.824 194.5,222.5C 192.5,222.5 190.5,222.5 188.5,222.5C 188.768,224.099 188.434,225.432 187.5,226.5C 188.725,218.15 190.058,209.816 191.5,201.5 Z"/></g>
<g><path style="opacity:1" fill="#2a3979" d="M 191.5,201.5 C 190.058,209.816 188.725,218.15 187.5,226.5C 187.5,227.5 187.5,228.5 187.5,229.5C 186.223,228.306 185.556,226.64 185.5,224.5C 187.761,212.281 188.928,199.948 189,187.5C 191.252,192.037 192.086,196.703 191.5,201.5 Z"/></g>
<g><path style="opacity:1" fill="#efaf71" d="M 76.5,179.5 C 77.1667,180.5 77.8333,181.5 78.5,182.5C 78.5,184.833 78.5,187.167 78.5,189.5C 78.1667,189.5 77.8333,189.5 77.5,189.5C 73.1667,189.5 68.8333,189.5 64.5,189.5C 60.5,189.5 56.5,189.5 52.5,189.5C 52.5,188.5 52.5,187.5 52.5,186.5C 54.4123,185.201 56.4123,184.201 58.5,183.5C 63.8437,183.666 69.1771,183.499 74.5,183C 75.9733,182.29 76.6399,181.124 76.5,179.5 Z"/></g>
<g><path style="opacity:1" fill="#d89758" d="M 197.5,177.5 C 198.167,177.5 198.833,177.5 199.5,177.5C 199.5,178.167 199.5,178.833 199.5,179.5C 198.209,179.263 197.209,179.596 196.5,180.5C 191.453,180.663 186.453,180.329 181.5,179.5C 181.5,179.167 181.5,178.833 181.5,178.5C 186.927,178.782 192.26,178.449 197.5,177.5 Z"/></g>
<g><path style="opacity:1" fill="#823052" d="M 31.5,178.5 C 33.0481,178.821 33.7148,179.821 33.5,181.5C 31.3792,181.325 29.3792,181.659 27.5,182.5C 22.8075,182.54 18.1408,182.873 13.5,183.5C 13.5,182.5 13.5,181.5 13.5,180.5C 19.4888,179.774 25.4888,179.107 31.5,178.5 Z"/></g>
<g><path style="opacity:1" fill="#61555c" d="M 58.5,172.5 C 59.4916,172.328 60.1583,172.662 60.5,173.5C 60.5,174.167 60.5,174.833 60.5,175.5C 60.1249,177.698 59.4582,179.698 58.5,181.5C 58.1667,181.5 57.8333,181.5 57.5,181.5C 57.9629,178.518 58.2962,175.518 58.5,172.5 Z"/></g>
<g><path style="opacity:1" fill="#2f65a8" d="M 119.5,176.5 C 122.5,176.5 125.5,176.5 128.5,176.5C 131.583,177.993 134.917,178.993 138.5,179.5C 140.684,181.585 143.351,182.585 146.5,182.5C 146.511,186.464 145.511,190.131 143.5,193.5C 143.167,193.5 142.833,193.5 142.5,193.5C 141.624,193.369 140.957,193.702 140.5,194.5C 142.569,201.881 146.569,207.881 152.5,212.5C 151.373,217.292 148.707,220.959 144.5,223.5C 143.833,223.5 143.5,223.167 143.5,222.5C 146.005,220.814 146.838,218.481 146,215.5C 143.705,212.203 141.038,209.203 138,206.5C 136.058,202.808 134.224,199.142 132.5,195.5C 131.824,193.141 130.991,190.808 130,188.5C 129.329,187.748 128.496,187.414 127.5,187.5C 122.36,186.512 117.026,186.179 111.5,186.5C 111.58,181.087 114.247,177.754 119.5,176.5 Z"/></g>
<g><path style="opacity:1" fill="#1a1a25" d="M 60.5,173.5 C 62.9687,174.569 65.3021,175.902 67.5,177.5C 68.1835,177.137 68.8501,176.804 69.5,176.5C 71.0361,179.092 73.3695,180.092 76.5,179.5C 76.6399,181.124 75.9733,182.29 74.5,183C 69.1771,183.499 63.8437,183.666 58.5,183.5C 57.6618,183.158 57.3284,182.492 57.5,181.5C 57.8333,181.5 58.1667,181.5 58.5,181.5C 62.9811,182.648 67.6478,182.815 72.5,182C 68.3133,180.075 64.3133,177.908 60.5,175.5C 60.5,174.833 60.5,174.167 60.5,173.5 Z"/></g>
<g><path style="opacity:1" fill="#f5f6f7" d="M 53.5,177.5 C 53.5,178.167 53.5,178.833 53.5,179.5C 45.5,178.833 45.5,178.167 53.5,177.5 Z"/></g>
<g><path style="opacity:1" fill="#26316d" d="M 60.5,175.5 C 64.3133,177.908 68.3133,180.075 72.5,182C 67.6478,182.815 62.9811,182.648 58.5,181.5C 59.4582,179.698 60.1249,177.698 60.5,175.5 Z"/></g>
<g><path style="opacity:1" fill="#dd7a51" d="M 275.5,174.5 C 281.222,176.93 286.889,176.93 292.5,174.5C 293.458,176.302 294.125,178.302 294.5,180.5C 294.5,190.833 294.5,201.167 294.5,211.5C 293.5,211.5 292.5,211.5 291.5,211.5C 287.167,211.5 282.833,211.5 278.5,211.5C 275.213,201.687 273.547,191.353 273.5,180.5C 274.73,178.703 275.396,176.703 275.5,174.5 Z"/></g>
<g><path style="opacity:1" fill="#ef887f" d="M 141.5,174.5 C 142.708,175.234 144.041,175.567 145.5,175.5C 145.481,177.06 145.148,178.56 144.5,180C 145.056,181.011 145.722,181.844 146.5,182.5C 143.351,182.585 140.684,181.585 138.5,179.5C 138.75,177.326 139.75,175.659 141.5,174.5 Z"/></g>
<g><path style="opacity:1" fill="#94728a" d="M 142.5,172.5 C 143.833,172.833 145.167,173.167 146.5,173.5C 146.672,174.492 146.338,175.158 145.5,175.5C 144.041,175.567 142.708,175.234 141.5,174.5C 141.328,173.508 141.662,172.842 142.5,172.5 Z"/></g>
<g><path style="opacity:1" fill="#3d839a" d="M 99.5,173.5 C 102.85,173.335 106.183,173.502 109.5,174C 103.147,175.503 96.8141,176.003 90.5,175.5C 93.6417,174.833 96.6417,174.166 99.5,173.5 Z"/></g>
<g><path style="opacity:1" fill="#7e9aa5" d="M 32.5,174.5 C 32.1667,175.833 31.8333,177.167 31.5,178.5C 25.4888,179.107 19.4888,179.774 13.5,180.5C 13.5,181.5 13.5,182.5 13.5,183.5C 18.1408,182.873 22.8075,182.54 27.5,182.5C 28.9516,183.302 30.6183,183.802 32.5,184C 29.9568,184.14 27.6234,184.806 25.5,186C 28.1667,186 30.8333,186 33.5,186C 30.6996,187.232 27.6996,187.899 24.5,188C 20.5154,194.824 16.1821,201.324 11.5,207.5C 7.76761,197.508 5.43428,187.174 4.5,176.5C 13.8108,175.686 23.1442,175.02 32.5,174.5 Z"/></g>
<g><path style="opacity:1" fill="#dd8f87" d="M 78.5,170.5 C 78.5,174.5 78.5,178.5 78.5,182.5C 77.8333,181.5 77.1667,180.5 76.5,179.5C 73.3695,180.092 71.0361,179.092 69.5,176.5C 69.2627,175.209 69.596,174.209 70.5,173.5C 72.0603,173.481 73.5603,173.148 75,172.5C 76.098,173.384 76.598,174.384 76.5,175.5C 77.1698,173.709 77.8365,172.042 78.5,170.5 Z"/></g>
<g><path style="opacity:1" fill="#6b8992" d="M 54.5,173.5 C 54.7678,175.099 54.4345,176.432 53.5,177.5C 45.5,178.167 45.5,178.833 53.5,179.5C 52.6314,181.717 52.298,184.05 52.5,186.5C 52.5,187.5 52.5,188.5 52.5,189.5C 56.5,189.5 60.5,189.5 64.5,189.5C 60.5575,189.875 56.8909,190.875 53.5,192.5C 54.1667,196.5 54.8333,200.5 55.5,204.5C 41.5707,207.553 27.5707,210.219 13.5,212.5C 12.4625,211.07 11.7959,209.403 11.5,207.5C 16.1821,201.324 20.5154,194.824 24.5,188C 27.6996,187.899 30.6996,187.232 33.5,186C 30.8333,186 28.1667,186 25.5,186C 27.6234,184.806 29.9568,184.14 32.5,184C 30.6183,183.802 28.9516,183.302 27.5,182.5C 29.3792,181.659 31.3792,181.325 33.5,181.5C 33.7148,179.821 33.0481,178.821 31.5,178.5C 31.8333,177.167 32.1667,175.833 32.5,174.5C 39.8088,173.752 47.1422,173.418 54.5,173.5 Z"/></g>
<g><path style="opacity:1" fill="#3a619f" d="M 197.5,160.5 C 197.5,166.167 197.5,171.833 197.5,177.5C 192.26,178.449 186.927,178.782 181.5,178.5C 181.5,178.167 181.5,177.833 181.5,177.5C 186.179,177.666 190.845,177.499 195.5,177C 187.833,176.187 188.166,175.521 196.5,175C 192.5,173.667 192.5,172.333 196.5,171C 194.167,170.667 191.833,170.333 189.5,170C 192.119,169.849 194.453,169.015 196.5,167.5C 194.521,164.09 194.021,160.423 195,156.5C 195.662,157.984 196.496,159.317 197.5,160.5 Z"/></g>
<g><path style="opacity:1" fill="#db7c54" d="M 58.5,172.5 C 58.2962,175.518 57.9629,178.518 57.5,181.5C 57.3284,182.492 57.6618,183.158 58.5,183.5C 56.4123,184.201 54.4123,185.201 52.5,186.5C 52.298,184.05 52.6314,181.717 53.5,179.5C 53.5,178.833 53.5,178.167 53.5,177.5C 54.4345,176.432 54.7678,175.099 54.5,173.5C 55.1667,173.5 55.5,173.167 55.5,172.5C 56.6522,171.375 57.6522,171.375 58.5,172.5 Z"/></g>
<g><path style="opacity:1" fill="#d2e4ee" d="M 197.5,160.5 C 198.5,160.833 199.167,161.5 199.5,162.5C 199.5,167.5 199.5,172.5 199.5,177.5C 198.833,177.5 198.167,177.5 197.5,177.5C 197.5,171.833 197.5,166.167 197.5,160.5 Z"/></g>
<g><path style="opacity:1" fill="#3b8aa0" d="M 98.5,170.5 C 102.182,170.335 105.848,170.501 109.5,171C 103.511,172.011 97.511,172.844 91.5,173.5C 91.1667,173.167 90.8333,172.833 90.5,172.5C 93.3056,171.832 95.9723,171.166 98.5,170.5 Z"/></g>
<g><path style="opacity:1" fill="#ee897e" d="M 176.5,164.5 C 177.833,165.5 179.167,166.5 180.5,167.5C 181.686,168.961 181.686,170.295 180.5,171.5C 178.254,170.545 175.921,169.878 173.5,169.5C 174.167,168.5 174.833,167.5 175.5,166.5C 176.338,166.158 176.672,165.492 176.5,164.5 Z"/></g>
<g><path style="opacity:1" fill="#37829a" d="M 98.5,167.5 C 102.182,167.335 105.848,167.501 109.5,168C 105.551,169.184 101.551,169.518 97.5,169C 98.056,168.617 98.3893,168.117 98.5,167.5 Z"/></g>
<g><path style="opacity:1" fill="#f79a8f" d="M 148.5,160.5 C 149.218,162.246 150.218,162.912 151.5,162.5C 149.135,165.995 149.802,166.328 153.5,163.5C 153.833,163.667 154.167,163.833 154.5,164C 152.109,165.309 152.109,166.309 154.5,167C 150.993,168.359 148.327,170.526 146.5,173.5C 145.167,173.167 143.833,172.833 142.5,172.5C 142.708,170.08 142.374,167.747 141.5,165.5C 142.521,165.542 143.521,165.542 144.5,165.5C 146.543,164.421 147.876,162.754 148.5,160.5 Z"/></g>
<g><path style="opacity:1" fill="#e58479" d="M 286.5,152.5 C 284.961,158.03 285.295,163.363 287.5,168.5C 287.5,169.5 287.5,170.5 287.5,171.5C 285.585,171.784 283.919,171.451 282.5,170.5C 283.497,170.53 284.164,170.03 284.5,169C 283.753,164.539 283.253,160.039 283,155.5C 282.283,154.956 281.783,154.289 281.5,153.5C 283.292,153.634 284.958,153.301 286.5,152.5 Z"/></g>
<g><path style="opacity:1" fill="#e98b83" d="M 131.5,162.5 C 132.5,162.5 133.5,162.5 134.5,162.5C 133.882,166.201 133.049,169.867 132,173.5C 131,174.833 130,174.833 129,173.5C 128.517,174.448 128.351,175.448 128.5,176.5C 125.5,176.5 122.5,176.5 119.5,176.5C 120.038,174.883 120.371,173.216 120.5,171.5C 125.04,171.851 127.54,169.851 128,165.5C 129.518,164.837 130.685,163.837 131.5,162.5 Z"/></g>
<g><path style="opacity:1" fill="#3b859c" d="M 92.5,164.5 C 98.1764,164.334 103.843,164.501 109.5,165C 103.224,166.424 96.8907,166.758 90.5,166C 91.4158,165.722 92.0825,165.222 92.5,164.5 Z"/></g>
<g><path style="opacity:1" fill="#e18155" d="M 131.5,162.5 C 130.685,163.837 129.518,164.837 128,165.5C 127.54,169.851 125.04,171.851 120.5,171.5C 120.5,170.833 120.5,170.167 120.5,169.5C 120.673,162.021 124.339,159.688 131.5,162.5 Z"/></g>
<g><path style="opacity:1" fill="#37b2c1" d="M 180.5,167.5 C 179.167,166.5 177.833,165.5 176.5,164.5C 175.488,162.9 175.988,161.566 178,160.5C 179.523,162.569 180.357,164.903 180.5,167.5 Z"/></g>
<g><path style="opacity:1" fill="#417992" d="M 90.5,161.5 C 95.8746,161.172 101.208,161.505 106.5,162.5C 103.833,162.833 101.167,163.167 98.5,163.5C 95.4098,163.478 92.7432,162.812 90.5,161.5 Z"/></g>
<g><path style="opacity:1" fill="#605860" d="M 63.5,156.5 C 63.1667,159.833 62.8333,163.167 62.5,166.5C 61.1667,165.833 60.1667,164.833 59.5,163.5C 60.404,162.791 60.7373,161.791 60.5,160.5C 61.0221,158.781 62.0221,157.448 63.5,156.5 Z"/></g>
<g><path style="opacity:1" fill="#e5928b" d="M 300.5,156.5 C 300.5,159.5 300.5,162.5 300.5,165.5C 299.041,165.433 297.708,165.766 296.5,166.5C 296.793,165.357 296.793,164.023 296.5,162.5C 298.942,160.755 300.276,158.755 300.5,156.5 Z"/></g>
<g><path style="opacity:1" fill="#efa870" d="M 134.5,162.5 C 133.5,162.5 132.5,162.5 131.5,162.5C 124.339,159.688 120.673,162.021 120.5,169.5C 117.532,164.519 118.199,160.019 122.5,156C 127.724,155.797 132.724,155.964 137.5,156.5C 137.385,158.947 136.385,160.947 134.5,162.5 Z"/></g>
<g><path style="opacity:1" fill="#2c3674" d="M 67.5,155.5 C 70.1667,155.5 72.8333,155.5 75.5,155.5C 76.5,155.5 77.5,155.5 78.5,155.5C 79.1667,155.5 79.8333,155.5 80.5,155.5C 79.9492,158.807 79.6159,162.14 79.5,165.5C 78.5489,166.919 78.2155,168.585 78.5,170.5C 77.8365,172.042 77.1698,173.709 76.5,175.5C 76.598,174.384 76.098,173.384 75,172.5C 73.5603,173.148 72.0603,173.481 70.5,173.5C 68.3211,170.723 65.6544,168.39 62.5,166.5C 62.8333,163.167 63.1667,159.833 63.5,156.5C 64.5676,155.566 65.901,155.232 67.5,155.5 Z"/></g>
<g><path style="opacity:1" fill="#9aa0a9" d="M 67.5,145.5 C 68.4767,148.287 68.81,151.287 68.5,154.5C 70.5,154.5 72.5,154.5 74.5,154.5C 74.5,153.5 74.5,152.5 74.5,151.5C 75.4345,152.568 75.7678,153.901 75.5,155.5C 72.8333,155.5 70.1667,155.5 67.5,155.5C 67.5,152.167 67.5,148.833 67.5,145.5 Z"/></g>
<g><path style="opacity:1" fill="#5642c0" d="M 130.5,136.5 C 130.5,136.833 130.5,137.167 130.5,137.5C 126.074,139.359 124.574,142.692 126,147.5C 128.099,151.561 131.265,152.561 135.5,150.5C 131.205,154.89 127.705,154.223 125,148.5C 123.849,144.171 124.682,140.338 127.5,137C 128.448,136.517 129.448,136.351 130.5,136.5 Z"/></g>
<g><path style="opacity:1" fill="#313975" d="M 289.5,151.5 C 290.167,151.5 290.833,151.5 291.5,151.5C 291.369,152.239 291.536,152.906 292,153.5C 292.388,152.572 293.055,151.905 294,151.5C 295.872,152.068 297.705,152.735 299.5,153.5C 300.386,154.325 300.719,155.325 300.5,156.5C 300.276,158.755 298.942,160.755 296.5,162.5C 296.793,164.023 296.793,165.357 296.5,166.5C 295.85,168.435 295.517,170.435 295.5,172.5C 293.821,172.285 292.821,172.952 292.5,174.5C 286.889,176.93 281.222,176.93 275.5,174.5C 275.5,172.833 275.5,171.167 275.5,169.5C 277.717,170.369 280.05,170.702 282.5,170.5C 283.919,171.451 285.585,171.784 287.5,171.5C 287.5,170.5 287.5,169.5 287.5,168.5C 288.691,164.421 290.025,160.254 291.5,156C 290.956,154.415 290.289,152.915 289.5,151.5 Z"/></g>
<g><path style="opacity:1" fill="#f3ecef" d="M 286.5,151.5 C 287.5,151.5 288.5,151.5 289.5,151.5C 290.289,152.915 290.956,154.415 291.5,156C 290.025,160.254 288.691,164.421 287.5,168.5C 285.295,163.363 284.961,158.03 286.5,152.5C 286.5,152.167 286.5,151.833 286.5,151.5 Z"/></g>
<g><path style="opacity:1" fill="#756074" d="M 286.5,151.5 C 286.5,151.833 286.5,152.167 286.5,152.5C 284.958,153.301 283.292,153.634 281.5,153.5C 280.078,153.291 278.745,152.791 277.5,152C 280.482,151.502 283.482,151.335 286.5,151.5 Z"/></g>
<g><path style="opacity:1" fill="#4e4ad3" d="M 103.5,135.5 C 105.432,137.544 106.432,140.044 106.5,143C 105.258,151.402 100.591,154.235 92.5,151.5C 92.3284,150.508 92.6618,149.842 93.5,149.5C 97.5485,152.328 101.048,151.662 104,147.5C 104.678,143.779 104.511,140.112 103.5,136.5C 103.5,136.167 103.5,135.833 103.5,135.5 Z"/></g>
<g><path style="opacity:1" fill="#293878" d="M 179.5,149.5 C 180.209,148.596 181.209,148.263 182.5,148.5C 185.287,149.477 188.287,149.81 191.5,149.5C 195.929,152.093 199.596,155.593 202.5,160C 203.793,160.49 205.127,160.657 206.5,160.5C 206.5,161.5 206.5,162.5 206.5,163.5C 205.735,163.923 204.902,164.257 204,164.5C 202.594,163.586 201.094,162.92 199.5,162.5C 199.167,161.5 198.5,160.833 197.5,160.5C 196.496,159.317 195.662,157.984 195,156.5C 194.021,160.423 194.521,164.09 196.5,167.5C 194.453,169.015 192.119,169.849 189.5,170C 191.833,170.333 194.167,170.667 196.5,171C 192.5,172.333 192.5,173.667 196.5,175C 188.166,175.521 187.833,176.187 195.5,177C 190.845,177.499 186.179,177.666 181.5,177.5C 181.421,176.07 181.754,174.736 182.5,173.5C 181.757,172.818 181.091,172.151 180.5,171.5C 181.686,170.295 181.686,168.961 180.5,167.5C 180.357,164.903 179.523,162.569 178,160.5C 175.988,161.566 175.488,162.9 176.5,164.5C 176.672,165.492 176.338,166.158 175.5,166.5C 173.518,166.005 171.518,165.505 169.5,165C 173.539,161.079 176.706,156.579 179,151.5C 181.665,150.526 181.831,149.859 179.5,149.5 Z"/></g>
<g><path style="opacity:1" fill="#366aab" d="M 191.5,149.5 C 192.5,149.5 193.5,149.5 194.5,149.5C 199.281,151.734 203.614,154.734 207.5,158.5C 207.784,160.415 207.451,162.081 206.5,163.5C 206.5,162.5 206.5,161.5 206.5,160.5C 205.127,160.657 203.793,160.49 202.5,160C 199.596,155.593 195.929,152.093 191.5,149.5 Z"/></g>
<g><path style="opacity:1" fill="#788d98" d="M 194.5,149.5 C 193.5,149.5 192.5,149.5 191.5,149.5C 188.287,149.81 185.287,149.477 182.5,148.5C 185.5,148.5 188.5,148.5 191.5,148.5C 191.222,146.654 191.889,145.32 193.5,144.5C 193.389,146.109 193.722,147.775 194.5,149.5 Z"/></g>
<g><path style="opacity:1" fill="#5742c2" d="M 112.5,135.5 C 112.5,135.833 112.5,136.167 112.5,136.5C 108.41,141.578 108.743,146.412 113.5,151C 116.025,151.896 118.192,151.396 120,149.5C 121.289,146.649 121.789,143.649 121.5,140.5C 121.833,140.5 122.167,140.5 122.5,140.5C 123.498,145.535 122.165,149.702 118.5,153C 114.328,153.868 111.162,152.368 109,148.5C 108.333,145.167 108.333,141.833 109,138.5C 109.422,136.574 110.589,135.574 112.5,135.5 Z"/></g>
<g><path style="opacity:1" fill="#edad72" d="M 71.5,140.5 C 73.2161,140.629 74.8828,140.962 76.5,141.5C 76.8333,142.5 77.5,143.167 78.5,143.5C 79.7006,147.263 81.2006,150.93 83,154.5C 84.6971,151.98 86.5305,149.647 88.5,147.5C 89.147,149.141 90.147,150.474 91.5,151.5C 89.6817,155.808 87.8483,160.141 86,164.5C 83.9592,165.423 81.7925,165.756 79.5,165.5C 79.6159,162.14 79.9492,158.807 80.5,155.5C 80.3822,152.312 79.5489,149.312 78,146.5C 77.9565,149.475 78.1231,152.475 78.5,155.5C 77.5,155.5 76.5,155.5 75.5,155.5C 75.7678,153.901 75.4345,152.568 74.5,151.5C 74.1075,147.658 73.1075,143.991 71.5,140.5 Z"/></g>
<g><path style="opacity:1" fill="#55453c" d="M 80.5,155.5 C 79.8333,155.5 79.1667,155.5 78.5,155.5C 78.1231,152.475 77.9565,149.475 78,146.5C 79.5489,149.312 80.3822,152.312 80.5,155.5 Z"/></g>
<g><path style="opacity:1" fill="#c97750" d="M 60.5,160.5 C 60.7373,161.791 60.404,162.791 59.5,163.5C 58.5657,162.228 57.899,160.728 57.5,159C 58.2392,154.873 58.7392,150.706 59,146.5C 60.5084,148.017 61.3417,149.851 61.5,152C 60.7844,154.792 60.4511,157.626 60.5,160.5 Z"/></g>
<g><path style="opacity:1" fill="#c09576" d="M 312.5,142.5 C 313.167,142.5 313.5,142.833 313.5,143.5C 309.305,146.254 304.638,147.921 299.5,148.5C 291.156,149.75 282.822,149.584 274.5,148C 275.167,147.667 275.833,147.333 276.5,147C 288.934,148.76 300.934,147.26 312.5,142.5 Z"/></g>
<g><path style="opacity:1" fill="#ef9185" d="M 193.5,138.5 C 194.024,140.306 194.691,141.972 195.5,143.5C 195.5,144.167 195.833,144.5 196.5,144.5C 196.5,145.167 196.833,145.5 197.5,145.5C 198.604,147.389 199.937,149.055 201.5,150.5C 202.167,151.833 203.167,152.833 204.5,153.5C 205.925,154.922 206.925,156.589 207.5,158.5C 203.614,154.734 199.281,151.734 194.5,149.5C 193.722,147.775 193.389,146.109 193.5,144.5C 191.889,145.32 191.222,146.654 191.5,148.5C 188.5,148.5 185.5,148.5 182.5,148.5C 183.568,147.566 184.901,147.232 186.5,147.5C 186.5,146.5 186.5,145.5 186.5,144.5C 189.635,144.452 191.302,142.785 191.5,139.5C 192.183,139.137 192.85,138.804 193.5,138.5 Z"/></g>
<g><path style="opacity:1" fill="#eb8f84" d="M 89.5,140.5 C 91.3896,143.002 93.3896,143.002 95.5,140.5C 96.5,140.5 97.5,140.5 98.5,140.5C 98.634,142.292 98.3007,143.958 97.5,145.5C 95.1667,145.833 93.8333,147.167 93.5,149.5C 92.6618,149.842 92.3284,150.508 92.5,151.5C 92.1667,151.5 91.8333,151.5 91.5,151.5C 90.147,150.474 89.147,149.141 88.5,147.5C 88.8333,146.833 89.1667,146.167 89.5,145.5C 89.5,143.833 89.5,142.167 89.5,140.5 Z"/></g>
<g><path style="opacity:1" fill="#1fc0c9" d="M 313.5,143.5 C 314.5,143.5 315.5,143.5 316.5,143.5C 316.168,154.52 316.501,165.52 317.5,176.5C 320.188,177.513 322.854,178.513 325.5,179.5C 315.347,180.494 305.014,180.828 294.5,180.5C 294.125,178.302 293.458,176.302 292.5,174.5C 292.821,172.952 293.821,172.285 295.5,172.5C 295.517,170.435 295.85,168.435 296.5,166.5C 297.708,165.766 299.041,165.433 300.5,165.5C 300.5,162.5 300.5,159.5 300.5,156.5C 300.719,155.325 300.386,154.325 299.5,153.5C 297.705,152.735 295.872,152.068 294,151.5C 293.055,151.905 292.388,152.572 292,153.5C 291.536,152.906 291.369,152.239 291.5,151.5C 294.087,150.251 296.754,149.251 299.5,148.5C 304.638,147.921 309.305,146.254 313.5,143.5 Z"/></g>
<g><path style="opacity:1" fill="#81103f" d="M 316.5,142.5 C 316.833,142.5 317.167,142.5 317.5,142.5C 317.334,147.179 317.501,151.845 318,156.5C 321.739,158.135 325.573,159.469 329.5,160.5C 330.535,167.437 330.535,174.437 329.5,181.5C 328.167,180.833 326.833,180.167 325.5,179.5C 322.854,178.513 320.188,177.513 317.5,176.5C 316.501,165.52 316.168,154.52 316.5,143.5C 316.5,143.167 316.5,142.833 316.5,142.5 Z"/></g>
<g><path style="opacity:1" fill="#3bc2cb" d="M 323.5,110.5 C 326.5,118.479 328.5,126.813 329.5,135.5C 328.2,137.223 327.533,139.39 327.5,142C 327.833,144.167 328.167,146.333 328.5,148.5C 329.484,145.572 329.817,142.572 329.5,139.5C 330.833,146.5 330.833,153.5 329.5,160.5C 325.573,159.469 321.739,158.135 318,156.5C 317.501,151.845 317.334,147.179 317.5,142.5C 319.972,141.358 320.972,139.358 320.5,136.5C 319.391,136.443 318.391,136.11 317.5,135.5C 317.169,127.804 317.503,120.138 318.5,112.5C 320.195,111.826 321.862,111.159 323.5,110.5 Z"/></g>
<g><path style="opacity:1" fill="#f8ece0" d="M 276.5,139.5 C 277.919,140.451 279.585,140.784 281.5,140.5C 281.833,140.5 282.167,140.5 282.5,140.5C 282.833,141.167 283.167,141.833 283.5,142.5C 280.5,142.5 277.5,142.5 274.5,142.5C 274.932,141.29 275.599,140.29 276.5,139.5 Z"/></g>
<g><path style="opacity:1" fill="#f1b375" d="M 311.5,140.5 C 312.338,140.842 312.672,141.508 312.5,142.5C 300.934,147.26 288.934,148.76 276.5,147C 275.833,147.333 275.167,147.667 274.5,148C 282.822,149.584 291.156,149.75 299.5,148.5C 296.754,149.251 294.087,150.251 291.5,151.5C 290.833,151.5 290.167,151.5 289.5,151.5C 288.5,151.5 287.5,151.5 286.5,151.5C 283.482,151.335 280.482,151.502 277.5,152C 278.745,152.791 280.078,153.291 281.5,153.5C 281.783,154.289 282.283,154.956 283,155.5C 283.253,160.039 283.753,164.539 284.5,169C 284.164,170.03 283.497,170.53 282.5,170.5C 280.05,170.702 277.717,170.369 275.5,169.5C 275.665,166.15 275.498,162.817 275,159.5C 273.219,155.605 271.719,151.605 270.5,147.5C 271.095,145.239 272.429,143.572 274.5,142.5C 277.5,142.5 280.5,142.5 283.5,142.5C 292.972,143.933 302.305,143.266 311.5,140.5 Z"/></g>
<g><path style="opacity:1" fill="#5368f1" d="M 329.5,135.5 C 329.5,136.833 329.5,138.167 329.5,139.5C 329.817,142.572 329.484,145.572 328.5,148.5C 328.167,146.333 327.833,144.167 327.5,142C 327.533,139.39 328.2,137.223 329.5,135.5 Z"/></g>
<g><path style="opacity:1" fill="#6e80f4" d="M 323.5,139.5 C 324.167,139.5 324.833,139.5 325.5,139.5C 324.833,150.167 324.167,150.167 323.5,139.5 Z"/></g>
<g><path style="opacity:1" fill="#f1efe9" d="M 315.5,138.5 C 315.833,139.833 316.167,141.167 316.5,142.5C 316.5,142.833 316.5,143.167 316.5,143.5C 315.5,143.5 314.5,143.5 313.5,143.5C 313.5,142.833 313.167,142.5 312.5,142.5C 312.672,141.508 312.338,140.842 311.5,140.5C 312.514,139.326 313.847,138.66 315.5,138.5 Z"/></g>
<g><path style="opacity:1" fill="#34859f" d="M 130.5,137.5 C 130.5,137.167 130.5,136.833 130.5,136.5C 136.057,138.941 137.723,142.941 135.5,148.5C 136.244,143.66 134.578,139.993 130.5,137.5 Z"/></g>
<g><path style="opacity:1" fill="#f8eef0" d="M 97.5,145.5 C 98.3007,143.958 98.634,142.292 98.5,140.5C 97.5,140.5 96.5,140.5 95.5,140.5C 96.8499,137.894 98.3499,137.894 100,140.5C 101.077,143.262 100.244,144.928 97.5,145.5 Z"/></g>
<g><path style="opacity:1" fill="#f3b475" d="M 60.5,139.5 C 61.1667,139.5 61.8333,139.5 62.5,139.5C 65.9478,140.02 67.6145,142.02 67.5,145.5C 67.5,148.833 67.5,152.167 67.5,155.5C 65.901,155.232 64.5676,155.566 63.5,156.5C 62.0221,157.448 61.0221,158.781 60.5,160.5C 60.4511,157.626 60.7844,154.792 61.5,152C 61.3417,149.851 60.5084,148.017 59,146.5C 58.7392,150.706 58.2392,154.873 57.5,159C 57.899,160.728 58.5657,162.228 59.5,163.5C 60.1667,164.833 61.1667,165.833 62.5,166.5C 65.6544,168.39 68.3211,170.723 70.5,173.5C 69.596,174.209 69.2627,175.209 69.5,176.5C 68.8501,176.804 68.1835,177.137 67.5,177.5C 65.3021,175.902 62.9687,174.569 60.5,173.5C 60.1583,172.662 59.4916,172.328 58.5,172.5C 57.6522,171.375 56.6522,171.375 55.5,172.5C 54.6595,169.324 52.9929,166.658 50.5,164.5C 50.5,159.167 50.5,153.833 50.5,148.5C 51.7362,146.351 52.7362,144.018 53.5,141.5C 55.7014,140.434 58.0347,139.767 60.5,139.5 Z"/></g>
<g><path style="opacity:1" fill="#831f4a" d="M 130.5,137.5 C 134.578,139.993 136.244,143.66 135.5,148.5C 135.5,149.167 135.5,149.833 135.5,150.5C 131.265,152.561 128.099,151.561 126,147.5C 124.574,142.692 126.074,139.359 130.5,137.5 Z"/></g>
<g><path style="opacity:1" fill="#f8f1f4" d="M 129.5,142.5 C 130.5,142.5 131.5,142.5 132.5,142.5C 132.884,144.665 132.217,146.332 130.5,147.5C 128.296,146.218 127.962,144.551 129.5,142.5 Z"/></g>
<g><path style="opacity:1" fill="#4067a0" d="M 70.5,134.5 C 71.0977,136.802 71.4311,138.802 71.5,140.5C 73.1075,143.991 74.1075,147.658 74.5,151.5C 74.5,152.5 74.5,153.5 74.5,154.5C 72.5,154.5 70.5,154.5 68.5,154.5C 68.81,151.287 68.4767,148.287 67.5,145.5C 67.6145,142.02 65.9478,140.02 62.5,139.5C 62.3284,138.508 62.6618,137.842 63.5,137.5C 65.5273,137.662 67.5273,137.495 69.5,137C 65.4463,135.059 65.7797,134.225 70.5,134.5 Z"/></g>
<g><path style="opacity:1" fill="#444e7f" d="M 282.5,137.5 C 282.5,138.5 282.5,139.5 282.5,140.5C 282.167,140.5 281.833,140.5 281.5,140.5C 280.71,139.206 279.71,138.039 278.5,137C 279.819,136.805 281.153,136.972 282.5,137.5 Z"/></g>
<g><path style="opacity:1" fill="#e87e74" d="M 316.5,135.5 C 316.833,135.5 317.167,135.5 317.5,135.5C 318.391,136.11 319.391,136.443 320.5,136.5C 320.972,139.358 319.972,141.358 317.5,142.5C 317.167,142.5 316.833,142.5 316.5,142.5C 316.167,141.167 315.833,139.833 315.5,138.5C 315.557,137.391 315.89,136.391 316.5,135.5 Z"/></g>
<g><path style="opacity:1" fill="#831243" d="M 112.5,136.5 C 116.621,135.658 119.621,136.991 121.5,140.5C 121.789,143.649 121.289,146.649 120,149.5C 118.192,151.396 116.025,151.896 113.5,151C 108.743,146.412 108.41,141.578 112.5,136.5 Z"/></g>
<g><path style="opacity:1" fill="#f5ecf0" d="M 114.5,140.5 C 117.997,140.995 118.997,142.828 117.5,146C 113.537,146.118 112.537,144.284 114.5,140.5 Z"/></g>
<g><path style="opacity:1" fill="#25c3cb" d="M 266.5,135.5 C 267.399,136.472 268.566,137.138 270,137.5C 272.086,136.582 274.253,135.915 276.5,135.5C 276.5,136.833 276.5,138.167 276.5,139.5C 275.599,140.29 274.932,141.29 274.5,142.5C 272.429,143.572 271.095,145.239 270.5,147.5C 271.719,151.605 273.219,155.605 275,159.5C 275.498,162.817 275.665,166.15 275.5,169.5C 275.5,171.167 275.5,172.833 275.5,174.5C 275.396,176.703 274.73,178.703 273.5,180.5C 248.833,180.5 224.167,180.5 199.5,180.5C 199.5,180.167 199.5,179.833 199.5,179.5C 199.5,178.833 199.5,178.167 199.5,177.5C 199.5,172.5 199.5,167.5 199.5,162.5C 201.094,162.92 202.594,163.586 204,164.5C 204.902,164.257 205.735,163.923 206.5,163.5C 207.451,162.081 207.784,160.415 207.5,158.5C 206.925,156.589 205.925,154.922 204.5,153.5C 225.167,153.5 245.833,153.5 266.5,153.5C 266.5,147.5 266.5,141.5 266.5,135.5 Z"/></g>
<g><path style="opacity:1" fill="#333874" d="M 187.5,134.5 C 187.833,134.5 188.167,134.5 188.5,134.5C 190.5,134.833 192.5,135.167 194.5,135.5C 194.443,136.609 194.11,137.609 193.5,138.5C 192.85,138.804 192.183,139.137 191.5,139.5C 191.302,142.785 189.635,144.452 186.5,144.5C 183.562,140.802 183.896,137.469 187.5,134.5 Z"/></g>
<g><path style="opacity:1" fill="#3d8ea8" d="M 122.5,140.5 C 122.167,140.5 121.833,140.5 121.5,140.5C 119.621,136.991 116.621,135.658 112.5,136.5C 112.5,136.167 112.5,135.833 112.5,135.5C 117.263,133.88 120.597,135.547 122.5,140.5 Z"/></g>
<g><path style="opacity:1" fill="#2aa0b7" d="M 97.5,131.5 C 100.198,131.845 102.198,133.178 103.5,135.5C 103.5,135.833 103.5,136.167 103.5,136.5C 101.784,134.975 99.7837,133.975 97.5,133.5C 97.5,132.833 97.5,132.167 97.5,131.5 Z"/></g>
<g><path style="opacity:1" fill="#851746" d="M 97.5,133.5 C 99.7837,133.975 101.784,134.975 103.5,136.5C 104.511,140.112 104.678,143.779 104,147.5C 101.048,151.662 97.5485,152.328 93.5,149.5C 93.8333,147.167 95.1667,145.833 97.5,145.5C 100.244,144.928 101.077,143.262 100,140.5C 98.3499,137.894 96.8499,137.894 95.5,140.5C 93.3896,143.002 91.3896,143.002 89.5,140.5C 90.3336,135.996 93.0003,133.663 97.5,133.5 Z"/></g>
<g><path style="opacity:1" fill="#4b4ddb" d="M 97.5,131.5 C 97.5,132.167 97.5,132.833 97.5,133.5C 93.0003,133.663 90.3336,135.996 89.5,140.5C 89.5,142.167 89.5,143.833 89.5,145.5C 86.4818,137.533 89.1484,132.867 97.5,131.5 Z"/></g>
<g><path style="opacity:1" fill="#8c2c53" d="M 12.5,165.5 C 11.5,166.833 10.5,166.833 9.5,165.5C 9.66645,156.161 9.49979,146.827 9,137.5C 6.78202,134.988 7.28202,133.322 10.5,132.5C 14.3942,133.361 15.2275,135.361 13,138.5C 12.5002,147.494 12.3336,156.494 12.5,165.5 Z"/></g>
<g><path style="opacity:1" fill="#f8f1f4" d="M 325.5,139.5 C 324.833,139.5 324.167,139.5 323.5,139.5C 323.5,138.5 323.5,137.5 323.5,136.5C 322.5,136.5 321.5,136.5 320.5,136.5C 321.209,135.596 322.209,135.263 323.5,135.5C 323.215,133.712 323.548,132.045 324.5,130.5C 325.484,133.428 325.817,136.428 325.5,139.5 Z"/></g>
<g><path style="opacity:1" fill="#f1948a" d="M 284.5,126.5 C 285.167,126.5 285.5,126.833 285.5,127.5C 285.5,128.167 285.5,128.833 285.5,129.5C 285.953,130.458 286.619,131.292 287.5,132C 286.033,133.098 285.199,134.598 285,136.5C 284.329,137.252 283.496,137.586 282.5,137.5C 281.153,136.972 279.819,136.805 278.5,137C 279.71,138.039 280.71,139.206 281.5,140.5C 279.585,140.784 277.919,140.451 276.5,139.5C 276.5,138.167 276.5,136.833 276.5,135.5C 277.429,134.685 278.429,133.852 279.5,133C 279.043,132.586 278.709,132.086 278.5,131.5C 281.139,130.502 283.139,128.836 284.5,126.5 Z"/></g>
<g><path style="opacity:1" fill="#fefffe" d="M 285.5,127.5 C 296.167,128.167 296.167,128.833 285.5,129.5C 285.5,128.833 285.5,128.167 285.5,127.5 Z"/></g>
<g><path style="opacity:1" fill="#cacddb" d="M 50.5,148.5 C 50.5,153.833 50.5,159.167 50.5,164.5C 49.5,164.5 48.5,164.5 47.5,164.5C 47.3961,159.694 48.0628,155.028 49.5,150.5C 47.8333,150.5 46.1667,150.5 44.5,150.5C 46.213,154.924 46.8796,159.591 46.5,164.5C 45.5,164.5 44.5,164.5 43.5,164.5C 43.5,151.833 43.5,139.167 43.5,126.5C 45.8056,126.993 48.139,127.326 50.5,127.5C 50.5,134.5 50.5,141.5 50.5,148.5 Z"/></g>
<g><path style="opacity:1" fill="#871c46" d="M 47.5,164.5 C 47.1667,164.5 46.8333,164.5 46.5,164.5C 46.8796,159.591 46.213,154.924 44.5,150.5C 46.1667,150.5 47.8333,150.5 49.5,150.5C 48.0628,155.028 47.3961,159.694 47.5,164.5 Z"/></g>
<g><path style="opacity:1" fill="#16c2cb" d="M 213.5,150.5 C 211.5,150.5 209.5,150.5 207.5,150.5C 207.5,141.833 207.5,133.167 207.5,124.5C 209.339,123.248 211.172,123.248 213,124.5C 213.5,133.16 213.666,141.827 213.5,150.5 Z"/></g>
<g><path style="opacity:1" fill="#2d3976" d="M 284.5,126.5 C 283.139,128.836 281.139,130.502 278.5,131.5C 278.709,132.086 279.043,132.586 279.5,133C 278.429,133.852 277.429,134.685 276.5,135.5C 274.253,135.915 272.086,136.582 270,137.5C 268.566,137.138 267.399,136.472 266.5,135.5C 266.5,134.5 266.5,133.5 266.5,132.5C 267.314,130.369 267.814,128.036 268,125.5C 268.689,124.643 269.522,123.977 270.5,123.5C 275.046,123.704 279.712,123.704 284.5,123.5C 284.5,124.5 284.5,125.5 284.5,126.5 Z"/></g>
<g><path style="opacity:1" fill="#1dc3cc" d="M 242.5,150.5 C 240.5,150.5 238.5,150.5 236.5,150.5C 236.5,141.5 236.5,132.5 236.5,123.5C 238.339,122.248 240.172,122.248 242,123.5C 242.5,132.494 242.666,141.494 242.5,150.5 Z"/></g>
<g><path style="opacity:1" fill="#cad3e0" d="M 7.5,120.5 C 10.4299,121.299 13.4299,121.632 16.5,121.5C 16.5,136.167 16.5,150.833 16.5,165.5C 15.1667,165.5 13.8333,165.5 12.5,165.5C 12.3336,156.494 12.5002,147.494 13,138.5C 15.2275,135.361 14.3942,133.361 10.5,132.5C 7.28202,133.322 6.78202,134.988 9,137.5C 9.49979,146.827 9.66645,156.161 9.5,165.5C 8.16667,165.5 6.83333,165.5 5.5,165.5C 5.82713,155.652 5.4938,145.986 4.5,136.5C 5.07043,131.076 6.07043,125.743 7.5,120.5 Z"/></g>
<g><path style="opacity:1" fill="#2fa3b3" d="M 124.5,118.5 C 127.461,119.323 130.461,119.99 133.5,120.5C 133.5,121.5 133.5,122.5 133.5,123.5C 130.687,123.452 128.021,122.785 125.5,121.5C 124.614,120.675 124.281,119.675 124.5,118.5 Z"/></g>
<g><path style="opacity:1" fill="#f9fdfd" d="M 272.5,114.5 C 279.532,114.17 286.532,114.503 293.5,115.5C 290,115.833 286.5,116.167 283,116.5C 279.098,116.488 275.598,115.821 272.5,114.5 Z"/></g>
<g><path style="opacity:1" fill="#c6d3e0" d="M 8.5,115.5 C 11.1667,115.833 13.8333,116.167 16.5,116.5C 16.6495,117.552 16.4828,118.552 16,119.5C 13.6178,118.446 11.1178,117.779 8.5,117.5C 8.5,116.833 8.5,116.167 8.5,115.5 Z"/></g>
<g><path style="opacity:1" fill="#10c3cc" d="M 252.5,114.5 C 252.5,126.5 252.5,138.5 252.5,150.5C 250.5,150.5 248.5,150.5 246.5,150.5C 246.333,138.495 246.5,126.495 247,114.5C 248.828,113.248 250.661,113.248 252.5,114.5 Z"/></g>
<g><path style="opacity:1" fill="#40c7cf" d="M 233.5,115.5 C 233.5,127.167 233.5,138.833 233.5,150.5C 231.167,150.5 228.833,150.5 226.5,150.5C 226.5,138.833 226.5,127.167 226.5,115.5C 228.833,112.833 231.167,112.833 233.5,115.5 Z"/></g>
<g><path style="opacity:1" fill="#1cc4cd" d="M 194.5,115.5 C 194.5,122.167 194.5,128.833 194.5,135.5C 192.5,135.167 190.5,134.833 188.5,134.5C 188.334,127.825 188.5,121.158 189,114.5C 191.144,113.156 192.977,113.49 194.5,115.5 Z"/></g>
<g><path style="opacity:1" fill="#32a0b1" d="M 124.5,112.5 C 127.426,113.461 130.426,114.127 133.5,114.5C 133.5,115.5 133.5,116.5 133.5,117.5C 130.784,117.322 128.117,116.822 125.5,116C 124.663,114.989 124.33,113.822 124.5,112.5 Z"/></g>
<g><path style="opacity:1" fill="#29c4cd" d="M 204.5,149.5 C 203.791,150.404 202.791,150.737 201.5,150.5C 199.937,149.055 198.604,147.389 197.5,145.5C 197.5,133.167 197.5,120.833 197.5,108.5C 199.09,106.576 200.924,106.243 203,107.5C 203.169,121.673 203.669,135.673 204.5,149.5 Z"/></g>
<g><path style="opacity:1" fill="#339fb0" d="M 124.5,106.5 C 127.054,107.606 129.721,108.439 132.5,109C 133.731,110.183 133.731,111.349 132.5,112.5C 130.205,111.568 127.871,110.735 125.5,110C 124.663,108.989 124.33,107.822 124.5,106.5 Z"/></g>
<g><path style="opacity:1" fill="#14c3cc" d="M 223.5,103.5 C 223.5,119.167 223.5,134.833 223.5,150.5C 221.5,150.5 219.5,150.5 217.5,150.5C 217.333,134.83 217.5,119.163 218,103.5C 219.828,102.248 221.661,102.248 223.5,103.5 Z"/></g>
<g><path style="opacity:1" fill="#8a234b" d="M 100.5,103.5 C 101.167,103.5 101.833,103.5 102.5,103.5C 102.833,103.5 103.167,103.5 103.5,103.5C 105.975,104.687 106.975,106.687 106.5,109.5C 106.134,110.695 105.301,111.361 104,111.5C 99.8243,110.119 98.6576,107.452 100.5,103.5 Z"/></g>
<g><path style="opacity:1" fill="#fefffe" d="M 272.5,102.5 C 279.532,102.17 286.532,102.503 293.5,103.5C 290,103.833 286.5,104.167 283,104.5C 279.098,104.488 275.598,103.821 272.5,102.5 Z"/></g>
<g><path style="opacity:1" fill="#2bc2cc" d="M 13.5,102.5 C 34.4774,107.607 55.4774,112.607 76.5,117.5C 76.5,125.5 76.5,133.5 76.5,141.5C 74.8828,140.962 73.2161,140.629 71.5,140.5C 71.4311,138.802 71.0977,136.802 70.5,134.5C 71.7899,133.942 72.6232,132.942 73,131.5C 72.9357,129.044 73.1023,126.711 73.5,124.5C 74.8866,122.511 74.5532,120.678 72.5,119C 63.5444,116.146 58.8777,119.312 58.5,128.5C 56.8333,128.5 55.1667,128.5 53.5,128.5C 53.5,132.833 53.5,137.167 53.5,141.5C 52.7362,144.018 51.7362,146.351 50.5,148.5C 50.5,141.5 50.5,134.5 50.5,127.5C 48.139,127.326 45.8056,126.993 43.5,126.5C 43.5,139.167 43.5,151.833 43.5,164.5C 44.5,164.5 45.5,164.5 46.5,164.5C 46.8333,164.5 47.1667,164.5 47.5,164.5C 48.5,164.5 49.5,164.5 50.5,164.5C 52.9929,166.658 54.6595,169.324 55.5,172.5C 55.5,173.167 55.1667,173.5 54.5,173.5C 47.1422,173.418 39.8088,173.752 32.5,174.5C 23.1442,175.02 13.8108,175.686 4.5,176.5C 3.18646,163.173 3.18646,149.84 4.5,136.5C 5.4938,145.986 5.82713,155.652 5.5,165.5C 6.83333,165.5 8.16667,165.5 9.5,165.5C 10.5,166.833 11.5,166.833 12.5,165.5C 13.8333,165.5 15.1667,165.5 16.5,165.5C 16.5,150.833 16.5,136.167 16.5,121.5C 13.4299,121.632 10.4299,121.299 7.5,120.5C 7.26269,119.209 7.59603,118.209 8.5,117.5C 11.1178,117.779 13.6178,118.446 16,119.5C 16.4828,118.552 16.6495,117.552 16.5,116.5C 13.8333,116.167 11.1667,115.833 8.5,115.5C 9.5949,110.872 11.2616,106.539 13.5,102.5 Z"/></g>
<g><path style="opacity:1" fill="#89234c" d="M 37.5,164.5 C 37.1583,165.338 36.4916,165.672 35.5,165.5C 36.0651,157.169 35.3985,149.003 33.5,141C 34.4085,138.681 36.0752,138.014 38.5,139C 39.0219,139.561 39.3552,140.228 39.5,141C 37.6064,148.667 36.9397,156.5 37.5,164.5 Z"/></g>
<g><path style="opacity:1" fill="#69c5ce" d="M 60.5,131.5 C 61.609,131.557 62.609,131.89 63.5,132.5C 63.5,134.167 63.5,135.833 63.5,137.5C 62.6618,137.842 62.3284,138.508 62.5,139.5C 61.8333,139.5 61.1667,139.5 60.5,139.5C 60.5,136.833 60.5,134.167 60.5,131.5 Z"/></g>
<g><path style="opacity:1" fill="#cad3df" d="M 58.5,128.5 C 59.9063,128.973 60.573,129.973 60.5,131.5C 60.5,134.167 60.5,136.833 60.5,139.5C 58.0347,139.767 55.7014,140.434 53.5,141.5C 53.5,137.167 53.5,132.833 53.5,128.5C 55.1667,128.5 56.8333,128.5 58.5,128.5 Z"/></g>
<g><path style="opacity:1" fill="#f29286" d="M 73.5,124.5 C 73.1023,126.711 72.9357,129.044 73,131.5C 72.6232,132.942 71.7899,133.942 70.5,134.5C 65.7797,134.225 65.4463,135.059 69.5,137C 67.5273,137.495 65.5273,137.662 63.5,137.5C 63.5,135.833 63.5,134.167 63.5,132.5C 63.194,130.682 63.194,128.682 63.5,126.5C 65.2237,127.661 66.8904,127.495 68.5,126C 69.0495,124.155 70.0495,122.655 71.5,121.5C 72.9185,122.005 73.5852,123.005 73.5,124.5 Z"/></g>
<g><path style="opacity:1" fill="#c7d2df" d="M 37.5,164.5 C 36.9397,156.5 37.6064,148.667 39.5,141C 39.3552,140.228 39.0219,139.561 38.5,139C 36.0752,138.014 34.4085,138.681 33.5,141C 35.3985,149.003 36.0651,157.169 35.5,165.5C 34.1667,165.5 32.8333,165.5 31.5,165.5C 31.5,151.833 31.5,138.167 31.5,124.5C 34.4552,125.159 37.4552,125.492 40.5,125.5C 40.5,138.5 40.5,151.5 40.5,164.5C 39.5,164.5 38.5,164.5 37.5,164.5 Z"/></g>
<g><path style="opacity:1" fill="#bcd3e0" d="M 42.5,121.5 C 45.203,121.952 47.8697,122.619 50.5,123.5C 48.2351,124.647 45.9018,124.814 43.5,124C 42.7476,123.329 42.4142,122.496 42.5,121.5 Z"/></g>
<g><path style="opacity:1" fill="#cad1df" d="M 25.5,165.5 C 25.3338,159.491 25.5005,153.491 26,147.5C 28.218,144.988 27.718,143.322 24.5,142.5C 21.282,143.322 20.782,144.988 23,147.5C 23.4995,153.491 23.6662,159.491 23.5,165.5C 22.1667,165.5 20.8333,165.5 19.5,165.5C 19.5,151.167 19.5,136.833 19.5,122.5C 22.7861,123.207 26.1194,123.54 29.5,123.5C 29.5,137.5 29.5,151.5 29.5,165.5C 28.1667,165.5 26.8333,165.5 25.5,165.5 Z"/></g>
<g><path style="opacity:1" fill="#861845" d="M 25.5,165.5 C 24.8333,165.5 24.1667,165.5 23.5,165.5C 23.6662,159.491 23.4995,153.491 23,147.5C 20.782,144.988 21.282,143.322 24.5,142.5C 27.718,143.322 28.218,144.988 26,147.5C 25.5005,153.491 25.3338,159.491 25.5,165.5 Z"/></g>
<g><path style="opacity:1" fill="#c0d4e0" d="M 31.5,119.5 C 34.1267,120.105 36.7934,120.605 39.5,121C 40.7112,121.893 40.7112,122.726 39.5,123.5C 37.2241,122.787 34.8907,122.287 32.5,122C 31.7476,121.329 31.4142,120.496 31.5,119.5 Z"/></g>
<g><path style="opacity:1" fill="#313b77" d="M 73.5,124.5 C 73.5852,123.005 72.9185,122.005 71.5,121.5C 70.0495,122.655 69.0495,124.155 68.5,126C 66.8904,127.495 65.2237,127.661 63.5,126.5C 63.194,128.682 63.194,130.682 63.5,132.5C 62.609,131.89 61.609,131.557 60.5,131.5C 60.573,129.973 59.9063,128.973 58.5,128.5C 58.8777,119.312 63.5444,116.146 72.5,119C 74.5532,120.678 74.8866,122.511 73.5,124.5 Z"/></g>
<g><path style="opacity:1" fill="#c1d4e0" d="M 19.5,117.5 C 22.8067,118.051 26.1401,118.384 29.5,118.5C 29.719,119.675 29.3857,120.675 28.5,121.5C 25.8908,120.77 23.2241,120.27 20.5,120C 19.7476,119.329 19.4142,118.496 19.5,117.5 Z"/></g>
<g><path style="opacity:0.999" fill="#80103f" d="M 319.5,98.5 C 321.428,102.285 322.762,106.285 323.5,110.5C 321.862,111.159 320.195,111.826 318.5,112.5C 317.503,120.138 317.169,127.804 317.5,135.5C 317.167,135.5 316.833,135.5 316.5,135.5C 316.333,123.495 316.5,111.495 317,99.5C 317.671,98.7476 318.504,98.4142 319.5,98.5 Z"/></g>
<g><path style="opacity:1" fill="#333875" d="M 294.5,247.5 C 295.756,247.461 296.756,247.961 297.5,249C 295.19,249.497 292.857,249.663 290.5,249.5C 289.761,249.631 289.094,249.464 288.5,249C 290.586,248.685 292.586,248.185 294.5,247.5 Z"/></g>
<g><path style="opacity:0.008" fill="#9e9e9e" d="M 24.5,247.5 C 26.7221,247.975 27.3888,248.975 26.5,250.5C 25.4489,249.778 24.7822,248.778 24.5,247.5 Z"/></g>
<g><path style="opacity:1" fill="#42457d" d="M 281.5,249.5 C 281.611,250.117 281.944,250.617 282.5,251C 285.367,251.801 288.034,251.634 290.5,250.5C 295.786,251.545 295.786,252.545 290.5,253.5C 287.5,253 284.5,252.5 281.5,252C 280.226,251.023 280.226,250.189 281.5,249.5 Z"/></g>
<g><path style="opacity:1" fill="#fcfcfc" d="M 194.5,222.5 C 194.701,226.61 195.701,230.276 197.5,233.5C 197.5,234.5 197.5,235.5 197.5,236.5C 200.85,236.665 204.183,236.498 207.5,236C 205.825,235.015 204.158,234.181 202.5,233.5C 202.5,229.833 202.5,226.167 202.5,222.5C 227.833,222.5 253.167,222.5 278.5,222.5C 279.502,230.506 280.502,238.506 281.5,246.5C 276.789,247.01 272.122,247.844 267.5,249C 266.542,250.147 266.875,251.147 268.5,252C 277.881,253.844 287.215,255.011 296.5,255.5C 291.537,262.131 285.87,268.131 279.5,273.5C 203.726,280.822 128.059,280.156 52.5,271.5C 40.7524,261.318 31.4191,249.318 24.5,235.5C 35.0641,231.85 45.7308,228.183 56.5,224.5C 57.1681,226.969 57.8347,229.302 58.5,231.5C 59.4464,237.46 60.113,243.46 60.5,249.5C 60.6339,253.355 59.9672,257.022 58.5,260.5C 58.1826,264.172 59.8493,265.838 63.5,265.5C 69.8195,265.253 75.9862,264.253 82,262.5C 91.4438,264.022 100.944,265.189 110.5,266C 138.384,267.616 166.384,267.283 194.5,265C 200.791,264.179 206.791,262.513 212.5,260C 210.365,258.619 208.032,257.619 205.5,257C 199.5,256.333 193.5,255.667 187.5,255C 186.956,254.283 186.289,253.783 185.5,253.5C 183.541,247.661 182.207,241.661 181.5,235.5C 183.924,235.808 186.257,235.474 188.5,234.5C 188.376,233.893 188.043,233.56 187.5,233.5C 187.5,232.167 187.5,230.833 187.5,229.5C 187.5,228.5 187.5,227.5 187.5,226.5C 188.434,225.432 188.768,224.099 188.5,222.5C 190.5,222.5 192.5,222.5 194.5,222.5 Z"/></g>
<g><path style="opacity:1" fill="#e6e7e9" d="M 185.5,253.5 C 186.289,253.783 186.956,254.283 187.5,255C 193.5,255.667 199.5,256.333 205.5,257C 208.032,257.619 210.365,258.619 212.5,260C 206.791,262.513 200.791,264.179 194.5,265C 166.384,267.283 138.384,267.616 110.5,266C 100.944,265.189 91.4438,264.022 82,262.5C 75.9862,264.253 69.8195,265.253 63.5,265.5C 66.0622,263.117 66.7288,260.451 65.5,257.5C 65.3348,249.138 65.6682,240.805 66.5,232.5C 67.3382,232.842 67.6716,233.508 67.5,234.5C 69.9337,240.913 70.9337,247.579 70.5,254.5C 70.5,255.5 70.5,256.5 70.5,257.5C 73.5279,257.339 76.3612,258.006 79,259.5C 80.7259,259.054 82.2259,258.221 83.5,257C 82.5842,256.722 81.9175,256.222 81.5,255.5C 98.4739,253.501 115.474,252.834 132.5,253.5C 131.737,254.268 130.737,254.768 129.5,255C 124.136,255.171 118.802,255.671 113.5,256.5C 110.71,258.927 110.876,260.927 114,262.5C 116.157,261.615 116.99,259.948 116.5,257.5C 122.688,257.042 128.688,257.042 134.5,257.5C 142.475,256.496 150.475,256.496 158.5,257.5C 158.5,259.167 158.5,260.833 158.5,262.5C 164.026,262.821 169.36,262.488 174.5,261.5C 173.064,259.917 171.398,258.417 169.5,257C 168.552,256.517 167.552,256.351 166.5,256.5C 165.675,246.484 165.675,236.484 166.5,226.5C 167.321,229.447 167.821,232.447 168,235.5C 170.894,241.287 173.227,247.287 175,253.5C 175.9,254.77 177.066,255.77 178.5,256.5C 177.626,258.747 177.292,261.08 177.5,263.5C 182.833,263.5 188.167,263.5 193.5,263.5C 193.719,262.325 193.386,261.325 192.5,260.5C 189.793,259.422 187.126,258.422 184.5,257.5C 184.433,256.041 184.766,254.708 185.5,253.5 Z"/></g>
<g><path style="opacity:1" fill="#121621" d="M 134.5,257.5 C 135.341,259.379 135.675,261.379 135.5,263.5C 134.167,263.5 132.833,263.5 131.5,263.5C 131.087,260.68 132.087,258.68 134.5,257.5 Z"/></g>
<g><path style="opacity:1" fill="#232630" d="M 70.5,254.5 C 73.4493,256.499 76.4493,256.832 79.5,255.5C 80.1667,255.5 80.8333,255.5 81.5,255.5C 81.9175,256.222 82.5842,256.722 83.5,257C 82.2259,258.221 80.7259,259.054 79,259.5C 76.3612,258.006 73.5279,257.339 70.5,257.5C 70.5,256.5 70.5,255.5 70.5,254.5 Z"/></g>
<g><path style="opacity:1" fill="#1e212c" d="M 197.5,233.5 C 199.167,233.5 200.833,233.5 202.5,233.5C 204.158,234.181 205.825,235.015 207.5,236C 204.183,236.498 200.85,236.665 197.5,236.5C 197.5,235.5 197.5,234.5 197.5,233.5 Z"/></g>
<g><path style="opacity:1" fill="#141925" d="M 187.5,233.5 C 188.043,233.56 188.376,233.893 188.5,234.5C 186.257,235.474 183.924,235.808 181.5,235.5C 180.833,235.5 180.5,235.167 180.5,234.5C 182.523,232.299 184.856,231.966 187.5,233.5 Z"/></g>
<g><path style="opacity:1" fill="#20232e" d="M 162.5,226.5 C 164.048,226.821 164.715,227.821 164.5,229.5C 162.692,229.491 161.025,229.991 159.5,231C 156.173,236.126 155.507,241.626 157.5,247.5C 158.317,249.969 158.817,252.635 159,255.5C 162.973,255.642 165.14,257.642 165.5,261.5C 168.5,261.5 171.5,261.5 174.5,261.5C 169.36,262.488 164.026,262.821 158.5,262.5C 158.5,260.833 158.5,259.167 158.5,257.5C 150.475,256.496 142.475,256.496 134.5,257.5C 128.688,257.042 122.688,257.042 116.5,257.5C 116.99,259.948 116.157,261.615 114,262.5C 110.876,260.927 110.71,258.927 113.5,256.5C 118.802,255.671 124.136,255.171 129.5,255C 130.737,254.768 131.737,254.268 132.5,253.5C 133.822,253.67 134.989,253.337 136,252.5C 136.478,245.159 136.978,237.826 137.5,230.5C 132.156,230.666 126.823,230.499 121.5,230C 120.944,229.617 120.611,229.117 120.5,228.5C 134.873,229.149 148.873,228.482 162.5,226.5 Z"/></g>
<g><path style="opacity:1" fill="#bec0c4" d="M 156.5,247.5 C 156.833,247.5 157.167,247.5 157.5,247.5C 157.5,250.167 157.5,252.833 157.5,255.5C 153.818,255.665 150.152,255.499 146.5,255C 145.263,254.768 144.263,254.268 143.5,253.5C 147.833,253.5 152.167,253.5 156.5,253.5C 156.5,251.5 156.5,249.5 156.5,247.5 Z"/></g>
<g><path style="opacity:1" fill="#f8f9f9" d="M 156.5,247.5 C 156.5,249.5 156.5,251.5 156.5,253.5C 152.167,253.5 147.833,253.5 143.5,253.5C 142.504,253.586 141.671,253.252 141,252.5C 140.522,245.159 140.022,237.826 139.5,230.5C 144.5,230.5 149.5,230.5 154.5,230.5C 154.437,236.264 155.103,241.93 156.5,247.5 Z"/></g>
<g><path style="opacity:1" fill="#2d2d36" d="M 65.5,257.5 C 66.7288,260.451 66.0622,263.117 63.5,265.5C 59.8493,265.838 58.1826,264.172 58.5,260.5C 62.1045,262.353 64.4379,261.353 65.5,257.5 Z"/></g>
<g><path style="opacity:1" fill="#e6e7e9" d="M 52.5,271.5 C 128.059,280.156 203.726,280.822 279.5,273.5C 247.788,302.856 210.122,316.856 166.5,315.5C 122.135,316.722 84.1351,302.055 52.5,271.5 Z"/></g>
</svg>
