<?xml version="1.0" encoding="UTF-8"?>
<!DOCTYPE svg PUBLIC "-//W3C//DTD SVG 1.1//EN" "http://www.w3.org/Graphics/SVG/1.1/DTD/svg11.dtd">
<svg xmlns="http://www.w3.org/2000/svg" version="1.1" width="335px" height="324px" style="shape-rendering:geometricPrecision; text-rendering:geometricPrecision; image-rendering:optimizeQuality; fill-rule:evenodd; clip-rule:evenodd" xmlns:xlink="http://www.w3.org/1999/xlink">
<g><path style="opacity:1" fill="#c4f8f8" d="M 300.5,63.5 C 305.373,73.5705 310.54,83.5705 316,93.5C 338.018,148.814 332.518,201.148 299.5,250.5C 297.577,254.668 294.91,258.335 291.5,261.5C 285.833,265.167 281.167,269.833 277.5,275.5C 276.167,276.5 274.833,277.5 273.5,278.5C 273.5,274.833 273.5,271.167 273.5,267.5C 276.167,267.5 278.833,267.5 281.5,267.5C 279.606,258.163 276.94,249.163 273.5,240.5C 273.5,240.167 273.5,239.833 273.5,239.5C 278.489,234.197 282.489,228.197 285.5,221.5C 296.379,213.212 301.046,202.212 299.5,188.5C 302.452,174.6 303.119,160.6 301.5,146.5C 303.912,134.284 302.412,122.617 297,111.5C 294.191,107.85 290.691,105.183 286.5,103.5C 266.745,70.9383 238.412,49.4383 201.5,39C 172.307,30.1749 142.64,28.1749 112.5,33C 52.0211,45.4064 26.8544,82.2397 37,143.5C 39.4727,163.39 44.1394,182.723 51,201.5C 51.4169,202.756 52.2502,203.423 53.5,203.5C 45.3343,216.547 45.5009,229.547 54,242.5C 56.7749,245.78 59.9416,248.446 63.5,250.5C 61.0274,250.088 59.6941,251.088 59.5,253.5C 59.2289,255.821 59.8955,257.821 61.5,259.5C 60.086,260.624 58.586,261.624 57,262.5C 55.1,267.913 56.9334,270.247 62.5,269.5C 62.0842,272.36 63.0842,274.526 65.5,276C 64.7282,277.221 63.7282,278.221 62.5,279C 63.3805,279.708 64.0472,280.542 64.5,281.5C 61.9108,280.581 59.9108,278.914 58.5,276.5C 13.1978,233.419 -3.30223,181.086 9,119.5C 14.1056,99.9582 22.439,81.9582 34,65.5C 43.2996,54.5 52.7996,43.8333 62.5,33.5C 62.5,32.8333 62.8333,32.5 63.5,32.5C 63.369,33.2389 63.5357,33.9056 64,34.5C 102.421,5.60866 145.587,-5.22468 193.5,2C 236.037,8.5731 270.703,28.5731 297.5,62C 298.527,62.5133 299.527,63.0133 300.5,63.5 Z"/></g>
<g><path style="opacity:0.937" fill="#6cdbdf" d="M 143.5,-0.5 C 159.167,-0.5 174.833,-0.5 190.5,-0.5C 234.261,6.12296 270.428,26.123 299,59.5C 299.791,60.745 300.291,62.0783 300.5,63.5C 299.527,63.0133 298.527,62.5133 297.5,62C 270.703,28.5731 236.037,8.5731 193.5,2C 145.587,-5.22468 102.421,5.60866 64,34.5C 63.5357,33.9056 63.369,33.2389 63.5,32.5C 87.2364,14.4746 113.903,3.47465 143.5,-0.5 Z"/></g>
<g><path style="opacity:1" fill="#0bc2cb" d="M 286.5,103.5 C 280.451,101.672 274.784,102.506 269.5,106C 266.001,108.396 263.001,111.229 260.5,114.5C 258.537,109.897 256.537,105.23 254.5,100.5C 250.026,90.1924 242.692,82.6924 232.5,78C 220.186,76.6476 211.352,81.4809 206,92.5C 205.506,94.1341 205.34,95.8008 205.5,97.5C 200.103,82.7074 192.603,69.0408 183,56.5C 176.106,48.2551 167.273,44.5885 156.5,45.5C 152.047,43.0368 147.38,42.8701 142.5,45C 138.084,47.4117 134.251,50.5783 131,54.5C 120.846,71.7738 115.013,90.4404 113.5,110.5C 108.507,110.084 103.507,109.751 98.5,109.5C 96.8828,110.038 95.2161,110.371 93.5,110.5C 91.8828,111.038 90.2161,111.371 88.5,111.5C 87.2334,121.313 85.9001,130.98 84.5,140.5C 69.7684,124.481 57.2684,126.148 47,145.5C 43.055,164.602 45.8883,182.602 55.5,199.5C 54.8333,200.833 54.1667,202.167 53.5,203.5C 52.2502,203.423 51.4169,202.756 51,201.5C 44.1394,182.723 39.4727,163.39 37,143.5C 26.8544,82.2397 52.0211,45.4064 112.5,33C 142.64,28.1749 172.307,30.1749 201.5,39C 238.412,49.4383 266.745,70.9383 286.5,103.5 Z"/></g>
<g><path style="opacity:1" fill="#993763" d="M 156.5,45.5 C 167.273,44.5885 176.106,48.2551 183,56.5C 192.603,69.0408 200.103,82.7074 205.5,97.5C 207.443,103.662 209.776,109.662 212.5,115.5C 211.957,115.56 211.624,115.893 211.5,116.5C 216.342,118.53 217.508,121.863 215,126.5C 211.111,129.611 208.111,128.944 206,124.5C 205.457,121.83 205.957,119.33 207.5,117C 207.43,116.235 207.097,115.735 206.5,115.5C 201.938,96.3771 194.105,78.7104 183,62.5C 178.795,57.1127 173.628,53.1127 167.5,50.5C 164.713,49.5233 161.713,49.19 158.5,49.5C 149.599,52.2517 144.099,58.2517 142,67.5C 138.679,82.6612 138.846,97.6612 142.5,112.5C 141.563,116.73 143.229,119.23 147.5,120C 146.872,122.8 145.872,125.467 144.5,128C 145.056,128.383 145.389,128.883 145.5,129.5C 142.375,129.182 139.542,128.182 137,126.5C 136.293,122.453 136.793,118.619 138.5,115C 138.486,113.615 138.152,112.449 137.5,111.5C 136.041,97.1357 136.208,82.8023 138,68.5C 139.397,60.0265 143.564,53.3598 150.5,48.5C 152.289,47.1228 154.289,46.1228 156.5,45.5 Z"/></g>
<g><path style="opacity:1" fill="#1dbdc6" d="M 150.5,48.5 C 143.564,53.3598 139.397,60.0265 138,68.5C 136.208,82.8023 136.041,97.1357 137.5,111.5C 130.804,111.609 124.137,111.276 117.5,110.5C 118.83,90.6784 124.663,72.3451 135,55.5C 138.631,51.3699 143.131,48.7033 148.5,47.5C 149.416,47.5427 150.083,47.8761 150.5,48.5 Z"/></g>
<g><path style="opacity:1" fill="#763241" d="M 158.5,49.5 C 161.713,49.19 164.713,49.5233 167.5,50.5C 182.986,68.4917 191.986,89.8251 194.5,114.5C 193.167,114.5 191.833,114.5 190.5,114.5C 188.701,94.245 181.868,75.9116 170,59.5C 166.562,55.5587 162.729,52.2254 158.5,49.5 Z"/></g>
<g><path style="opacity:1" fill="#12c0c9" d="M 158.5,49.5 C 162.729,52.2254 166.562,55.5587 170,59.5C 181.868,75.9116 188.701,94.245 190.5,114.5C 181.842,113.989 173.175,113.656 164.5,113.5C 157.201,112.65 149.868,112.317 142.5,112.5C 138.846,97.6612 138.679,82.6612 142,67.5C 144.099,58.2517 149.599,52.2517 158.5,49.5 Z"/></g>
<g><path style="opacity:1" fill="#1ebbc4" d="M 167.5,50.5 C 173.628,53.1127 178.795,57.1127 183,62.5C 194.105,78.7104 201.938,96.3771 206.5,115.5C 202.452,115.605 198.452,115.272 194.5,114.5C 191.986,89.8251 182.986,68.4917 167.5,50.5 Z"/></g>
<g><path style="opacity:0.004" fill="#292929" d="M 41.5,53.5 C 40.8333,54.8333 39.8333,55.8333 38.5,56.5C 38.5,54.5 39.5,53.5 41.5,53.5 Z"/></g>
<g><path style="opacity:0.005" fill="#161616" d="M 34.5,61.5 C 34.1667,63.8333 32.8333,65.1667 30.5,65.5C 31.5,63.8333 32.8333,62.5 34.5,61.5 Z"/></g>
<g><path style="opacity:0.007" fill="#000000" d="M 30.5,66.5 C 31.4387,67.3274 31.1054,67.9941 29.5,68.5C 29.3284,67.5084 29.6618,66.8417 30.5,66.5 Z"/></g>
<g><path style="opacity:0.005" fill="#1b1b1b" d="M 304.5,68.5 C 306.727,69.4006 307.727,71.0672 307.5,73.5C 306.11,72.1007 305.11,70.4341 304.5,68.5 Z"/></g>
<g><path style="opacity:1" fill="#85344f" d="M 156.5,45.5 C 154.289,46.1228 152.289,47.1228 150.5,48.5C 150.083,47.8761 149.416,47.5427 148.5,47.5C 143.131,48.7033 138.631,51.3699 135,55.5C 124.663,72.3451 118.83,90.6784 117.5,110.5C 116.167,110.5 114.833,110.5 113.5,110.5C 115.013,90.4404 120.846,71.7738 131,54.5C 134.251,50.5783 138.084,47.4117 142.5,45C 147.38,42.8701 152.047,43.0368 156.5,45.5 Z"/></g>
<g><path style="opacity:0.007" fill="#131313" d="M 26.5,73.5 C 25.8645,75.7946 24.5311,77.4613 22.5,78.5C 23.0798,76.2512 24.4131,74.5846 26.5,73.5 Z"/></g>
<g><path style="opacity:0.009" fill="#000000" d="M 22.5,79.5 C 22.9382,79.4346 23.2716,79.6012 23.5,80C 22.8971,82.0714 21.5638,83.2381 19.5,83.5C 20.5116,82.1283 21.5116,80.795 22.5,79.5 Z"/></g>
<g><path style="opacity:1" fill="#fd8d8d" d="M 254.5,100.5 C 252.856,100.286 251.356,100.62 250,101.5C 248.956,103.715 248.29,106.048 248,108.5C 247.667,106.167 247.333,103.833 247,101.5C 243.026,102.879 239.192,104.546 235.5,106.5C 237.628,111.385 239.462,116.385 241,121.5C 241.654,120.304 242.154,120.304 242.5,121.5C 241.652,123.409 241.318,125.409 241.5,127.5C 239.985,124.171 238.651,120.671 237.5,117C 229.169,116.389 220.836,115.889 212.5,115.5C 209.776,109.662 207.443,103.662 205.5,97.5C 205.34,95.8008 205.506,94.1341 206,92.5C 211.352,81.4809 220.186,76.6476 232.5,78C 242.692,82.6924 250.026,90.1924 254.5,100.5 Z"/></g>
<g><path style="opacity:1" fill="#69d2d6" d="M 62.5,33.5 C 52.7996,43.8333 43.2996,54.5 34,65.5C 22.439,81.9582 14.1056,99.9582 9,119.5C -3.30223,181.086 13.1978,233.419 58.5,276.5C 27.0365,249.922 8.86985,215.922 4,174.5C 0.722704,142.991 6.2227,113.158 20.5,85C 19.9056,84.5357 19.2389,84.369 18.5,84.5C 18.5,83.8333 18.8333,83.5 19.5,83.5C 21.5638,83.2381 22.8971,82.0714 23.5,80C 23.2716,79.6012 22.9382,79.4346 22.5,79.5C 22.5,79.1667 22.5,78.8333 22.5,78.5C 24.5311,77.4613 25.8645,75.7946 26.5,73.5C 26.7497,71.326 27.7497,69.6594 29.5,68.5C 31.1054,67.9941 31.4387,67.3274 30.5,66.5C 30.5,66.1667 30.5,65.8333 30.5,65.5C 32.8333,65.1667 34.1667,63.8333 34.5,61.5C 35.604,59.6115 36.9373,57.9448 38.5,56.5C 39.8333,55.8333 40.8333,54.8333 41.5,53.5C 47.5124,45.8215 54.5124,39.1548 62.5,33.5 Z"/></g>
<g><path style="opacity:0.71" fill="#66cfd3" d="M 300.5,63.5 C 302.688,64.4443 304.021,66.111 304.5,68.5C 305.11,70.4341 306.11,72.1007 307.5,73.5C 311.333,78.4937 314.666,83.827 317.5,89.5C 316.903,89.7352 316.57,90.2352 316.5,91C 331.878,126.481 334.711,162.981 325,200.5C 319.882,219.071 311.382,235.738 299.5,250.5C 332.518,201.148 338.018,148.814 316,93.5C 310.54,83.5705 305.373,73.5705 300.5,63.5 Z"/></g>
<g><path style="opacity:0.004" fill="#fefffe" d="M 21.5,242.5 C 22.9063,242.973 23.573,243.973 23.5,245.5C 22.0937,245.027 21.427,244.027 21.5,242.5 Z"/></g>
<g><path style="opacity:0.004" fill="#e4e4e4" d="M 311.5,243.5 C 311.573,245.027 310.906,246.027 309.5,246.5C 309.427,244.973 310.094,243.973 311.5,243.5 Z"/></g>
<g><path style="opacity:0.13" fill="#141414" d="M 18.5,84.5 C 19.2389,84.369 19.9056,84.5357 20.5,85C 6.2227,113.158 0.722704,142.991 4,174.5C 8.86985,215.922 27.0365,249.922 58.5,276.5C 59.9108,278.914 61.9108,280.581 64.5,281.5C 68.0013,285.662 72.3346,288.662 77.5,290.5C 80.8349,293.839 84.8349,296.172 89.5,297.5C 91.8485,299.341 94.5152,300.674 97.5,301.5C 105.532,306.067 114.199,309.067 123.5,310.5C 137.614,314.309 152.114,315.976 167,315.5C 182.959,315.985 198.459,313.985 213.5,309.5C 232.737,304.88 250.07,296.546 265.5,284.5C 267.062,284.267 268.395,283.6 269.5,282.5C 271.167,281.5 272.5,280.167 273.5,278.5C 274.833,277.5 276.167,276.5 277.5,275.5C 282.5,271.167 287.167,266.5 291.5,261.5C 294.91,258.335 297.577,254.668 299.5,250.5C 311.382,235.738 319.882,219.071 325,200.5C 334.711,162.981 331.878,126.481 316.5,91C 316.57,90.2352 316.903,89.7352 317.5,89.5C 323.324,101.906 327.99,114.406 331.5,127C 331.167,127.333 330.833,127.667 330.5,128C 332.099,134.876 333.432,141.709 334.5,148.5C 334.5,148.833 334.5,149.167 334.5,149.5C 333.167,149.833 333.167,150.167 334.5,150.5C 334.5,153.167 334.5,155.833 334.5,158.5C 333.167,158.833 333.167,159.167 334.5,159.5C 334.5,162.5 334.5,165.5 334.5,168.5C 333.167,169.167 333.167,169.833 334.5,170.5C 334.5,170.833 334.5,171.167 334.5,171.5C 332.47,195.957 324.803,219.957 311.5,243.5C 310.094,243.973 309.427,244.973 309.5,246.5C 290.066,278.37 262.399,300.87 226.5,314C 209.347,319.127 191.681,322.294 173.5,323.5C 173.167,323.5 172.833,323.5 172.5,323.5C 169.167,322.167 165.833,322.167 162.5,323.5C 162.167,323.5 161.833,323.5 161.5,323.5C 110.477,321.908 68.3103,301.574 35,262.5C 30.9453,256.952 27.112,251.285 23.5,245.5C 23.573,243.973 22.9063,242.973 21.5,242.5C 19.5981,240.038 17.9314,237.538 16.5,235C 16.8333,234.667 17.1667,234.333 17.5,234C 14.4495,228.842 11.7828,223.508 9.5,218C 9.83333,217.667 10.1667,217.333 10.5,217C 6.81826,210.64 4.81826,203.973 4.5,197C 2.22713,188.184 0.560462,179.351 -0.5,170.5C -0.5,170.167 -0.5,169.833 -0.5,169.5C 0.833333,168.167 0.833333,166.833 -0.5,165.5C -0.5,165.167 -0.5,164.833 -0.5,164.5C 0.833333,164.167 0.833333,163.833 -0.5,163.5C -0.5,163.167 -0.5,162.833 -0.5,162.5C 0.833333,162.167 0.833333,161.833 -0.5,161.5C -0.5,160.167 -0.5,158.833 -0.5,157.5C 0.833333,157.167 0.833333,156.833 -0.5,156.5C -0.5,156.167 -0.5,155.833 -0.5,155.5C 0.833333,154.833 0.833333,154.167 -0.5,153.5C -0.5,153.167 -0.5,152.833 -0.5,152.5C 0.833333,151.833 0.833333,151.167 -0.5,150.5C -0.5,150.167 -0.5,149.833 -0.5,149.5C 1.63093,126.65 7.96426,104.983 18.5,84.5 Z"/></g>
<g><path style="opacity:1" fill="#f7f6f9" d="M 189.5,210.5 C 190.491,216.979 190.824,223.646 190.5,230.5C 190.5,231.5 190.5,232.5 190.5,233.5C 190.334,237.514 190.501,241.514 191,245.5C 192.563,248.044 194.063,248.044 195.5,245.5C 196.498,255.144 196.832,264.81 196.5,274.5C 196.665,277.85 196.498,281.183 196,284.5C 195.5,285.667 194.667,286.5 193.5,287C 177.126,288.051 160.793,289.051 144.5,290C 145.056,289.617 145.389,289.117 145.5,288.5C 145.5,285.833 145.5,283.167 145.5,280.5C 145.5,275.5 145.5,270.5 145.5,265.5C 145.334,258.825 145.5,252.158 146,245.5C 147.835,248.858 150.002,249.191 152.5,246.5C 154.048,248.922 155.714,248.922 157.5,246.5C 159.59,249.009 161.423,248.675 163,245.5C 164,246.5 165,247.5 166,248.5C 168.68,247.33 171.347,246.33 174,245.5C 175.775,248.044 177.608,248.044 179.5,245.5C 181.392,248.044 183.225,248.044 185,245.5C 186.079,247.394 187.413,247.727 189,246.5C 189.5,234.505 189.667,222.505 189.5,210.5 Z"/></g>
<g><path style="opacity:1" fill="#6667d9" d="M 232.5,238.5 C 235.5,238.5 238.5,238.5 241.5,238.5C 241.334,246.507 241.5,254.507 242,262.5C 244.614,264.556 247.447,266.223 250.5,267.5C 250.5,272.5 250.5,277.5 250.5,282.5C 244.464,282.64 238.464,282.307 232.5,281.5C 232.5,267.167 232.5,252.833 232.5,238.5 Z"/></g>
<g><path style="opacity:1" fill="#dbd3f9" d="M 120.5,236.5 C 123.421,236.283 126.087,236.949 128.5,238.5C 129.504,239.683 130.338,241.016 131,242.5C 131.499,246.486 131.666,250.486 131.5,254.5C 131.167,254.5 130.833,254.5 130.5,254.5C 130.741,251.206 129.908,248.206 128,245.5C 125.665,242.335 123.165,239.335 120.5,236.5 Z"/></g>
<g><path style="opacity:1" fill="#a3336b" d="M 250.5,237.5 C 253.833,237.5 257.167,237.5 260.5,237.5C 260.5,252.167 260.5,266.833 260.5,281.5C 257.167,281.833 253.833,282.167 250.5,282.5C 250.5,277.5 250.5,272.5 250.5,267.5C 250.5,257.5 250.5,247.5 250.5,237.5 Z"/></g>
<g><path style="opacity:1" fill="#9f2f64" d="M 243.5,219.5 C 245.126,225.032 246.126,230.698 246.5,236.5C 247.791,236.263 248.791,236.596 249.5,237.5C 243.642,237.178 237.975,237.511 232.5,238.5C 232.5,252.833 232.5,267.167 232.5,281.5C 230.435,281.483 228.435,281.15 226.5,280.5C 225.209,280.737 224.209,280.404 223.5,279.5C 223.5,265.5 223.5,251.5 223.5,237.5C 225.735,237.795 227.735,237.461 229.5,236.5C 234.794,236.318 234.794,235.818 229.5,235C 225.775,228.113 227.775,224.447 235.5,224C 236.836,221.8 238.502,219.967 240.5,218.5C 241.584,218.685 242.584,219.018 243.5,219.5 Z"/></g>
<g><path style="opacity:1" fill="#fbf9fd" d="M 117.5,236.5 C 118.5,236.5 119.5,236.5 120.5,236.5C 123.165,239.335 125.665,242.335 128,245.5C 129.908,248.206 130.741,251.206 130.5,254.5C 128.88,259.823 125.214,262.49 119.5,262.5C 117.5,260.833 115.5,259.167 113.5,257.5C 113.167,256.5 112.5,255.833 111.5,255.5C 108.777,247.577 110.777,241.244 117.5,236.5 Z"/></g>
<g><path style="opacity:1" fill="#a984f4" d="M 120.5,241.5 C 124.312,242.078 125.979,244.411 125.5,248.5C 125.406,250.923 124.906,253.256 124,255.5C 122.333,256.833 120.667,256.833 119,255.5C 116.712,250.479 117.212,245.812 120.5,241.5 Z"/></g>
<g><path style="opacity:1" fill="#f8f4fa" d="M 107.5,233.5 C 107.833,233.5 108.167,233.5 108.5,233.5C 110.099,233.232 111.432,233.566 112.5,234.5C 109.593,239.984 106.926,245.651 104.5,251.5C 101.39,250.912 98.3896,250.245 95.5,249.5C 97.1439,249.714 98.6439,249.38 100,248.5C 102.527,243.447 105.027,238.447 107.5,233.5 Z"/></g>
<g><path style="opacity:1" fill="#a67bf6" d="M 96.5,232.5 C 96.211,235.581 94.5444,237.581 91.5,238.5C 88.9963,237.85 87.663,236.183 87.5,233.5C 87.3359,230.813 87.5026,228.146 88,225.5C 89.8265,221.963 92.1598,221.629 95,224.5C 96.2525,227.014 96.7525,229.68 96.5,232.5 Z"/></g>
<g><path style="opacity:1" fill="#dcd1fa" d="M 114.5,232.5 C 113.833,233.167 113.167,233.833 112.5,234.5C 111.432,233.566 110.099,233.232 108.5,233.5C 110.691,227.762 113.858,222.762 118,218.5C 119.28,218.613 120.113,219.28 120.5,220.5C 118.473,224.553 116.473,228.553 114.5,232.5 Z"/></g>
<g><path style="opacity:1" fill="#2ec1cb" d="M 285.5,221.5 C 282.489,228.197 278.489,234.197 273.5,239.5C 273.5,238.833 273.167,238.5 272.5,238.5C 272.5,238.167 272.5,237.833 272.5,237.5C 271.91,233.397 270.91,229.397 269.5,225.5C 275.173,226.064 280.507,224.73 285.5,221.5 Z"/></g>
<g><path style="opacity:1" fill="#fbf8fe" d="M 80.5,223.5 C 85.1341,225.208 87.4675,228.541 87.5,233.5C 87.663,236.183 88.9963,237.85 91.5,238.5C 94.5444,237.581 96.211,235.581 96.5,232.5C 98.5,232.5 100.5,232.5 102.5,232.5C 102.5,233.5 102.5,234.5 102.5,235.5C 98.8058,244.778 92.4725,246.945 83.5,242C 78.1643,236.448 77.1643,230.282 80.5,223.5 Z"/></g>
<g><path style="opacity:1" fill="#e1d4fc" d="M 103.5,227.5 C 103.806,230.385 103.473,233.052 102.5,235.5C 102.5,234.5 102.5,233.5 102.5,232.5C 100.5,232.5 98.5,232.5 96.5,232.5C 96.7525,229.68 96.2525,227.014 95,224.5C 92.1598,221.629 89.8265,221.963 88,225.5C 87.5026,228.146 87.3359,230.813 87.5,233.5C 87.4675,228.541 85.1341,225.208 80.5,223.5C 80.5,222.833 80.5,222.167 80.5,221.5C 86.9856,215.245 93.8189,214.912 101,220.5C 102.411,222.65 103.245,224.984 103.5,227.5 Z"/></g>
<g><path style="opacity:1" fill="#fc8c8d" d="M 79.5,190.5 C 78.6864,195.119 78.3531,199.786 78.5,204.5C 76.1667,204.5 73.8333,204.5 71.5,204.5C 68.9556,204.104 66.7889,204.771 65,206.5C 64.5001,220.829 64.3334,235.163 64.5,249.5C 65.8333,249.5 67.1667,249.5 68.5,249.5C 67.0813,250.451 65.4147,250.784 63.5,250.5C 59.9416,248.446 56.7749,245.78 54,242.5C 45.5009,229.547 45.3343,216.547 53.5,203.5C 54.1667,202.167 54.8333,200.833 55.5,199.5C 59.6373,193.516 65.304,190.349 72.5,190C 74.3506,190.837 76.1839,191.671 78,192.5C 78.2784,191.584 78.7784,190.918 79.5,190.5 Z"/></g>
<g><path style="opacity:1" fill="#8666ec" d="M 168.5,208.5 C 175.175,208.334 181.842,208.5 188.5,209C 189.056,209.383 189.389,209.883 189.5,210.5C 189.667,222.505 189.5,234.505 189,246.5C 187.413,247.727 186.079,247.394 185,245.5C 183.225,248.044 181.392,248.044 179.5,245.5C 177.608,248.044 175.775,248.044 174,245.5C 171.347,246.33 168.68,247.33 166,248.5C 165,247.5 164,246.5 163,245.5C 161.423,248.675 159.59,249.009 157.5,246.5C 155.714,248.922 154.048,248.922 152.5,246.5C 150.002,249.191 147.835,248.858 146,245.5C 145.5,252.158 145.334,258.825 145.5,265.5C 143.5,265.5 141.5,265.5 139.5,265.5C 136.06,262.393 133.393,258.727 131.5,254.5C 131.666,250.486 131.499,246.486 131,242.5C 130.338,241.016 129.504,239.683 128.5,238.5C 139.345,228.158 150.679,218.325 162.5,209C 164.473,208.505 166.473,208.338 168.5,208.5 Z"/></g>
<g><path style="opacity:1" fill="#966cf3" d="M 71.5,204.5 C 73.8333,204.5 76.1667,204.5 78.5,204.5C 87.8436,204.599 97.177,204.932 106.5,205.5C 127.154,206.513 147.821,207.179 168.5,207.5C 168.5,207.833 168.5,208.167 168.5,208.5C 166.473,208.338 164.473,208.505 162.5,209C 150.679,218.325 139.345,228.158 128.5,238.5C 126.087,236.949 123.421,236.283 120.5,236.5C 119.5,236.5 118.5,236.5 117.5,236.5C 115.771,235.764 114.771,234.43 114.5,232.5C 116.473,228.553 118.473,224.553 120.5,220.5C 120.113,219.28 119.28,218.613 118,218.5C 113.858,222.762 110.691,227.762 108.5,233.5C 108.167,233.5 107.833,233.5 107.5,233.5C 106.5,233.5 105.5,233.5 104.5,233.5C 104.795,231.265 104.461,229.265 103.5,227.5C 103.245,224.984 102.411,222.65 101,220.5C 93.8189,214.912 86.9856,215.245 80.5,221.5C 76.7396,216.316 73.7396,210.65 71.5,204.5 Z"/></g>
<g><path style="opacity:1" fill="#fcb548" d="M 197.5,191.5 C 201.733,196.954 205.733,202.62 209.5,208.5C 205.798,212.852 202.298,217.518 199,222.5C 196.297,225.371 193.464,228.038 190.5,230.5C 190.824,223.646 190.491,216.979 189.5,210.5C 189.389,209.883 189.056,209.383 188.5,209C 181.842,208.5 175.175,208.334 168.5,208.5C 168.5,208.167 168.5,207.833 168.5,207.5C 178.653,203.006 188.32,197.672 197.5,191.5 Z"/></g>
<g><path style="opacity:1" fill="#a67ef4" d="M 71.5,204.5 C 73.7396,210.65 76.7396,216.316 80.5,221.5C 80.5,222.167 80.5,222.833 80.5,223.5C 77.1643,230.282 78.1643,236.448 83.5,242C 92.4725,246.945 98.8058,244.778 102.5,235.5C 103.473,233.052 103.806,230.385 103.5,227.5C 104.461,229.265 104.795,231.265 104.5,233.5C 105.5,233.5 106.5,233.5 107.5,233.5C 105.027,238.447 102.527,243.447 100,248.5C 98.6439,249.38 97.1439,249.714 95.5,249.5C 86.5,249.5 77.5,249.5 68.5,249.5C 67.1667,249.5 65.8333,249.5 64.5,249.5C 64.3334,235.163 64.5001,220.829 65,206.5C 66.7889,204.771 68.9556,204.104 71.5,204.5 Z"/></g>
<g><path style="opacity:1" fill="#f8953b" d="M 259.5,192.5 C 263.279,203.262 266.612,214.262 269.5,225.5C 270.91,229.397 271.91,233.397 272.5,237.5C 269.167,237.5 265.833,237.5 262.5,237.5C 262.678,236.305 263.011,235.138 263.5,234C 261.421,230.512 259.754,226.845 258.5,223C 254.683,221.967 251.683,223.134 249.5,226.5C 248.192,223.536 246.192,221.203 243.5,219.5C 242.584,219.018 241.584,218.685 240.5,218.5C 238.502,219.967 236.836,221.8 235.5,224C 227.775,224.447 225.775,228.113 229.5,235C 234.794,235.818 234.794,236.318 229.5,236.5C 224.833,236.5 220.167,236.5 215.5,236.5C 215.126,248.904 214.126,261.238 212.5,273.5C 207.138,273.472 201.805,273.806 196.5,274.5C 196.832,264.81 196.498,255.144 195.5,245.5C 194.063,248.044 192.563,248.044 191,245.5C 190.501,241.514 190.334,237.514 190.5,233.5C 200.321,227.824 210.655,222.991 221.5,219C 233.668,211.415 246.001,204.082 258.5,197C 259.38,195.644 259.714,194.144 259.5,192.5 Z"/></g>
<g><path style="opacity:1" fill="#902f51" d="M 243.5,219.5 C 246.192,221.203 248.192,223.536 249.5,226.5C 251.683,223.134 254.683,221.967 258.5,223C 259.754,226.845 261.421,230.512 263.5,234C 263.011,235.138 262.678,236.305 262.5,237.5C 261.833,237.5 261.167,237.5 260.5,237.5C 257.167,237.5 253.833,237.5 250.5,237.5C 250.167,237.5 249.833,237.5 249.5,237.5C 248.791,236.596 247.791,236.263 246.5,236.5C 246.126,230.698 245.126,225.032 243.5,219.5 Z"/></g>
<g><path style="opacity:1" fill="#faa13c" d="M 251.5,164.5 C 254.167,172.5 256.833,180.5 259.5,188.5C 259.5,189.833 259.5,191.167 259.5,192.5C 259.714,194.144 259.38,195.644 258.5,197C 246.001,204.082 233.668,211.415 221.5,219C 210.655,222.991 200.321,227.824 190.5,233.5C 190.5,232.5 190.5,231.5 190.5,230.5C 193.464,228.038 196.297,225.371 199,222.5C 202.298,217.518 205.798,212.852 209.5,208.5C 211.636,210.812 213.636,213.312 215.5,216C 218.481,216.838 220.814,216.005 222.5,213.5C 231.572,207.207 240.406,200.54 249,193.5C 249.667,192.167 249.667,190.833 249,189.5C 244.963,185.631 241.13,181.631 237.5,177.5C 241.426,174.193 245.76,171.36 250.5,169C 251.38,167.644 251.714,166.144 251.5,164.5 Z"/></g>
<g><path style="opacity:1" fill="#9c7bf1" d="M 291.5,171.5 C 294.555,177.004 297.221,182.671 299.5,188.5C 301.046,202.212 296.379,213.212 285.5,221.5C 280.507,224.73 275.173,226.064 269.5,225.5C 266.612,214.262 263.279,203.262 259.5,192.5C 259.5,191.167 259.5,189.833 259.5,188.5C 258.427,178.15 262.093,169.984 270.5,164C 273.702,162.517 277.036,162.183 280.5,163C 284.614,165.284 288.28,168.117 291.5,171.5 Z"/></g>
<g><path style="opacity:1" fill="#27c3cf" d="M 301.5,146.5 C 303.119,160.6 302.452,174.6 299.5,188.5C 297.221,182.671 294.555,177.004 291.5,171.5C 296.018,163.606 299.352,155.273 301.5,146.5 Z"/></g>
<g><path style="opacity:1" fill="#948178" d="M 194.5,144.5 C 195.906,144.973 196.573,145.973 196.5,147.5C 197.833,149.833 197.833,152.167 196.5,154.5C 195.974,156.23 194.974,157.564 193.5,158.5C 192.176,156.442 192.676,154.775 195,153.5C 195.494,151.866 195.66,150.199 195.5,148.5C 195.167,147.167 194.833,145.833 194.5,144.5 Z"/></g>
<g><path style="opacity:1" fill="#eff2f4" d="M 196.5,147.5 C 197.5,147.5 198.5,147.5 199.5,147.5C 202.861,156.364 208.861,162.864 217.5,167C 219.638,170.72 222.138,174.22 225,177.5C 226.128,182.712 223.961,185.212 218.5,185C 215.669,189.441 214.836,194.274 216,199.5C 223.097,194.871 230.264,190.538 237.5,186.5C 237.714,188.144 237.38,189.644 236.5,191C 230.331,194.584 224.331,198.417 218.5,202.5C 217.274,207.055 218.607,210.722 222.5,213.5C 220.814,216.005 218.481,216.838 215.5,216C 213.636,213.312 211.636,210.812 209.5,208.5C 205.733,202.62 201.733,196.954 197.5,191.5C 190.507,180.851 183.507,170.185 176.5,159.5C 176.529,157.971 177.196,156.804 178.5,156C 181.952,154.774 185.285,153.274 188.5,151.5C 189.298,151.043 189.631,150.376 189.5,149.5C 191.598,150.484 193.598,150.151 195.5,148.5C 195.66,150.199 195.494,151.866 195,153.5C 192.676,154.775 192.176,156.442 193.5,158.5C 194.687,160.975 196.687,161.975 199.5,161.5C 199.662,159.473 199.495,157.473 199,155.5C 198.329,154.748 197.496,154.414 196.5,154.5C 197.833,152.167 197.833,149.833 196.5,147.5 Z"/></g>
<g><path style="opacity:1" fill="#fdc14a" d="M 196.5,154.5 C 197.496,154.414 198.329,154.748 199,155.5C 199.495,157.473 199.662,159.473 199.5,161.5C 196.687,161.975 194.687,160.975 193.5,158.5C 194.974,157.564 195.974,156.23 196.5,154.5 Z"/></g>
<g><path style="opacity:1" fill="#e28edc" d="M 84.5,140.5 C 83.1386,157.199 81.4719,173.866 79.5,190.5C 78.7784,190.918 78.2784,191.584 78,192.5C 76.1839,191.671 74.3506,190.837 72.5,190C 65.304,190.349 59.6373,193.516 55.5,199.5C 45.8883,182.602 43.055,164.602 47,145.5C 57.2684,126.148 69.7684,124.481 84.5,140.5 Z"/></g>
<g><path style="opacity:1" fill="#fefdfb" d="M 216.5,157.5 C 223.5,164.167 230.5,170.833 237.5,177.5C 241.13,181.631 244.963,185.631 249,189.5C 249.667,190.833 249.667,192.167 249,193.5C 240.406,200.54 231.572,207.207 222.5,213.5C 218.607,210.722 217.274,207.055 218.5,202.5C 224.331,198.417 230.331,194.584 236.5,191C 237.38,189.644 237.714,188.144 237.5,186.5C 230.264,190.538 223.097,194.871 216,199.5C 214.836,194.274 215.669,189.441 218.5,185C 223.961,185.212 226.128,182.712 225,177.5C 222.138,174.22 219.638,170.72 217.5,167C 208.861,162.864 202.861,156.364 199.5,147.5C 200.799,145.901 202.465,145.401 204.5,146C 208.369,150.037 212.369,153.87 216.5,157.5 Z"/></g>
<g><path style="opacity:1" fill="#feb037" d="M 243.5,137.5 C 245.988,144.452 248.321,151.452 250.5,158.5C 250.833,160.5 251.167,162.5 251.5,164.5C 251.714,166.144 251.38,167.644 250.5,169C 245.76,171.36 241.426,174.193 237.5,177.5C 230.5,170.833 223.5,164.167 216.5,157.5C 224.862,151.832 233.529,146.498 242.5,141.5C 243.429,140.311 243.762,138.978 243.5,137.5 Z"/></g>
<g><path style="opacity:1" fill="#d4993e" d="M 182.5,136.5 C 187.322,137.998 191.322,140.664 194.5,144.5C 194.833,145.833 195.167,147.167 195.5,148.5C 193.598,150.151 191.598,150.484 189.5,149.5C 187.244,145.903 184.577,142.569 181.5,139.5C 181.047,138.542 180.381,137.708 179.5,137C 180.448,136.517 181.448,136.351 182.5,136.5 Z"/></g>
<g><path style="opacity:1" fill="#9d7443" d="M 173.5,131.5 C 176.696,132.929 179.696,134.595 182.5,136.5C 181.448,136.351 180.448,136.517 179.5,137C 180.381,137.708 181.047,138.542 181.5,139.5C 178.996,138.416 176.663,137.083 174.5,135.5C 175.043,135.44 175.376,135.107 175.5,134.5C 174.335,133.416 173.002,132.583 171.5,132C 172.094,131.536 172.761,131.369 173.5,131.5 Z"/></g>
<g><path style="opacity:1" fill="#8c6e49" d="M 145.5,129.5 C 152.793,130.829 160.127,131.995 167.5,133C 170.104,133.39 172.438,134.224 174.5,135.5C 166.858,134.253 159.191,133.086 151.5,132C 149.148,131.76 147.148,130.927 145.5,129.5 Z"/></g>
<g><path style="opacity:1" fill="#7e6045" d="M 162.5,127.5 C 165.241,127.707 167.574,128.707 169.5,130.5C 166.759,130.293 164.426,129.293 162.5,127.5 Z"/></g>
<g><path style="opacity:1" fill="#7e654b" d="M 162.5,126.5 C 162.5,126.833 162.5,127.167 162.5,127.5C 159.984,127.245 157.65,126.411 155.5,125C 157.922,124.865 160.255,125.365 162.5,126.5 Z"/></g>
<g><path style="opacity:1" fill="#e38edd" d="M 286.5,103.5 C 290.691,105.183 294.191,107.85 297,111.5C 302.412,122.617 303.912,134.284 301.5,146.5C 299.352,155.273 296.018,163.606 291.5,171.5C 288.28,168.117 284.614,165.284 280.5,163C 277.036,162.183 273.702,162.517 270.5,164C 262.093,169.984 258.427,178.15 259.5,188.5C 256.833,180.5 254.167,172.5 251.5,164.5C 251.167,162.5 250.833,160.5 250.5,158.5C 250.141,148.776 250.641,139.109 252,129.5C 254.228,124.118 257.062,119.118 260.5,114.5C 263.001,111.229 266.001,108.396 269.5,106C 274.784,102.506 280.451,101.672 286.5,103.5 Z"/></g>
<g><path style="opacity:1" fill="#faad4a" d="M 93.5,110.5 C 91.3539,136.816 93.5206,162.816 100,188.5C 100.499,193.823 100.666,199.156 100.5,204.5C 102.5,204.5 104.5,204.5 106.5,204.5C 106.5,204.833 106.5,205.167 106.5,205.5C 97.177,204.932 87.8436,204.599 78.5,204.5C 78.3531,199.786 78.6864,195.119 79.5,190.5C 81.4719,173.866 83.1386,157.199 84.5,140.5C 85.9001,130.98 87.2334,121.313 88.5,111.5C 90.2161,111.371 91.8828,111.038 93.5,110.5 Z"/></g>
<g><path style="opacity:1" fill="#feb536" d="M 164.5,113.5 C 173.175,113.656 181.842,113.989 190.5,114.5C 191.833,114.5 193.167,114.5 194.5,114.5C 198.452,115.272 202.452,115.605 206.5,115.5C 207.097,115.735 207.43,116.235 207.5,117C 205.957,119.33 205.457,121.83 206,124.5C 208.111,128.944 211.111,129.611 215,126.5C 217.508,121.863 216.342,118.53 211.5,116.5C 211.624,115.893 211.957,115.56 212.5,115.5C 220.836,115.889 229.169,116.389 237.5,117C 238.651,120.671 239.985,124.171 241.5,127.5C 241.851,130.903 242.518,134.237 243.5,137.5C 243.762,138.978 243.429,140.311 242.5,141.5C 233.529,146.498 224.862,151.832 216.5,157.5C 212.369,153.87 208.369,150.037 204.5,146C 202.465,145.401 200.799,145.901 199.5,147.5C 198.5,147.5 197.5,147.5 196.5,147.5C 196.573,145.973 195.906,144.973 194.5,144.5C 191.322,140.664 187.322,137.998 182.5,136.5C 179.696,134.595 176.696,132.929 173.5,131.5C 172.432,130.566 171.099,130.232 169.5,130.5C 167.574,128.707 165.241,127.707 162.5,127.5C 162.5,127.167 162.5,126.833 162.5,126.5C 162.15,121.964 162.817,117.631 164.5,113.5 Z"/></g>
<g><path style="opacity:1" fill="#f8be44" d="M 142.5,112.5 C 149.868,112.317 157.201,112.65 164.5,113.5C 162.817,117.631 162.15,121.964 162.5,126.5C 160.255,125.365 157.922,124.865 155.5,125C 157.65,126.411 159.984,127.245 162.5,127.5C 164.426,129.293 166.759,130.293 169.5,130.5C 171.099,130.232 172.432,130.566 173.5,131.5C 172.761,131.369 172.094,131.536 171.5,132C 173.002,132.583 174.335,133.416 175.5,134.5C 175.376,135.107 175.043,135.44 174.5,135.5C 172.438,134.224 170.104,133.39 167.5,133C 160.127,131.995 152.793,130.829 145.5,129.5C 145.389,128.883 145.056,128.383 144.5,128C 145.872,125.467 146.872,122.8 147.5,120C 143.229,119.23 141.563,116.73 142.5,112.5 Z"/></g>
<g><path style="opacity:1" fill="#fec244" d="M 98.5,109.5 C 103.507,109.751 108.507,110.084 113.5,110.5C 114.833,110.5 116.167,110.5 117.5,110.5C 124.137,111.276 130.804,111.609 137.5,111.5C 138.152,112.449 138.486,113.615 138.5,115C 136.793,118.619 136.293,122.453 137,126.5C 139.542,128.182 142.375,129.182 145.5,129.5C 147.148,130.927 149.148,131.76 151.5,132C 159.191,133.086 166.858,134.253 174.5,135.5C 176.663,137.083 178.996,138.416 181.5,139.5C 184.577,142.569 187.244,145.903 189.5,149.5C 189.631,150.376 189.298,151.043 188.5,151.5C 185.285,153.274 181.952,154.774 178.5,156C 177.196,156.804 176.529,157.971 176.5,159.5C 183.507,170.185 190.507,180.851 197.5,191.5C 188.32,197.672 178.653,203.006 168.5,207.5C 147.821,207.179 127.154,206.513 106.5,205.5C 106.5,205.167 106.5,204.833 106.5,204.5C 103.915,172.822 101.248,141.155 98.5,109.5 Z"/></g>
<g><path style="opacity:1" fill="#f9933b" d="M 98.5,109.5 C 101.248,141.155 103.915,172.822 106.5,204.5C 104.5,204.5 102.5,204.5 100.5,204.5C 100.666,199.156 100.499,193.823 100,188.5C 93.5206,162.816 91.3539,136.816 93.5,110.5C 95.2161,110.371 96.8828,110.038 98.5,109.5 Z"/></g>
<g><path style="opacity:1" fill="#fd8795" d="M 254.5,100.5 C 256.537,105.23 258.537,109.897 260.5,114.5C 257.062,119.118 254.228,124.118 252,129.5C 250.641,139.109 250.141,148.776 250.5,158.5C 248.321,151.452 245.988,144.452 243.5,137.5C 242.518,134.237 241.851,130.903 241.5,127.5C 241.318,125.409 241.652,123.409 242.5,121.5C 242.154,120.304 241.654,120.304 241,121.5C 239.462,116.385 237.628,111.385 235.5,106.5C 239.192,104.546 243.026,102.879 247,101.5C 247.333,103.833 247.667,106.167 248,108.5C 248.29,106.048 248.956,103.715 250,101.5C 251.356,100.62 252.856,100.286 254.5,100.5 Z"/></g>
<g><path style="opacity:1" fill="#ac81f2" d="M 114.5,232.5 C 114.771,234.43 115.771,235.764 117.5,236.5C 110.777,241.244 108.777,247.577 111.5,255.5C 110.395,256.6 109.062,257.267 107.5,257.5C 106.791,256.596 105.791,256.263 104.5,256.5C 104.5,255.5 104.5,254.5 104.5,253.5C 104.5,252.833 104.5,252.167 104.5,251.5C 106.926,245.651 109.593,239.984 112.5,234.5C 113.167,233.833 113.833,233.167 114.5,232.5 Z"/></g>
<g><path style="opacity:1" fill="#934c9d" d="M 215.5,237.5 C 215.5,237.167 215.5,236.833 215.5,236.5C 220.167,236.5 224.833,236.5 229.5,236.5C 227.735,237.461 225.735,237.795 223.5,237.5C 223.5,251.5 223.5,265.5 223.5,279.5C 223.167,279.5 222.833,279.5 222.5,279.5C 222.5,265.5 222.5,251.5 222.5,237.5C 220.167,237.5 217.833,237.5 215.5,237.5 Z"/></g>
<g><path style="opacity:1" fill="#fdcf42" d="M 68.5,249.5 C 77.5,249.5 86.5,249.5 95.5,249.5C 98.3896,250.245 101.39,250.912 104.5,251.5C 104.5,252.167 104.5,252.833 104.5,253.5C 97.2688,255.112 89.9355,255.779 82.5,255.5C 74.7039,255.925 67.0372,255.258 59.5,253.5C 59.6941,251.088 61.0274,250.088 63.5,250.5C 65.4147,250.784 67.0813,250.451 68.5,249.5 Z"/></g>
<g><path style="opacity:1" fill="#6466d8" d="M 215.5,237.5 C 217.833,237.5 220.167,237.5 222.5,237.5C 222.5,251.5 222.5,265.5 222.5,279.5C 220.167,279.5 217.833,279.5 215.5,279.5C 215.5,277.5 215.5,275.5 215.5,273.5C 215.5,261.5 215.5,249.5 215.5,237.5 Z"/></g>
<g><path style="opacity:1" fill="#f48644" d="M 273.5,240.5 C 276.94,249.163 279.606,258.163 281.5,267.5C 278.833,267.5 276.167,267.5 273.5,267.5C 273.5,258.5 273.5,249.5 273.5,240.5 Z"/></g>
<g><path style="opacity:1" fill="#f9a04b" d="M 104.5,253.5 C 104.5,254.5 104.5,255.5 104.5,256.5C 105.791,256.263 106.791,256.596 107.5,257.5C 99.2852,259.235 90.9518,259.902 82.5,259.5C 82.5,258.167 82.5,256.833 82.5,255.5C 89.9355,255.779 97.2688,255.112 104.5,253.5 Z"/></g>
<g><path style="opacity:1" fill="#d8dee8" d="M 167.5,253.5 C 171.167,253.5 174.833,253.5 178.5,253.5C 178.5,255.833 178.5,258.167 178.5,260.5C 169.485,260.501 160.485,260.834 151.5,261.5C 151.5,259.167 151.5,256.833 151.5,254.5C 157.026,254.821 162.36,254.488 167.5,253.5 Z"/></g>
<g><path style="opacity:1" fill="#997aef" d="M 130.5,254.5 C 130.833,254.5 131.167,254.5 131.5,254.5C 133.393,258.727 136.06,262.393 139.5,265.5C 133.879,266.354 128.212,266.687 122.5,266.5C 121.512,265.205 120.512,263.872 119.5,262.5C 125.214,262.49 128.88,259.823 130.5,254.5 Z"/></g>
<g><path style="opacity:1" fill="#d6885e" d="M 215.5,236.5 C 215.5,236.833 215.5,237.167 215.5,237.5C 215.5,249.5 215.5,261.5 215.5,273.5C 214.5,273.5 213.5,273.5 212.5,273.5C 214.126,261.238 215.126,248.904 215.5,236.5 Z"/></g>
<g><path style="opacity:1" fill="#8a72e9" d="M 232.5,238.5 C 237.975,237.511 243.642,237.178 249.5,237.5C 249.833,237.5 250.167,237.5 250.5,237.5C 250.5,247.5 250.5,257.5 250.5,267.5C 247.447,266.223 244.614,264.556 242,262.5C 241.5,254.507 241.334,246.507 241.5,238.5C 238.5,238.5 235.5,238.5 232.5,238.5 Z"/></g>
<g><path style="opacity:1" fill="#3a3d76" d="M 139.5,265.5 C 141.5,265.5 143.5,265.5 145.5,265.5C 145.5,270.5 145.5,275.5 145.5,280.5C 141.167,280.5 136.833,280.5 132.5,280.5C 129.179,275.871 125.846,271.204 122.5,266.5C 128.212,266.687 133.879,266.354 139.5,265.5 Z"/></g>
<g><path style="opacity:1" fill="#d7dde7" d="M 161.5,267.5 C 167.167,267.5 172.833,267.5 178.5,267.5C 178.773,269.451 178.107,270.951 176.5,272C 168.165,272.542 159.831,273.042 151.5,273.5C 151.5,271.833 151.5,270.167 151.5,268.5C 155.042,268.813 158.375,268.479 161.5,267.5 Z"/></g>
<g><path style="opacity:1" fill="#8461df" d="M 260.5,237.5 C 261.167,237.5 261.833,237.5 262.5,237.5C 265.833,237.5 269.167,237.5 272.5,237.5C 272.5,237.833 272.5,238.167 272.5,238.5C 272.667,251.837 272.5,265.171 272,278.5C 270.955,279.373 270.122,280.373 269.5,281.5C 266.5,281.5 263.5,281.5 260.5,281.5C 260.5,266.833 260.5,252.167 260.5,237.5 Z"/></g>
<g><path style="opacity:0.71" fill="#5ec7cc" d="M 291.5,261.5 C 287.167,266.5 282.5,271.167 277.5,275.5C 281.167,269.833 285.833,265.167 291.5,261.5 Z"/></g>
<g><path style="opacity:1" fill="#d7dde7" d="M 161.5,273.5 C 167.167,273.5 172.833,273.5 178.5,273.5C 178.773,275.451 178.107,276.951 176.5,278C 168.165,278.542 159.831,279.042 151.5,279.5C 151.5,277.833 151.5,276.167 151.5,274.5C 155.042,274.813 158.375,274.479 161.5,273.5 Z"/></g>
<g><path style="opacity:1" fill="#1cc4cd" d="M 212.5,273.5 C 213.5,273.5 214.5,273.5 215.5,273.5C 215.5,275.5 215.5,277.5 215.5,279.5C 217.833,279.5 220.167,279.5 222.5,279.5C 222.833,279.5 223.167,279.5 223.5,279.5C 224.209,280.404 225.209,280.737 226.5,280.5C 203.925,294.625 179.258,300.458 152.5,298C 147.242,296.966 142.242,295.466 137.5,293.5C 137.634,291.708 137.301,290.042 136.5,288.5C 139.5,288.5 142.5,288.5 145.5,288.5C 145.389,289.117 145.056,289.617 144.5,290C 160.793,289.051 177.126,288.051 193.5,287C 194.667,286.5 195.5,285.667 196,284.5C 196.498,281.183 196.665,277.85 196.5,274.5C 201.805,273.806 207.138,273.472 212.5,273.5 Z"/></g>
<g><path style="opacity:1" fill="#4b4a7e" d="M 109.5,266.5 C 112.253,271.008 115.253,275.341 118.5,279.5C 118.833,280.167 119.167,280.833 119.5,281.5C 115.4,281.237 111.4,281.57 107.5,282.5C 107.75,281.078 108.583,280.078 110,279.5C 110.494,277.866 110.66,276.199 110.5,274.5C 110.5,274.167 110.5,273.833 110.5,273.5C 108.925,271.886 108.259,269.886 108.5,267.5C 109.167,267.5 109.5,267.167 109.5,266.5 Z"/></g>
<g><path style="opacity:1" fill="#fbcd41" d="M 113.5,257.5 C 115.5,259.167 117.5,260.833 119.5,262.5C 120.512,263.872 121.512,265.205 122.5,266.5C 125.846,271.204 129.179,275.871 132.5,280.5C 133.833,283.167 135.167,285.833 136.5,288.5C 137.301,290.042 137.634,291.708 137.5,293.5C 137.167,293.5 136.833,293.5 136.5,293.5C 131.519,288.514 126.852,283.18 122.5,277.5C 117.849,271.994 114.183,265.827 111.5,259C 111.836,257.97 112.503,257.47 113.5,257.5 Z"/></g>
<g><path style="opacity:0.573" fill="#887eb9" d="M 272.5,238.5 C 273.167,238.5 273.5,238.833 273.5,239.5C 273.5,239.833 273.5,240.167 273.5,240.5C 273.5,249.5 273.5,258.5 273.5,267.5C 273.5,271.167 273.5,274.833 273.5,278.5C 272.5,280.167 271.167,281.5 269.5,282.5C 269.5,282.167 269.5,281.833 269.5,281.5C 270.122,280.373 270.955,279.373 272,278.5C 272.5,265.171 272.667,251.837 272.5,238.5 Z"/></g>
<g><path style="opacity:1" fill="#c3f7f7" d="M 226.5,280.5 C 228.435,281.15 230.435,281.483 232.5,281.5C 238.464,282.307 244.464,282.64 250.5,282.5C 253.833,282.167 257.167,281.833 260.5,281.5C 263.5,281.5 266.5,281.5 269.5,281.5C 269.5,281.833 269.5,282.167 269.5,282.5C 268.395,283.6 267.062,284.267 265.5,284.5C 249.185,294.991 231.852,303.324 213.5,309.5C 189.658,313.309 165.658,314.476 141.5,313C 135.63,311.199 129.63,310.365 123.5,310.5C 115.145,307.009 106.479,304.009 97.5,301.5C 94.5152,300.674 91.8485,299.341 89.5,297.5C 89.8333,297.5 90.1667,297.5 90.5,297.5C 96.6362,297.823 102.636,297.156 108.5,295.5C 108.5,293.833 108.5,292.167 108.5,290.5C 114.358,290.822 120.025,290.489 125.5,289.5C 127.63,291.127 129.63,292.96 131.5,295C 133.535,295.599 135.201,295.099 136.5,293.5C 136.833,293.5 137.167,293.5 137.5,293.5C 142.242,295.466 147.242,296.966 152.5,298C 179.258,300.458 203.925,294.625 226.5,280.5 Z"/></g>
<g><path style="opacity:1" fill="#84b271" d="M 64.5,281.5 C 69.1141,284.117 73.4474,287.117 77.5,290.5C 72.3346,288.662 68.0013,285.662 64.5,281.5 Z"/></g>
<g><path style="opacity:1" fill="#fbac48" d="M 100.5,276.5 C 99.791,277.404 98.791,277.737 97.5,277.5C 97.2267,279.451 97.8934,280.951 99.5,282C 98.2068,282.49 96.8734,282.657 95.5,282.5C 95.5,284.167 95.5,285.833 95.5,287.5C 93.8333,287.5 92.1667,287.5 90.5,287.5C 87.7131,286.523 84.7131,286.19 81.5,286.5C 81.5,285.167 81.5,283.833 81.5,282.5C 85.1817,282.665 88.8484,282.499 92.5,282C 91.2068,281.51 89.8734,281.343 88.5,281.5C 88.5,280.167 88.5,278.833 88.5,277.5C 92.5341,277.495 96.5341,277.162 100.5,276.5 Z"/></g>
<g><path style="opacity:1" fill="#967bea" d="M 119.5,281.5 C 121.5,284.167 123.5,286.833 125.5,289.5C 120.025,290.489 114.358,290.822 108.5,290.5C 107.365,288.787 105.698,288.12 103.5,288.5C 103.196,287.85 102.863,287.183 102.5,286.5C 103.729,285.719 105.062,285.219 106.5,285C 107.252,284.329 107.586,283.496 107.5,282.5C 111.4,281.57 115.4,281.237 119.5,281.5 Z"/></g>
<g><path style="opacity:1" fill="#836ae7" d="M 132.5,280.5 C 136.833,280.5 141.167,280.5 145.5,280.5C 145.5,283.167 145.5,285.833 145.5,288.5C 142.5,288.5 139.5,288.5 136.5,288.5C 135.167,285.833 133.833,283.167 132.5,280.5 Z"/></g>
<g><path style="opacity:1" fill="#f89b4d" d="M 110.5,274.5 C 110.66,276.199 110.494,277.866 110,279.5C 108.583,280.078 107.75,281.078 107.5,282.5C 107.586,283.496 107.252,284.329 106.5,285C 105.062,285.219 103.729,285.719 102.5,286.5C 102.863,287.183 103.196,287.85 103.5,288.5C 101.916,289.382 100.249,290.215 98.5,291C 93.8452,291.499 89.1785,291.666 84.5,291.5C 85.0306,288.221 87.0306,286.887 90.5,287.5C 92.1667,287.5 93.8333,287.5 95.5,287.5C 95.5,285.833 95.5,284.167 95.5,282.5C 96.8734,282.657 98.2068,282.49 99.5,282C 97.8934,280.951 97.2267,279.451 97.5,277.5C 98.791,277.737 99.791,277.404 100.5,276.5C 104.037,276.689 107.37,276.023 110.5,274.5 Z"/></g>
<g><path style="opacity:1" fill="#fdc440" d="M 59.5,253.5 C 67.0372,255.258 74.7039,255.925 82.5,255.5C 82.5,256.833 82.5,258.167 82.5,259.5C 90.9518,259.902 99.2852,259.235 107.5,257.5C 109.062,257.267 110.395,256.6 111.5,255.5C 112.5,255.833 113.167,256.5 113.5,257.5C 112.503,257.47 111.836,257.97 111.5,259C 114.183,265.827 117.849,271.994 122.5,277.5C 120.938,277.733 119.605,278.4 118.5,279.5C 115.253,275.341 112.253,271.008 109.5,266.5C 109.443,265.391 109.11,264.391 108.5,263.5C 108.063,260.951 106.563,259.618 104,259.5C 97.8649,260.497 91.6983,261.163 85.5,261.5C 85.5,262.833 85.5,264.167 85.5,265.5C 85.6834,266.882 82.6834,267.215 76.5,266.5C 76.5,267.833 76.5,269.167 76.5,270.5C 84.5533,270.775 92.5533,270.275 100.5,269C 101.066,268.005 101.733,267.172 102.5,266.5C 104.216,266.629 105.883,266.962 107.5,267.5C 107.586,268.496 107.252,269.329 106.5,270C 99.8804,271.137 93.2137,271.637 86.5,271.5C 86.5,272.833 86.5,274.167 86.5,275.5C 94.6015,275.827 102.601,275.161 110.5,273.5C 110.5,273.833 110.5,274.167 110.5,274.5C 107.37,276.023 104.037,276.689 100.5,276.5C 96.5341,277.162 92.5341,277.495 88.5,277.5C 88.5,278.833 88.5,280.167 88.5,281.5C 89.8734,281.343 91.2068,281.51 92.5,282C 88.8484,282.499 85.1817,282.665 81.5,282.5C 81.5,283.833 81.5,285.167 81.5,286.5C 84.7131,286.19 87.7131,286.523 90.5,287.5C 87.0306,286.887 85.0306,288.221 84.5,291.5C 89.1785,291.666 93.8452,291.499 98.5,291C 100.249,290.215 101.916,289.382 103.5,288.5C 105.698,288.12 107.365,288.787 108.5,290.5C 100.703,292.798 92.7027,293.798 84.5,293.5C 82.3131,292.242 79.9798,291.242 77.5,290.5C 73.4474,287.117 69.1141,284.117 64.5,281.5C 64.0472,280.542 63.3805,279.708 62.5,279C 63.7282,278.221 64.7282,277.221 65.5,276C 63.0842,274.526 62.0842,272.36 62.5,269.5C 56.9334,270.247 55.1,267.913 57,262.5C 58.586,261.624 60.086,260.624 61.5,259.5C 59.8955,257.821 59.2289,255.821 59.5,253.5 Z"/></g>
<g><path style="opacity:1" fill="#f89f4c" d="M 107.5,267.5 C 107.833,267.5 108.167,267.5 108.5,267.5C 108.259,269.886 108.925,271.886 110.5,273.5C 102.601,275.161 94.6015,275.827 86.5,275.5C 86.5,274.167 86.5,272.833 86.5,271.5C 93.2137,271.637 99.8804,271.137 106.5,270C 107.252,269.329 107.586,268.496 107.5,267.5 Z"/></g>
<g><path style="opacity:1" fill="#faa44b" d="M 108.5,263.5 C 105.784,263.386 103.784,264.386 102.5,266.5C 101.733,267.172 101.066,268.005 100.5,269C 92.5533,270.275 84.5533,270.775 76.5,270.5C 76.5,269.167 76.5,267.833 76.5,266.5C 82.6834,267.215 85.6834,266.882 85.5,265.5C 85.5,264.167 85.5,262.833 85.5,261.5C 91.6983,261.163 97.8649,260.497 104,259.5C 106.563,259.618 108.063,260.951 108.5,263.5 Z"/></g>
<g><path style="opacity:1" fill="#ad83e1" d="M 108.5,263.5 C 109.11,264.391 109.443,265.391 109.5,266.5C 109.5,267.167 109.167,267.5 108.5,267.5C 108.167,267.5 107.833,267.5 107.5,267.5C 105.883,266.962 104.216,266.629 102.5,266.5C 103.784,264.386 105.784,263.386 108.5,263.5 Z"/></g>
<g><path style="opacity:1" fill="#f8a04e" d="M 122.5,277.5 C 126.852,283.18 131.519,288.514 136.5,293.5C 135.201,295.099 133.535,295.599 131.5,295C 129.63,292.96 127.63,291.127 125.5,289.5C 123.5,286.833 121.5,284.167 119.5,281.5C 119.167,280.833 118.833,280.167 118.5,279.5C 119.605,278.4 120.938,277.733 122.5,277.5 Z"/></g>
<g><path style="opacity:0.906" fill="#85ad75" d="M 77.5,290.5 C 79.9798,291.242 82.3131,292.242 84.5,293.5C 86.5,294.833 88.5,296.167 90.5,297.5C 90.1667,297.5 89.8333,297.5 89.5,297.5C 84.8349,296.172 80.8349,293.839 77.5,290.5 Z"/></g>
<g><path style="opacity:1" fill="#f8a650" d="M 108.5,290.5 C 108.5,292.167 108.5,293.833 108.5,295.5C 102.636,297.156 96.6362,297.823 90.5,297.5C 88.5,296.167 86.5,294.833 84.5,293.5C 92.7027,293.798 100.703,292.798 108.5,290.5 Z"/></g>
<g><path style="opacity:0.812" fill="#5fc2c5" d="M 97.5,301.5 C 106.479,304.009 115.145,307.009 123.5,310.5C 114.199,309.067 105.532,306.067 97.5,301.5 Z"/></g>
<g><path style="opacity:0.812" fill="#67d0d4" d="M 265.5,284.5 C 250.07,296.546 232.737,304.88 213.5,309.5C 231.852,303.324 249.185,294.991 265.5,284.5 Z"/></g>
<g><path style="opacity:1" fill="#7ad6d9" d="M 213.5,309.5 C 198.459,313.985 182.959,315.985 167,315.5C 152.114,315.976 137.614,314.309 123.5,310.5C 129.63,310.365 135.63,311.199 141.5,313C 165.658,314.476 189.658,313.309 213.5,309.5 Z"/></g>
</svg>
