<?xml version="1.0" encoding="UTF-8"?>
<!DOCTYPE svg PUBLIC "-//W3C//DTD SVG 1.1//EN" "http://www.w3.org/Graphics/SVG/1.1/DTD/svg11.dtd">
<svg xmlns="http://www.w3.org/2000/svg" version="1.1" width="335px" height="324px" style="shape-rendering:geometricPrecision; text-rendering:geometricPrecision; image-rendering:optimizeQuality; fill-rule:evenodd; clip-rule:evenodd" xmlns:xlink="http://www.w3.org/1999/xlink">
<g><path style="opacity:1" fill="#fefefe" d="M 289.5,52.5 C 298.368,62.6948 306.035,73.6948 312.5,85.5C 329.73,121.687 333.73,159.354 324.5,198.5C 320.79,202.208 317.457,206.208 314.5,210.5C 311.792,208.647 308.792,207.647 305.5,207.5C 303.585,207.784 301.919,207.451 300.5,206.5C 302.344,204.721 303.01,202.388 302.5,199.5C 303.734,193.146 303.734,186.812 302.5,180.5C 304.876,179.488 305.876,177.655 305.5,175C 304.822,171.805 303.988,168.638 303,165.5C 301.266,164.751 299.433,164.251 297.5,164C 295.095,160.209 292.428,156.709 289.5,153.5C 289.828,126.592 289.495,99.7592 288.5,73C 205.833,72.3333 123.167,72.3333 40.5,73C 39.944,73.3826 39.6107,73.8826 39.5,74.5C 38.8333,103.5 38.1667,132.5 37.5,161.5C 33.9571,156.982 30.1237,156.648 26,160.5C 20.4813,157.334 18.148,159.001 19,165.5C 21.0408,166.423 23.2075,166.756 25.5,166.5C 25.7863,168.277 26.4529,169.944 27.5,171.5C 27.1543,172.849 26.821,174.183 26.5,175.5C 24.326,175.75 22.6594,176.75 21.5,178.5C 15.7291,184.645 13.2291,191.978 14,200.5C 17.3936,201.456 20.8936,201.789 24.5,201.5C 22.3772,204.867 21.0439,208.534 20.5,212.5C 17.5691,210.909 14.9024,208.909 12.5,206.5C 12.1667,205.833 11.8333,205.167 11.5,204.5C -5.84773,138.058 10.8189,81.8918 61.5,36C 102.773,4.82674 149.106,-6.17326 200.5,3C 235.83,9.65737 265.497,26.1574 289.5,52.5 Z"/></g>
<g><path style="opacity:0.688" fill="#89dde0" d="M 143.5,-0.5 C 159.167,-0.5 174.833,-0.5 190.5,-0.5C 228.959,4.72937 261.626,21.0627 288.5,48.5C 288.833,49.8333 289.167,51.1667 289.5,52.5C 265.497,26.1574 235.83,9.65737 200.5,3C 149.106,-6.17326 102.773,4.82674 61.5,36C 10.8189,81.8918 -5.84773,138.058 11.5,204.5C 11.1667,204.5 10.8333,204.5 10.5,204.5C 2.16013,175.772 1.3268,146.772 8,117.5C 10.4159,107.751 13.9159,98.418 18.5,89.5C 18.3764,88.8933 18.0431,88.56 17.5,88.5C 17.5,88.1667 17.5,87.8333 17.5,87.5C 18.9221,87.2504 19.9221,86.417 20.5,85C 19.9056,84.5357 19.2389,84.369 18.5,84.5C 18.5,83.8333 18.8333,83.5 19.5,83.5C 21.5638,83.2381 22.8971,82.0714 23.5,80C 23.2716,79.6012 22.9382,79.4346 22.5,79.5C 22.5,79.1667 22.5,78.8333 22.5,78.5C 24.5311,77.4613 25.8645,75.7946 26.5,73.5C 27.3994,70.605 28.7328,67.9384 30.5,65.5C 32.8333,65.1667 34.1667,63.8333 34.5,61.5C 35.604,59.6115 36.9373,57.9448 38.5,56.5C 39.8333,55.8333 40.8333,54.8333 41.5,53.5C 68.5817,22.9531 102.582,4.95308 143.5,-0.5 Z"/></g>
<g><path style="opacity:0.004" fill="#292929" d="M 41.5,53.5 C 40.8333,54.8333 39.8333,55.8333 38.5,56.5C 38.5,54.5 39.5,53.5 41.5,53.5 Z"/></g>
<g><path style="opacity:0.005" fill="#161616" d="M 34.5,61.5 C 34.1667,63.8333 32.8333,65.1667 30.5,65.5C 31.5,63.8333 32.8333,62.5 34.5,61.5 Z"/></g>
<g><path style="opacity:0.005" fill="#1b1b1b" d="M 304.5,68.5 C 306.727,69.4006 307.727,71.0672 307.5,73.5C 306.11,72.1007 305.11,70.4341 304.5,68.5 Z"/></g>
<g><path style="opacity:0.937" fill="#77b6b8" d="M 288.5,48.5 C 294.887,54.3505 300.22,61.0171 304.5,68.5C 305.11,70.4341 306.11,72.1007 307.5,73.5C 310.526,77.205 313.192,81.205 315.5,85.5C 314.202,84.8843 313.202,84.8843 312.5,85.5C 306.035,73.6948 298.368,62.6948 289.5,52.5C 289.167,51.1667 288.833,49.8333 288.5,48.5 Z"/></g>
<g><path style="opacity:1" fill="#414141" d="M 289.5,153.5 C 288.833,153.5 288.167,153.5 287.5,153.5C 287.5,127.167 287.5,100.833 287.5,74.5C 205.5,74.5 123.5,74.5 41.5,74.5C 41.8317,109.671 41.4984,144.671 40.5,179.5C 39.8333,179.5 39.5,179.167 39.5,178.5C 39.5,143.833 39.5,109.167 39.5,74.5C 39.6107,73.8826 39.944,73.3826 40.5,73C 123.167,72.3333 205.833,72.3333 288.5,73C 289.495,99.7592 289.828,126.592 289.5,153.5 Z"/></g>
<g><path style="opacity:1" fill="#dad9d8" d="M 39.5,74.5 C 39.5,109.167 39.5,143.833 39.5,178.5C 38.5,177.833 37.5,177.167 36.5,176.5C 35.609,175.89 34.609,175.557 33.5,175.5C 32.4387,172.967 33.2721,170.967 36,169.5C 36.3153,167.414 36.8153,165.414 37.5,163.5C 37.5,162.833 37.5,162.167 37.5,161.5C 38.1667,132.5 38.8333,103.5 39.5,74.5 Z"/></g>
<g><path style="opacity:0.007" fill="#131313" d="M 26.5,73.5 C 25.8645,75.7946 24.5311,77.4613 22.5,78.5C 23.0798,76.2512 24.4131,74.5846 26.5,73.5 Z"/></g>
<g><path style="opacity:1" fill="#6c6c6c" d="M 287.5,153.5 C 286.833,153.833 286.167,154.167 285.5,154.5C 285.5,128.833 285.5,103.167 285.5,77.5C 205.002,76.5007 124.335,76.1674 43.5,76.5C 43.5,111.833 43.5,147.167 43.5,182.5C 42.1667,181.833 41.1667,180.833 40.5,179.5C 41.4984,144.671 41.8317,109.671 41.5,74.5C 123.5,74.5 205.5,74.5 287.5,74.5C 287.5,100.833 287.5,127.167 287.5,153.5 Z"/></g>
<g><path style="opacity:1" fill="#a9abba" d="M 285.5,77.5 C 205.167,77.5 124.833,77.5 44.5,77.5C 44.5,113.167 44.5,148.833 44.5,184.5C 43.6618,184.158 43.3284,183.492 43.5,182.5C 43.5,147.167 43.5,111.833 43.5,76.5C 124.335,76.1674 205.002,76.5007 285.5,77.5 Z"/></g>
<g><path style="opacity:1" fill="#dbe0fd" d="M 285.5,77.5 C 285.5,103.167 285.5,128.833 285.5,154.5C 282.691,154.958 282.024,156.291 283.5,158.5C 283.5,159.833 283.5,161.167 283.5,162.5C 282.875,164.534 282.541,166.534 282.5,168.5C 280.833,170.5 279.167,172.5 277.5,174.5C 277.5,148.5 277.5,122.5 277.5,96.5C 282.182,94.7524 283.682,91.419 282,86.5C 281.097,85.2986 279.931,84.4652 278.5,84C 202.5,83.3333 126.5,83.3333 50.5,84C 45.0044,88.6759 45.3377,92.8426 51.5,96.5C 51.5,126.167 51.5,155.833 51.5,185.5C 48.8518,188.262 46.5185,187.929 44.5,184.5C 44.5,148.833 44.5,113.167 44.5,77.5C 124.833,77.5 205.167,77.5 285.5,77.5 Z"/></g>
<g><path style="opacity:0.009" fill="#000000" d="M 22.5,79.5 C 22.9382,79.4346 23.2716,79.6012 23.5,80C 22.8971,82.0714 21.5638,83.2381 19.5,83.5C 20.5116,82.1283 21.5116,80.795 22.5,79.5 Z"/></g>
<g><path style="opacity:0.009" fill="#2f2f2f" d="M 18.5,84.5 C 19.2389,84.369 19.9056,84.5357 20.5,85C 19.9221,86.417 18.9221,87.2504 17.5,87.5C 17.5569,86.391 17.8902,85.391 18.5,84.5 Z"/></g>
<g><path style="opacity:1" fill="#27c6cf" d="M 277.5,96.5 C 202.167,96.5 126.833,96.5 51.5,96.5C 45.3377,92.8426 45.0044,88.6759 50.5,84C 126.5,83.3333 202.5,83.3333 278.5,84C 279.931,84.4652 281.097,85.2986 282,86.5C 283.682,91.419 282.182,94.7524 277.5,96.5 Z"/></g>
<g><path style="opacity:1" fill="#eefafb" d="M 67.5,87.5 C 72.9076,89.7946 72.5742,91.1279 66.5,91.5C 66.4326,90.0413 66.7659,88.7079 67.5,87.5 Z"/></g>
<g><path style="opacity:1" fill="#fdfefe" d="M 244.5,87.5 C 255.172,87.3335 265.839,87.5002 276.5,88C 277.833,89.3333 277.833,90.6667 276.5,92C 265.833,92.6667 255.167,92.6667 244.5,92C 243.272,90.5098 243.272,89.0098 244.5,87.5 Z"/></g>
<g><path style="opacity:1" fill="#f0fbfb" d="M 54.5,87.5 C 57.9563,88.5362 58.2896,90.2029 55.5,92.5C 53.2957,91.218 52.9624,89.5514 54.5,87.5 Z"/></g>
<g><path style="opacity:1" fill="#e8f9fa" d="M 60.5,87.5 C 64.1612,87.3501 65.1612,88.8501 63.5,92C 62.5509,92.6172 61.7175,92.4506 61,91.5C 60.51,90.2068 60.3433,88.8734 60.5,87.5 Z"/></g>
<g><path style="opacity:0.702" fill="#86d7da" d="M 315.5,85.5 C 316.167,85.5 316.5,85.8333 316.5,86.5C 315.624,86.3691 314.957,86.7025 314.5,87.5C 331.598,123.096 335.265,160.096 325.5,198.5C 325.167,198.5 324.833,198.5 324.5,198.5C 333.73,159.354 329.73,121.687 312.5,85.5C 313.202,84.8843 314.202,84.8843 315.5,85.5 Z"/></g>
<g><path style="opacity:0.004" fill="#fefffe" d="M 21.5,242.5 C 22.9063,242.973 23.573,243.973 23.5,245.5C 22.0937,245.027 21.427,244.027 21.5,242.5 Z"/></g>
<g><path style="opacity:0.004" fill="#e4e4e4" d="M 311.5,243.5 C 311.573,245.027 310.906,246.027 309.5,246.5C 309.427,244.973 310.094,243.973 311.5,243.5 Z"/></g>
<g><path style="opacity:0.13" fill="#141415" d="M 316.5,86.5 C 322.383,100.02 327.383,113.52 331.5,127C 331.167,127.333 330.833,127.667 330.5,128C 332.099,134.876 333.432,141.709 334.5,148.5C 334.5,148.833 334.5,149.167 334.5,149.5C 333.167,149.833 333.167,150.167 334.5,150.5C 334.5,153.167 334.5,155.833 334.5,158.5C 333.167,158.833 333.167,159.167 334.5,159.5C 334.5,162.5 334.5,165.5 334.5,168.5C 333.167,169.167 333.167,169.833 334.5,170.5C 334.5,170.833 334.5,171.167 334.5,171.5C 332.47,195.957 324.803,219.957 311.5,243.5C 310.094,243.973 309.427,244.973 309.5,246.5C 290.066,278.37 262.399,300.87 226.5,314C 209.347,319.127 191.681,322.294 173.5,323.5C 173.167,323.5 172.833,323.5 172.5,323.5C 169.167,322.167 165.833,322.167 162.5,323.5C 162.167,323.5 161.833,323.5 161.5,323.5C 110.477,321.908 68.3103,301.574 35,262.5C 30.9453,256.952 27.112,251.285 23.5,245.5C 23.573,243.973 22.9063,242.973 21.5,242.5C 19.5981,240.038 17.9314,237.538 16.5,235C 16.8333,234.667 17.1667,234.333 17.5,234C 14.4495,228.842 11.7828,223.508 9.5,218C 9.83333,217.667 10.1667,217.333 10.5,217C 6.81826,210.64 4.81826,203.973 4.5,197C 2.22713,188.184 0.560462,179.351 -0.5,170.5C -0.5,170.167 -0.5,169.833 -0.5,169.5C 0.833333,168.167 0.833333,166.833 -0.5,165.5C -0.5,165.167 -0.5,164.833 -0.5,164.5C 0.833333,164.167 0.833333,163.833 -0.5,163.5C -0.5,163.167 -0.5,162.833 -0.5,162.5C 0.833333,162.167 0.833333,161.833 -0.5,161.5C -0.5,160.167 -0.5,158.833 -0.5,157.5C 0.833333,157.167 0.833333,156.833 -0.5,156.5C -0.5,156.167 -0.5,155.833 -0.5,155.5C 0.833333,154.833 0.833333,154.167 -0.5,153.5C -0.5,153.167 -0.5,152.833 -0.5,152.5C 0.833333,151.833 0.833333,151.167 -0.5,150.5C -0.5,150.167 -0.5,149.833 -0.5,149.5C 1.55179,132.099 5.71846,115.099 12,98.5C 13.6219,94.9121 15.4552,91.5788 17.5,88.5C 18.0431,88.56 18.3764,88.8933 18.5,89.5C 13.9159,98.418 10.4159,107.751 8,117.5C 1.3268,146.772 2.16013,175.772 10.5,204.5C 12.5999,211.482 15.2666,218.148 18.5,224.5C 23.2609,235.574 29.5942,245.574 37.5,254.5C 39.8824,259.248 43.2157,263.248 47.5,266.5C 50.5628,270.566 54.2294,273.899 58.5,276.5C 63.9354,282.384 70.2687,287.051 77.5,290.5C 81.5067,294.174 86.1734,296.841 91.5,298.5C 104.415,306.138 118.415,310.805 133.5,312.5C 175.253,320.463 214.92,314.296 252.5,294C 257.256,291.301 261.589,288.134 265.5,284.5C 269.668,282.577 273.335,279.91 276.5,276.5C 282.227,271.776 287.227,266.442 291.5,260.5C 293.914,259.089 295.581,257.089 296.5,254.5C 305.442,244.962 312.109,233.962 316.5,221.5C 320.45,214.338 323.45,206.671 325.5,198.5C 335.265,160.096 331.598,123.096 314.5,87.5C 314.957,86.7025 315.624,86.3691 316.5,86.5 Z"/></g>
<g><path style="opacity:1" fill="#635cb3" d="M 247.5,242.5 C 248.289,242.783 248.956,243.283 249.5,244C 248.313,245.019 247.313,246.186 246.5,247.5C 248.608,250.157 249.941,253.157 250.5,256.5C 248.302,253.813 246.302,250.813 244.5,247.5C 245.952,246.06 246.952,244.394 247.5,242.5 Z"/></g>
<g><path style="opacity:1" fill="#f6f9fb" d="M 232.5,237.5 C 238.5,237.5 244.5,237.5 250.5,237.5C 250.5,240.833 250.5,244.167 250.5,247.5C 253.5,247.5 256.5,247.5 259.5,247.5C 259.5,247.833 259.5,248.167 259.5,248.5C 260.105,254.046 262.105,259.046 265.5,263.5C 263.833,265.5 262.167,267.5 260.5,269.5C 262.521,272.188 264.854,274.521 267.5,276.5C 270.581,277.194 272.914,275.861 274.5,272.5C 275.167,272.833 275.833,273.167 276.5,273.5C 276.5,274.5 276.5,275.5 276.5,276.5C 273.335,279.91 269.668,282.577 265.5,284.5C 264.391,284.557 263.391,284.89 262.5,285.5C 254.833,285.5 247.167,285.5 239.5,285.5C 239.5,283.167 239.5,280.833 239.5,278.5C 241.167,279.167 242.833,279.833 244.5,280.5C 249.473,278.619 250.14,275.953 246.5,272.5C 248.219,269.677 249.553,266.677 250.5,263.5C 251.5,263.5 252.5,263.5 253.5,263.5C 254.725,262.848 255.392,261.681 255.5,260C 255.392,258.319 254.725,257.152 253.5,256.5C 252.5,256.5 251.5,256.5 250.5,256.5C 249.941,253.157 248.608,250.157 246.5,247.5C 247.313,246.186 248.313,245.019 249.5,244C 248.956,243.283 248.289,242.783 247.5,242.5C 245.507,238.898 243.007,238.565 240,241.5C 237.681,240.129 235.181,239.462 232.5,239.5C 232.5,238.833 232.5,238.167 232.5,237.5 Z"/></g>
<g><path style="opacity:1" fill="#341e25" d="M 269.5,243.5 C 270.325,245.125 269.992,246.792 268.5,248.5C 267.676,246.252 266.676,246.086 265.5,248C 263.527,248.495 261.527,248.662 259.5,248.5C 259.5,248.167 259.5,247.833 259.5,247.5C 260.609,247.443 261.609,247.11 262.5,246.5C 262.56,247.043 262.893,247.376 263.5,247.5C 265.264,245.722 267.264,244.389 269.5,243.5 Z"/></g>
<g><path style="opacity:1" fill="#e87c60" d="M 265.5,240.5 C 266.833,240.5 268.167,240.5 269.5,240.5C 269.5,241.5 269.5,242.5 269.5,243.5C 267.264,244.389 265.264,245.722 263.5,247.5C 262.893,247.376 262.56,247.043 262.5,246.5C 264.385,244.947 265.385,242.947 265.5,240.5 Z"/></g>
<g><path style="opacity:1" fill="#fcfbfb" d="M 224.5,237.5 C 221.898,239.101 219.064,240.435 216,241.5C 214.418,239.971 212.585,239.471 210.5,240C 209.167,241.333 207.833,242.667 206.5,244C 207.899,245.062 208.899,246.395 209.5,248C 207.809,250.571 206.809,253.404 206.5,256.5C 204.833,256.5 203.167,256.5 201.5,256.5C 201.5,258.833 201.5,261.167 201.5,263.5C 203.167,263.5 204.833,263.5 206.5,263.5C 206.895,266.686 207.895,269.686 209.5,272.5C 209.058,273.739 208.391,274.739 207.5,275.5C 199.833,275.5 192.167,275.5 184.5,275.5C 184.5,262.833 184.5,250.167 184.5,237.5C 197.833,237.5 211.167,237.5 224.5,237.5 Z"/></g>
<g><path style="opacity:1" fill="#fdfdfd" d="M 47.5,237.5 C 79.8333,237.5 112.167,237.5 144.5,237.5C 144.5,250.167 144.5,262.833 144.5,275.5C 125.934,274.468 107.601,275.802 89.5,279.5C 89.5,281.5 89.5,283.5 89.5,285.5C 83.5,285.5 77.5,285.5 71.5,285.5C 68.1897,283.518 65.1897,281.185 62.5,278.5C 68.4658,269.338 70.4658,259.338 68.5,248.5C 67.8933,248.624 67.56,248.957 67.5,249.5C 59.9398,251.612 53.2731,255.279 47.5,260.5C 47.5,252.833 47.5,245.167 47.5,237.5 Z"/></g>
<g><path style="opacity:1" fill="#525299" d="M 230.5,233.5 C 232.176,234.183 232.843,235.517 232.5,237.5C 232.5,238.167 232.5,238.833 232.5,239.5C 230.692,238.082 230.025,236.082 230.5,233.5 Z"/></g>
<g><path style="opacity:1" fill="#841644" d="M 230.5,233.5 C 230.025,236.082 230.692,238.082 232.5,239.5C 235.181,239.462 237.681,240.129 240,241.5C 243.007,238.565 245.507,238.898 247.5,242.5C 246.952,244.394 245.952,246.06 244.5,247.5C 246.302,250.813 248.302,253.813 250.5,256.5C 251.5,256.5 252.5,256.5 253.5,256.5C 253.5,258.833 253.5,261.167 253.5,263.5C 252.5,263.5 251.5,263.5 250.5,263.5C 249.624,263.369 248.957,263.702 248.5,264.5C 247.568,267.53 246.235,270.363 244.5,273C 245.687,274.019 246.687,275.186 247.5,276.5C 246.476,277.852 245.476,279.185 244.5,280.5C 242.833,279.833 241.167,279.167 239.5,278.5C 236.946,279.606 234.279,280.439 231.5,281C 230.594,282.699 230.261,284.533 230.5,286.5C 228.265,286.795 226.265,286.461 224.5,285.5C 224.5,284.167 224.5,282.833 224.5,281.5C 221.314,281.105 218.314,280.105 215.5,278.5C 211.47,281.488 208.804,280.488 207.5,275.5C 208.391,274.739 209.058,273.739 209.5,272.5C 207.895,269.686 206.895,266.686 206.5,263.5C 204.833,263.5 203.167,263.5 201.5,263.5C 201.5,261.167 201.5,258.833 201.5,256.5C 203.167,256.5 204.833,256.5 206.5,256.5C 206.809,253.404 207.809,250.571 209.5,248C 208.899,246.395 207.899,245.062 206.5,244C 207.833,242.667 209.167,241.333 210.5,240C 212.585,239.471 214.418,239.971 216,241.5C 219.064,240.435 221.898,239.101 224.5,237.5C 224.5,236.167 224.5,234.833 224.5,233.5C 226.5,233.5 228.5,233.5 230.5,233.5 Z"/></g>
<g><path style="opacity:1" fill="#3c81d3" d="M 18.5,223.5 C 22.3076,229.77 26.141,236.103 30,242.5C 30.3333,240.833 30.6667,239.167 31,237.5C 32.0365,240.753 32.7031,244.086 33,247.5C 34.7498,249.734 36.2498,252.068 37.5,254.5C 29.5942,245.574 23.2609,235.574 18.5,224.5C 18.5,224.167 18.5,223.833 18.5,223.5 Z"/></g>
<g><path style="opacity:1" fill="#d89260" d="M 293.5,223.5 C 292.329,224.345 290.995,225.011 289.5,225.5C 284.311,228.017 280.978,232.017 279.5,237.5C 277.45,247.739 281.117,255.406 290.5,260.5C 290.167,260.5 289.833,260.5 289.5,260.5C 281.16,257.675 276.494,251.842 275.5,243C 276.503,231.832 282.503,225.332 293.5,223.5 Z"/></g>
<g><path style="opacity:1" fill="#4658eb" d="M 261.5,227.5 C 262.124,231.648 262.124,235.982 261.5,240.5C 262.833,240.5 264.167,240.5 265.5,240.5C 265.385,242.947 264.385,244.947 262.5,246.5C 261.609,247.11 260.609,247.443 259.5,247.5C 256.5,247.5 253.5,247.5 250.5,247.5C 250.5,244.167 250.5,240.833 250.5,237.5C 253.287,236.523 256.287,236.19 259.5,236.5C 259.575,233.794 259.908,231.127 260.5,228.5C 261.167,228.5 261.5,228.167 261.5,227.5 Z"/></g>
<g><path style="opacity:1" fill="#404040" d="M 47.5,228.5 C 118.5,228.5 189.5,228.5 260.5,228.5C 259.908,231.127 259.575,233.794 259.5,236.5C 256.287,236.19 253.287,236.523 250.5,237.5C 244.5,237.5 238.5,237.5 232.5,237.5C 232.843,235.517 232.176,234.183 230.5,233.5C 228.5,233.5 226.5,233.5 224.5,233.5C 224.5,234.833 224.5,236.167 224.5,237.5C 211.167,237.5 197.833,237.5 184.5,237.5C 184.5,250.167 184.5,262.833 184.5,275.5C 192.167,275.5 199.833,275.5 207.5,275.5C 208.804,280.488 211.47,281.488 215.5,278.5C 218.314,280.105 221.314,281.105 224.5,281.5C 224.5,282.833 224.5,284.167 224.5,285.5C 179.5,285.5 134.5,285.5 89.5,285.5C 89.5,283.5 89.5,281.5 89.5,279.5C 107.601,275.802 125.934,274.468 144.5,275.5C 144.5,262.833 144.5,250.167 144.5,237.5C 112.167,237.5 79.8333,237.5 47.5,237.5C 47.5,234.5 47.5,231.5 47.5,228.5 Z"/></g>
<g><path style="opacity:1" fill="#303030" d="M 145.5,237.5 C 158.167,237.5 170.833,237.5 183.5,237.5C 183.5,250.167 183.5,262.833 183.5,275.5C 170.833,275.5 158.167,275.5 145.5,275.5C 145.5,262.833 145.5,250.167 145.5,237.5 Z"/></g>
<g><path style="opacity:1" fill="#85a3f1" d="M 316.5,221.5 C 312.109,233.962 305.442,244.962 296.5,254.5C 296.335,251.482 296.502,248.482 297,245.5C 298.878,238.7 301.045,232.033 303.5,225.5C 306.401,226.792 308.734,228.792 310.5,231.5C 312.526,228.103 314.526,224.77 316.5,221.5 Z"/></g>
<g><path style="opacity:1" fill="#696969" d="M 47.5,226.5 C 118.833,226.5 190.167,226.5 261.5,226.5C 261.5,226.833 261.5,227.167 261.5,227.5C 261.5,228.167 261.167,228.5 260.5,228.5C 189.5,228.5 118.5,228.5 47.5,228.5C 47.5,227.833 47.5,227.167 47.5,226.5 Z"/></g>
<g><path style="opacity:1" fill="#434242" d="M 289.5,225.5 C 289.5,229.5 289.5,233.5 289.5,237.5C 286.167,237.5 282.833,237.5 279.5,237.5C 280.978,232.017 284.311,228.017 289.5,225.5 Z"/></g>
<g><path style="opacity:1" fill="#f9fafa" d="M 293.5,223.5 C 297.037,223.311 300.37,223.977 303.5,225.5C 301.045,232.033 298.878,238.7 297,245.5C 296.502,248.482 296.335,251.482 296.5,254.5C 295.581,257.089 293.914,259.089 291.5,260.5C 291.167,260.5 290.833,260.5 290.5,260.5C 281.117,255.406 277.45,247.739 279.5,237.5C 282.833,237.5 286.167,237.5 289.5,237.5C 289.5,233.5 289.5,229.5 289.5,225.5C 290.995,225.011 292.329,224.345 293.5,223.5 Z"/></g>
<g><path style="opacity:1" fill="#e98167" d="M 264.5,215.5 C 264.445,218.614 263.112,220.948 260.5,222.5C 260.833,221.167 261.167,219.833 261.5,218.5C 261.5,218.167 261.5,217.833 261.5,217.5C 262.222,216.449 263.222,215.782 264.5,215.5 Z"/></g>
<g><path style="opacity:1" fill="#4ca0d0" d="M 10.5,204.5 C 10.8333,204.5 11.1667,204.5 11.5,204.5C 11.8333,205.167 12.1667,205.833 12.5,206.5C 13.9346,211.49 15.9346,216.156 18.5,220.5C 18.5,221.5 18.5,222.5 18.5,223.5C 18.5,223.833 18.5,224.167 18.5,224.5C 15.2666,218.148 12.5999,211.482 10.5,204.5 Z"/></g>
<g><path style="opacity:1" fill="#d99e7b" d="M 305.5,207.5 C 308.792,207.647 311.792,208.647 314.5,210.5C 315.5,210.833 316.167,211.5 316.5,212.5C 312.646,211.07 308.979,209.403 305.5,207.5 Z"/></g>
<g><path style="opacity:1" fill="#93a5fa" d="M 12.5,206.5 C 14.9024,208.909 17.5691,210.909 20.5,212.5C 19.525,215.067 18.8583,217.733 18.5,220.5C 15.9346,216.156 13.9346,211.49 12.5,206.5 Z"/></g>
<g><path style="opacity:1" fill="#4156f0" d="M 300.5,206.5 C 301.919,207.451 303.585,207.784 305.5,207.5C 308.979,209.403 312.646,211.07 316.5,212.5C 317.794,211.71 318.961,210.71 320,209.5C 320.167,209.833 320.333,210.167 320.5,210.5C 318.762,214.049 317.429,217.716 316.5,221.5C 314.526,224.77 312.526,228.103 310.5,231.5C 308.734,228.792 306.401,226.792 303.5,225.5C 300.37,223.977 297.037,223.311 293.5,223.5C 282.503,225.332 276.503,231.832 275.5,243C 276.494,251.842 281.16,257.675 289.5,260.5C 286.167,265.833 281.833,270.167 276.5,273.5C 275.833,273.167 275.167,272.833 274.5,272.5C 273.883,272.389 273.383,272.056 273,271.5C 271.296,273.373 269.463,275.04 267.5,276.5C 264.854,274.521 262.521,272.188 260.5,269.5C 262.167,267.5 263.833,265.5 265.5,263.5C 262.105,259.046 260.105,254.046 259.5,248.5C 261.527,248.662 263.527,248.495 265.5,248C 266.676,246.086 267.676,246.252 268.5,248.5C 269.992,246.792 270.325,245.125 269.5,243.5C 269.5,242.5 269.5,241.5 269.5,240.5C 270.649,240.209 271.316,239.376 271.5,238C 273.386,229.849 275.22,221.683 277,213.5C 278.579,211.959 280.413,210.792 282.5,210C 287.119,208.962 291.452,207.462 295.5,205.5C 297.726,203.82 299.393,204.153 300.5,206.5 Z"/></g>
<g><path style="opacity:1" fill="#749ae5" d="M 324.5,198.5 C 324.833,198.5 325.167,198.5 325.5,198.5C 323.45,206.671 320.45,214.338 316.5,221.5C 317.429,217.716 318.762,214.049 320.5,210.5C 320.333,210.167 320.167,209.833 320,209.5C 318.961,210.71 317.794,211.71 316.5,212.5C 316.167,211.5 315.5,210.833 314.5,210.5C 317.457,206.208 320.79,202.208 324.5,198.5 Z"/></g>
<g><path style="opacity:1" fill="#d5daf6" d="M 41.5,199.5 C 44.6415,201.661 47.9749,201.994 51.5,200.5C 51.5,206.5 51.5,212.5 51.5,218.5C 121.5,218.5 191.5,218.5 261.5,218.5C 261.167,219.833 260.833,221.167 260.5,222.5C 259.933,223.42 260.599,223.754 262.5,223.5C 262.737,224.791 262.404,225.791 261.5,226.5C 190.167,226.5 118.833,226.5 47.5,226.5C 45.3914,217.974 43.3914,209.307 41.5,200.5C 41.5,200.167 41.5,199.833 41.5,199.5 Z"/></g>
<g><path style="opacity:1" fill="#3f56f0" d="M 25.5,200.5 C 30.8333,200.5 36.1667,200.5 41.5,200.5C 43.3914,209.307 45.3914,217.974 47.5,226.5C 47.5,227.167 47.5,227.833 47.5,228.5C 47.5,231.5 47.5,234.5 47.5,237.5C 47.5,245.167 47.5,252.833 47.5,260.5C 47.6567,261.873 47.49,263.207 47,264.5C 44.0483,260.901 40.8816,257.567 37.5,254.5C 36.2498,252.068 34.7498,249.734 33,247.5C 32.7031,244.086 32.0365,240.753 31,237.5C 30.6667,239.167 30.3333,240.833 30,242.5C 26.141,236.103 22.3076,229.77 18.5,223.5C 18.5,222.5 18.5,221.5 18.5,220.5C 18.8583,217.733 19.525,215.067 20.5,212.5C 21.0439,208.534 22.3772,204.867 24.5,201.5C 24.5,200.833 24.8333,200.5 25.5,200.5 Z"/></g>
<g><path style="opacity:1" fill="#f5885d" d="M 298.5,199.5 C 299.833,199.5 301.167,199.5 302.5,199.5C 303.01,202.388 302.344,204.721 300.5,206.5C 299.393,204.153 297.726,203.82 295.5,205.5C 293.952,205.179 293.285,204.179 293.5,202.5C 295.167,202.5 296.833,202.5 298.5,202.5C 298.5,201.5 298.5,200.5 298.5,199.5 Z"/></g>
<g><path style="opacity:1" fill="#3a222e" d="M 25.5,197.5 C 30.1667,197.5 34.8333,197.5 39.5,197.5C 40.5,197.833 41.1667,198.5 41.5,199.5C 41.5,199.833 41.5,200.167 41.5,200.5C 36.1667,200.5 30.8333,200.5 25.5,200.5C 25.5,199.5 25.5,198.5 25.5,197.5 Z"/></g>
<g><path style="opacity:1" fill="#ebebf2" d="M 273.5,200.5 C 272.167,202.167 270.833,203.833 269.5,205.5C 268.275,204.848 267.608,203.681 267.5,202C 267.039,199.801 266.873,197.634 267,195.5C 269.287,197.054 271.454,198.721 273.5,200.5 Z"/></g>
<g><path style="opacity:1" fill="#3d388b" d="M 294.5,189.5 C 296.414,192.572 297.748,195.905 298.5,199.5C 298.5,200.5 298.5,201.5 298.5,202.5C 296.833,202.5 295.167,202.5 293.5,202.5C 293.285,204.179 293.952,205.179 295.5,205.5C 291.452,207.462 287.119,208.962 282.5,210C 280.413,210.792 278.579,211.959 277,213.5C 275.22,221.683 273.386,229.849 271.5,238C 271.316,239.376 270.649,240.209 269.5,240.5C 268.167,240.5 266.833,240.5 265.5,240.5C 264.167,240.5 262.833,240.5 261.5,240.5C 262.124,235.982 262.124,231.648 261.5,227.5C 261.5,227.167 261.5,226.833 261.5,226.5C 262.404,225.791 262.737,224.791 262.5,223.5C 260.599,223.754 259.933,223.42 260.5,222.5C 263.112,220.948 264.445,218.614 264.5,215.5C 264.659,211.326 266.325,207.992 269.5,205.5C 270.833,203.833 272.167,202.167 273.5,200.5C 278.707,198.57 282.707,195.237 285.5,190.5C 288.428,189.516 291.428,189.183 294.5,189.5 Z"/></g>
<g><path style="opacity:1" fill="#343074" d="M 283.5,188.5 C 287.179,188.276 290.846,187.942 294.5,187.5C 294.5,188.167 294.5,188.833 294.5,189.5C 291.428,189.183 288.428,189.516 285.5,190.5C 282.707,195.237 278.707,198.57 273.5,200.5C 271.454,198.721 269.287,197.054 267,195.5C 266.873,197.634 267.039,199.801 267.5,202C 267.608,203.681 268.275,204.848 269.5,205.5C 266.325,207.992 264.659,211.326 264.5,215.5C 263.222,215.782 262.222,216.449 261.5,217.5C 259.023,206.972 257.523,196.305 257,185.5C 258.255,183.406 260.088,182.406 262.5,182.5C 265.702,183.099 268.702,184.266 271.5,186C 273.993,188.08 276.659,189.914 279.5,191.5C 281.261,190.965 282.594,189.965 283.5,188.5 Z"/></g>
<g><path style="opacity:1" fill="#fe9494" d="M 21.5,178.5 C 20.0749,185.349 21.4082,191.683 25.5,197.5C 25.5,198.5 25.5,199.5 25.5,200.5C 24.8333,200.5 24.5,200.833 24.5,201.5C 20.8936,201.789 17.3936,201.456 14,200.5C 13.2291,191.978 15.7291,184.645 21.5,178.5 Z"/></g>
<g><path style="opacity:1" fill="#fd918f" d="M 54.5,196.5 C 53.5116,197.795 52.5116,199.128 51.5,200.5C 47.9749,201.994 44.6415,201.661 41.5,199.5C 41.1667,198.5 40.5,197.833 39.5,197.5C 36.6985,193.562 34.6985,189.229 33.5,184.5C 33.9638,181.583 34.9638,178.916 36.5,176.5C 37.5,177.167 38.5,177.833 39.5,178.5C 39.5,179.167 39.8333,179.5 40.5,179.5C 41.1667,180.833 42.1667,181.833 43.5,182.5C 43.3284,183.492 43.6618,184.158 44.5,184.5C 46.5185,187.929 48.8518,188.262 51.5,185.5C 53.0174,185.489 54.1841,184.823 55,183.5C 55.2904,181.08 55.7904,178.746 56.5,176.5C 57.7942,175.71 58.9609,174.71 60,173.5C 59.2093,175.809 59.3759,178.142 60.5,180.5C 58.1313,185.618 56.1313,190.951 54.5,196.5 Z"/></g>
<g><path style="opacity:1" fill="#f26d6a" d="M 26.5,175.5 C 28.8333,175.5 31.1667,175.5 33.5,175.5C 34.609,175.557 35.609,175.89 36.5,176.5C 34.9638,178.916 33.9638,181.583 33.5,184.5C 34.6985,189.229 36.6985,193.562 39.5,197.5C 34.8333,197.5 30.1667,197.5 25.5,197.5C 21.4082,191.683 20.0749,185.349 21.5,178.5C 22.6594,176.75 24.326,175.75 26.5,175.5 Z"/></g>
<g><path style="opacity:1" fill="#fe9490" d="M 277.5,174.5 C 279.167,172.5 280.833,170.5 282.5,168.5C 281.798,171.578 280.798,174.578 279.5,177.5C 280.237,179.97 281.237,182.304 282.5,184.5C 274.75,186.715 268.25,184.715 263,178.5C 261.623,176.246 260.123,174.08 258.5,172C 251.271,169.563 251.105,167.396 258,165.5C 259.829,167.156 261.163,169.156 262,171.5C 264.167,173 266.333,174.5 268.5,176C 271.863,176.927 274.863,176.427 277.5,174.5 Z"/></g>
<g><path style="opacity:1" fill="#fc9596" d="M 294.5,169.5 C 298.84,171.808 301.507,175.475 302.5,180.5C 303.734,186.812 303.734,193.146 302.5,199.5C 301.167,199.5 299.833,199.5 298.5,199.5C 297.748,195.905 296.414,192.572 294.5,189.5C 294.5,188.833 294.5,188.167 294.5,187.5C 293.565,181.628 293.565,175.628 294.5,169.5 Z"/></g>
<g><path style="opacity:1" fill="#80153e" d="M 283.5,162.5 C 284.09,164.097 285.09,165.431 286.5,166.5C 285.289,167.72 285.289,168.887 286.5,170C 288.84,170.748 290.84,170.248 292.5,168.5C 293.492,168.328 294.158,168.662 294.5,169.5C 293.565,175.628 293.565,181.628 294.5,187.5C 290.846,187.942 287.179,188.276 283.5,188.5C 283.768,186.901 283.434,185.568 282.5,184.5C 281.237,182.304 280.237,179.97 279.5,177.5C 280.798,174.578 281.798,171.578 282.5,168.5C 282.541,166.534 282.875,164.534 283.5,162.5 Z"/></g>
<g><path style="opacity:1" fill="#f17f5e" d="M 37.5,163.5 C 36.8153,165.414 36.3153,167.414 36,169.5C 33.2721,170.967 32.4387,172.967 33.5,175.5C 31.1667,175.5 28.8333,175.5 26.5,175.5C 26.821,174.183 27.1543,172.849 27.5,171.5C 26.4529,169.944 25.7863,168.277 25.5,166.5C 26.3132,165.347 27.3132,165.347 28.5,166.5C 29.7753,158.738 32.7753,157.738 37.5,163.5 Z"/></g>
<g><path style="opacity:1" fill="#e67759" d="M 292.5,168.5 C 290.84,170.248 288.84,170.748 286.5,170C 285.289,168.887 285.289,167.72 286.5,166.5C 285.09,165.431 284.09,164.097 283.5,162.5C 283.5,161.167 283.5,159.833 283.5,158.5C 284.609,154.971 286.442,154.638 289,157.5C 289.585,159.129 290.419,160.629 291.5,162C 290.049,164.47 290.383,166.637 292.5,168.5 Z"/></g>
<g><path style="opacity:1" fill="#851240" d="M 81.5,147.5 C 84.4288,153.128 89.0955,155.295 95.5,154C 96.3366,152.989 96.67,151.822 96.5,150.5C 101.582,152.043 105.582,155.043 108.5,159.5C 106.638,163.542 104.138,167.208 101,170.5C 100.754,173.89 100.254,177.223 99.5,180.5C 97.7855,180.595 96.1188,180.928 94.5,181.5C 100.281,183.557 105.947,185.89 111.5,188.5C 112.482,182.533 115.816,178.533 121.5,176.5C 129.42,189.238 135.42,202.905 139.5,217.5C 111.5,217.5 83.5,217.5 55.5,217.5C 54.9115,210.515 54.5782,203.515 54.5,196.5C 56.1313,190.951 58.1313,185.618 60.5,180.5C 59.3759,178.142 59.2093,175.809 60,173.5C 58.9609,174.71 57.7942,175.71 56.5,176.5C 59.4948,162.176 67.8281,152.509 81.5,147.5 Z"/></g>
<g><path style="opacity:1" fill="#b34d47" d="M 111.5,188.5 C 112.376,188.369 113.043,188.702 113.5,189.5C 111.694,198.696 109.194,207.696 106,216.5C 108.395,207.355 110.229,198.021 111.5,188.5 Z"/></g>
<g><path style="opacity:1" fill="#b44e47" d="M 94.5,181.5 C 93.2866,188.974 90.7866,195.974 87,202.5C 89.197,195.41 91.697,188.41 94.5,181.5 Z"/></g>
<g><path style="opacity:1" fill="#c15f4a" d="M 71.5,161.5 C 75.1531,164.931 76.9864,169.264 77,174.5C 77.6667,183.167 77.6667,191.833 77,200.5C 76.8042,190.13 76.1375,179.796 75,169.5C 74.0789,166.664 72.9123,163.998 71.5,161.5 Z"/></g>
<g><path style="opacity:1" fill="#fb8360" d="M 111.5,162.5 C 110.069,163.78 109.402,165.447 109.5,167.5C 111.38,167.771 112.713,167.104 113.5,165.5C 115.905,164.602 117.905,163.102 119.5,161C 121.81,160.503 124.143,160.337 126.5,160.5C 127.224,166.657 125.557,171.99 121.5,176.5C 115.816,178.533 112.482,182.533 111.5,188.5C 105.947,185.89 100.281,183.557 94.5,181.5C 96.1188,180.928 97.7855,180.595 99.5,180.5C 100.254,177.223 100.754,173.89 101,170.5C 104.138,167.208 106.638,163.542 108.5,159.5C 110.879,158.433 111.879,159.433 111.5,162.5 Z"/></g>
<g><path style="opacity:1" fill="#341f19" d="M 37.5,161.5 C 37.5,162.167 37.5,162.833 37.5,163.5C 32.7753,157.738 29.7753,158.738 28.5,166.5C 27.3132,165.347 26.3132,165.347 25.5,166.5C 23.2075,166.756 21.0408,166.423 19,165.5C 18.148,159.001 20.4813,157.334 26,160.5C 30.1237,156.648 33.9571,156.982 37.5,161.5 Z"/></g>
<g><path style="opacity:1" fill="#321d16" d="M 287.5,153.5 C 288.167,153.5 288.833,153.5 289.5,153.5C 292.428,156.709 295.095,160.209 297.5,164C 299.433,164.251 301.266,164.751 303,165.5C 303.988,168.638 304.822,171.805 305.5,175C 305.876,177.655 304.876,179.488 302.5,180.5C 301.507,175.475 298.84,171.808 294.5,169.5C 294.158,168.662 293.492,168.328 292.5,168.5C 290.383,166.637 290.049,164.47 291.5,162C 290.419,160.629 289.585,159.129 289,157.5C 286.442,154.638 284.609,154.971 283.5,158.5C 282.024,156.291 282.691,154.958 285.5,154.5C 286.167,154.167 286.833,153.833 287.5,153.5 Z"/></g>
<g><path style="opacity:1" fill="#fefdfe" d="M 51.5,96.5 C 126.833,96.5 202.167,96.5 277.5,96.5C 277.5,122.5 277.5,148.5 277.5,174.5C 274.863,176.427 271.863,176.927 268.5,176C 266.333,174.5 264.167,173 262,171.5C 261.163,169.156 259.829,167.156 258,165.5C 251.105,167.396 251.271,169.563 258.5,172C 260.123,174.08 261.623,176.246 263,178.5C 268.25,184.715 274.75,186.715 282.5,184.5C 283.434,185.568 283.768,186.901 283.5,188.5C 282.594,189.965 281.261,190.965 279.5,191.5C 276.659,189.914 273.993,188.08 271.5,186C 268.702,184.266 265.702,183.099 262.5,182.5C 260.088,182.406 258.255,183.406 257,185.5C 257.523,196.305 259.023,206.972 261.5,217.5C 261.5,217.833 261.5,218.167 261.5,218.5C 191.5,218.5 121.5,218.5 51.5,218.5C 51.5,212.5 51.5,206.5 51.5,200.5C 52.5116,199.128 53.5116,197.795 54.5,196.5C 54.5782,203.515 54.9115,210.515 55.5,217.5C 83.5,217.5 111.5,217.5 139.5,217.5C 135.42,202.905 129.42,189.238 121.5,176.5C 125.557,171.99 127.224,166.657 126.5,160.5C 124.143,160.337 121.81,160.503 119.5,161C 117.905,163.102 115.905,164.602 113.5,165.5C 113.068,164.29 112.401,163.29 111.5,162.5C 111.879,159.433 110.879,158.433 108.5,159.5C 105.582,155.043 101.582,152.043 96.5,150.5C 96.5,148.167 96.5,145.833 96.5,143.5C 99.3245,143.919 101.491,142.919 103,140.5C 104.266,136.605 104.766,132.605 104.5,128.5C 103.656,125.655 102.99,122.655 102.5,119.5C 105.05,119.116 106.383,117.616 106.5,115C 104.983,112.005 103.316,109.172 101.5,106.5C 100.5,106.5 99.5,106.5 98.5,106.5C 98.67,105.178 98.3366,104.011 97.5,103C 92.3113,102.092 87.3113,102.592 82.5,104.5C 80.6203,104.229 79.287,104.896 78.5,106.5C 74.398,107.56 72.398,110.227 72.5,114.5C 72.3817,117.486 73.0483,120.152 74.5,122.5C 74.8333,123.833 75.1667,125.167 75.5,126.5C 73.6172,130.804 74.7838,134.137 79,136.5C 80.1385,136.011 81.3052,135.678 82.5,135.5C 83.9212,139.641 83.5879,143.641 81.5,147.5C 67.8281,152.509 59.4948,162.176 56.5,176.5C 55.7904,178.746 55.2904,181.08 55,183.5C 54.1841,184.823 53.0174,185.489 51.5,185.5C 51.5,155.833 51.5,126.167 51.5,96.5 Z"/></g>
<g><path style="opacity:1" fill="#b0dbdb" d="M 257.5,209.5 C 258.043,209.56 258.376,209.893 258.5,210.5C 257.675,211.386 256.675,211.719 255.5,211.5C 228.661,211.831 201.995,211.498 175.5,210.5C 203.005,210.831 230.338,210.498 257.5,209.5 Z"/></g>
<g><path style="opacity:1" fill="#eae2df" d="M 159.5,196.5 C 161.994,204.322 167.327,208.989 175.5,210.5C 201.995,211.498 228.661,211.831 255.5,211.5C 255.918,212.222 256.584,212.722 257.5,213C 228.833,213.667 200.167,213.667 171.5,213C 164.157,209.838 160.157,204.338 159.5,196.5 Z"/></g>
<g><path style="opacity:1" fill="#1bc5ce" d="M 257.5,209.5 C 230.338,210.498 203.005,210.831 175.5,210.5C 167.327,208.989 161.994,204.322 159.5,196.5C 158.602,186.125 162.935,178.958 172.5,175C 193.5,174.333 214.5,174.333 235.5,175C 248.354,180.893 251.687,190.226 245.5,203C 249.367,205.433 253.367,207.6 257.5,209.5 Z"/></g>
<g><path style="opacity:1" fill="#fefffe" d="M 211.5,202.5 C 219.5,202.5 227.5,202.5 235.5,202.5C 235.5,203.833 235.5,205.167 235.5,206.5C 227.5,206.5 219.5,206.5 211.5,206.5C 211.5,205.167 211.5,203.833 211.5,202.5 Z"/></g>
<g><path style="opacity:1" fill="#fefffe" d="M 171.5,192.5 C 193.167,192.5 214.833,192.5 236.5,192.5C 236.5,193.833 236.5,195.167 236.5,196.5C 214.833,196.5 193.167,196.5 171.5,196.5C 171.5,195.167 171.5,193.833 171.5,192.5 Z"/></g>
<g><path style="opacity:1" fill="#fefffe" d="M 171.5,182.5 C 179.5,182.5 187.5,182.5 195.5,182.5C 195.5,183.833 195.5,185.167 195.5,186.5C 187.5,186.5 179.5,186.5 171.5,186.5C 171.5,185.167 171.5,183.833 171.5,182.5 Z"/></g>
<g><path style="opacity:1" fill="#901f45" d="M 111.5,162.5 C 112.401,163.29 113.068,164.29 113.5,165.5C 112.713,167.104 111.38,167.771 109.5,167.5C 109.402,165.447 110.069,163.78 111.5,162.5 Z"/></g>
<g><path style="opacity:1" fill="#6d7bd6" d="M 211.5,141.5 C 211.5,142.167 211.5,142.833 211.5,143.5C 199.545,145.48 187.212,146.146 174.5,145.5C 174.33,144.178 174.663,143.011 175.5,142C 187.495,141.5 199.495,141.333 211.5,141.5 Z"/></g>
<g><path style="opacity:1" fill="#35357e" d="M 108.5,133.5 C 109.833,133.5 110.5,134.167 110.5,135.5C 109.279,136.028 108.113,136.695 107,137.5C 105.099,135.512 105.599,134.178 108.5,133.5 Z"/></g>
<g><path style="opacity:1" fill="#b0b5e2" d="M 104.5,128.5 C 106.765,127.658 109.098,127.991 111.5,129.5C 112.757,131.799 112.423,133.799 110.5,135.5C 110.5,134.167 109.833,133.5 108.5,133.5C 109.398,132.842 110.398,132.176 111.5,131.5C 109.423,129.918 107.09,128.918 104.5,128.5 Z"/></g>
<g><path style="opacity:1" fill="#2b2d7a" d="M 75.5,126.5 C 76.0478,128.532 77.3812,129.532 79.5,129.5C 79.259,126.001 80.0924,125.668 82,128.5C 82.4955,130.473 82.6621,132.473 82.5,134.5C 82.5,134.833 82.5,135.167 82.5,135.5C 81.3052,135.678 80.1385,136.011 79,136.5C 74.7838,134.137 73.6172,130.804 75.5,126.5 Z"/></g>
<g><path style="opacity:1" fill="#dce0fe" d="M 211.5,119.5 C 211.5,126.833 211.5,134.167 211.5,141.5C 199.495,141.333 187.495,141.5 175.5,142C 174.663,143.011 174.33,144.178 174.5,145.5C 187.212,146.146 199.545,145.48 211.5,143.5C 212.391,144.11 213.391,144.443 214.5,144.5C 214.33,145.822 214.663,146.989 215.5,148C 221.157,148.499 226.824,148.666 232.5,148.5C 232.666,153.511 232.499,158.511 232,163.5C 231.5,165.333 230.333,166.5 228.5,167C 204.167,167.333 179.833,167.667 155.5,168C 149,172.147 142.333,172.481 135.5,169C 140.389,168.444 143.889,165.944 146,161.5C 146.333,148.833 146.667,136.167 147,123.5C 148.167,122.333 149.333,121.167 150.5,120C 170.831,119.5 191.164,119.333 211.5,119.5 Z"/></g>
<g><path style="opacity:1" fill="#6e7bd6" d="M 153.5,152.5 C 178.5,152.5 203.5,152.5 228.5,152.5C 228.5,153.833 228.5,155.167 228.5,156.5C 203.498,156.667 178.498,156.5 153.5,156C 152.316,154.855 152.316,153.688 153.5,152.5 Z"/></g>
<g><path style="opacity:1" fill="#6869c4" d="M 168.5,132.5 C 165.785,134.902 163.285,137.568 161,140.5C 158.833,138.333 156.667,136.167 154.5,134C 156.76,133.956 158.76,134.789 160.5,136.5C 163.521,134.146 166.188,131.479 168.5,128.5C 169.962,127.542 171.295,126.376 172.5,125C 173.167,124.333 173.833,124.333 174.5,125C 171.882,127.106 169.882,129.606 168.5,132.5 Z"/></g>
<g><path style="opacity:1" fill="#6f7dd7" d="M 175.5,131.5 C 181.176,131.334 186.843,131.501 192.5,132C 193.833,133 193.833,134 192.5,135C 186.509,135.499 180.509,135.666 174.5,135.5C 174.433,134.041 174.766,132.708 175.5,131.5 Z"/></g>
<g><path style="opacity:1" fill="#861948" d="M 168.5,128.5 C 166.188,131.479 163.521,134.146 160.5,136.5C 158.76,134.789 156.76,133.956 154.5,134C 156.667,136.167 158.833,138.333 161,140.5C 163.285,137.568 165.785,134.902 168.5,132.5C 168.789,136.106 168.456,139.606 167.5,143C 162.5,143.667 157.5,143.667 152.5,143C 151.167,137.667 151.167,132.333 152.5,127C 157.5,126.333 162.5,126.333 167.5,127C 168.056,127.383 168.389,127.883 168.5,128.5 Z"/></g>
<g><path style="opacity:1" fill="#f68260" d="M 102.5,119.5 C 102.99,122.655 103.656,125.655 104.5,128.5C 104.766,132.605 104.266,136.605 103,140.5C 101.491,142.919 99.3245,143.919 96.5,143.5C 96.5,145.833 96.5,148.167 96.5,150.5C 96.67,151.822 96.3366,152.989 95.5,154C 89.0955,155.295 84.4288,153.128 81.5,147.5C 83.5879,143.641 83.9212,139.641 82.5,135.5C 82.5,135.167 82.5,134.833 82.5,134.5C 83.7671,131.939 83.7671,129.272 82.5,126.5C 82.7771,123.552 82.4438,120.719 81.5,118C 84.9371,116.895 87.4371,114.728 89,111.5C 89.9025,112.701 91.0692,113.535 92.5,114C 95.5535,114.179 98.5535,114.679 101.5,115.5C 102.246,116.736 102.579,118.07 102.5,119.5 Z"/></g>
<g><path style="opacity:1" fill="#dcc4bf" d="M 92.5,135.5 C 94.3936,136.048 96.0603,137.048 97.5,138.5C 98.1411,137.007 99.1411,136.007 100.5,135.5C 100.5,136.833 100.5,138.167 100.5,139.5C 96.7396,140.226 94.073,138.893 92.5,135.5 Z"/></g>
<g><path style="opacity:1" fill="#622725" d="M 95.5,133.5 C 96.9187,134.451 98.5853,134.784 100.5,134.5C 100.5,134.833 100.5,135.167 100.5,135.5C 99.1411,136.007 98.1411,137.007 97.5,138.5C 96.0603,137.048 94.3936,136.048 92.5,135.5C 92.9731,134.094 93.9731,133.427 95.5,133.5 Z"/></g>
<g><path style="opacity:1" fill="#edd7d1" d="M 100.5,134.5 C 98.5853,134.784 96.9187,134.451 95.5,133.5C 96.6948,133.322 97.8615,132.989 99,132.5C 100.03,132.836 100.53,133.503 100.5,134.5 Z"/></g>
<g><path style="opacity:1" fill="#b1b9f5" d="M 251.5,107.5 C 252.496,107.414 253.329,107.748 254,108.5C 254.667,121.5 254.667,134.5 254,147.5C 246.921,148.48 239.755,148.813 232.5,148.5C 226.824,148.666 221.157,148.499 215.5,148C 214.663,146.989 214.33,145.822 214.5,144.5C 226.505,144.667 238.505,144.5 250.5,144C 251.488,131.914 251.822,119.747 251.5,107.5 Z"/></g>
<g><path style="opacity:1" fill="#3d2b27" d="M 78.5,106.5 C 75.3312,111.346 73.9979,116.679 74.5,122.5C 73.0483,120.152 72.3817,117.486 72.5,114.5C 72.398,110.227 74.398,107.56 78.5,106.5 Z"/></g>
<g><path style="opacity:1" fill="#5b66bd" d="M 82.5,104.5 C 78.1038,110.408 76.4372,117.075 77.5,124.5C 79.5138,124.392 81.1805,125.058 82.5,126.5C 83.7671,129.272 83.7671,131.939 82.5,134.5C 82.6621,132.473 82.4955,130.473 82,128.5C 80.0924,125.668 79.259,126.001 79.5,129.5C 77.3812,129.532 76.0478,128.532 75.5,126.5C 75.1667,125.167 74.8333,123.833 74.5,122.5C 73.9979,116.679 75.3312,111.346 78.5,106.5C 79.287,104.896 80.6203,104.229 82.5,104.5 Z"/></g>
<g><path style="opacity:1" fill="#eaecfd" d="M 251.5,107.5 C 251.822,119.747 251.488,131.914 250.5,144C 238.505,144.5 226.505,144.667 214.5,144.5C 213.391,144.443 212.391,144.11 211.5,143.5C 211.5,142.833 211.5,142.167 211.5,141.5C 211.5,134.167 211.5,126.833 211.5,119.5C 211.5,114.5 211.5,109.5 211.5,104.5C 224.833,104.5 238.167,104.5 251.5,104.5C 251.5,105.5 251.5,106.5 251.5,107.5 Z"/></g>
<g><path style="opacity:1" fill="#b9b8e9" d="M 218.5,119.5 C 217.044,131.035 222.044,137.035 233.5,137.5C 226.848,139.598 221.681,136.931 218,129.5C 217.192,125.973 217.359,122.64 218.5,119.5 Z"/></g>
<g><path style="opacity:1" fill="#e7e6f9" d="M 239.5,119.5 C 241.531,129.304 237.531,133.471 227.5,132C 221.656,127.589 220.989,122.422 225.5,116.5C 230.86,114.548 235.526,115.548 239.5,119.5 Z"/></g>
<g><path style="opacity:1" fill="#fdb170" d="M 223.5,113.5 C 224.167,114.5 224.833,115.5 225.5,116.5C 220.989,122.422 221.656,127.589 227.5,132C 237.531,133.471 241.531,129.304 239.5,119.5C 240.833,119.167 242.167,118.833 243.5,118.5C 246.15,128.143 242.817,134.476 233.5,137.5C 222.044,137.035 217.044,131.035 218.5,119.5C 219.385,116.94 221.051,114.94 223.5,113.5 Z"/></g>
<g><path style="opacity:1" fill="#f07270" d="M 243.5,118.5 C 242.167,118.833 240.833,119.167 239.5,119.5C 235.526,115.548 230.86,114.548 225.5,116.5C 224.833,115.5 224.167,114.5 223.5,113.5C 231.515,108.937 238.182,110.604 243.5,118.5 Z"/></g>
<g><path style="opacity:1" fill="#301b16" d="M 102.5,119.5 C 102.579,118.07 102.246,116.736 101.5,115.5C 98.5535,114.679 95.5535,114.179 92.5,114C 91.0692,113.535 89.9025,112.701 89,111.5C 87.4371,114.728 84.9371,116.895 81.5,118C 82.4438,120.719 82.7771,123.552 82.5,126.5C 81.1805,125.058 79.5138,124.392 77.5,124.5C 76.4372,117.075 78.1038,110.408 82.5,104.5C 87.3113,102.592 92.3113,102.092 97.5,103C 98.3366,104.011 98.67,105.178 98.5,106.5C 99.5,106.5 100.5,106.5 101.5,106.5C 103.316,109.172 104.983,112.005 106.5,115C 106.383,117.616 105.05,119.116 102.5,119.5 Z"/></g>
<g><path style="opacity:1" fill="#8da1f6" d="M 67.5,249.5 C 68.525,249.897 68.6917,250.563 68,251.5C 63.1332,257.401 58.6332,263.567 54.5,270C 51.9067,269.454 49.7401,267.954 48,265.5C 47.6012,265.728 47.4346,266.062 47.5,266.5C 43.2157,263.248 39.8824,259.248 37.5,254.5C 40.8816,257.567 44.0483,260.901 47,264.5C 47.49,263.207 47.6567,261.873 47.5,260.5C 53.2731,255.279 59.9398,251.612 67.5,249.5 Z"/></g>
<g><path style="opacity:1" fill="#fbfafc" d="M 220.5,268.5 C 216.083,261.922 216.75,255.922 222.5,250.5C 235.791,248.06 240.624,253.394 237,266.5C 232.024,272.2 226.524,272.867 220.5,268.5 Z"/></g>
<g><path style="opacity:1" fill="#a4b6fa" d="M 67.5,249.5 C 67.56,248.957 67.8933,248.624 68.5,248.5C 70.4658,259.338 68.4658,269.338 62.5,278.5C 61.3951,277.4 60.0618,276.733 58.5,276.5C 54.2294,273.899 50.5628,270.566 47.5,266.5C 47.4346,266.062 47.6012,265.728 48,265.5C 49.7401,267.954 51.9067,269.454 54.5,270C 58.6332,263.567 63.1332,257.401 68,251.5C 68.6917,250.563 68.525,249.897 67.5,249.5 Z"/></g>
<g><path style="opacity:1" fill="#585cbb" d="M 222.5,250.5 C 216.75,255.922 216.083,261.922 220.5,268.5C 217.448,266.56 216.115,263.727 216.5,260C 216.13,255.224 218.13,252.057 222.5,250.5 Z"/></g>
<g><path style="opacity:1" fill="#8089d3" d="M 253.5,256.5 C 254.725,257.152 255.392,258.319 255.5,260C 255.392,261.681 254.725,262.848 253.5,263.5C 253.5,261.167 253.5,258.833 253.5,256.5 Z"/></g>
<g><path style="opacity:0.71" fill="#2b7dc7" d="M 289.5,260.5 C 289.833,260.5 290.167,260.5 290.5,260.5C 290.833,260.5 291.167,260.5 291.5,260.5C 287.227,266.442 282.227,271.776 276.5,276.5C 276.5,275.5 276.5,274.5 276.5,273.5C 281.833,270.167 286.167,265.833 289.5,260.5 Z"/></g>
<g><path style="opacity:1" fill="#655cb3" d="M 250.5,263.5 C 249.553,266.677 248.219,269.677 246.5,272.5C 250.14,275.953 249.473,278.619 244.5,280.5C 245.476,279.185 246.476,277.852 247.5,276.5C 246.687,275.186 245.687,274.019 244.5,273C 246.235,270.363 247.568,267.53 248.5,264.5C 248.957,263.702 249.624,263.369 250.5,263.5 Z"/></g>
<g><path style="opacity:1" fill="#e29e6a" d="M 274.5,272.5 C 272.914,275.861 270.581,277.194 267.5,276.5C 269.463,275.04 271.296,273.373 273,271.5C 273.383,272.056 273.883,272.389 274.5,272.5 Z"/></g>
<g><path style="opacity:1" fill="#4a475c" d="M 239.5,278.5 C 239.5,280.833 239.5,283.167 239.5,285.5C 236.43,285.368 233.43,285.701 230.5,286.5C 230.261,284.533 230.594,282.699 231.5,281C 234.279,280.439 236.946,279.606 239.5,278.5 Z"/></g>
<g><path style="opacity:1" fill="#76c4d3" d="M 58.5,276.5 C 60.0618,276.733 61.3951,277.4 62.5,278.5C 65.1897,281.185 68.1897,283.518 71.5,285.5C 73.5,287.167 75.5,288.833 77.5,290.5C 70.2687,287.051 63.9354,282.384 58.5,276.5 Z"/></g>
<g><path style="opacity:1" fill="#b6bff3" d="M 71.5,285.5 C 77.5,285.5 83.5,285.5 89.5,285.5C 134.5,285.5 179.5,285.5 224.5,285.5C 226.265,286.461 228.265,286.795 230.5,286.5C 233.43,285.701 236.43,285.368 239.5,285.5C 247.167,285.5 254.833,285.5 262.5,285.5C 256.02,290.292 249.02,294.292 241.5,297.5C 191.331,297.168 141.331,297.501 91.5,298.5C 86.1734,296.841 81.5067,294.174 77.5,290.5C 75.5,288.833 73.5,287.167 71.5,285.5 Z"/></g>
<g><path style="opacity:1" fill="#fdfefe" d="M 91.5,298.5 C 141.331,297.501 191.331,297.168 241.5,297.5C 223.058,306.864 203.391,312.364 182.5,314C 166.117,314.842 149.784,314.342 133.5,312.5C 119.239,308.857 105.239,304.191 91.5,298.5 Z"/></g>
<g><path style="opacity:0.906" fill="#7ac6c9" d="M 91.5,298.5 C 105.239,304.191 119.239,308.857 133.5,312.5C 118.415,310.805 104.415,306.138 91.5,298.5 Z"/></g>
<g><path style="opacity:0.812" fill="#7cc9d0" d="M 265.5,284.5 C 261.589,288.134 257.256,291.301 252.5,294C 214.92,314.296 175.253,320.463 133.5,312.5C 149.784,314.342 166.117,314.842 182.5,314C 203.391,312.364 223.058,306.864 241.5,297.5C 249.02,294.292 256.02,290.292 262.5,285.5C 263.391,284.89 264.391,284.557 265.5,284.5 Z"/></g>
</svg>
