<?xml version="1.0" encoding="UTF-8"?>
<!DOCTYPE svg PUBLIC "-//W3C//DTD SVG 1.1//EN" "http://www.w3.org/Graphics/SVG/1.1/DTD/svg11.dtd">
<svg xmlns="http://www.w3.org/2000/svg" version="1.1" width="335px" height="324px" style="shape-rendering:geometricPrecision; text-rendering:geometricPrecision; image-rendering:optimizeQuality; fill-rule:evenodd; clip-rule:evenodd" xmlns:xlink="http://www.w3.org/1999/xlink">
<g><path style="opacity:1" fill="#3f56f1" d="M 287.5,51.5 C 285.612,61.945 289.945,66.6117 300.5,65.5C 302.673,69.8523 305.34,73.8523 308.5,77.5C 309.833,80.8333 311.167,84.1667 312.5,87.5C 289.61,90.5446 266.943,94.8779 244.5,100.5C 243.686,98.369 243.186,96.0356 243,93.5C 241.333,92.8333 239.667,92.1667 238,91.5C 232.445,97.4058 226.278,98.0725 219.5,93.5C 218.062,93.7189 216.729,94.2189 215.5,95C 214.556,97.7191 214.223,100.552 214.5,103.5C 213.5,103.5 212.5,103.5 211.5,103.5C 211.414,102.504 211.748,101.671 212.5,101C 210.093,98.2615 208.093,95.2615 206.5,92C 208.535,88.3942 209.868,84.5609 210.5,80.5C 213.789,79.6261 217.123,78.9595 220.5,78.5C 220.5,75.1667 220.5,71.8333 220.5,68.5C 217.101,68.1927 213.934,67.1927 211,65.5C 210.438,61.4799 209.271,57.6466 207.5,54C 209.68,51.3159 211.68,48.4826 213.5,45.5C 212.168,42.4422 210.168,40.1089 207.5,38.5C 204.674,39.5796 201.841,40.5796 199,41.5C 196.362,38.6833 193.362,36.35 190,34.5C 189.667,30.8333 189.333,27.1667 189,23.5C 186.848,22.1147 184.515,21.1147 182,20.5C 179.392,22.3504 177.225,24.6838 175.5,27.5C 170.833,28.8333 166.167,28.8333 161.5,27.5C 159.827,24.3375 157.66,21.6708 155,19.5C 152.755,20.1371 150.588,20.9704 148.5,22C 147.707,25.4106 147.207,28.9106 147,32.5C 146.5,33 146,33.5 145.5,34C 142.344,35.6717 139.344,37.505 136.5,39.5C 133.283,37.9221 129.949,37.0888 126.5,37C 125.696,38.7713 124.529,40.2713 123,41.5C 122.333,42.5 122.333,43.5 123,44.5C 125.157,46.8171 126.657,49.4838 127.5,52.5C 124.62,52.0598 121.954,51.0598 119.5,49.5C 118.817,47.8235 117.483,47.1568 115.5,47.5C 114.833,47.5 114.167,47.5 113.5,47.5C 99.0016,40.7076 83.6683,36.7076 67.5,35.5C 66.7375,34.7321 65.7375,34.2321 64.5,34C 99.9657,7.12986 139.966,-3.87014 184.5,1C 220.885,4.03309 252.552,17.6998 279.5,42C 282.777,44.7663 285.443,47.933 287.5,51.5 Z"/></g>
<g><path style="opacity:0.463" fill="#2988dc" d="M 143.5,-0.5 C 159.167,-0.5 174.833,-0.5 190.5,-0.5C 230.509,5.08648 264.343,22.4198 292,51.5C 292.464,52.0944 292.631,52.7611 292.5,53.5C 290.486,53.6085 288.82,52.9418 287.5,51.5C 285.443,47.933 282.777,44.7663 279.5,42C 252.552,17.6998 220.885,4.03309 184.5,1C 139.966,-3.87014 99.9657,7.12986 64.5,34C 65.7375,34.2321 66.7375,34.7321 67.5,35.5C 65.4352,35.4828 63.4352,35.1495 61.5,34.5C 85.4732,15.1858 112.806,3.51912 143.5,-0.5 Z"/></g>
<g><path style="opacity:1" fill="#830f41" d="M 211.5,103.5 C 210.833,103.5 210.5,103.833 210.5,104.5C 209.173,105.8 207.84,107.133 206.5,108.5C 203.164,106.982 199.831,105.815 196.5,105C 193.64,107.36 190.64,109.527 187.5,111.5C 186.833,115.167 186.167,118.833 185.5,122.5C 184.817,122.863 184.15,123.196 183.5,123.5C 183.5,110.833 183.5,98.1667 183.5,85.5C 192.224,70.8325 188.891,59.6658 173.5,52C 164.019,49.4977 156.185,51.9977 150,59.5C 148.878,61.4068 148.045,63.4068 147.5,65.5C 146.596,66.209 146.263,67.209 146.5,68.5C 137.5,68.5 128.5,68.5 119.5,68.5C 119.5,67.1667 119.5,65.8333 119.5,64.5C 120.93,64.5792 122.264,64.2458 123.5,63.5C 124.839,59.8153 126.172,56.1486 127.5,52.5C 126.657,49.4838 125.157,46.8171 123,44.5C 122.333,43.5 122.333,42.5 123,41.5C 124.529,40.2713 125.696,38.7713 126.5,37C 129.949,37.0888 133.283,37.9221 136.5,39.5C 139.344,37.505 142.344,35.6717 145.5,34C 146,33.5 146.5,33 147,32.5C 147.207,28.9106 147.707,25.4106 148.5,22C 150.588,20.9704 152.755,20.1371 155,19.5C 157.66,21.6708 159.827,24.3375 161.5,27.5C 166.167,28.8333 170.833,28.8333 175.5,27.5C 177.225,24.6838 179.392,22.3504 182,20.5C 184.515,21.1147 186.848,22.1147 189,23.5C 189.333,27.1667 189.667,30.8333 190,34.5C 193.362,36.35 196.362,38.6833 199,41.5C 201.841,40.5796 204.674,39.5796 207.5,38.5C 210.168,40.1089 212.168,42.4422 213.5,45.5C 211.68,48.4826 209.68,51.3159 207.5,54C 209.271,57.6466 210.438,61.4799 211,65.5C 213.934,67.1927 217.101,68.1927 220.5,68.5C 220.5,71.8333 220.5,75.1667 220.5,78.5C 217.123,78.9595 213.789,79.6261 210.5,80.5C 209.868,84.5609 208.535,88.3942 206.5,92C 208.093,95.2615 210.093,98.2615 212.5,101C 211.748,101.671 211.414,102.504 211.5,103.5 Z"/></g>
<g><path style="opacity:0.993" fill="#08c0ca" d="M 61.5,34.5 C 63.4352,35.1495 65.4352,35.4828 67.5,35.5C 83.6683,36.7076 99.0016,40.7076 113.5,47.5C 91.5,47.5 69.5,47.5 47.5,47.5C 51.2483,42.2726 55.9149,37.9393 61.5,34.5 Z"/></g>
<g><path style="opacity:1" fill="#f6edf0" d="M 158.5,35.5 C 161.85,35.335 165.183,35.5017 168.5,36C 165.812,36.3924 163.145,36.8924 160.5,37.5C 159.287,37.2528 158.62,36.5862 158.5,35.5 Z"/></g>
<g><path style="opacity:1" fill="#ebd8e0" d="M 179.5,38.5 C 184.519,38.5763 189.019,40.5763 193,44.5C 193.667,45.1667 193.667,45.8333 193,46.5C 188.854,43.1764 184.354,40.5098 179.5,38.5 Z"/></g>
<g><path style="opacity:1" fill="#56bedc" d="M 47.5,47.5 C 69.5,47.5 91.5,47.5 113.5,47.5C 114.167,47.5 114.833,47.5 115.5,47.5C 93.3371,48.332 71.0037,48.832 48.5,49C 47.4293,49.8518 46.4293,50.6851 45.5,51.5C 44.6618,51.1583 44.3284,50.4916 44.5,49.5C 45.2905,48.5987 46.2905,47.9321 47.5,47.5 Z"/></g>
<g><path style="opacity:1" fill="#a0bfec" d="M 115.5,47.5 C 117.483,47.1568 118.817,47.8235 119.5,49.5C 118.167,54.5 118.167,59.5 119.5,64.5C 119.5,65.8333 119.5,67.1667 119.5,68.5C 128.5,68.5 137.5,68.5 146.5,68.5C 146.263,67.209 146.596,66.209 147.5,65.5C 148.627,66.1217 149.627,66.955 150.5,68C 161.495,68.4998 172.495,68.6665 183.5,68.5C 183.5,74.1667 183.5,79.8333 183.5,85.5C 183.5,98.1667 183.5,110.833 183.5,123.5C 182.503,142.326 182.17,161.326 182.5,180.5C 161.327,180.169 140.327,180.503 119.5,181.5C 118.509,187.979 118.176,194.646 118.5,201.5C 93.8333,201.5 69.1667,201.5 44.5,201.5C 43.1667,201.5 41.8333,201.5 40.5,201.5C 39.8333,201.5 39.1667,201.5 38.5,201.5C 34.8333,201.5 31.1667,201.5 27.5,201.5C 23.7182,194.62 17.7182,191.953 9.5,193.5C 7.98864,190.456 7.32198,187.122 7.5,183.5C 6.7321,181.285 6.06543,178.952 5.5,176.5C 12.1667,176.5 18.8333,176.5 25.5,176.5C 25.5,144.167 25.5,111.833 25.5,79.5C 27.1807,76.7972 28.8474,74.1305 30.5,71.5C 30.5,112.833 30.5,154.167 30.5,195.5C 58.8333,195.5 87.1667,195.5 115.5,195.5C 115.5,147.5 115.5,99.5 115.5,51.5C 92.1667,51.5 68.8333,51.5 45.5,51.5C 46.4293,50.6851 47.4293,49.8518 48.5,49C 71.0037,48.832 93.3371,48.332 115.5,47.5 Z"/></g>
<g><path style="opacity:1" fill="#25bac9" d="M 119.5,49.5 C 121.954,51.0598 124.62,52.0598 127.5,52.5C 126.172,56.1486 124.839,59.8153 123.5,63.5C 122.264,64.2458 120.93,64.5792 119.5,64.5C 118.167,59.5 118.167,54.5 119.5,49.5 Z"/></g>
<g><path style="opacity:1" fill="#fdfdfe" d="M 45.5,51.5 C 68.8333,51.5 92.1667,51.5 115.5,51.5C 115.5,99.5 115.5,147.5 115.5,195.5C 87.1667,195.5 58.8333,195.5 30.5,195.5C 30.5,154.167 30.5,112.833 30.5,71.5C 34.7306,64.2676 39.7306,57.601 45.5,51.5 Z"/></g>
<g><path style="opacity:1" fill="#4154ee" d="M 183.5,85.5 C 183.5,79.8333 183.5,74.1667 183.5,68.5C 172.495,68.6665 161.495,68.4998 150.5,68C 149.627,66.955 148.627,66.1217 147.5,65.5C 148.045,63.4068 148.878,61.4068 150,59.5C 156.185,51.9977 164.019,49.4977 173.5,52C 188.891,59.6658 192.224,70.8325 183.5,85.5 Z"/></g>
<g><path style="opacity:1" fill="#7ca3f8" d="M 287.5,51.5 C 288.82,52.9418 290.486,53.6085 292.5,53.5C 292.5,54.1667 292.5,54.8333 292.5,55.5C 291.883,55.3893 291.383,55.056 291,54.5C 288.768,60.9114 290.935,63.578 297.5,62.5C 298.609,62.5569 299.609,62.8902 300.5,63.5C 300.5,64.1667 300.5,64.8333 300.5,65.5C 289.945,66.6117 285.612,61.945 287.5,51.5 Z"/></g>
<g><path style="opacity:0.004" fill="#292929" d="M 41.5,53.5 C 40.8333,54.8333 39.8333,55.8333 38.5,56.5C 38.5,54.5 39.5,53.5 41.5,53.5 Z"/></g>
<g><path style="opacity:1" fill="#3f59f1" d="M 292.5,55.5 C 293.921,58.0094 295.588,60.3428 297.5,62.5C 290.935,63.578 288.768,60.9114 291,54.5C 291.383,55.056 291.883,55.3893 292.5,55.5 Z"/></g>
<g><path style="opacity:0.196" fill="#4e7fba" d="M 292.5,53.5 C 296.198,56.0137 298.864,59.347 300.5,63.5C 299.609,62.8902 298.609,62.5569 297.5,62.5C 295.588,60.3428 293.921,58.0094 292.5,55.5C 292.5,54.8333 292.5,54.1667 292.5,53.5 Z"/></g>
<g><path style="opacity:1" fill="#a6c3ec" d="M 45.5,57.5 C 64.1667,57.5 82.8333,57.5 101.5,57.5C 101.5,75.1667 101.5,92.8333 101.5,110.5C 82.8304,110.667 64.1637,110.5 45.5,110C 44.1732,92.5 44.1732,75 45.5,57.5 Z"/></g>
<g><path style="opacity:1" fill="#fcfcfd" d="M 100.5,108.5 C 97.8333,108.5 95.1667,108.5 92.5,108.5C 92.5402,105.575 91.7068,102.909 90,100.5C 85.7105,98.8057 81.8772,96.4724 78.5,93.5C 78.9493,89.9524 79.9493,86.619 81.5,83.5C 84.1213,83.5228 85.4546,82.1895 85.5,79.5C 85.2528,78.2867 84.5862,77.62 83.5,77.5C 84.3897,75.2181 84.5564,72.8848 84,70.5C 78.349,63.609 71.6823,62.609 64,67.5C 63.8281,70.8255 63.9947,74.1589 64.5,77.5C 63.5,77.5 62.5,77.5 61.5,77.5C 61.0193,81.3491 62.686,83.3491 66.5,83.5C 67.7576,86.6939 68.4242,90.0272 68.5,93.5C 64.2393,96.2245 60.0726,99.2245 56,102.5C 55.5045,104.473 55.3379,106.473 55.5,108.5C 52.5,108.5 49.5,108.5 46.5,108.5C 46.5,91.8333 46.5,75.1667 46.5,58.5C 64.5,58.5 82.5,58.5 100.5,58.5C 100.5,75.1667 100.5,91.8333 100.5,108.5 Z"/></g>
<g><path style="opacity:0.005" fill="#161616" d="M 34.5,61.5 C 34.1667,63.8333 32.8333,65.1667 30.5,65.5C 31.5,63.8333 32.8333,62.5 34.5,61.5 Z"/></g>
<g><path style="opacity:1" fill="#373442" d="M 83.5,77.5 C 82.6981,78.9516 82.1981,80.6183 82,82.5C 81.6667,80.8333 81.3333,79.1667 81,77.5C 78.337,74.5065 75.337,71.8399 72,69.5C 70.7147,69.9504 69.548,70.6171 68.5,71.5C 67.7125,74.8482 66.8792,78.1815 66,81.5C 65.79,79.9419 65.29,78.6085 64.5,77.5C 63.9947,74.1589 63.8281,70.8255 64,67.5C 71.6823,62.609 78.349,63.609 84,70.5C 84.5564,72.8848 84.3897,75.2181 83.5,77.5 Z"/></g>
<g><path style="opacity:0.007" fill="#000000" d="M 30.5,66.5 C 31.4387,67.3274 31.1054,67.9941 29.5,68.5C 29.3284,67.5084 29.6618,66.8417 30.5,66.5 Z"/></g>
<g><path style="opacity:0.008" fill="#383838" d="M 29.5,68.5 C 29.573,70.0269 28.9063,71.0269 27.5,71.5C 27.427,69.9731 28.0937,68.9731 29.5,68.5 Z"/></g>
<g><path style="opacity:0.005" fill="#1b1b1b" d="M 304.5,68.5 C 306.727,69.4006 307.727,71.0672 307.5,73.5C 306.11,72.1007 305.11,70.4341 304.5,68.5 Z"/></g>
<g><path style="opacity:1" fill="#eb975a" d="M 83.5,77.5 C 84.5862,77.62 85.2528,78.2867 85.5,79.5C 85.4546,82.1895 84.1213,83.5228 81.5,83.5C 79.9493,86.619 78.9493,89.9524 78.5,93.5C 77.3183,95.8381 75.6517,97.8381 73.5,99.5C 71.8149,97.4293 70.1482,95.4293 68.5,93.5C 68.4242,90.0272 67.7576,86.6939 66.5,83.5C 62.686,83.3491 61.0193,81.3491 61.5,77.5C 62.5,77.5 63.5,77.5 64.5,77.5C 65.29,78.6085 65.79,79.9419 66,81.5C 66.8792,78.1815 67.7125,74.8482 68.5,71.5C 69.548,70.6171 70.7147,69.9504 72,69.5C 75.337,71.8399 78.337,74.5065 81,77.5C 81.3333,79.1667 81.6667,80.8333 82,82.5C 82.1981,80.6183 82.6981,78.9516 83.5,77.5 Z"/></g>
<g><path style="opacity:1" fill="#b8cff1" d="M 119.5,70.5 C 119.5,105.833 119.5,141.167 119.5,176.5C 120.5,176.5 121.5,176.5 122.5,176.5C 141.833,176.5 161.167,176.5 180.5,176.5C 160.007,177.497 139.34,177.831 118.5,177.5C 118.168,141.663 118.502,105.996 119.5,70.5 Z"/></g>
<g><path style="opacity:1" fill="#eaf1fb" d="M 119.5,70.5 C 140.007,70.1695 160.34,70.5028 180.5,71.5C 162.167,71.5 143.833,71.5 125.5,71.5C 125.339,97.8477 124.672,124.181 123.5,150.5C 141.674,150.17 159.674,150.503 177.5,151.5C 159.155,151.167 140.821,151.5 122.5,152.5C 122.624,153.107 122.957,153.44 123.5,153.5C 140.976,155.162 158.643,156.162 176.5,156.5C 104.5,157.167 104.5,157.833 176.5,158.5C 158.671,159.332 140.671,159.832 122.5,160C 140.671,160.168 158.671,160.668 176.5,161.5C 104.5,162.167 104.5,162.833 176.5,163.5C 158.674,164.497 140.674,164.83 122.5,164.5C 122.5,168.5 122.5,172.5 122.5,176.5C 121.5,176.5 120.5,176.5 119.5,176.5C 119.5,141.167 119.5,105.833 119.5,70.5 Z"/></g>
<g><path style="opacity:1" fill="#fcfdfe" d="M 180.5,71.5 C 180.5,106.5 180.5,141.5 180.5,176.5C 161.167,176.5 141.833,176.5 122.5,176.5C 122.5,172.5 122.5,168.5 122.5,164.5C 140.674,164.83 158.674,164.497 176.5,163.5C 177.833,162.833 177.833,162.167 176.5,161.5C 158.671,160.668 140.671,160.168 122.5,160C 140.671,159.832 158.671,159.332 176.5,158.5C 177.833,157.833 177.833,157.167 176.5,156.5C 158.643,156.162 140.976,155.162 123.5,153.5C 141.864,154.153 159.864,153.487 177.5,151.5C 159.674,150.503 141.674,150.17 123.5,150.5C 124.672,124.181 125.339,97.8477 125.5,71.5C 143.833,71.5 162.167,71.5 180.5,71.5 Z"/></g>
<g><path style="opacity:0.937" fill="#2b79c4" d="M 300.5,63.5 C 302.688,64.4443 304.021,66.111 304.5,68.5C 305.11,70.4341 306.11,72.1007 307.5,73.5C 307.833,74.8333 308.167,76.1667 308.5,77.5C 305.34,73.8523 302.673,69.8523 300.5,65.5C 300.5,64.8333 300.5,64.1667 300.5,63.5 Z"/></g>
<g><path style="opacity:1" fill="#eddce3" d="M 201.5,59.5 C 202.497,59.4701 203.164,59.9701 203.5,61C 207.137,74.1469 204.637,85.9802 196,96.5C 198.807,90.8531 201.141,84.8531 203,78.5C 203.918,72.0212 203.418,65.6879 201.5,59.5 Z"/></g>
<g><path style="opacity:0.007" fill="#131313" d="M 26.5,73.5 C 25.8645,75.7946 24.5311,77.4613 22.5,78.5C 23.0798,76.2512 24.4131,74.5846 26.5,73.5 Z"/></g>
<g><path style="opacity:0.009" fill="#000000" d="M 22.5,79.5 C 22.9382,79.4346 23.2716,79.6012 23.5,80C 22.8971,82.0714 21.5638,83.2381 19.5,83.5C 20.5116,82.1283 21.5116,80.795 22.5,79.5 Z"/></g>
<g><path style="opacity:1" fill="#ecf2fb" d="M 25.5,79.5 C 25.5,111.833 25.5,144.167 25.5,176.5C 18.8333,176.5 12.1667,176.5 5.5,176.5C 5.53284,172.131 5.19951,167.798 4.5,163.5C 31.1667,162.833 31.1667,162.167 4.5,161.5C 4.5,160.5 4.5,159.5 4.5,158.5C 31.1667,157.833 31.1667,157.167 4.5,156.5C 4.5,155.5 4.5,154.5 4.5,153.5C 31.1667,152.833 31.1667,152.167 4.5,151.5C 4.5,151.167 4.5,150.833 4.5,150.5C 8.5,150.5 12.5,150.5 16.5,150.5C 16.9401,138.983 17.6068,127.483 18.5,116C 18.472,114.93 18.1386,114.097 17.5,113.5C 17.5,107.5 17.5,101.5 17.5,95.5C 19.6588,89.8489 22.3255,84.5156 25.5,79.5 Z"/></g>
<g><path style="opacity:0.514" fill="#4d6b92" d="M 307.5,73.5 C 310.47,77.3197 313.304,81.3197 316,85.5C 316.847,87.8543 317.68,90.1877 318.5,92.5C 318.167,92.5 317.833,92.5 317.5,92.5C 316.867,89.8664 315.2,88.1998 312.5,87.5C 311.167,84.1667 309.833,80.8333 308.5,77.5C 308.167,76.1667 307.833,74.8333 307.5,73.5 Z"/></g>
<g><path style="opacity:0.009" fill="#2f2f2f" d="M 18.5,84.5 C 19.2389,84.369 19.9056,84.5357 20.5,85C 19.9221,86.417 18.9221,87.2504 17.5,87.5C 17.5569,86.391 17.8902,85.391 18.5,84.5 Z"/></g>
<g><path style="opacity:1" fill="#fef4ed" d="M 70.5,85.5 C 72.6282,84.3709 74.9615,84.2042 77.5,85C 75.3262,88.1211 72.9928,88.2877 70.5,85.5 Z"/></g>
<g><path style="opacity:0.878" fill="#7ecfda" d="M 44.5,49.5 C 44.3284,50.4916 44.6618,51.1583 45.5,51.5C 39.7306,57.601 34.7306,64.2676 30.5,71.5C 28.8474,74.1305 27.1807,76.7972 25.5,79.5C 22.3255,84.5156 19.6588,89.8489 17.5,95.5C 16.596,96.209 16.2627,97.209 16.5,98.5C 14.2675,103.314 12.2675,108.314 10.5,113.5C 10.5,113.833 10.5,114.167 10.5,114.5C 9.18536,118.569 8.18536,122.736 7.5,127C 8.37838,128.8 9.04504,130.633 9.5,132.5C 8.5,132.5 7.5,132.5 6.5,132.5C 5.04323,138.4 4.37656,144.4 4.5,150.5C 4.5,150.833 4.5,151.167 4.5,151.5C 4.5,152.167 4.5,152.833 4.5,153.5C 4.5,154.5 4.5,155.5 4.5,156.5C 4.5,157.167 4.5,157.833 4.5,158.5C 4.5,159.5 4.5,160.5 4.5,161.5C 4.5,162.167 4.5,162.833 4.5,163.5C 5.19951,167.798 5.53284,172.131 5.5,176.5C 6.06543,178.952 6.7321,181.285 7.5,183.5C 7.32198,187.122 7.98864,190.456 9.5,193.5C 9.15829,194.338 8.49162,194.672 7.5,194.5C -0.893848,158.204 2.77282,123.204 18.5,89.5C 18.3764,88.8933 18.0431,88.56 17.5,88.5C 17.5,88.1667 17.5,87.8333 17.5,87.5C 18.9221,87.2504 19.9221,86.417 20.5,85C 19.9056,84.5357 19.2389,84.369 18.5,84.5C 18.5,83.8333 18.8333,83.5 19.5,83.5C 21.5638,83.2381 22.8971,82.0714 23.5,80C 23.2716,79.6012 22.9382,79.4346 22.5,79.5C 22.5,79.1667 22.5,78.8333 22.5,78.5C 24.5311,77.4613 25.8645,75.7946 26.5,73.5C 26.3284,72.5084 26.6618,71.8417 27.5,71.5C 28.9063,71.0269 29.573,70.0269 29.5,68.5C 31.1054,67.9941 31.4387,67.3274 30.5,66.5C 30.5,66.1667 30.5,65.8333 30.5,65.5C 32.8333,65.1667 34.1667,63.8333 34.5,61.5C 35.604,59.6115 36.9373,57.9448 38.5,56.5C 39.8333,55.8333 40.8333,54.8333 41.5,53.5C 42.0256,51.7697 43.0256,50.4363 44.5,49.5 Z"/></g>
<g><path style="opacity:1" fill="#06c2cb" d="M 312.5,87.5 C 315.2,88.1998 316.867,89.8664 317.5,92.5C 324.16,107.473 328.16,123.14 329.5,139.5C 325.648,138.536 321.648,138.536 317.5,139.5C 315.5,139.833 313.5,140.167 311.5,140.5C 311.804,134.423 311.304,128.423 310,122.5C 308.108,117.27 304.441,114.27 299,113.5C 294.683,115.383 290.183,116.883 285.5,118C 280.274,122.292 278.274,127.792 279.5,134.5C 281.167,134.5 282.833,134.5 284.5,134.5C 286.008,142.745 290.341,145.078 297.5,141.5C 298.167,142.167 298.833,142.833 299.5,143.5C 299.5,144.5 299.5,145.5 299.5,146.5C 297.862,147.159 296.195,147.826 294.5,148.5C 293.623,151.565 292.623,154.565 291.5,157.5C 287.575,161.689 285.575,166.689 285.5,172.5C 284.681,175.305 284.181,178.305 284,181.5C 283.167,182.333 282.333,183.167 281.5,184C 273.485,184.558 265.485,184.391 257.5,183.5C 249.605,179.859 242.605,181.025 236.5,187C 238.937,186.797 241.271,185.963 243.5,184.5C 245.565,185.857 247.565,187.19 249.5,188.5C 242.159,188.666 234.826,188.5 227.5,188C 223.795,180.09 219.961,172.256 216,164.5C 214.989,163.663 213.822,163.33 212.5,163.5C 215.309,172.793 218.975,181.793 223.5,190.5C 198.337,191.167 173.337,191.833 148.5,192.5C 148.5,193.833 148.5,195.167 148.5,196.5C 155.167,196.5 161.833,196.5 168.5,196.5C 166.167,222.498 163.833,248.498 161.5,274.5C 138.682,274.473 116.016,272.64 93.5,269C 79.1909,267.592 64.8576,267.259 50.5,268C 53.3714,270.703 56.0381,273.536 58.5,276.5C 32.6328,254.908 15.6328,227.574 7.5,194.5C 8.49162,194.672 9.15829,194.338 9.5,193.5C 17.7182,191.953 23.7182,194.62 27.5,201.5C 30.2819,210.94 27.2819,217.94 18.5,222.5C 21.0787,227.992 23.912,233.325 27,238.5C 27.2189,237.062 27.7189,235.729 28.5,234.5C 30.5165,233.826 32.1832,232.659 33.5,231C 36.0631,230.846 38.5631,231.346 41,232.5C 42.8204,231.396 44.3204,229.896 45.5,228C 40.6175,223.595 40.2841,218.762 44.5,213.5C 46.7094,212.894 48.876,212.227 51,211.5C 51.4955,209.527 51.6621,207.527 51.5,205.5C 49.4357,205.313 47.4357,204.813 45.5,204C 44.7476,203.329 44.4142,202.496 44.5,201.5C 69.1667,201.5 93.8333,201.5 118.5,201.5C 118.176,194.646 118.509,187.979 119.5,181.5C 140.833,181.5 162.167,181.5 183.5,181.5C 183.5,162.167 183.5,142.833 183.5,123.5C 184.15,123.196 184.817,122.863 185.5,122.5C 186.167,118.833 186.833,115.167 187.5,111.5C 190.64,109.527 193.64,107.36 196.5,105C 199.831,105.815 203.164,106.982 206.5,108.5C 207.84,107.133 209.173,105.8 210.5,104.5C 211.552,104.351 212.552,104.517 213.5,105C 211.826,109.011 208.826,111.011 204.5,111C 202.474,115.357 203.641,118.524 208,120.5C 209.069,123.208 210.236,125.875 211.5,128.5C 210.037,130.729 209.203,133.063 209,135.5C 210.353,136.685 211.52,138.019 212.5,139.5C 214.183,138.408 216.016,137.741 218,137.5C 220.782,138.472 223.615,139.305 226.5,140C 231.057,148.762 235.057,148.429 238.5,139C 240.725,138.439 242.725,137.439 244.5,136C 246.713,135.374 248.88,135.541 251,136.5C 255.434,133.148 255.6,129.481 251.5,125.5C 251.548,120.57 253.381,116.57 257,113.5C 257.667,112.167 257.667,110.833 257,109.5C 251.777,108.027 247.61,105.027 244.5,100.5C 266.943,94.8779 289.61,90.5446 312.5,87.5 Z"/></g>
<g><path style="opacity:1" fill="#9bc7fe" d="M 244.5,100.5 C 247.61,105.027 251.777,108.027 257,109.5C 257.667,110.833 257.667,112.167 257,113.5C 253.381,116.57 251.548,120.57 251.5,125.5C 255.6,129.481 255.434,133.148 251,136.5C 248.88,135.541 246.713,135.374 244.5,136C 242.725,137.439 240.725,138.439 238.5,139C 235.057,148.429 231.057,148.762 226.5,140C 223.615,139.305 220.782,138.472 218,137.5C 216.016,137.741 214.183,138.408 212.5,139.5C 211.52,138.019 210.353,136.685 209,135.5C 209.203,133.063 210.037,130.729 211.5,128.5C 210.236,125.875 209.069,123.208 208,120.5C 203.641,118.524 202.474,115.357 204.5,111C 208.826,111.011 211.826,109.011 213.5,105C 212.552,104.517 211.552,104.351 210.5,104.5C 210.5,103.833 210.833,103.5 211.5,103.5C 212.5,103.5 213.5,103.5 214.5,103.5C 214.223,100.552 214.556,97.7191 215.5,95C 216.729,94.2189 218.062,93.7189 219.5,93.5C 226.278,98.0725 232.445,97.4058 238,91.5C 239.667,92.1667 241.333,92.8333 243,93.5C 243.186,96.0356 243.686,98.369 244.5,100.5 Z"/></g>
<g><path style="opacity:1" fill="#9fb6e2" d="M 128.5,75.5 C 142.5,75.5 156.5,75.5 170.5,75.5C 170.5,88.5 170.5,101.5 170.5,114.5C 156.829,114.667 143.163,114.5 129.5,114C 128.511,101.246 128.178,88.4131 128.5,75.5 Z"/></g>
<g><path style="opacity:1" fill="#dee9f8" d="M 162.5,112.5 C 164.5,112.5 166.5,112.5 168.5,112.5C 168.5,100.833 168.5,89.1667 168.5,77.5C 155.833,77.5 143.167,77.5 130.5,77.5C 130.5,89.1667 130.5,100.833 130.5,112.5C 129.505,100.678 129.172,88.6783 129.5,76.5C 142.833,76.5 156.167,76.5 169.5,76.5C 169.5,88.8333 169.5,101.167 169.5,113.5C 166.941,113.802 164.607,113.468 162.5,112.5 Z"/></g>
<g><path style="opacity:1" fill="#fdfcfc" d="M 162.5,112.5 C 160.807,109.318 158.141,107.652 154.5,107.5C 154.167,106.833 153.833,106.167 153.5,105.5C 155.504,104.327 157.004,102.66 158,100.5C 161.904,90.6385 158.738,84.6385 148.5,82.5C 142.457,83.5485 139.457,87.2152 139.5,93.5C 140.334,96.8763 141.501,100.21 143,103.5C 143.816,104.823 144.983,105.489 146.5,105.5C 146.5,105.833 146.5,106.167 146.5,106.5C 142.427,106.908 139.427,108.908 137.5,112.5C 135.167,112.5 132.833,112.5 130.5,112.5C 130.5,100.833 130.5,89.1667 130.5,77.5C 143.167,77.5 155.833,77.5 168.5,77.5C 168.5,89.1667 168.5,100.833 168.5,112.5C 166.5,112.5 164.5,112.5 162.5,112.5 Z"/></g>
<g><path style="opacity:1" fill="#e9965a" d="M 153.5,105.5 C 153.833,106.167 154.167,106.833 154.5,107.5C 152.807,108.475 151.307,109.808 150,111.5C 148.811,109.767 147.644,108.1 146.5,106.5C 146.5,106.167 146.5,105.833 146.5,105.5C 145.175,101.642 144.675,97.6421 145,93.5C 147.675,91.5539 150.508,89.8873 153.5,88.5C 154.993,90.3636 155.66,92.5303 155.5,95C 154.975,98.5414 154.308,102.041 153.5,105.5 Z"/></g>
<g><path style="opacity:1" fill="#81553c" d="M 153.5,105.5 C 154.308,102.041 154.975,98.5414 155.5,95C 155.66,92.5303 154.993,90.3636 153.5,88.5C 150.508,89.8873 147.675,91.5539 145,93.5C 144.675,97.6421 145.175,101.642 146.5,105.5C 144.983,105.489 143.816,104.823 143,103.5C 141.501,100.21 140.334,96.8763 139.5,93.5C 139.457,87.2152 142.457,83.5485 148.5,82.5C 158.738,84.6385 161.904,90.6385 158,100.5C 157.004,102.66 155.504,104.327 153.5,105.5 Z"/></g>
<g><path style="opacity:0.016" fill="#757575" d="M 10.5,217.5 C 12.2132,218.635 12.8799,220.302 12.5,222.5C 11.0527,221.378 10.0527,219.878 9.5,218C 9.72845,217.601 10.0618,217.435 10.5,217.5 Z"/></g>
<g><path style="opacity:0.004" fill="#fefffe" d="M 21.5,242.5 C 22.9063,242.973 23.573,243.973 23.5,245.5C 22.0937,245.027 21.427,244.027 21.5,242.5 Z"/></g>
<g><path style="opacity:0.004" fill="#e4e4e4" d="M 311.5,243.5 C 311.573,245.027 310.906,246.027 309.5,246.5C 309.427,244.973 310.094,243.973 311.5,243.5 Z"/></g>
<g><path style="opacity:0.13" fill="#131414" d="M 17.5,88.5 C 18.0431,88.56 18.3764,88.8933 18.5,89.5C 2.77282,123.204 -0.893848,158.204 7.5,194.5C 15.6328,227.574 32.6328,254.908 58.5,276.5C 62.5873,280.922 67.2539,284.589 72.5,287.5C 73.6594,289.25 75.326,290.25 77.5,290.5C 77.9731,291.906 78.9731,292.573 80.5,292.5C 83.0078,294.924 86.0078,296.59 89.5,297.5C 94.9705,301.233 100.97,303.899 107.5,305.5C 114.058,308.682 121.058,310.682 128.5,311.5C 171.879,320.909 213.212,315.076 252.5,294C 255.921,292.301 258.921,290.135 261.5,287.5C 266.762,284.244 271.762,280.578 276.5,276.5C 278.833,274.833 280.833,272.833 282.5,270.5C 285.833,267.833 288.833,264.833 291.5,261.5C 297.332,254.491 302.665,247.158 307.5,239.5C 308.488,238.205 309.488,236.872 310.5,235.5C 317.801,221.933 323.135,207.599 326.5,192.5C 328.187,186.736 329.353,180.736 330,174.5C 330.826,162.659 330.659,150.993 329.5,139.5C 328.16,123.14 324.16,107.473 317.5,92.5C 317.833,92.5 318.167,92.5 318.5,92.5C 324.171,103.831 328.504,115.331 331.5,127C 331.167,127.333 330.833,127.667 330.5,128C 332.099,134.876 333.432,141.709 334.5,148.5C 334.5,148.833 334.5,149.167 334.5,149.5C 333.167,149.833 333.167,150.167 334.5,150.5C 334.5,153.167 334.5,155.833 334.5,158.5C 333.167,158.833 333.167,159.167 334.5,159.5C 334.5,162.5 334.5,165.5 334.5,168.5C 333.167,169.167 333.167,169.833 334.5,170.5C 334.5,170.833 334.5,171.167 334.5,171.5C 332.47,195.957 324.803,219.957 311.5,243.5C 310.094,243.973 309.427,244.973 309.5,246.5C 290.066,278.37 262.399,300.87 226.5,314C 209.347,319.127 191.681,322.294 173.5,323.5C 173.167,323.5 172.833,323.5 172.5,323.5C 169.167,322.167 165.833,322.167 162.5,323.5C 162.167,323.5 161.833,323.5 161.5,323.5C 110.477,321.908 68.3103,301.574 35,262.5C 30.9453,256.952 27.112,251.285 23.5,245.5C 23.573,243.973 22.9063,242.973 21.5,242.5C 19.5981,240.038 17.9314,237.538 16.5,235C 16.8333,234.667 17.1667,234.333 17.5,234C 14.603,230.706 12.9363,226.872 12.5,222.5C 12.8799,220.302 12.2132,218.635 10.5,217.5C 6.91924,210.945 4.91924,204.112 4.5,197C 2.22713,188.184 0.560462,179.351 -0.5,170.5C -0.5,170.167 -0.5,169.833 -0.5,169.5C 0.833333,168.167 0.833333,166.833 -0.5,165.5C -0.5,165.167 -0.5,164.833 -0.5,164.5C 0.833333,164.167 0.833333,163.833 -0.5,163.5C -0.5,163.167 -0.5,162.833 -0.5,162.5C 0.833333,162.167 0.833333,161.833 -0.5,161.5C -0.5,160.167 -0.5,158.833 -0.5,157.5C 0.833333,157.167 0.833333,156.833 -0.5,156.5C -0.5,156.167 -0.5,155.833 -0.5,155.5C 0.833333,154.833 0.833333,154.167 -0.5,153.5C -0.5,153.167 -0.5,152.833 -0.5,152.5C 0.833333,151.833 0.833333,151.167 -0.5,150.5C -0.5,150.167 -0.5,149.833 -0.5,149.5C 1.55179,132.099 5.71846,115.099 12,98.5C 13.6219,94.9121 15.4552,91.5788 17.5,88.5 Z"/></g>
<g><path style="opacity:1" fill="#14bec9" d="M 253.5,236.5 C 258.098,242.933 263.598,248.599 270,253.5C 270.483,254.448 270.649,255.448 270.5,256.5C 269.768,262.095 268.435,267.429 266.5,272.5C 263.167,272.5 259.833,272.5 256.5,272.5C 255.368,260.513 254.368,248.513 253.5,236.5 Z"/></g>
<g><path style="opacity:1" fill="#06c0ca" d="M 307.5,239.5 C 302.665,247.158 297.332,254.491 291.5,261.5C 290.833,261.167 290.167,260.833 289.5,260.5C 286.5,257.167 283.5,253.833 280.5,250.5C 279.905,246.385 278.905,242.385 277.5,238.5C 279.118,235.112 280.118,231.446 280.5,227.5C 288.481,228.157 296.481,228.657 304.5,229C 305.69,232.456 306.69,235.956 307.5,239.5 Z"/></g>
<g><path style="opacity:1" fill="#11bac9" d="M 269.5,226.5 C 272.167,226.5 274.833,226.5 277.5,226.5C 276.833,229.5 276.167,232.5 275.5,235.5C 273.507,232.505 271.507,229.505 269.5,226.5 Z"/></g>
<g><path style="opacity:1" fill="#21b4ca" d="M 313.5,210.5 C 313.664,213.187 313.497,215.854 313,218.5C 312.34,220.324 311.173,221.657 309.5,222.5C 310.965,218.976 311.965,215.309 312.5,211.5C 312.5,210.833 312.833,210.5 313.5,210.5 Z"/></g>
<g><path style="opacity:1" fill="#9dc8fe" d="M 27.5,201.5 C 31.1667,201.5 34.8333,201.5 38.5,201.5C 38.6657,205.846 38.499,210.179 38,214.5C 36.5814,217.974 35.248,221.307 34,224.5C 39.4146,217.853 41.5813,210.187 40.5,201.5C 41.8333,201.5 43.1667,201.5 44.5,201.5C 44.4142,202.496 44.7476,203.329 45.5,204C 47.4357,204.813 49.4357,205.313 51.5,205.5C 51.6621,207.527 51.4955,209.527 51,211.5C 48.876,212.227 46.7094,212.894 44.5,213.5C 40.2841,218.762 40.6175,223.595 45.5,228C 44.3204,229.896 42.8204,231.396 41,232.5C 38.5631,231.346 36.0631,230.846 33.5,231C 32.1832,232.659 30.5165,233.826 28.5,234.5C 27.7189,235.729 27.2189,237.062 27,238.5C 23.912,233.325 21.0787,227.992 18.5,222.5C 27.2819,217.94 30.2819,210.94 27.5,201.5 Z"/></g>
<g><path style="opacity:1" fill="#f3f8fe" d="M 38.5,201.5 C 39.1667,201.5 39.8333,201.5 40.5,201.5C 41.5813,210.187 39.4146,217.853 34,224.5C 35.248,221.307 36.5814,217.974 38,214.5C 38.499,210.179 38.6657,205.846 38.5,201.5 Z"/></g>
<g><path style="opacity:1" fill="#74a0dc" d="M 284.5,197.5 C 291.548,201.046 298.215,205.213 304.5,210C 307.063,211.079 309.729,211.579 312.5,211.5C 311.965,215.309 310.965,218.976 309.5,222.5C 305.722,224.051 301.722,224.718 297.5,224.5C 290.087,224.148 282.754,223.148 275.5,221.5C 273.311,221.594 271.311,222.261 269.5,223.5C 268.438,224.425 268.438,225.425 269.5,226.5C 271.507,229.505 273.507,232.505 275.5,235.5C 275.932,236.71 276.599,237.71 277.5,238.5C 278.905,242.385 279.905,246.385 280.5,250.5C 280.312,253.206 279.312,255.539 277.5,257.5C 276.038,258.471 274.705,258.138 273.5,256.5C 272.652,255.375 271.652,255.375 270.5,256.5C 270.649,255.448 270.483,254.448 270,253.5C 263.598,248.599 258.098,242.933 253.5,236.5C 252.4,224.53 251.4,212.53 250.5,200.5C 261.786,199.061 273.119,198.061 284.5,197.5 Z"/></g>
<g><path style="opacity:1" fill="#1cb9c5" d="M 270.5,193.5 C 275.152,193.998 279.819,194.331 284.5,194.5C 284.5,195.167 284.5,195.833 284.5,196.5C 284.5,196.833 284.5,197.167 284.5,197.5C 273.119,198.061 261.786,199.061 250.5,200.5C 249.566,199.432 249.232,198.099 249.5,196.5C 256.5,196.5 263.5,196.5 270.5,196.5C 270.5,195.5 270.5,194.5 270.5,193.5 Z"/></g>
<g><path style="opacity:1" fill="#811542" d="M 148.5,192.5 C 188.167,192.5 227.833,192.5 267.5,192.5C 268.609,192.557 269.609,192.89 270.5,193.5C 270.5,194.5 270.5,195.5 270.5,196.5C 263.5,196.5 256.5,196.5 249.5,196.5C 249.232,198.099 249.566,199.432 250.5,200.5C 251.4,212.53 252.4,224.53 253.5,236.5C 254.368,248.513 255.368,260.513 256.5,272.5C 257.219,274.764 257.552,277.097 257.5,279.5C 256.5,279.5 255.5,279.5 254.5,279.5C 254.552,277.097 254.219,274.764 253.5,272.5C 252.125,259.123 250.458,245.79 248.5,232.5C 247.386,223.141 246.053,213.808 244.5,204.5C 244.768,201.881 244.435,199.381 243.5,197C 220.493,196.167 197.493,196.334 174.5,197.5C 170.607,223.084 167.274,248.751 164.5,274.5C 163.962,276.117 163.629,277.784 163.5,279.5C 162.325,279.719 161.325,279.386 160.5,278.5C 161.246,277.264 161.579,275.93 161.5,274.5C 163.833,248.498 166.167,222.498 168.5,196.5C 161.833,196.5 155.167,196.5 148.5,196.5C 148.5,195.167 148.5,193.833 148.5,192.5 Z"/></g>
<g><path style="opacity:1" fill="#0cc0ca" d="M 248.5,232.5 C 250.458,245.79 252.125,259.123 253.5,272.5C 242.833,272.5 232.167,272.5 221.5,272.5C 221.167,271.167 220.833,269.833 220.5,268.5C 220.5,265.833 220.5,263.167 220.5,260.5C 221.552,260.649 222.552,260.483 223.5,260C 232.119,250.891 240.452,241.725 248.5,232.5 Z"/></g>
<g><path style="opacity:1" fill="#6792c9" d="M 244.5,204.5 C 246.053,213.808 247.386,223.141 248.5,232.5C 240.452,241.725 232.119,250.891 223.5,260C 222.552,260.483 221.552,260.649 220.5,260.5C 217.921,260.606 215.588,259.939 213.5,258.5C 222.837,239.812 233.171,221.812 244.5,204.5 Z"/></g>
<g><path style="opacity:1" fill="#07c1cb" d="M 244.5,204.5 C 233.171,221.812 222.837,239.812 213.5,258.5C 210.908,264.024 207.575,269.024 203.5,273.5C 190.512,274.203 177.512,274.537 164.5,274.5C 167.274,248.751 170.607,223.084 174.5,197.5C 197.493,196.334 220.493,196.167 243.5,197C 244.435,199.381 244.768,201.881 244.5,204.5 Z"/></g>
<g><path style="opacity:1" fill="#1fc1ca" d="M 252.5,188.5 C 255.344,187.449 258.344,187.449 261.5,188.5C 262.802,190.028 264.469,191.028 266.5,191.5C 263.167,191.5 259.833,191.5 256.5,191.5C 256.5,190.5 256.5,189.5 256.5,188.5C 255.167,188.5 253.833,188.5 252.5,188.5 Z"/></g>
<g><path style="opacity:1" fill="#e7f1ff" d="M 7.5,183.5 C 8.49189,181.974 9.99189,181.307 12,181.5C 13.1667,181.833 14.3333,182.167 15.5,182.5C 12.9135,183.48 10.2469,183.813 7.5,183.5 Z"/></g>
<g><path style="opacity:1" fill="#e89b5e" d="M 257.5,183.5 C 258.568,184.434 259.901,184.768 261.5,184.5C 261.5,185.833 261.5,187.167 261.5,188.5C 258.344,187.449 255.344,187.449 252.5,188.5C 251.5,188.5 250.5,188.5 249.5,188.5C 247.565,187.19 245.565,185.857 243.5,184.5C 241.271,185.963 238.937,186.797 236.5,187C 242.605,181.025 249.605,179.859 257.5,183.5 Z"/></g>
<g><path style="opacity:1" fill="#56bddd" d="M 183.5,123.5 C 183.5,142.833 183.5,162.167 183.5,181.5C 162.167,181.5 140.833,181.5 119.5,181.5C 140.327,180.503 161.327,180.169 182.5,180.5C 182.17,161.326 182.503,142.326 183.5,123.5 Z"/></g>
<g><path style="opacity:1" fill="#2e4466" d="M 327.5,174.5 C 328.124,174.917 328.457,175.584 328.5,176.5C 327.861,179.475 327.361,182.475 327,185.5C 326.878,187.437 326.045,188.77 324.5,189.5C 323.565,186.887 323.398,184.221 324,181.5C 325.705,179.423 326.872,177.09 327.5,174.5 Z"/></g>
<g><path style="opacity:1" fill="#d64e45" d="M 307.5,172.5 C 308.043,172.56 308.376,172.893 308.5,173.5C 306.765,178.538 304.932,183.538 303,188.5C 302.015,193.689 302.515,198.689 304.5,203.5C 304.167,203.833 303.833,204.167 303.5,204.5C 298.182,199.503 291.849,196.836 284.5,196.5C 284.5,195.833 284.5,195.167 284.5,194.5C 288.273,194.737 291.94,194.237 295.5,193C 299.919,186.318 303.919,179.484 307.5,172.5 Z"/></g>
<g><path style="opacity:1" fill="#a2c0ec" d="M 35.5,174.5 C 60.5022,174.333 85.5022,174.5 110.5,175C 110.957,175.414 111.291,175.914 111.5,176.5C 86.1754,177.5 60.8421,177.833 35.5,177.5C 35.5,176.5 35.5,175.5 35.5,174.5 Z"/></g>
<g><path style="opacity:1" fill="#30609b" d="M 310.5,235.5 C 309.488,236.872 308.488,238.205 307.5,239.5C 306.69,235.956 305.69,232.456 304.5,229C 296.481,228.657 288.481,228.157 280.5,227.5C 280.118,231.446 279.118,235.112 277.5,238.5C 276.599,237.71 275.932,236.71 275.5,235.5C 276.167,232.5 276.833,229.5 277.5,226.5C 274.833,226.5 272.167,226.5 269.5,226.5C 268.438,225.425 268.438,224.425 269.5,223.5C 271.311,222.261 273.311,221.594 275.5,221.5C 282.754,223.148 290.087,224.148 297.5,224.5C 301.722,224.718 305.722,224.051 309.5,222.5C 311.173,221.657 312.34,220.324 313,218.5C 313.497,215.854 313.664,213.187 313.5,210.5C 313.157,205.794 312.491,201.127 311.5,196.5C 311.853,190.577 312.853,184.911 314.5,179.5C 315.718,177.172 316.718,174.672 317.5,172C 319.607,171.146 320.941,171.812 321.5,174C 319.77,178.752 318.27,183.585 317,188.5C 316.959,198.835 316.959,209.168 317,219.5C 315.198,223.633 312.365,226.8 308.5,229C 308.99,231.346 309.657,233.513 310.5,235.5 Z"/></g>
<g><path style="opacity:1" fill="#adc7ee" d="M 35.5,167.5 C 60.5022,167.333 85.5022,167.5 110.5,168C 111.833,169 111.833,170 110.5,171C 85.8333,171.667 61.1667,171.667 36.5,171C 35.6634,169.989 35.33,168.822 35.5,167.5 Z"/></g>
<g><path style="opacity:1" fill="#6796ca" d="M 249.5,188.5 C 250.5,188.5 251.5,188.5 252.5,188.5C 253.833,188.5 255.167,188.5 256.5,188.5C 256.5,189.5 256.5,190.5 256.5,191.5C 259.833,191.5 263.167,191.5 266.5,191.5C 267.167,191.5 267.5,191.833 267.5,192.5C 227.833,192.5 188.167,192.5 148.5,192.5C 173.337,191.833 198.337,191.167 223.5,190.5C 218.975,181.793 215.309,172.793 212.5,163.5C 213.822,163.33 214.989,163.663 216,164.5C 219.961,172.256 223.795,180.09 227.5,188C 234.826,188.5 242.159,188.666 249.5,188.5 Z"/></g>
<g><path style="opacity:1" fill="#99bbeb" d="M 176.5,161.5 C 177.833,162.167 177.833,162.833 176.5,163.5C 104.5,162.833 104.5,162.167 176.5,161.5 Z"/></g>
<g><path style="opacity:1" fill="#a4c2ed" d="M 35.5,161.5 C 60.8421,161.167 86.1754,161.5 111.5,162.5C 111.291,163.086 110.957,163.586 110.5,164C 85.5022,164.5 60.5022,164.667 35.5,164.5C 35.5,163.5 35.5,162.5 35.5,161.5 Z"/></g>
<g><path style="opacity:1" fill="#99bbeb" d="M 4.5,161.5 C 31.1667,162.167 31.1667,162.833 4.5,163.5C 4.5,162.833 4.5,162.167 4.5,161.5 Z"/></g>
<g><path style="opacity:1" fill="#12bcc6" d="M 328.5,167.5 C 328.702,169.95 328.369,172.283 327.5,174.5C 326.872,177.09 325.705,179.423 324,181.5C 323.398,184.221 323.565,186.887 324.5,189.5C 325.167,190.5 325.833,191.5 326.5,192.5C 323.135,207.599 317.801,221.933 310.5,235.5C 309.657,233.513 308.99,231.346 308.5,229C 312.365,226.8 315.198,223.633 317,219.5C 316.959,209.168 316.959,198.835 317,188.5C 318.27,183.585 319.77,178.752 321.5,174C 320.941,171.812 319.607,171.146 317.5,172C 316.718,174.672 315.718,177.172 314.5,179.5C 316.066,168.922 314.066,159.255 308.5,150.5C 308.975,147.918 308.308,145.918 306.5,144.5C 306.5,144.167 306.5,143.833 306.5,143.5C 306.5,143.167 306.5,142.833 306.5,142.5C 307.583,142.461 308.583,142.127 309.5,141.5C 309.954,146.867 311.454,151.867 314,156.5C 317.631,159.042 321.464,161.209 325.5,163C 327.141,164.129 328.141,165.629 328.5,167.5 Z"/></g>
<g><path style="opacity:1" fill="#99bbeb" d="M 176.5,156.5 C 177.833,157.167 177.833,157.833 176.5,158.5C 104.5,157.833 104.5,157.167 176.5,156.5 Z"/></g>
<g><path style="opacity:1" fill="#99bbeb" d="M 4.5,156.5 C 31.1667,157.167 31.1667,157.833 4.5,158.5C 4.5,157.833 4.5,157.167 4.5,156.5 Z"/></g>
<g><path style="opacity:1" fill="#f0776e" d="M 297.5,153.5 C 298.167,153.5 298.5,153.833 298.5,154.5C 294.346,162.14 290.179,169.806 286,177.5C 285.506,175.866 285.34,174.199 285.5,172.5C 285.575,166.689 287.575,161.689 291.5,157.5C 293.5,156.167 295.5,154.833 297.5,153.5 Z"/></g>
<g><path style="opacity:1" fill="#19788d" d="M 317.5,139.5 C 321.648,138.536 325.648,138.536 329.5,139.5C 330.659,150.993 330.826,162.659 330,174.5C 329.353,180.736 328.187,186.736 326.5,192.5C 325.833,191.5 325.167,190.5 324.5,189.5C 326.045,188.77 326.878,187.437 327,185.5C 327.361,182.475 327.861,179.475 328.5,176.5C 328.457,175.584 328.124,174.917 327.5,174.5C 328.369,172.283 328.702,169.95 328.5,167.5C 329.656,159.677 329.823,151.677 329,143.5C 325.598,141.064 321.765,139.731 317.5,139.5 Z"/></g>
<g><path style="opacity:1" fill="#efe2db" d="M 305.5,152.5 C 306.496,152.414 307.329,152.748 308,153.5C 311.247,159.883 311.081,166.216 307.5,172.5C 303.919,179.484 299.919,186.318 295.5,193C 291.94,194.237 288.273,194.737 284.5,194.5C 279.819,194.331 275.152,193.998 270.5,193.5C 269.609,192.89 268.609,192.557 267.5,192.5C 267.5,191.833 267.167,191.5 266.5,191.5C 264.469,191.028 262.802,190.028 261.5,188.5C 261.5,187.167 261.5,185.833 261.5,184.5C 259.901,184.768 258.568,184.434 257.5,183.5C 265.485,184.391 273.485,184.558 281.5,184C 282.333,183.167 283.167,182.333 284,181.5C 284.181,178.305 284.681,175.305 285.5,172.5C 285.34,174.199 285.506,175.866 286,177.5C 290.179,169.806 294.346,162.14 298.5,154.5C 300.479,152.832 302.812,152.166 305.5,152.5 Z"/></g>
<g><path style="opacity:1" fill="#ef7169" d="M 306.5,150.5 C 307.167,150.5 307.833,150.5 308.5,150.5C 314.066,159.255 316.066,168.922 314.5,179.5C 312.853,184.911 311.853,190.577 311.5,196.5C 312.491,201.127 313.157,205.794 313.5,210.5C 312.833,210.5 312.5,210.833 312.5,211.5C 309.729,211.579 307.063,211.079 304.5,210C 298.215,205.213 291.548,201.046 284.5,197.5C 284.5,197.167 284.5,196.833 284.5,196.5C 291.849,196.836 298.182,199.503 303.5,204.5C 303.833,204.167 304.167,203.833 304.5,203.5C 302.515,198.689 302.015,193.689 303,188.5C 304.932,183.538 306.765,178.538 308.5,173.5C 308.376,172.893 308.043,172.56 307.5,172.5C 311.081,166.216 311.247,159.883 308,153.5C 307.329,152.748 306.496,152.414 305.5,152.5C 305.833,151.833 306.167,151.167 306.5,150.5 Z"/></g>
<g><path style="opacity:1" fill="#f2aba3" d="M 306.5,150.5 C 306.167,151.167 305.833,151.833 305.5,152.5C 302.812,152.166 300.479,152.832 298.5,154.5C 298.5,153.833 298.167,153.5 297.5,153.5C 300.084,151.528 303.084,150.528 306.5,150.5 Z"/></g>
<g><path style="opacity:1" fill="#99bbeb" d="M 177.5,151.5 C 159.864,153.487 141.864,154.153 123.5,153.5C 122.957,153.44 122.624,153.107 122.5,152.5C 140.821,151.5 159.155,151.167 177.5,151.5 Z"/></g>
<g><path style="opacity:1" fill="#99bbeb" d="M 4.5,151.5 C 31.1667,152.167 31.1667,152.833 4.5,153.5C 4.5,152.833 4.5,152.167 4.5,151.5 Z"/></g>
<g><path style="opacity:1" fill="#efe2da" d="M 306.5,144.5 C 308.308,145.918 308.975,147.918 308.5,150.5C 307.833,150.5 307.167,150.5 306.5,150.5C 303.084,150.528 300.084,151.528 297.5,153.5C 295.5,154.833 293.5,156.167 291.5,157.5C 292.623,154.565 293.623,151.565 294.5,148.5C 296.195,147.826 297.862,147.159 299.5,146.5C 301.701,145.434 304.035,144.767 306.5,144.5 Z"/></g>
<g><path style="opacity:1" fill="#a2c1ec" d="M 97.5,143.5 C 99.2128,144.305 100.879,145.305 102.5,146.5C 101.985,148.225 101.318,149.892 100.5,151.5C 98.9579,150.253 97.4579,150.253 96,151.5C 95.8371,149.324 95.0037,147.491 93.5,146C 95.437,145.878 96.7703,145.045 97.5,143.5 Z"/></g>
<g><path style="opacity:1" fill="#a4c2ed" d="M 85.5,142.5 C 86.404,143.209 86.7373,144.209 86.5,145.5C 87.8734,145.343 89.2068,145.51 90.5,146C 88.9963,147.491 88.1629,149.324 88,151.5C 86.5421,150.253 85.0421,150.253 83.5,151.5C 82.6816,149.892 82.0149,148.225 81.5,146.5C 83.4206,145.676 84.754,144.343 85.5,142.5 Z"/></g>
<g><path style="opacity:1" fill="#a4c2ed" d="M 60.5,142.5 C 61.404,143.209 61.7373,144.209 61.5,145.5C 62.8734,145.343 64.2068,145.51 65.5,146C 63.9963,147.491 63.1629,149.324 63,151.5C 61.5421,150.253 60.0421,150.253 58.5,151.5C 57.6816,149.892 57.0149,148.225 56.5,146.5C 58.4206,145.676 59.754,144.343 60.5,142.5 Z"/></g>
<g><path style="opacity:1" fill="#a4c2ed" d="M 47.5,143.5 C 49.0145,144.68 50.6812,145.68 52.5,146.5C 51.9851,148.225 51.3184,149.892 50.5,151.5C 48.9579,150.253 47.4579,150.253 46,151.5C 45.8371,149.324 45.0037,147.491 43.5,146C 45.3197,145.8 46.653,144.966 47.5,143.5 Z"/></g>
<g><path style="opacity:1" fill="#ea9557" d="M 306.5,143.5 C 306.5,143.833 306.5,144.167 306.5,144.5C 304.035,144.767 301.701,145.434 299.5,146.5C 299.5,145.5 299.5,144.5 299.5,143.5C 301.626,142.897 303.959,142.897 306.5,143.5 Z"/></g>
<g><path style="opacity:1" fill="#a5c3ed" d="M 72.5,142.5 C 73.8721,144.089 75.5388,145.422 77.5,146.5C 76.9851,148.225 76.3184,149.892 75.5,151.5C 73.9579,150.253 72.4579,150.253 71,151.5C 70.654,149.782 70.154,148.115 69.5,146.5C 71.2882,145.717 72.2882,144.384 72.5,142.5 Z"/></g>
<g><path style="opacity:1" fill="#876457" d="M 294.5,136.5 C 297.956,139.439 301.956,141.439 306.5,142.5C 306.5,142.833 306.5,143.167 306.5,143.5C 303.959,142.897 301.626,142.897 299.5,143.5C 298.833,142.833 298.167,142.167 297.5,141.5C 296.248,139.999 295.248,138.332 294.5,136.5 Z"/></g>
<g><path style="opacity:1" fill="#2f3e62" d="M 317.5,139.5 C 321.765,139.731 325.598,141.064 329,143.5C 329.823,151.677 329.656,159.677 328.5,167.5C 328.141,165.629 327.141,164.129 325.5,163C 321.464,161.209 317.631,159.042 314,156.5C 311.454,151.867 309.954,146.867 309.5,141.5C 308.583,142.127 307.583,142.461 306.5,142.5C 301.956,141.439 297.956,139.439 294.5,136.5C 294.5,135.5 294.5,134.5 294.5,133.5C 292.833,133.5 291.167,133.5 289.5,133.5C 288.228,126.979 287.561,126.979 287.5,133.5C 286.209,133.263 285.209,133.596 284.5,134.5C 282.833,134.5 281.167,134.5 279.5,134.5C 278.274,127.792 280.274,122.292 285.5,118C 290.183,116.883 294.683,115.383 299,113.5C 304.441,114.27 308.108,117.27 310,122.5C 311.304,128.423 311.804,134.423 311.5,140.5C 313.5,140.167 315.5,139.833 317.5,139.5 Z"/></g>
<g><path style="opacity:1" fill="#a5c3ed" d="M 162.5,138.5 C 163.683,139.504 165.016,140.338 166.5,141C 165.809,142.067 165.309,143.234 165,144.5C 164,143.167 163,143.167 162,144.5C 160.188,142.079 160.354,140.079 162.5,138.5 Z"/></g>
<g><path style="opacity:1" fill="#a1c0ec" d="M 153.5,138.5 C 156.322,139.789 156.989,141.789 155.5,144.5C 151.721,143.033 151.054,141.033 153.5,138.5 Z"/></g>
<g><path style="opacity:1" fill="#a3c1ed" d="M 144.5,138.5 C 147.322,139.789 147.989,141.789 146.5,144.5C 142.721,143.033 142.054,141.033 144.5,138.5 Z"/></g>
<g><path style="opacity:1" fill="#a4c2ed" d="M 135.5,138.5 C 139.139,140.678 138.805,142.678 134.5,144.5C 133.23,142.243 133.564,140.243 135.5,138.5 Z"/></g>
<g><path style="opacity:1" fill="#ea975a" d="M 289.5,133.5 C 291.167,133.5 292.833,133.5 294.5,133.5C 294.5,134.5 294.5,135.5 294.5,136.5C 295.248,138.332 296.248,139.999 297.5,141.5C 290.341,145.078 286.008,142.745 284.5,134.5C 286.292,134.634 287.958,134.301 289.5,133.5 Z"/></g>
<g><path style="opacity:1" fill="#946c5c" d="M 289.5,133.5 C 287.958,134.301 286.292,134.634 284.5,134.5C 285.209,133.596 286.209,133.263 287.5,133.5C 287.561,126.979 288.228,126.979 289.5,133.5 Z"/></g>
<g><path style="opacity:1" fill="#9cbdeb" d="M 56.5,130.5 C 67.505,130.333 78.505,130.5 89.5,131C 90.3802,132.356 90.7135,133.856 90.5,135.5C 79.1618,135.667 67.8284,135.5 56.5,135C 55.2721,133.51 55.2721,132.01 56.5,130.5 Z"/></g>
<g><path style="opacity:1" fill="#9bbceb" d="M 136.5,129.5 C 145.167,129.5 153.833,129.5 162.5,129.5C 162.5,130.5 162.5,131.5 162.5,132.5C 153.833,132.5 145.167,132.5 136.5,132.5C 136.5,131.5 136.5,130.5 136.5,129.5 Z"/></g>
<g><path style="opacity:1" fill="#a3c1ec" d="M 140.5,123.5 C 146.509,123.334 152.509,123.501 158.5,124C 159.833,125 159.833,126 158.5,127C 152.5,127.667 146.5,127.667 140.5,127C 139.316,125.855 139.316,124.688 140.5,123.5 Z"/></g>
<g><path style="opacity:1" fill="#a5c3ed" d="M 51.5,122.5 C 65.8372,122.333 80.1705,122.5 94.5,123C 95.8333,124.667 95.8333,126.333 94.5,128C 80.5,128.667 66.5,128.667 52.5,128C 50.1695,126.512 49.8362,124.679 51.5,122.5 Z"/></g>
<g><path style="opacity:1" fill="#fbfdfe" d="M 17.5,113.5 C 18.1386,114.097 18.472,114.93 18.5,116C 17.6068,127.483 16.9401,138.983 16.5,150.5C 12.5,150.5 8.5,150.5 4.5,150.5C 4.37656,144.4 5.04323,138.4 6.5,132.5C 7.5,132.5 8.5,132.5 9.5,132.5C 9.04504,130.633 8.37838,128.8 7.5,127C 8.18536,122.736 9.18536,118.569 10.5,114.5C 13.0593,114.802 15.3926,114.468 17.5,113.5 Z"/></g>
<g><path style="opacity:1" fill="#a2c1ec" d="M 9.5,138.5 C 13.3274,139.436 14.1607,141.436 12,144.5C 11,143.167 10,143.167 9,144.5C 8.69055,143.234 8.19055,142.067 7.5,141C 8.75598,140.583 9.42265,139.75 9.5,138.5 Z"/></g>
<g><path style="opacity:1" fill="#0bc3cd" d="M 227.5,109.5 C 236.871,109.034 240.705,113.367 239,122.5C 236.647,127.426 232.814,129.26 227.5,128C 221.975,125.081 220.142,120.581 222,114.5C 223.73,112.598 225.563,110.931 227.5,109.5 Z"/></g>
<g><path style="opacity:1" fill="#d64f44" d="M 146.5,106.5 C 147.644,108.1 148.811,109.767 150,111.5C 151.307,109.808 152.807,108.475 154.5,107.5C 158.141,107.652 160.807,109.318 162.5,112.5C 154.167,112.5 145.833,112.5 137.5,112.5C 139.427,108.908 142.427,106.908 146.5,106.5 Z"/></g>
<g><path style="opacity:1" fill="#f3f8fc" d="M 16.5,98.5 C 16.5,103.5 16.5,108.5 16.5,113.5C 14.5,113.5 12.5,113.5 10.5,113.5C 12.2675,108.314 14.2675,103.314 16.5,98.5 Z"/></g>
<g><path style="opacity:1" fill="#d4dee5" d="M 68.5,93.5 C 70.1482,95.4293 71.8149,97.4293 73.5,99.5C 75.6517,97.8381 77.3183,95.8381 78.5,93.5C 81.8772,96.4724 85.7105,98.8057 90,100.5C 91.7068,102.909 92.5402,105.575 92.5,108.5C 95.1667,108.5 97.8333,108.5 100.5,108.5C 85.6647,109.477 70.6647,109.477 55.5,108.5C 55.3379,106.473 55.5045,104.473 56,102.5C 60.0726,99.2245 64.2393,96.2245 68.5,93.5 Z"/></g>
<g><path style="opacity:1" fill="#d4564d" d="M 72.5,100.5 C 74.3464,100.222 75.6798,100.889 76.5,102.5C 75.6518,104.409 75.3184,106.409 75.5,108.5C 74.5,108.5 73.5,108.5 72.5,108.5C 72.043,105.691 72.043,103.024 72.5,100.5 Z"/></g>
<g><path style="opacity:1" fill="#98bbea" d="M 17.5,95.5 C 17.5,101.5 17.5,107.5 17.5,113.5C 15.3926,114.468 13.0593,114.802 10.5,114.5C 10.5,114.167 10.5,113.833 10.5,113.5C 12.5,113.5 14.5,113.5 16.5,113.5C 16.5,108.5 16.5,103.5 16.5,98.5C 16.2627,97.209 16.596,96.209 17.5,95.5 Z"/></g>
<g><path style="opacity:1" fill="#e9995d" d="M 280.5,250.5 C 283.5,253.833 286.5,257.167 289.5,260.5C 288.287,263.225 286.454,265.559 284,267.5C 283.79,265.942 283.29,264.609 282.5,263.5C 280.833,261.5 279.167,259.5 277.5,257.5C 279.312,255.539 280.312,253.206 280.5,250.5 Z"/></g>
<g><path style="opacity:1" fill="#30639f" d="M 273.5,256.5 C 271.789,261.718 270.455,267.052 269.5,272.5C 266.593,281.759 265.593,281.759 266.5,272.5C 268.435,267.429 269.768,262.095 270.5,256.5C 271.652,255.375 272.652,255.375 273.5,256.5 Z"/></g>
<g><path style="opacity:1" fill="#20c0cb" d="M 273.5,256.5 C 274.705,258.138 276.038,258.471 277.5,257.5C 279.167,259.5 280.833,261.5 282.5,263.5C 282.5,265.833 282.5,268.167 282.5,270.5C 280.833,272.833 278.833,274.833 276.5,276.5C 276.511,274.983 277.177,273.816 278.5,273C 275.518,272.502 272.518,272.335 269.5,272.5C 270.455,267.052 271.789,261.718 273.5,256.5 Z"/></g>
<g><path style="opacity:1" fill="#eb985a" d="M 213.5,258.5 C 215.588,259.939 217.921,260.606 220.5,260.5C 220.5,263.167 220.5,265.833 220.5,268.5C 214.497,271.665 208.164,273.999 201.5,275.5C 202.167,274.833 202.833,274.167 203.5,273.5C 207.575,269.024 210.908,264.024 213.5,258.5 Z"/></g>
<g><path style="opacity:0.71" fill="#719c85" d="M 289.5,260.5 C 290.167,260.833 290.833,261.167 291.5,261.5C 288.833,264.833 285.833,267.833 282.5,270.5C 282.5,268.167 282.5,265.833 282.5,263.5C 283.29,264.609 283.79,265.942 284,267.5C 286.454,265.559 288.287,263.225 289.5,260.5 Z"/></g>
<g><path style="opacity:1" fill="#c9e0fd" d="M 161.5,274.5 C 161.579,275.93 161.246,277.264 160.5,278.5C 161.325,279.386 162.325,279.719 163.5,279.5C 163.629,277.784 163.962,276.117 164.5,274.5C 177.512,274.537 190.512,274.203 203.5,273.5C 202.833,274.167 202.167,274.833 201.5,275.5C 199.606,276.048 197.94,277.048 196.5,278.5C 199.784,279.657 203.118,279.824 206.5,279C 211.642,276.906 216.642,274.74 221.5,272.5C 232.167,272.5 242.833,272.5 253.5,272.5C 254.219,274.764 254.552,277.097 254.5,279.5C 255.5,279.5 256.5,279.5 257.5,279.5C 257.552,277.097 257.219,274.764 256.5,272.5C 259.833,272.5 263.167,272.5 266.5,272.5C 265.593,281.759 266.593,281.759 269.5,272.5C 272.518,272.335 275.518,272.502 278.5,273C 277.177,273.816 276.511,274.983 276.5,276.5C 271.762,280.578 266.762,284.244 261.5,287.5C 260.833,287.5 260.167,287.5 259.5,287.5C 202.835,288.01 146.168,288.344 89.5,288.5C 84.0247,287.511 78.358,287.178 72.5,287.5C 67.2539,284.589 62.5873,280.922 58.5,276.5C 56.0381,273.536 53.3714,270.703 50.5,268C 64.8576,267.259 79.1909,267.592 93.5,269C 116.016,272.64 138.682,274.473 161.5,274.5 Z"/></g>
<g><path style="opacity:1" fill="#d55147" d="M 220.5,268.5 C 220.833,269.833 221.167,271.167 221.5,272.5C 216.642,274.74 211.642,276.906 206.5,279C 203.118,279.824 199.784,279.657 196.5,278.5C 197.94,277.048 199.606,276.048 201.5,275.5C 208.164,273.999 214.497,271.665 220.5,268.5 Z"/></g>
<g><path style="opacity:1" fill="#83a0f2" d="M 72.5,287.5 C 78.358,287.178 84.0247,287.511 89.5,288.5C 85.1539,288.334 80.8206,288.501 76.5,289C 77.056,289.383 77.3893,289.883 77.5,290.5C 75.326,290.25 73.6594,289.25 72.5,287.5 Z"/></g>
<g><path style="opacity:1" fill="#4057f1" d="M 259.5,287.5 C 231.258,306.025 200.091,315.025 166,314.5C 153.422,314.319 140.922,313.319 128.5,311.5C 121.711,309.131 114.711,307.131 107.5,305.5C 101.747,302.29 95.7471,299.624 89.5,297.5C 86.9922,295.076 83.9922,293.41 80.5,292.5C 78.9731,292.573 77.9731,291.906 77.5,290.5C 77.3893,289.883 77.056,289.383 76.5,289C 80.8206,288.501 85.1539,288.334 89.5,288.5C 146.168,288.344 202.835,288.01 259.5,287.5 Z"/></g>
<g><path style="opacity:0.906" fill="#217acc" d="M 80.5,292.5 C 83.9922,293.41 86.9922,295.076 89.5,297.5C 86.0078,296.59 83.0078,294.924 80.5,292.5 Z"/></g>
<g><path style="opacity:0.906" fill="#2177c8" d="M 89.5,297.5 C 95.7471,299.624 101.747,302.29 107.5,305.5C 100.97,303.899 94.9705,301.233 89.5,297.5 Z"/></g>
<g><path style="opacity:0.953" fill="#2178c9" d="M 259.5,287.5 C 260.167,287.5 260.833,287.5 261.5,287.5C 258.921,290.135 255.921,292.301 252.5,294C 213.212,315.076 171.879,320.909 128.5,311.5C 140.922,313.319 153.422,314.319 166,314.5C 200.091,315.025 231.258,306.025 259.5,287.5 Z"/></g>
<g><path style="opacity:0.718" fill="#1b70b6" d="M 107.5,305.5 C 114.711,307.131 121.711,309.131 128.5,311.5C 121.058,310.682 114.058,308.682 107.5,305.5 Z"/></g>
</svg>
