<svg width="31" height="30" viewBox="0 0 31 30" fill="none" xmlns="http://www.w3.org/2000/svg">
<path d="M0.5 15C0.5 6.71573 7.21573 0 15.5 0C23.7843 0 30.5 6.71573 30.5 15V30H15.5C7.21573 30 0.5 23.2843 0.5 15Z" fill="#01C3CC"/>
<path d="M10.1 16.8H17.3V15H10.1V16.8ZM10.1 14.1H20.9V12.3H10.1V14.1ZM10.1 11.4H20.9V9.6H10.1V11.4ZM6.5 24V7.8C6.5 7.305 6.6764 6.8811 7.0292 6.5283C7.3814 6.1761 7.805 6 8.3 6H22.7C23.195 6 23.6189 6.1761 23.9717 6.5283C24.3239 6.8811 24.5 7.305 24.5 7.8V18.6C24.5 19.095 24.3239 19.5189 23.9717 19.8717C23.6189 20.2239 23.195 20.4 22.7 20.4H10.1L6.5 24Z" fill="white"/>
</svg>
