<svg width="303" height="124" viewBox="0 0 303 124" fill="none" xmlns="http://www.w3.org/2000/svg">
<rect x="126.5" y="16" width="50" height="50" rx="25" fill="#D8D9E1"/>
<path d="M166.5 52.6667V29.3333C166.5 27.5 165 26 163.167 26H139.833C138 26 136.5 27.5 136.5 29.3333V52.6667C136.5 54.5 138 56 139.833 56H163.167C165 56 166.5 54.5 166.5 52.6667ZM145.667 43.5L149.833 48.5167L155.667 41L163.167 51H139.833L145.667 43.5Z" fill="#1E1E1E"/>
<path d="M107.122 86L106.22 83.3818H102.46L101.551 86H99.9785L103.54 76.1357H105.188L108.749 86H107.122ZM104.285 77.9268L102.85 82.0967H105.83L104.401 77.9268H104.285ZM112.576 86.123C111.628 86.123 110.876 85.7767 110.32 85.084C109.764 84.3913 109.486 83.4548 109.486 82.2744C109.486 81.0986 109.764 80.1644 110.32 79.4717C110.881 78.779 111.633 78.4326 112.576 78.4326C113.087 78.4326 113.545 78.5488 113.95 78.7812C114.356 79.0091 114.659 79.3281 114.86 79.7383H114.969V75.6504H116.439V86H115.03V84.8242H114.914C114.691 85.2298 114.372 85.5488 113.957 85.7812C113.547 86.0091 113.087 86.123 112.576 86.123ZM112.993 79.752C112.374 79.752 111.886 79.9775 111.53 80.4287C111.18 80.8753 111.004 81.4906 111.004 82.2744C111.004 83.0628 111.18 83.6826 111.53 84.1338C111.886 84.5804 112.374 84.8037 112.993 84.8037C113.613 84.8037 114.101 84.5781 114.456 84.127C114.816 83.6758 114.996 83.0605 114.996 82.2812C114.996 81.5065 114.816 80.8913 114.456 80.4355C114.096 79.9798 113.609 79.752 112.993 79.752ZM121.332 86.123C120.384 86.123 119.632 85.7767 119.076 85.084C118.52 84.3913 118.243 83.4548 118.243 82.2744C118.243 81.0986 118.52 80.1644 119.076 79.4717C119.637 78.779 120.389 78.4326 121.332 78.4326C121.843 78.4326 122.301 78.5488 122.706 78.7812C123.112 79.0091 123.415 79.3281 123.616 79.7383H123.725V75.6504H125.195V86H123.786V84.8242H123.67C123.447 85.2298 123.128 85.5488 122.713 85.7812C122.303 86.0091 121.843 86.123 121.332 86.123ZM121.749 79.752C121.13 79.752 120.642 79.9775 120.286 80.4287C119.936 80.8753 119.76 81.4906 119.76 82.2744C119.76 83.0628 119.936 83.6826 120.286 84.1338C120.642 84.5804 121.13 84.8037 121.749 84.8037C122.369 84.8037 122.857 84.5781 123.212 84.127C123.572 83.6758 123.752 83.0605 123.752 82.2812C123.752 81.5065 123.572 80.8913 123.212 80.4355C122.852 79.9798 122.365 79.752 121.749 79.752ZM135.023 78.4326C135.971 78.4326 136.723 78.779 137.279 79.4717C137.835 80.1598 138.113 81.0941 138.113 82.2744C138.113 83.4548 137.835 84.3913 137.279 85.084C136.728 85.7767 135.98 86.123 135.037 86.123C134.508 86.123 134.043 86.0137 133.642 85.7949C133.241 85.5716 132.943 85.264 132.747 84.8721H132.631V88.4746H131.161V78.5557H132.576V79.7861H132.685C132.909 79.3623 133.228 79.0319 133.642 78.7949C134.057 78.5534 134.517 78.4326 135.023 78.4326ZM134.606 84.8037C135.23 84.8037 135.718 84.5804 136.069 84.1338C136.424 83.6826 136.602 83.0628 136.602 82.2744C136.602 81.486 136.424 80.8685 136.069 80.4219C135.718 79.9753 135.233 79.752 134.613 79.752C133.993 79.752 133.503 79.9798 133.143 80.4355C132.783 80.8867 132.603 81.502 132.603 82.2812C132.603 83.056 132.783 83.6712 133.143 84.127C133.503 84.5781 133.991 84.8037 134.606 84.8037ZM139.917 86V75.6504H141.373V79.752H141.489C141.671 79.3281 141.956 79 142.344 78.7676C142.735 78.5352 143.207 78.4189 143.759 78.4189C144.556 78.4189 145.183 78.6628 145.638 79.1504C146.094 79.6335 146.322 80.3148 146.322 81.1943V86H144.852V81.5566C144.852 80.9642 144.718 80.5176 144.449 80.2168C144.18 79.916 143.784 79.7656 143.26 79.7656C142.667 79.7656 142.207 79.9365 141.879 80.2783C141.551 80.6201 141.387 81.0781 141.387 81.6523V86H139.917ZM151.503 84.8379C152.136 84.8379 152.626 84.6146 152.973 84.168C153.324 83.7168 153.499 83.0856 153.499 82.2744C153.499 81.4678 153.324 80.8411 152.973 80.3945C152.626 79.9434 152.136 79.7178 151.503 79.7178C150.865 79.7178 150.373 79.9411 150.026 80.3877C149.68 80.8343 149.507 81.4632 149.507 82.2744C149.507 83.0902 149.68 83.7214 150.026 84.168C150.373 84.6146 150.865 84.8379 151.503 84.8379ZM151.503 86.1436C150.409 86.1436 149.55 85.7995 148.926 85.1113C148.301 84.4232 147.989 83.4775 147.989 82.2744C147.989 81.0758 148.301 80.1325 148.926 79.4443C149.555 78.7562 150.414 78.4121 151.503 78.4121C152.588 78.4121 153.442 78.7562 154.066 79.4443C154.695 80.1325 155.01 81.0758 155.01 82.2744C155.01 83.4775 154.698 84.4232 154.073 85.1113C153.449 85.7995 152.592 86.1436 151.503 86.1436ZM157.265 76.7031H158.734V78.5898H160.348V79.8271H158.734V83.6553C158.734 84.0426 158.819 84.3275 158.987 84.5098C159.156 84.6875 159.423 84.7764 159.787 84.7764C159.933 84.7764 160.12 84.765 160.348 84.7422V85.9658C160.056 86.016 159.79 86.041 159.548 86.041C158.732 86.041 158.147 85.8861 157.791 85.5762C157.44 85.2663 157.265 84.7513 157.265 84.0312V79.8271H156.082V78.5898H157.265V76.7031ZM165.105 84.8379C165.738 84.8379 166.228 84.6146 166.574 84.168C166.925 83.7168 167.101 83.0856 167.101 82.2744C167.101 81.4678 166.925 80.8411 166.574 80.3945C166.228 79.9434 165.738 79.7178 165.105 79.7178C164.467 79.7178 163.975 79.9411 163.628 80.3877C163.282 80.8343 163.109 81.4632 163.109 82.2744C163.109 83.0902 163.282 83.7214 163.628 84.168C163.975 84.6146 164.467 84.8379 165.105 84.8379ZM165.105 86.1436C164.011 86.1436 163.152 85.7995 162.528 85.1113C161.903 84.4232 161.591 83.4775 161.591 82.2744C161.591 81.0758 161.903 80.1325 162.528 79.4443C163.157 78.7562 164.016 78.4121 165.105 78.4121C166.189 78.4121 167.044 78.7562 167.668 79.4443C168.297 80.1325 168.612 81.0758 168.612 82.2744C168.612 83.4775 168.299 84.4232 167.675 85.1113C167.051 85.7995 166.194 86.1436 165.105 86.1436ZM174.209 86V75.6504H175.665V79.752H175.781C175.963 79.3281 176.248 79 176.635 78.7676C177.027 78.5352 177.499 78.4189 178.05 78.4189C178.848 78.4189 179.475 78.6628 179.93 79.1504C180.386 79.6335 180.614 80.3148 180.614 81.1943V86H179.144V81.5566C179.144 80.9642 179.01 80.5176 178.741 80.2168C178.472 79.916 178.075 79.7656 177.551 79.7656C176.959 79.7656 176.499 79.9365 176.171 80.2783C175.842 80.6201 175.678 81.0781 175.678 81.6523V86H174.209ZM187.011 80.1895C186.683 79.8385 186.248 79.6631 185.706 79.6631C185.164 79.6631 184.717 79.8385 184.366 80.1895C184.015 80.5404 183.819 81.0075 183.778 81.5908H187.538C187.52 81.0029 187.344 80.5358 187.011 80.1895ZM187.531 83.9902H188.946C188.777 84.6602 188.408 85.1865 187.839 85.5693C187.274 85.9521 186.567 86.1436 185.719 86.1436C184.653 86.1436 183.812 85.8018 183.197 85.1182C182.586 84.43 182.281 83.4912 182.281 82.3018C182.281 81.1123 182.591 80.1667 183.211 79.4648C183.83 78.763 184.664 78.4121 185.713 78.4121C186.747 78.4121 187.558 78.7448 188.146 79.4102C188.739 80.0755 189.035 80.9938 189.035 82.165V82.6777H183.778V82.7598C183.801 83.416 183.99 83.9355 184.345 84.3184C184.701 84.7012 185.173 84.8926 185.761 84.8926C186.658 84.8926 187.248 84.5918 187.531 83.9902ZM190.764 86V78.5557H192.179V79.6973H192.288C192.393 79.3281 192.632 79.0251 193.006 78.7881C193.384 78.5511 193.815 78.4326 194.298 78.4326C194.576 78.4326 194.795 78.4531 194.954 78.4941V79.9434C194.776 79.8841 194.503 79.8545 194.134 79.8545C193.573 79.8545 193.115 80.0163 192.76 80.3398C192.409 80.6634 192.233 81.085 192.233 81.6045V86H190.764ZM200.504 80.1895C200.176 79.8385 199.741 79.6631 199.198 79.6631C198.656 79.6631 198.209 79.8385 197.858 80.1895C197.508 80.5404 197.312 81.0075 197.271 81.5908H201.03C201.012 81.0029 200.837 80.5358 200.504 80.1895ZM201.024 83.9902H202.439C202.27 84.6602 201.901 85.1865 201.331 85.5693C200.766 85.9521 200.06 86.1436 199.212 86.1436C198.146 86.1436 197.305 85.8018 196.69 85.1182C196.079 84.43 195.774 83.4912 195.774 82.3018C195.774 81.1123 196.083 80.1667 196.703 79.4648C197.323 78.763 198.157 78.4121 199.205 78.4121C200.24 78.4121 201.051 78.7448 201.639 79.4102C202.231 80.0755 202.527 80.9938 202.527 82.165V82.6777H197.271V82.7598C197.293 83.416 197.482 83.9355 197.838 84.3184C198.193 84.7012 198.665 84.8926 199.253 84.8926C200.151 84.8926 200.741 84.5918 201.024 83.9902Z" fill="#1E1E1E"/>
<path d="M40.6738 101.73C40.6738 102.773 40.3457 103.613 39.6895 104.25C39.0332 104.883 38.1641 105.199 37.082 105.199C35.9141 105.199 34.9824 104.799 34.2871 103.998C33.5957 103.197 33.25 102.121 33.25 100.77C33.25 99.4336 33.5996 98.3633 34.2988 97.5586C34.998 96.75 35.9258 96.3457 37.082 96.3457C38.0195 96.3457 38.8047 96.5898 39.4375 97.0781C40.0742 97.5664 40.4688 98.2285 40.6211 99.0645H39.5488C39.3652 98.4941 39.0645 98.0605 38.6465 97.7637C38.2285 97.4668 37.707 97.3184 37.082 97.3184C36.2461 97.3184 35.5781 97.6309 35.0781 98.2559C34.582 98.8809 34.334 99.7188 34.334 100.77C34.334 101.836 34.5801 102.68 35.0723 103.301C35.5684 103.918 36.2402 104.227 37.0879 104.227C37.8457 104.227 38.457 104.006 38.9219 103.564C39.3906 103.123 39.625 102.545 39.625 101.83V101.625H37.2461V100.699H40.6738V101.73ZM42.3841 105V98.6836H43.345V99.6211H43.4388C43.5325 99.3125 43.7434 99.0605 44.0716 98.8652C44.3997 98.6699 44.7727 98.5723 45.1907 98.5723C45.3821 98.5723 45.5501 98.582 45.6946 98.6016V99.6094C45.5579 99.5703 45.343 99.5508 45.0501 99.5508C44.5696 99.5508 44.1731 99.6953 43.8606 99.9844C43.5481 100.273 43.3919 100.641 43.3919 101.086V105H42.3841ZM48.8697 104.227C49.3892 104.227 49.8189 104.076 50.1587 103.775C50.5025 103.475 50.6744 103.098 50.6744 102.645V102.064L48.9752 102.176C48.4986 102.207 48.149 102.307 47.9263 102.475C47.7037 102.643 47.5923 102.887 47.5923 103.207C47.5923 103.523 47.7115 103.773 47.9498 103.957C48.188 104.137 48.4947 104.227 48.8697 104.227ZM48.6822 105.111C48.0611 105.111 47.5494 104.941 47.147 104.602C46.7486 104.258 46.5494 103.801 46.5494 103.23C46.5494 102.668 46.7486 102.227 47.147 101.906C47.5455 101.586 48.1138 101.404 48.8521 101.361L50.6744 101.25V100.676C50.6744 100.285 50.5533 99.9863 50.3111 99.7793C50.0689 99.5723 49.7134 99.4688 49.2447 99.4688C48.8658 99.4688 48.5513 99.5371 48.3013 99.6738C48.0513 99.8105 47.8912 100.004 47.8209 100.254H46.8013C46.8677 99.75 47.1275 99.3438 47.5806 99.0352C48.0377 98.7266 48.6041 98.5723 49.2798 98.5723C50.0455 98.5723 50.6373 98.7578 51.0552 99.1289C51.4732 99.5 51.6822 100.016 51.6822 100.676V105H50.7212V104.068H50.6275C50.4244 104.404 50.1548 104.662 49.8189 104.842C49.483 105.021 49.1041 105.111 48.6822 105.111ZM56.6561 105.111C56.2186 105.111 55.8202 105.014 55.4608 104.818C55.1053 104.619 54.828 104.344 54.6287 103.992H54.535V105H53.5741V96.1758H54.5819V99.6797H54.6756C54.8475 99.3398 55.1112 99.0703 55.4666 98.8711C55.826 98.6719 56.2225 98.5723 56.6561 98.5723C57.4608 98.5723 58.1034 98.8691 58.5838 99.4629C59.0643 100.057 59.3045 100.85 59.3045 101.842C59.3045 102.83 59.0623 103.623 58.578 104.221C58.0975 104.814 57.4569 105.111 56.6561 105.111ZM56.4217 99.4805C55.8475 99.4805 55.3924 99.6914 55.0565 100.113C54.7245 100.535 54.5584 101.111 54.5584 101.842C54.5584 102.572 54.7245 103.148 55.0565 103.57C55.3924 103.992 55.8475 104.203 56.4217 104.203C56.9998 104.203 57.451 103.994 57.7752 103.576C58.0995 103.158 58.2616 102.58 58.2616 101.842C58.2616 101.104 58.0995 100.525 57.7752 100.107C57.451 99.6895 56.9998 99.4805 56.4217 99.4805ZM66.1586 104.227C66.6781 104.227 67.1078 104.076 67.4477 103.775C67.7914 103.475 67.9633 103.098 67.9633 102.645V102.064L66.2641 102.176C65.7875 102.207 65.4379 102.307 65.2152 102.475C64.9926 102.643 64.8813 102.887 64.8813 103.207C64.8813 103.523 65.0004 103.773 65.2387 103.957C65.477 104.137 65.7836 104.227 66.1586 104.227ZM65.9711 105.111C65.35 105.111 64.8383 104.941 64.4359 104.602C64.0375 104.258 63.8383 103.801 63.8383 103.23C63.8383 102.668 64.0375 102.227 64.4359 101.906C64.8344 101.586 65.4027 101.404 66.141 101.361L67.9633 101.25V100.676C67.9633 100.285 67.8422 99.9863 67.6 99.7793C67.3578 99.5723 67.0023 99.4688 66.5336 99.4688C66.1547 99.4688 65.8402 99.5371 65.5902 99.6738C65.3402 99.8105 65.1801 100.004 65.1098 100.254H64.0902C64.1566 99.75 64.4164 99.3438 64.8695 99.0352C65.3266 98.7266 65.893 98.5723 66.5688 98.5723C67.3344 98.5723 67.9262 98.7578 68.3441 99.1289C68.7621 99.5 68.9711 100.016 68.9711 100.676V105H68.0102V104.068H67.9164C67.7133 104.404 67.4438 104.662 67.1078 104.842C66.7719 105.021 66.393 105.111 65.9711 105.111ZM70.8044 105V98.6836H71.7653V99.6797H71.8591C72.195 98.9414 72.8278 98.5723 73.7575 98.5723C74.4645 98.5723 75.0095 98.7754 75.3923 99.1816C75.7751 99.584 75.9665 100.16 75.9665 100.91V105H74.9587V101.156C74.9587 100.59 74.8356 100.17 74.5895 99.8965C74.3473 99.6191 73.9743 99.4805 73.4704 99.4805C72.9626 99.4805 72.5583 99.6406 72.2575 99.9609C71.9606 100.277 71.8122 100.711 71.8122 101.262V105H70.8044ZM80.1201 105.111C79.3115 105.111 78.667 104.814 78.1865 104.221C77.706 103.627 77.4658 102.834 77.4658 101.842C77.4658 100.854 77.706 100.062 78.1865 99.4688C78.6709 98.8711 79.3154 98.5723 80.1201 98.5723C80.5615 98.5723 80.956 98.6719 81.3037 98.8711C81.6552 99.0664 81.9209 99.3359 82.1005 99.6797H82.1884V96.1758H83.1963V105H82.2353V103.992H82.1416C81.9423 104.344 81.665 104.619 81.3095 104.818C80.9541 105.014 80.5576 105.111 80.1201 105.111ZM80.3545 99.4805C79.7802 99.4805 79.3291 99.6914 79.0009 100.113C78.6728 100.531 78.5088 101.107 78.5088 101.842C78.5088 102.58 78.6709 103.158 78.9951 103.576C79.3232 103.994 79.7763 104.203 80.3545 104.203C80.9287 104.203 81.3818 103.992 81.7138 103.57C82.0459 103.148 82.2119 102.572 82.2119 101.842C82.2119 101.119 82.0439 100.545 81.708 100.119C81.3759 99.6934 80.9248 99.4805 80.3545 99.4805ZM90.8179 105.111C90.0093 105.111 89.3648 104.814 88.8843 104.221C88.4038 103.627 88.1636 102.834 88.1636 101.842C88.1636 100.854 88.4038 100.062 88.8843 99.4688C89.3687 98.8711 90.0132 98.5723 90.8179 98.5723C91.2593 98.5723 91.6538 98.6719 92.0015 98.8711C92.353 99.0664 92.6187 99.3359 92.7984 99.6797H92.8862V96.1758H93.8941V105H92.9331V103.992H92.8394C92.6402 104.344 92.3628 104.619 92.0073 104.818C91.6519 105.014 91.2554 105.111 90.8179 105.111ZM91.0523 99.4805C90.478 99.4805 90.0269 99.6914 89.6987 100.113C89.3706 100.531 89.2066 101.107 89.2066 101.842C89.2066 102.58 89.3687 103.158 89.6929 103.576C90.021 103.994 90.4741 104.203 91.0523 104.203C91.6265 104.203 92.0796 103.992 92.4116 103.57C92.7437 103.148 92.9097 102.572 92.9097 101.842C92.9097 101.119 92.7417 100.545 92.4058 100.119C92.0737 99.6934 91.6226 99.4805 91.0523 99.4805ZM95.8211 105V98.6836H96.782V99.6211H96.8758C96.9695 99.3125 97.1805 99.0605 97.5086 98.8652C97.8367 98.6699 98.2098 98.5723 98.6277 98.5723C98.8191 98.5723 98.9871 98.582 99.1316 98.6016V99.6094C98.9949 99.5703 98.7801 99.5508 98.4871 99.5508C98.0066 99.5508 97.6102 99.6953 97.2977 99.9844C96.9852 100.273 96.8289 100.641 96.8289 101.086V105H95.8211ZM102.307 104.227C102.826 104.227 103.256 104.076 103.596 103.775C103.94 103.475 104.111 103.098 104.111 102.645V102.064L102.412 102.176C101.936 102.207 101.586 102.307 101.363 102.475C101.141 102.643 101.029 102.887 101.029 103.207C101.029 103.523 101.149 103.773 101.387 103.957C101.625 104.137 101.932 104.227 102.307 104.227ZM102.119 105.111C101.498 105.111 100.986 104.941 100.584 104.602C100.186 104.258 99.9864 103.801 99.9864 103.23C99.9864 102.668 100.186 102.227 100.584 101.906C100.982 101.586 101.551 101.404 102.289 101.361L104.111 101.25V100.676C104.111 100.285 103.99 99.9863 103.748 99.7793C103.506 99.5723 103.15 99.4688 102.682 99.4688C102.303 99.4688 101.988 99.5371 101.738 99.6738C101.488 99.8105 101.328 100.004 101.258 100.254H100.238C100.305 99.75 100.565 99.3438 101.018 99.0352C101.475 98.7266 102.041 98.5723 102.717 98.5723C103.482 98.5723 104.074 98.7578 104.492 99.1289C104.91 99.5 105.119 100.016 105.119 100.676V105H104.158V104.068H104.065C103.861 104.404 103.592 104.662 103.256 104.842C102.92 105.021 102.541 105.111 102.119 105.111ZM110.878 103.4C111.214 102.99 111.382 102.439 111.382 101.748C111.382 101.057 111.214 100.506 110.878 100.096C110.542 99.6855 110.085 99.4805 109.507 99.4805C108.929 99.4805 108.48 99.6836 108.16 100.09C107.839 100.496 107.679 101.049 107.679 101.748C107.679 102.447 107.839 103 108.16 103.406C108.48 103.812 108.929 104.016 109.507 104.016C110.089 104.016 110.546 103.811 110.878 103.4ZM109.554 107.426C108.8 107.426 108.189 107.27 107.72 106.957C107.255 106.645 106.984 106.225 106.906 105.697H107.972C108.027 105.959 108.193 106.166 108.47 106.318C108.747 106.471 109.109 106.547 109.554 106.547C110.12 106.547 110.562 106.414 110.878 106.148C111.199 105.887 111.359 105.523 111.359 105.059V103.816H111.265C111.066 104.164 110.794 104.434 110.451 104.625C110.107 104.812 109.718 104.906 109.285 104.906C108.472 104.906 107.827 104.619 107.351 104.045C106.874 103.467 106.636 102.701 106.636 101.748C106.636 100.795 106.876 100.027 107.357 99.4453C107.837 98.8633 108.48 98.5723 109.285 98.5723C109.726 98.5723 110.128 98.6738 110.492 98.877C110.855 99.0762 111.128 99.3457 111.312 99.6855H111.406V98.6836H112.367V105.111C112.367 105.818 112.113 106.381 111.605 106.799C111.097 107.217 110.413 107.426 109.554 107.426ZM120.668 98.5723C121.473 98.5723 122.115 98.8691 122.596 99.4629C123.08 100.057 123.322 100.85 123.322 101.842C123.322 102.83 123.08 103.623 122.596 104.221C122.111 104.814 121.469 105.111 120.668 105.111C120.219 105.111 119.82 105.02 119.473 104.836C119.125 104.648 118.865 104.387 118.693 104.051H118.6V107.109H117.592V98.6836H118.553V99.7383H118.646C118.85 99.375 119.129 99.0898 119.484 98.8828C119.844 98.6758 120.238 98.5723 120.668 98.5723ZM120.428 104.203C121.006 104.203 121.459 103.994 121.787 103.576C122.115 103.158 122.279 102.58 122.279 101.842C122.279 101.104 122.115 100.525 121.787 100.107C121.463 99.6895 121.012 99.4805 120.434 99.4805C119.863 99.4805 119.41 99.6934 119.074 100.119C118.738 100.541 118.57 101.115 118.57 101.842C118.57 102.564 118.736 103.139 119.068 103.564C119.404 103.99 119.857 104.203 120.428 104.203ZM124.933 105V96.1758H125.941V99.6797H126.034C126.195 99.3242 126.439 99.0508 126.767 98.8594C127.099 98.668 127.503 98.5723 127.98 98.5723C128.652 98.5723 129.183 98.7793 129.573 99.1934C129.964 99.6035 130.159 100.176 130.159 100.91V105H129.152V101.156C129.152 100.039 128.665 99.4805 127.693 99.4805C127.138 99.4805 126.706 99.6426 126.398 99.9668C126.093 100.287 125.941 100.719 125.941 101.262V105H124.933ZM133.182 103.588C133.506 103.998 133.967 104.203 134.565 104.203C135.163 104.203 135.624 103.998 135.948 103.588C136.272 103.174 136.434 102.592 136.434 101.842C136.434 101.092 136.272 100.512 135.948 100.102C135.624 99.6875 135.163 99.4805 134.565 99.4805C133.967 99.4805 133.506 99.6875 133.182 100.102C132.858 100.512 132.696 101.092 132.696 101.842C132.696 102.592 132.858 103.174 133.182 103.588ZM136.692 104.238C136.172 104.82 135.463 105.111 134.565 105.111C133.666 105.111 132.956 104.82 132.432 104.238C131.913 103.652 131.653 102.854 131.653 101.842C131.653 100.826 131.913 100.027 132.432 99.4453C132.952 98.8633 133.663 98.5723 134.565 98.5723C135.467 98.5723 136.178 98.8633 136.698 99.4453C137.217 100.027 137.477 100.826 137.477 101.842C137.477 102.854 137.215 103.652 136.692 104.238ZM139.451 97.0488H140.459V98.6836H141.865V99.5273H140.459V103.102C140.459 103.473 140.533 103.742 140.681 103.91C140.83 104.078 141.068 104.162 141.396 104.162C141.541 104.162 141.697 104.154 141.865 104.139V104.988C141.642 105.027 141.445 105.047 141.273 105.047C140.621 105.047 140.154 104.916 139.873 104.654C139.592 104.393 139.451 103.961 139.451 103.359V99.5273H138.431V98.6836H139.451V97.0488ZM144.478 103.588C144.802 103.998 145.263 104.203 145.86 104.203C146.458 104.203 146.919 103.998 147.243 103.588C147.567 103.174 147.73 102.592 147.73 101.842C147.73 101.092 147.567 100.512 147.243 100.102C146.919 99.6875 146.458 99.4805 145.86 99.4805C145.263 99.4805 144.802 99.6875 144.478 100.102C144.153 100.512 143.991 101.092 143.991 101.842C143.991 102.592 144.153 103.174 144.478 103.588ZM147.987 104.238C147.468 104.82 146.759 105.111 145.86 105.111C144.962 105.111 144.251 104.82 143.728 104.238C143.208 103.652 142.948 102.854 142.948 101.842C142.948 100.826 143.208 100.027 143.728 99.4453C144.247 98.8633 144.958 98.5723 145.86 98.5723C146.763 98.5723 147.474 98.8633 147.993 99.4453C148.513 100.027 148.772 100.826 148.772 101.842C148.772 102.854 148.511 103.652 147.987 104.238ZM150.178 100.412C150.178 99.8887 150.403 99.4512 150.852 99.0996C151.301 98.748 151.862 98.5723 152.534 98.5723C153.194 98.5723 153.739 98.7246 154.168 99.0293C154.598 99.334 154.846 99.7461 154.912 100.266H153.916C153.846 100.008 153.69 99.8047 153.448 99.6562C153.209 99.5039 152.903 99.4277 152.528 99.4277C152.149 99.4277 151.83 99.5156 151.573 99.6914C151.319 99.8672 151.192 100.094 151.192 100.371C151.192 100.586 151.28 100.766 151.455 100.91C151.635 101.051 151.912 101.166 152.287 101.256L153.26 101.49C153.862 101.635 154.305 101.844 154.59 102.117C154.879 102.391 155.024 102.752 155.024 103.201C155.024 103.76 154.784 104.219 154.303 104.578C153.823 104.934 153.219 105.111 152.493 105.111C151.789 105.111 151.213 104.955 150.764 104.643C150.315 104.33 150.063 103.912 150.008 103.389H151.045C151.131 103.662 151.301 103.877 151.555 104.033C151.809 104.186 152.133 104.262 152.528 104.262C152.953 104.262 153.303 104.17 153.576 103.986C153.85 103.803 153.987 103.566 153.987 103.277C153.987 102.848 153.653 102.551 152.985 102.387L151.901 102.123C151.303 101.979 150.866 101.771 150.588 101.502C150.315 101.229 150.178 100.865 150.178 100.412ZM160.354 97.0488H161.362V98.6836H162.768V99.5273H161.362V103.102C161.362 103.473 161.436 103.742 161.585 103.91C161.733 104.078 161.972 104.162 162.3 104.162C162.444 104.162 162.6 104.154 162.768 104.139V104.988C162.546 105.027 162.349 105.047 162.177 105.047C161.524 105.047 161.058 104.916 160.776 104.654C160.495 104.393 160.354 103.961 160.354 103.359V99.5273H159.335V98.6836H160.354V97.0488ZM165.381 103.588C165.705 103.998 166.166 104.203 166.764 104.203C167.361 104.203 167.822 103.998 168.147 103.588C168.471 103.174 168.633 102.592 168.633 101.842C168.633 101.092 168.471 100.512 168.147 100.102C167.822 99.6875 167.361 99.4805 166.764 99.4805C166.166 99.4805 165.705 99.6875 165.381 100.102C165.057 100.512 164.895 101.092 164.895 101.842C164.895 102.592 165.057 103.174 165.381 103.588ZM168.891 104.238C168.371 104.82 167.662 105.111 166.764 105.111C165.865 105.111 165.154 104.82 164.631 104.238C164.111 103.652 163.852 102.854 163.852 101.842C163.852 100.826 164.111 100.027 164.631 99.4453C165.151 98.8633 165.861 98.5723 166.764 98.5723C167.666 98.5723 168.377 98.8633 168.897 99.4453C169.416 100.027 169.676 100.826 169.676 101.842C169.676 102.854 169.414 103.652 168.891 104.238ZM179.811 100.617H178.792C178.706 100.285 178.52 100.014 178.235 99.8027C177.954 99.5879 177.596 99.4805 177.163 99.4805C176.596 99.4805 176.145 99.6914 175.809 100.113C175.477 100.535 175.311 101.104 175.311 101.818C175.311 102.545 175.479 103.125 175.815 103.559C176.151 103.988 176.6 104.203 177.163 104.203C177.589 104.203 177.942 104.107 178.223 103.916C178.509 103.725 178.698 103.451 178.792 103.096H179.811C179.717 103.693 179.438 104.18 178.973 104.555C178.509 104.926 177.907 105.111 177.169 105.111C176.282 105.111 175.577 104.814 175.053 104.221C174.53 103.623 174.268 102.822 174.268 101.818C174.268 100.834 174.53 100.047 175.053 99.457C175.577 98.8672 176.28 98.5723 177.163 98.5723C177.901 98.5723 178.503 98.7656 178.967 99.1523C179.436 99.5391 179.717 100.027 179.811 100.617ZM181.328 105V96.1758H182.336V99.6797H182.43C182.59 99.3242 182.834 99.0508 183.162 98.8594C183.494 98.668 183.898 98.5723 184.375 98.5723C185.047 98.5723 185.578 98.7793 185.969 99.1934C186.359 99.6035 186.555 100.176 186.555 100.91V105H185.547V101.156C185.547 100.039 185.061 99.4805 184.088 99.4805C183.533 99.4805 183.102 99.6426 182.793 99.9668C182.488 100.287 182.336 100.719 182.336 101.262V105H181.328ZM190.31 104.227C190.829 104.227 191.259 104.076 191.599 103.775C191.943 103.475 192.115 103.098 192.115 102.645V102.064L190.415 102.176C189.939 102.207 189.589 102.307 189.366 102.475C189.144 102.643 189.033 102.887 189.033 103.207C189.033 103.523 189.152 103.773 189.39 103.957C189.628 104.137 189.935 104.227 190.31 104.227ZM190.122 105.111C189.501 105.111 188.99 104.941 188.587 104.602C188.189 104.258 187.99 103.801 187.99 103.23C187.99 102.668 188.189 102.227 188.587 101.906C188.986 101.586 189.554 101.404 190.292 101.361L192.115 101.25V100.676C192.115 100.285 191.993 99.9863 191.751 99.7793C191.509 99.5723 191.154 99.4688 190.685 99.4688C190.306 99.4688 189.991 99.5371 189.741 99.6738C189.491 99.8105 189.331 100.004 189.261 100.254H188.241C188.308 99.75 188.568 99.3438 189.021 99.0352C189.478 98.7266 190.044 98.5723 190.72 98.5723C191.486 98.5723 192.077 98.7578 192.495 99.1289C192.913 99.5 193.122 100.016 193.122 100.676V105H192.161V104.068H192.068C191.865 104.404 191.595 104.662 191.259 104.842C190.923 105.021 190.544 105.111 190.122 105.111ZM194.956 105V98.6836H195.917V99.6797H196.01C196.346 98.9414 196.979 98.5723 197.909 98.5723C198.616 98.5723 199.161 98.7754 199.544 99.1816C199.926 99.584 200.118 100.16 200.118 100.91V105H199.11V101.156C199.11 100.59 198.987 100.17 198.741 99.8965C198.499 99.6191 198.126 99.4805 197.622 99.4805C197.114 99.4805 196.71 99.6406 196.409 99.9609C196.112 100.277 195.963 100.711 195.963 101.262V105H194.956ZM205.859 103.4C206.195 102.99 206.363 102.439 206.363 101.748C206.363 101.057 206.195 100.506 205.859 100.096C205.523 99.6855 205.066 99.4805 204.488 99.4805C203.91 99.4805 203.461 99.6836 203.14 100.09C202.82 100.496 202.66 101.049 202.66 101.748C202.66 102.447 202.82 103 203.14 103.406C203.461 103.812 203.91 104.016 204.488 104.016C205.07 104.016 205.527 103.811 205.859 103.4ZM204.535 107.426C203.781 107.426 203.17 107.27 202.701 106.957C202.236 106.645 201.965 106.225 201.887 105.697H202.953C203.008 105.959 203.174 106.166 203.451 106.318C203.728 106.471 204.09 106.547 204.535 106.547C205.101 106.547 205.543 106.414 205.859 106.148C206.18 105.887 206.34 105.523 206.34 105.059V103.816H206.246C206.047 104.164 205.775 104.434 205.431 104.625C205.088 104.812 204.699 104.906 204.265 104.906C203.453 104.906 202.808 104.619 202.332 104.045C201.855 103.467 201.617 102.701 201.617 101.748C201.617 100.795 201.857 100.027 202.338 99.4453C202.818 98.8633 203.461 98.5723 204.265 98.5723C204.707 98.5723 205.109 98.6738 205.473 98.877C205.836 99.0762 206.109 99.3457 206.293 99.6855H206.387V98.6836H207.348V105.111C207.348 105.818 207.094 106.381 206.586 106.799C206.078 107.217 205.394 107.426 204.535 107.426ZM211.735 99.4629C211.232 99.4629 210.818 99.6328 210.493 99.9727C210.169 100.312 209.987 100.762 209.948 101.32H213.429C213.417 100.762 213.257 100.312 212.948 99.9727C212.64 99.6328 212.235 99.4629 211.735 99.4629ZM213.4 103.365H214.407C214.255 103.912 213.944 104.34 213.476 104.648C213.011 104.957 212.435 105.111 211.747 105.111C210.872 105.111 210.179 104.818 209.667 104.232C209.155 103.643 208.9 102.848 208.9 101.848C208.9 100.852 209.157 100.057 209.673 99.4629C210.189 98.8691 210.88 98.5723 211.747 98.5723C212.599 98.5723 213.269 98.8555 213.757 99.4219C214.245 99.9883 214.489 100.764 214.489 101.748V102.135H209.948V102.182C209.976 102.807 210.151 103.303 210.476 103.67C210.804 104.037 211.235 104.221 211.771 104.221C212.587 104.221 213.13 103.936 213.4 103.365ZM219.82 97.0488H220.828V98.6836H222.234V99.5273H220.828V103.102C220.828 103.473 220.902 103.742 221.05 103.91C221.199 104.078 221.437 104.162 221.765 104.162C221.91 104.162 222.066 104.154 222.234 104.139V104.988C222.011 105.027 221.814 105.047 221.642 105.047C220.99 105.047 220.523 104.916 220.242 104.654C219.961 104.393 219.82 103.961 219.82 103.359V99.5273H218.8V98.6836H219.82V97.0488ZM223.786 105V96.1758H224.794V99.6797H224.888C225.048 99.3242 225.292 99.0508 225.62 98.8594C225.952 98.668 226.356 98.5723 226.833 98.5723C227.505 98.5723 228.036 98.7793 228.427 99.1934C228.817 99.6035 229.013 100.176 229.013 100.91V105H228.005V101.156C228.005 100.039 227.519 99.4805 226.546 99.4805C225.991 99.4805 225.56 99.6426 225.251 99.9668C224.946 100.287 224.794 100.719 224.794 101.262V105H223.786ZM233.342 99.4629C232.838 99.4629 232.424 99.6328 232.1 99.9727C231.776 100.312 231.594 100.762 231.555 101.32H235.035C235.024 100.762 234.864 100.312 234.555 99.9727C234.246 99.6328 233.842 99.4629 233.342 99.4629ZM235.006 103.365H236.014C235.862 103.912 235.551 104.34 235.082 104.648C234.617 104.957 234.041 105.111 233.354 105.111C232.479 105.111 231.785 104.818 231.274 104.232C230.762 103.643 230.506 102.848 230.506 101.848C230.506 100.852 230.764 100.057 231.28 99.4629C231.795 98.8691 232.487 98.5723 233.354 98.5723C234.205 98.5723 234.875 98.8555 235.364 99.4219C235.852 99.9883 236.096 100.764 236.096 101.748V102.135H231.555V102.182C231.582 102.807 231.758 103.303 232.082 103.67C232.41 104.037 232.842 104.221 233.377 104.221C234.194 104.221 234.737 103.936 235.006 103.365ZM242.218 103.588C242.542 103.998 243.003 104.203 243.6 104.203C244.198 104.203 244.659 103.998 244.983 103.588C245.307 103.174 245.47 102.592 245.47 101.842C245.47 101.092 245.307 100.512 244.983 100.102C244.659 99.6875 244.198 99.4805 243.6 99.4805C243.003 99.4805 242.542 99.6875 242.218 100.102C241.893 100.512 241.731 101.092 241.731 101.842C241.731 102.592 241.893 103.174 242.218 103.588ZM245.727 104.238C245.208 104.82 244.499 105.111 243.6 105.111C242.702 105.111 241.991 104.82 241.468 104.238C240.948 103.652 240.688 102.854 240.688 101.842C240.688 100.826 240.948 100.027 241.468 99.4453C241.987 98.8633 242.698 98.5723 243.6 98.5723C244.503 98.5723 245.214 98.8633 245.733 99.4453C246.253 100.027 246.512 100.826 246.512 101.842C246.512 102.854 246.251 103.652 245.727 104.238ZM248.065 105V98.6836H249.025V99.6211H249.119C249.213 99.3125 249.424 99.0605 249.752 98.8652C250.08 98.6699 250.453 98.5723 250.871 98.5723C251.063 98.5723 251.231 98.582 251.375 98.6016V99.6094C251.238 99.5703 251.024 99.5508 250.731 99.5508C250.25 99.5508 249.854 99.6953 249.541 99.9844C249.229 100.273 249.072 100.641 249.072 101.086V105H248.065ZM254.767 105.111C253.958 105.111 253.314 104.814 252.833 104.221C252.353 103.627 252.113 102.834 252.113 101.842C252.113 100.854 252.353 100.062 252.833 99.4688C253.318 98.8711 253.962 98.5723 254.767 98.5723C255.208 98.5723 255.603 98.6719 255.951 98.8711C256.302 99.0664 256.568 99.3359 256.747 99.6797H256.835V96.1758H257.843V105H256.882V103.992H256.788C256.589 104.344 256.312 104.619 255.956 104.818C255.601 105.014 255.204 105.111 254.767 105.111ZM255.001 99.4805C254.427 99.4805 253.976 99.6914 253.648 100.113C253.32 100.531 253.156 101.107 253.156 101.842C253.156 102.58 253.318 103.158 253.642 103.576C253.97 103.994 254.423 104.203 255.001 104.203C255.576 104.203 256.029 103.992 256.361 103.57C256.693 103.148 256.859 102.572 256.859 101.842C256.859 101.119 256.691 100.545 256.355 100.119C256.023 99.6934 255.572 99.4805 255.001 99.4805ZM262.29 99.4629C261.786 99.4629 261.372 99.6328 261.048 99.9727C260.723 100.312 260.542 100.762 260.503 101.32H263.983C263.971 100.762 263.811 100.312 263.503 99.9727C263.194 99.6328 262.79 99.4629 262.29 99.4629ZM263.954 103.365H264.962C264.809 103.912 264.499 104.34 264.03 104.648C263.565 104.957 262.989 105.111 262.301 105.111C261.426 105.111 260.733 104.818 260.221 104.232C259.71 103.643 259.454 102.848 259.454 101.848C259.454 100.852 259.712 100.057 260.227 99.4629C260.743 98.8691 261.434 98.5723 262.301 98.5723C263.153 98.5723 263.823 98.8555 264.311 99.4219C264.799 99.9883 265.044 100.764 265.044 101.748V102.135H260.503V102.182C260.53 102.807 260.706 103.303 261.03 103.67C261.358 104.037 261.79 104.221 262.325 104.221C263.141 104.221 263.684 103.936 263.954 103.365ZM266.596 105V98.6836H267.557V99.6211H267.65C267.744 99.3125 267.955 99.0605 268.283 98.8652C268.611 98.6699 268.984 98.5723 269.402 98.5723C269.594 98.5723 269.762 98.582 269.906 98.6016V99.6094C269.769 99.5703 269.555 99.5508 269.262 99.5508C268.781 99.5508 268.385 99.6953 268.072 99.9844C267.76 100.273 267.603 100.641 267.603 101.086V105H266.596Z" fill="black" fill-opacity="0.5"/>
<rect x="1.25" y="1.25" width="300.5" height="121.5" rx="10.75" stroke="black" stroke-opacity="0.2" stroke-width="1.5" stroke-dasharray="4 4"/>
</svg>
