<svg width="40" height="33" viewBox="0 0 40 33" fill="none" xmlns="http://www.w3.org/2000/svg">
<path d="M0 20C0 8.9543 8.95431 0 20 0C31.0457 0 40 8.95431 40 20V33H0V20Z" fill="#01C3CC"/>
<path d="M25.4 9C23.312 9 21.308 10.0594 20 11.7335C18.692 10.0594 16.688 9 14.6 9C10.904 9 8 12.1651 8 16.1935C8 21.1373 12.08 25.1657 18.26 31.2866L20 33L21.74 31.2736C27.92 25.1657 32 21.1373 32 16.1935C32 12.1651 29.096 9 25.4 9ZM20.12 29.3379L20 29.4687L19.88 29.3379C14.168 23.7008 10.4 19.9733 10.4 16.1935C10.4 13.5777 12.2 11.6158 14.6 11.6158C16.448 11.6158 18.248 12.9106 18.884 14.7025H21.128C21.752 12.9106 23.552 11.6158 25.4 11.6158C27.8 11.6158 29.6 13.5777 29.6 16.1935C29.6 19.9733 25.832 23.7008 20.12 29.3379Z" fill="#EBEBEB"/>
</svg>
